<?xml version="1.0" encoding="UTF-8"?>
<svg id="a" data-name="3 or more characters" xmlns="http://www.w3.org/2000/svg" viewBox="0 0 400 600">
  <defs>
    <style>
      .b {
        fill: #d8d6d6;
      }
    </style>
  </defs>
  <g>
    <path class="b" d="M125.14,205.49c0,15.26-12.37,27.63-27.63,27.63s-27.63-12.37-27.63-27.63,12.37-27.63,27.63-27.63,27.63,12.37,27.63,27.63Z"/>
    <path class="b" d="M40.13,310.41l22.88-26.92s9.13,26.01,9.13,35.28-5.05,9.59-11.9,22.81l-20.11-31.16ZM133.7,341.57c-6.84-13.22-11.53-13.54-11.53-22.81,0-9.27,9.13-35.28,9.13-35.28l22.52,26.92-20.11,31.16ZM101.67,413.11s0,157.62,0,164.31c0,10.16,16.43,11.07,18.68,1.4,1.41-6.07,21.91-164.24,24.01-197.12.53-8.27-1.2-17.05-4.16-25.35l33.67-32.01c8.35-7.8,6.13-18.94,2.78-23.39-3.34-4.45-35.96-42.89-40.97-49.01-5.01-6.13-16.32-7.8-23.01-7.8h-31.4c-6.68,0-17.99,1.67-23.01,7.8-5.01,6.13-37.63,44.56-40.97,49.01-3.34,4.46-5.57,15.6,2.78,23.39l33.67,32.01c-2.95,8.3-4.68,17.08-4.16,25.35,2.1,32.88,22.59,191.06,24.01,197.12,2.25,9.67,18.68,8.76,18.68-1.4v-164.31h9.38Z"/>
  </g>
  <g>
    <path class="b" d="M308.01,63.27c0,21.15-17.15,38.3-38.3,38.3s-38.3-17.15-38.3-38.3,17.15-38.3,38.3-38.3,38.3,17.15,38.3,38.3Z"/>
    <path class="b" d="M190.17,208.71l31.72-37.32s12.66,36.05,12.66,48.9-7.01,13.29-16.49,31.62l-27.88-43.2ZM319.88,251.91c-9.49-18.33-15.99-18.77-15.99-31.62,0-12.85,12.66-48.9,12.66-48.9l31.21,37.32-27.88,43.2ZM275.47,351.09s0,218.5,0,227.77c0,14.08,22.78,15.35,25.89,1.94,1.96-8.41,30.37-227.68,33.28-273.26.73-11.47-1.67-23.64-5.76-35.14l46.68-44.38c11.58-10.81,8.49-26.25,3.86-32.43-4.63-6.18-49.85-59.45-56.79-67.94-6.95-8.49-22.63-10.81-31.89-10.81h-43.53c-9.26,0-24.94,2.32-31.89,10.81-6.95,8.49-52.16,61.77-56.79,67.94-4.63,6.18-7.72,21.62,3.86,32.43l46.68,44.38c-4.09,11.51-6.49,23.67-5.76,35.14,2.91,45.58,31.32,264.85,33.28,273.26,3.12,13.41,25.89,12.14,25.89-1.94v-227.77h13Z"/>
  </g>
  <g>
    <circle class="b" cx="96.56" cy="43.56" r="31.48" transform="translate(2.8 92.86) rotate(-52.02)"/>
    <path class="b" d="M159.98,147.95v-54.37c0-6.55-5.31-11.86-11.86-11.86H45.82c-6.55,0-11.86,5.31-11.86,11.86v54.37h126.02Z"/>
  </g>
</svg>