<?xml version="1.0" encoding="UTF-8"?>
<svg id="a" data-name="torso" xmlns="http://www.w3.org/2000/svg" viewBox="0 0 400 600">
  <defs>
    <style>
      .b {
        fill: #d8d6d6;
      }
    </style>
  </defs>
  <path class="b" d="M73.45,601.83c-.9,7.91-1.7,16.19-2.39,24.48h257.89c-.69-8.28-1.49-16.57-2.39-24.48.81-.18,116.31-106.53,137.15-126.88,13.49-13.17,16.7-39.83,5.46-60.71-7.8-14.49-90.17-165.59-121.21-190.15-19.48-15.42-65.75-18.6-147.96-17.35-82.21-1.25-128.48,1.93-147.96,17.35-31.03,24.56-113.41,175.67-121.21,190.15-11.24,20.88-8.03,47.54,5.46,60.71,20.84,20.35,136.34,126.69,137.15,126.88ZM332.98,356.43c28.91,42.08,55.25,79.66,55.25,79.66,0,0-35.53,68.05-70.67,97.65,1.28-18.95,9.31-101.18,15.42-177.3ZM67.02,356.43c6.1,76.13,14.13,158.35,15.42,177.3-35.13-29.6-70.67-97.65-70.67-97.65,0,0,26.34-37.58,55.25-79.66Z"/>
  <circle class="b" cx="201.23" cy="101.9" r="82.39" transform="translate(-13.11 172.14) rotate(-45)"/>
</svg>