<?xml version="1.0" encoding="UTF-8"?>
<svg id="a" data-name="background minimal" xmlns="http://www.w3.org/2000/svg" viewBox="0 0 400 600">
  <defs>
    <style>
      .b {
        fill: #1c8fce;
      }

      .c {
        fill: #d8d6d6;
      }
    </style>
  </defs>
  <path class="b" d="M-20.82,446.7h441.65c3.86,0,3.87-6,0-6H-20.82c-3.86,0-3.87,6,0,6h0Z"/>
  <path class="c" d="M236.75,77.83c0,20-16.21,36.21-36.21,36.21s-36.21-16.21-36.21-36.21,16.21-36.21,36.21-36.21,36.21,16.21,36.21,36.21ZM148.34,267.6c-.56-8.33-4.09-44.46-6.78-77.92-12.7,18.49-24.28,35.01-24.28,35.01,0,0,15.61,29.9,31.05,42.91ZM282.72,224.69s-11.57-16.51-24.28-35.01c-2.68,33.45-6.21,69.59-6.78,77.92,15.44-13.01,31.05-42.91,31.05-42.91ZM196.61,334.88s-4.48,171.51-5.36,203.16c-.56,20.33-31.05,17.04-31.05,2.82s-17.5-184.63-18.07-204.11c-.24-8.26.65-25.14,2.26-39.24-.36-.08-51.11-46.81-60.27-55.76-5.93-5.79-7.34-17.5-2.4-26.68,3.43-6.37,39.63-72.77,53.26-83.56,8.56-6.78,28.89-8.17,65.02-7.62,36.13-.55,56.46.85,65.02,7.62,13.64,10.79,49.84,77.2,53.26,83.56,4.94,9.17,3.53,20.89-2.4,26.68-9.16,8.94-59.91,55.67-60.27,55.76,1.61,14.1,2.5,30.98,2.26,39.24-.56,19.48-18.07,189.89-18.07,204.11s-30.49,17.5-31.05-2.82c-.88-31.65-5.36-203.16-5.36-203.16h-6.78Z"/>
</svg>