<?xml version="1.0" encoding="UTF-8"?>
<svg id="a" data-name="1 character" xmlns="http://www.w3.org/2000/svg" viewBox="0 0 400 600">
  <defs>
    <style>
      .b {
        fill: #d8d6d6;
      }
    </style>
  </defs>
  <path class="b" d="M240.39,56.13c0,21.98-17.82,39.79-39.79,39.79s-39.79-17.82-39.79-39.79,17.82-39.79,39.79-39.79,39.79,17.82,39.79,39.79ZM143.22,264.69c-.62-9.15-4.5-48.87-7.45-85.63-13.96,20.32-26.68,38.47-26.68,38.47,0,0,17.16,32.87,34.13,47.16ZM290.91,217.53s-12.72-18.15-26.68-38.47c-2.95,36.77-6.83,76.48-7.45,85.63,16.97-14.29,34.13-47.16,34.13-47.16ZM196.28,338.63s-4.93,188.5-5.9,223.28c-.62,22.34-34.13,18.72-34.13,3.1s-19.24-202.91-19.86-224.32c-.26-9.08.72-27.63,2.48-43.13-.39-.09-56.17-51.45-66.24-61.28-6.52-6.36-8.07-19.24-2.64-29.32,3.77-7,43.55-79.97,58.54-91.84,9.41-7.45,31.76-8.98,71.46-8.38,39.7-.6,62.05.93,71.46,8.38,14.99,11.86,54.77,84.84,58.54,91.84,5.43,10.08,3.88,22.96-2.64,29.32-10.07,9.83-65.85,61.19-66.24,61.28,1.76,15.5,2.75,34.05,2.48,43.13-.62,21.41-19.86,208.7-19.86,224.32s-33.51,19.24-34.13-3.1c-.97-34.79-5.9-223.28-5.9-223.28h-7.45Z"/>
</svg>