<?xml version="1.0" encoding="UTF-8"?>
<svg id="a" data-name="1 full figure" xmlns="http://www.w3.org/2000/svg" viewBox="0 0 400 600">
  <defs>
    <style>
      .b {
        fill: #d8d6d6;
      }
    </style>
  </defs>
  <path class="b" d="M239.45,54.04c0,21.12-17.12,38.24-38.24,38.24s-38.24-17.12-38.24-38.24,17.12-38.24,38.24-38.24,38.24,17.12,38.24,38.24Z"/>
  <path class="b" d="M121.81,199.24l31.67-37.26s12.63,35.99,12.63,48.82-7,13.27-16.47,31.57l-27.83-43.13ZM251.31,242.37c-9.47-18.3-15.96-18.73-15.96-31.57s12.63-48.82,12.63-48.82l31.16,37.26-27.83,43.13ZM206.97,341.39s0,218.14,0,227.39c0,14.06,22.74,15.32,25.85,1.94,1.95-8.39,30.32-227.31,33.22-272.81.73-11.45-1.67-23.6-5.75-35.09l46.6-44.3c11.56-10.79,8.48-26.21,3.85-32.37-4.63-6.17-49.76-59.35-56.7-67.83-6.94-8.48-22.59-10.79-31.84-10.79h-43.46c-9.25,0-24.9,2.31-31.84,10.79-6.94,8.48-52.08,61.66-56.7,67.83-4.63,6.17-7.71,21.58,3.85,32.37l46.6,44.3c-4.09,11.49-6.48,23.64-5.75,35.09,2.9,45.5,31.27,264.42,33.22,272.81,3.11,13.39,25.85,12.12,25.85-1.94v-227.39h12.98Z"/>
</svg>