<?xml version="1.0" encoding="UTF-8"?>
<svg id="a" data-name="lettering" xmlns="http://www.w3.org/2000/svg" viewBox="0 0 400 600">
  <defs>
    <style>
      .b, .c, .d, .e, .f, .g, .h, .i, .j, .k, .l, .m {
        fill: none;
        stroke: #1c8fce;
        stroke-linecap: round;
        stroke-linejoin: round;
      }

      .b, .g, .j {
        stroke-width: 26px;
      }

      .n {
        fill: #1c8fce;
      }

      .c, .d, .e, .f, .h, .i, .k, .l, .m {
        stroke-width: 14px;
      }

      .d {
        stroke-dasharray: 12.32 18.06 13.14 18.06;
      }

      .o {
        fill: #d8d6d6;
      }

      .e {
        stroke-dasharray: 19.2 15.64 0 15.64;
      }

      .f {
        stroke-dasharray: 8.26 12.11 3.3 14.87 10.46 12.11;
      }

      .g {
        stroke-dasharray: 23.9 32.17 16.55 2.76;
      }

      .h {
        stroke-dasharray: 27.19 22.15 0 22.15;
      }

      .i {
        stroke-dasharray: 5.11 18.74 0 18.74;
      }

      .j {
        stroke-dasharray: 1.84 22.98 23.9 32.17 16.55 2.76;
      }

      .k {
        stroke-dasharray: 3.56 15.64 19.2 15.64 0 15.64;
      }

      .l {
        stroke-dasharray: 3.3 14.87 10.46 12.11;
      }

      .m {
        stroke-dasharray: 5.26 23.12 0 23.12;
      }
    </style>
  </defs>
  <g>
    <line class="c" x1="225.84" y1="473.33" x2="233.34" y2="473.33"/>
    <line class="l" x1="245.46" y1="473.33" x2="280.14" y2="473.33"/>
    <line class="f" x1="286.2" y1="473.33" x2="341.26" y2="473.33"/>
    <line class="c" x1="347.31" y1="473.33" x2="354.81" y2="473.33"/>
  </g>
  <g>
    <line class="c" x1="225.84" y1="503.7" x2="228.34" y2="503.7"/>
    <line class="e" x1="243.99" y1="503.7" x2="286.65" y2="503.7"/>
    <line class="k" x1="294.48" y1="503.7" x2="356.34" y2="503.7"/>
    <line class="c" x1="364.17" y1="503.7" x2="366.67" y2="503.7"/>
  </g>
  <g>
    <line class="c" x1="225.84" y1="534.07" x2="234.84" y2="534.07"/>
    <line class="i" x1="253.59" y1="534.07" x2="286.81" y2="534.07"/>
    <line class="c" x1="296.19" y1="534.07" x2="305.19" y2="534.07"/>
  </g>
  <path class="o" d="M180.68,114.13c0,20-16.21,36.21-36.21,36.21s-36.21-16.21-36.21-36.21,16.21-36.21,36.21-36.21,36.21,16.21,36.21,36.21ZM92.27,303.9c-.56-8.33-4.09-44.46-6.78-77.92-12.7,18.49-24.28,35.01-24.28,35.01,0,0,15.61,29.9,31.05,42.91ZM226.65,260.99s-11.57-16.51-24.28-35.01c-2.68,33.45-6.21,69.59-6.78,77.92,15.44-13.01,31.05-42.91,31.05-42.91ZM140.55,371.18s-4.48,171.51-5.36,203.16c-.56,20.33-31.05,17.04-31.05,2.82s-17.5-184.63-18.07-204.11c-.24-8.26.65-25.14,2.26-39.24-.36-.08-51.11-46.81-60.27-55.76-5.93-5.79-7.34-17.5-2.4-26.68,3.43-6.37,39.63-72.77,53.26-83.56,8.56-6.78,28.89-8.17,65.02-7.62,36.13-.55,56.46.85,65.02,7.62,13.64,10.79,49.84,77.2,53.26,83.56,4.94,9.17,3.53,20.89-2.4,26.68-9.16,8.94-59.91,55.67-60.27,55.76,1.61,14.1,2.5,30.98,2.26,39.24-.56,19.48-18.07,189.89-18.07,204.11s-30.49,17.5-31.05-2.82c-.88-31.65-5.36-203.16-5.36-203.16h-6.78Z"/>
  <path class="n" d="M-16.3,59.67h429.33c3.86,0,3.87-6,0-6H-16.3c-3.86,0-3.87,6,0,6h0Z"/>
  <path class="n" d="M349.8,58.7c19,15.64,29.11,39.76,25.86,64.32-2.8,21.18-15.51,40.29-33.86,51.19-38.44,22.83-89.89,3.08-103.07-39.66-8.14-26.37.19-54.92,20.46-73.42,2.86-2.61-1.39-6.84-4.24-4.24-19.42,17.72-28.63,44.09-24.2,70.04,3.9,22.84,18.74,43.17,39.14,54.07,20.73,11.08,45.87,11.9,67.31,2.32s37.21-28.64,42.79-51.08c7.12-28.65-3.23-59.1-25.95-77.79-2.96-2.44-7.23,1.79-4.24,4.24h0Z"/>
  <g>
    <path class="c" d="M257.12,87.78h2.5"/>
    <path class="h" d="M281.76,87.78h60.43"/>
    <path class="c" d="M353.26,87.78h2.5"/>
  </g>
  <g>
    <path class="c" d="M263.7,116.67h7.5"/>
    <path class="m" d="M294.33,116.67h39.94"/>
    <path class="c" d="M345.83,116.67h7.5"/>
  </g>
  <g>
    <path class="c" d="M266.66,145.56h2.5"/>
    <path class="d" d="M287.22,145.56h52.55"/>
    <path class="c" d="M348.8,145.56h2.5"/>
  </g>
  <g>
    <line class="b" x1="38.52" y1="26.3" x2="39.52" y2="26.3"/>
    <line class="g" x1="62.5" y1="26.3" x2="136.49" y2="26.3"/>
    <line class="j" x1="137.87" y1="26.3" x2="336.88" y2="26.3"/>
    <line class="b" x1="338.26" y1="26.3" x2="339.26" y2="26.3"/>
  </g>
  <path class="n" d="M195.56,115.22h37.04c3.86,0,3.87-6,0-6h-37.04c-3.86,0-3.87,6,0,6h0Z"/>
</svg>