<?xml version="1.0" encoding="UTF-8"?>
<svg id="a" data-name="2 characters" xmlns="http://www.w3.org/2000/svg" viewBox="0 0 400 600">
  <defs>
    <style>
      .b {
        fill: #d8d6d6;
      }
    </style>
  </defs>
  <g>
    <path class="b" d="M135.74,133.56c0,16.31-13.22,29.53-29.53,29.53s-29.53-13.22-29.53-29.53,13.22-29.53,29.53-29.53,29.53,13.22,29.53,29.53Z"/>
    <path class="b" d="M44.88,245.7l24.46-28.78s9.76,27.8,9.76,37.71-5.4,10.25-12.72,24.38l-21.5-33.31ZM144.89,279.01c-7.31-14.13-12.33-14.47-12.33-24.38,0-9.91,9.76-37.71,9.76-37.71l24.07,28.78-21.5,33.31ZM110.65,355.48s0,168.48,0,175.62c0,10.86,17.56,11.83,19.97,1.5,1.51-6.48,23.42-175.55,25.66-210.7.56-8.84-1.29-18.22-4.44-27.1l35.99-34.22c8.93-8.33,6.55-20.24,2.98-25-3.57-4.76-38.43-45.84-43.79-52.39-5.36-6.55-17.45-8.33-24.59-8.33h-33.57c-7.14,0-19.23,1.79-24.59,8.33-5.36,6.55-40.22,47.62-43.79,52.39-3.57,4.76-5.95,16.67,2.98,25l35.99,34.22c-3.16,8.87-5.01,18.25-4.44,27.1,2.24,35.14,24.15,204.21,25.66,210.7,2.41,10.34,19.97,9.36,19.97-1.5v-175.62h10.03Z"/>
  </g>
  <path class="b" d="M312.72,111.35c0,18.26-14.8,33.06-33.06,33.06s-33.06-14.8-33.06-33.06,14.8-33.06,33.06-33.06,33.06,14.8,33.06,33.06ZM232,284.61c-.52-7.6-3.74-40.6-6.19-71.14-11.6,16.88-22.17,31.96-22.17,31.96,0,0,14.26,27.3,28.35,39.18ZM354.69,245.43s-10.57-15.08-22.17-31.96c-2.45,30.54-5.67,63.54-6.19,71.14,14.1-11.88,28.35-39.18,28.35-39.18ZM276.08,346.04s-4.09,156.59-4.9,185.49c-.52,18.56-28.35,15.55-28.35,2.58s-15.98-168.57-16.5-186.35c-.22-7.54.6-22.95,2.06-35.83-.33-.07-46.67-42.74-55.03-50.91-5.41-5.28-6.7-15.98-2.19-24.36,3.13-5.81,36.18-66.44,48.63-76.29,7.82-6.19,26.38-7.46,59.37-6.96,32.98-.5,51.55.77,59.37,6.96,12.45,9.86,45.5,70.48,48.63,76.29,4.51,8.38,3.22,19.07-2.19,24.36-8.36,8.16-54.7,50.83-55.03,50.91,1.47,12.88,2.28,28.28,2.06,35.83-.52,17.78-16.5,173.38-16.5,186.35,0,12.98-27.84,15.98-28.35-2.58-.8-28.9-4.9-185.49-4.9-185.49h-6.19Z"/>
</svg>