<?xml version="1.0" encoding="UTF-8"?>
<svg id="a" data-name="background detailed" xmlns="http://www.w3.org/2000/svg" viewBox="0 0 400 600">
  <defs>
    <style>
      .b {
        fill: #1c8fce;
      }

      .c {
        fill: #d8d6d6;
      }
    </style>
  </defs>
  <path class="b" d="M-20.82,446.7h306.75c3.86,0,3.87-6,0-6H-20.82c-3.86,0-3.87,6,0,6h0Z"/>
  <path class="b" d="M-9.63,312.26h102.96l-3-3v60c0,1.62,1.37,3,3,3h217.04c1.62,0,3-1.37,3-3v-125.93l-3,3h54.81c1.62,0,3-1.37,3-3V92.22l-3,3h51.11c3.86,0,3.87-6,0-6h-51.11c-1.62,0-3,1.37-3,3v151.11l3-3h-54.81c-1.62,0-3,1.37-3,3v125.93l3-3H93.33l3,3v-60c0-1.62-1.37-3-3-3H-9.63c-3.86,0-3.87,6,0,6h0Z"/>
  <g>
    <path class="c" d="M237.15,78.25c0,19.04-16.32,34.48-36.45,34.48s-36.45-15.44-36.45-34.48,16.32-34.48,36.45-34.48,36.45,15.44,36.45,34.48Z"/>
    <path class="c" d="M125.01,209.19l30.19-33.6s12.04,32.45,12.04,44.03-6.67,11.96-15.7,28.47l-26.53-38.89ZM248.45,248.08c-9.03-16.5-15.21-16.89-15.21-28.47,0-11.57,12.04-44.03,12.04-44.03l29.7,33.6-26.53,38.89ZM206.19,337.36s0,196.71,0,205.05c0,12.68,21.67,13.82,24.64,1.75,1.86-7.57,28.9-204.97,31.67-246.01.7-10.33-1.59-21.28-5.48-31.64l44.42-39.95c11.02-9.73,8.08-23.63,3.67-29.19-4.41-5.56-47.44-53.52-54.05-61.17-6.61-7.64-21.53-9.73-30.35-9.73h-41.43c-8.81,0-23.74,2.09-30.35,9.73-6.61,7.64-49.64,55.61-54.05,61.17-4.41,5.56-7.35,19.46,3.67,29.19l44.42,39.95c-3.89,10.36-6.18,21.31-5.48,31.64,2.76,41.03,29.81,238.44,31.67,246.01,2.97,12.07,24.64,10.93,24.64-1.75v-205.05h12.38Z"/>
  </g>
  <path class="b" d="M423.7,332.93h-82.22l3,3v-56.3l-3,3h82.22l-3-3v56.3c0,3.86,6,3.87,6,0v-56.3c0-1.62-1.37-3-3-3h-82.22c-1.62,0-3,1.37-3,3v56.3c0,1.62,1.37,3,3,3h82.22c3.86,0,3.87-6,0-6Z"/>
  <path class="b" d="M448.89,519.59h-159.26l3,3v-111.11l-3,3h159.26l-3-3v111.11c0,3.86,6,3.87,6,0v-111.11c0-1.62-1.37-3-3-3h-159.26c-1.62,0-3,1.37-3,3v111.11c0,1.62,1.37,3,3,3h159.26c3.86,0,3.87-6,0-6Z"/>
  <path class="b" d="M54.07,406.26H-13.33l3,3v-62.22l-3,3H54.07l-3-3v62.22c0,3.86,6,3.87,6,0v-62.22c0-1.62-1.37-3-3-3H-13.33c-1.62,0-3,1.37-3,3v62.22c0,1.62,1.37,3,3,3H54.07c3.86,0,3.87-6,0-6Z"/>
  <path class="b" d="M116.26,41.85c-.27,29.39-18.6,56.55-46.44,66.7-28.08,10.24-60.13,1.67-79.3-21.27C-28.58,64.44-31.12,30.94-15.85,5.42-.51-20.21,30.17-33.86,59.48-27.79c32.9,6.81,56.47,36.23,56.78,69.64.04,3.86,6.04,3.87,6,0-.3-32.22-20.47-61.38-50.85-72.49C41.28-41.65,6.23-32.07-14.15-7.32c-20.64,25.06-23.51,61.4-6.54,89.21,16.64,27.29,49.06,41.56,80.44,35.66,36.1-6.78,62.18-39.28,62.52-75.69.04-3.86-5.96-3.87-6,0Z"/>
</svg>