<?xml version="1.0" encoding="UTF-8"?>
<svg id="a" data-name="2 full figures" xmlns="http://www.w3.org/2000/svg" viewBox="0 0 400 600">
  <defs>
    <style>
      .b {
        fill: #d8d6d6;
      }
    </style>
  </defs>
  <g>
    <path class="b" d="M329.92,44.17c0,16.31-13.22,29.52-29.52,29.52s-29.52-13.22-29.52-29.52,13.22-29.52,29.52-29.52,29.52,13.22,29.52,29.52Z"/>
    <path class="b" d="M239.1,156.27l24.45-28.77s9.75,27.79,9.75,37.69-5.4,10.24-12.71,24.37l-21.49-33.3ZM339.08,189.57c-7.31-14.13-12.32-14.46-12.32-24.37,0-9.91,9.75-37.69,9.75-37.69l24.06,28.77-21.49,33.3ZM304.85,266.02s0,168.42,0,175.56c0,10.86,17.55,11.83,19.96,1.5,1.51-6.48,23.41-175.49,25.65-210.63.56-8.84-1.29-18.22-4.44-27.09l35.98-34.21c8.93-8.33,6.55-20.23,2.97-25-3.57-4.76-38.42-45.82-43.78-52.37-5.36-6.55-17.44-8.33-24.58-8.33h-33.55c-7.14,0-19.23,1.79-24.58,8.33-5.36,6.55-40.21,47.61-43.78,52.37-3.57,4.76-5.95,16.66,2.97,25l35.98,34.21c-3.15,8.87-5,18.25-4.44,27.09,2.24,35.13,24.14,204.15,25.65,210.63,2.4,10.33,19.96,9.36,19.96-1.5v-175.56h10.02Z"/>
  </g>
  <path class="b" d="M165.72,134.86c0,18.43-14.94,33.36-33.36,33.36s-33.36-14.94-33.36-33.36,14.94-33.36,33.36-33.36,33.36,14.94,33.36,33.36ZM84.25,309.71c-.52-7.67-3.77-40.97-6.24-71.79-11.71,17.04-22.37,32.25-22.37,32.25,0,0,14.39,27.55,28.61,39.54ZM208.07,270.17s-10.66-15.22-22.37-32.25c-2.47,30.82-5.72,64.12-6.24,71.79,14.23-11.98,28.61-39.54,28.61-39.54ZM128.73,371.71s-4.13,158.03-4.94,187.2c-.52,18.73-28.61,15.7-28.61,2.6s-16.13-170.12-16.65-188.06c-.22-7.61.6-23.16,2.08-36.16-.33-.07-47.09-43.13-55.53-51.37-5.46-5.33-6.76-16.13-2.21-24.58,3.16-5.87,36.51-67.05,49.08-76.99,7.89-6.24,26.62-7.53,59.91-7.02,33.29-.51,52.02.78,59.91,7.02,12.57,9.95,45.92,71.13,49.08,76.99,4.55,8.45,3.25,19.25-2.21,24.58-8.44,8.24-55.21,51.3-55.53,51.37,1.48,12.99,2.3,28.54,2.08,36.16-.52,17.95-16.65,174.97-16.65,188.06,0,13.1-28.09,16.13-28.61-2.6-.81-29.16-4.94-187.2-4.94-187.2h-6.24Z"/>
</svg>