<?xml version="1.0" encoding="UTF-8"?>
<svg id="a" data-name="cover recreation" xmlns="http://www.w3.org/2000/svg" viewBox="0 0 400 600">
  <defs>
    <style>
      .b, .c, .d, .e, .f, .g, .h, .i {
        fill: none;
        stroke: #1c8fce;
        stroke-linecap: round;
        stroke-linejoin: round;
      }

      .b, .d, .e {
        stroke-width: 26px;
      }

      .j {
        fill: #1c8fce;
      }

      .c, .f, .g, .h, .i {
        stroke-width: 14px;
      }

      .d {
        stroke-dasharray: 2.25 28.09 29.21 39.32 20.22 3.37;
      }

      .e {
        stroke-dasharray: 29.21 39.32 20.22 3.37;
      }

      .k {
        fill: #d8d6d6;
      }

      .f {
        stroke-dasharray: 19.2 15.64 0 15.64;
      }

      .g {
        stroke-dasharray: 8.26 12.11 3.3 14.87 10.46 12.11;
      }

      .h {
        stroke-dasharray: 3.56 15.64 19.2 15.64 0 15.64;
      }

      .i {
        stroke-dasharray: 3.3 14.87 10.46 12.11;
      }
    </style>
  </defs>
  <path class="j" d="M374.07,564.04h-216.3l3,3v-67.41l-3,3h216.3l-3-3v67.41c0,3.86,6,3.87,6,0v-67.41c0-1.62-1.37-3-3-3h-216.3c-1.62,0-3,1.37-3,3v67.41c0,1.62,1.37,3,3,3h216.3c3.86,0,3.87-6,0-6Z"/>
  <path class="j" d="M378.67,62.25h-36.91l3,3V18.16l-3,3h36.91l-3-3v47.09c0,3.86,6,3.87,6,0V18.16c0-1.62-1.37-3-3-3h-36.91c-1.62,0-3,1.37-3,3v47.09c0,1.62,1.37,3,3,3h36.91c3.86,0,3.87-6,0-6Z"/>
  <path class="j" d="M-9.53,56.56h333.29c4.46,0,9.14.41,13.59,0,.19-.02.39,0,.59,0,3.86,0,3.87-6,0-6H4.65c-4.46,0-9.14-.41-13.59,0-.19.02-.39,0-.59,0-3.86,0-3.87,6,0,6h0Z"/>
  <path class="j" d="M381.21,56.56h33.09c3.86,0,3.87-6,0-6h-33.09c-3.86,0-3.87,6,0,6h0Z"/>
  <path class="j" d="M74.02,56.96v47.52l3-3H-6.98c-3.86,0-3.87,6,0,6h84c1.62,0,3-1.37,3-3v-47.52c0-3.86-6-3.87-6,0h0Z"/>
  <path class="j" d="M32.02,55.68v48.79c0,3.86,6,3.87,6,0v-48.79c0-3.86-6-3.87-6,0h0Z"/>
  <path class="k" d="M283,227.23c0,10.25-8.31,18.56-18.56,18.56s-18.56-8.31-18.56-18.56,8.31-18.56,18.56-18.56,18.56,8.31,18.56,18.56ZM237.68,324.51c-.29-4.27-2.1-22.79-3.47-39.94-6.51,9.48-12.45,17.95-12.45,17.95,0,0,8.01,15.33,15.92,22ZM306.57,302.52s-5.93-8.47-12.45-17.95c-1.37,17.15-3.18,35.67-3.47,39.94,7.91-6.67,15.92-22,15.92-22ZM262.43,359.01s-2.3,87.93-2.75,104.15c-.29,10.42-15.92,8.73-15.92,1.45s-8.97-94.65-9.26-104.64c-.12-4.24.33-12.89,1.16-20.12-.18-.04-26.2-24-30.9-28.58-3.04-2.97-3.76-8.97-1.23-13.68,1.76-3.26,20.31-37.3,27.31-42.84,4.39-3.47,14.81-4.19,33.33-3.91,18.52-.28,28.94.43,33.33,3.91,6.99,5.53,25.55,39.57,27.31,42.84,2.53,4.7,1.81,10.71-1.23,13.68-4.7,4.58-30.72,28.54-30.9,28.58.82,7.23,1.28,15.88,1.16,20.12-.29,9.99-9.26,97.35-9.26,104.64,0,7.29-15.63,8.97-15.92-1.45-.45-16.23-2.75-104.15-2.75-104.15h-3.47Z"/>
  <g>
    <line class="c" x1="186.64" y1="520.6" x2="194.14" y2="520.6"/>
    <line class="i" x1="206.25" y1="520.6" x2="240.94" y2="520.6"/>
    <line class="g" x1="246.99" y1="520.6" x2="302.05" y2="520.6"/>
    <line class="c" x1="308.11" y1="520.6" x2="315.61" y2="520.6"/>
  </g>
  <g>
    <line class="c" x1="203.18" y1="543.34" x2="205.68" y2="543.34"/>
    <line class="f" x1="221.33" y1="543.34" x2="263.99" y2="543.34"/>
    <line class="h" x1="271.82" y1="543.34" x2="333.68" y2="543.34"/>
    <line class="c" x1="341.51" y1="543.34" x2="344.01" y2="543.34"/>
  </g>
  <g>
    <line class="b" x1="51.57" y1="28.09" x2="52.57" y2="28.09"/>
    <line class="e" x1="80.65" y1="28.09" x2="171.09" y2="28.09"/>
    <line class="d" x1="172.78" y1="28.09" x2="293.55" y2="28.09"/>
    <line class="b" x1="295.24" y1="28.09" x2="296.24" y2="28.09"/>
  </g>
  <g>
    <path class="j" d="M147.48,155.78c.37,5.16-19.97,4.73-23.88,4.7s-7.88-.18-11.81-.34c-2.29-.09-4.58-.21-6.87-.34-1.04-.06-4.4.36-5.24-.33-1.45-1.18-.41-8.19-.44-9.87-.07-4.2-.08-8.41-.09-12.61,0-8.69.04-17.37-.06-26.06-.05-4.19-.12-8.38-.26-12.56-.07-1.95-.15-3.9-.25-5.85-.1-2.07-.93-5.28-.42-7.27l-.03-1.22c1.26-1.27,2.75-1.9,4.45-1.9,1.57-.37,3.29-.45,4.9-.63,1.96-.23,4.68-.93,6.63-.56l1.72-.06c1.36,1.22,1.88,2.67,1.56,4.35.9,7.42-.95,15.78-1.41,23.22-.53,8.6-.84,17.17-.17,25.77.09,1.14.75,2.25,1.93,2.53,8.26,2.02,16.43,1.38,24.83.99,2.97-.14,3.27.08,3.59,2.91.21,1.78-.1,3.73.05,5.55.29,3.44.86,6.87,1.36,10.29s5.56,1.92,5.07-1.4c-.67-4.51-1.55-9.13-1.27-13.7.19-3.03.73-5.89-2.15-7.85-3.36-2.29-8.81-.91-12.53-.71-5.93.32-11.75.28-17.56-1.14l1.93,2.53c-.72-9.2-.31-18.39.29-27.59.52-8.01,2.67-17.52,1.1-25.46-1.45-7.31-9.37-5.59-14.97-4.93-4.54.54-12.8-.03-14.33,5.57-.91,3.31.01,7.36.18,10.72.24,4.85.38,9.7.46,14.55.16,9.65.12,19.3.12,28.95,0,4.53.01,9.05.09,13.57.06,3.49-.35,7.4.29,10.85,1.08,5.83,9.16,4.54,13.59,4.76,10.27.52,20.6.98,30.82-.38,5.62-.75,14.6-1.36,14.06-9.05-.24-3.35-5.49-3.38-5.26,0Z"/>
    <g>
      <path class="j" d="M215.33,148.24c-10.37,12.46-28.05,14.67-42.62,8.7s-23.71-21.83-21.57-37.35,10.06-31.93,25.88-36.63c8.07-2.4,17.07-3.37,25.26-1.01s12.65,7.77,16.48,14.98c9.03,17.02,7.91,36.47-3.84,51.83-2.05,2.69,2.51,5.31,4.54,2.65,11.94-15.61,13.68-35.57,5.66-53.4-3.42-7.61-8.13-15.35-15.92-19.05-8.55-4.06-18.35-4.27-27.51-2.53-8.91,1.69-16.86,4.96-22.82,11.98s-9.7,15.93-11.86,24.9c-4.25,17.59,2.36,35.72,17.91,45.55,16.69,10.54,41.26,8.55,54.12-6.91,2.15-2.58-1.55-6.32-3.72-3.72Z"/>
      <path class="j" d="M205.17,113.88c-1.34-10.03-10.64-16.99-20.77-13.71s-14.88,15.57-12.1,24.96c2.81,9.49,10.17,16.95,20.61,13.43,9.84-3.31,12.59-15.59,12.25-24.69-.12-3.37-5.38-3.39-5.26,0,.22,5.91-.59,12.75-4.93,17.21-2.43,2.5-6.22,3.7-9.68,2.89-3.09-.73-4.95-3.59-6.31-6.24-3.27-6.37-2.86-13.17,1.83-18.71,5.97-7.04,17.77-4.96,19.08,4.85.44,3.3,5.7,3.35,5.26,0Z"/>
    </g>
    <path class="j" d="M296.11,155.89c.59,6.01-16.66,4.06-20.82,3.84-7.15-.37-15.59-.04-22.32-2.59-13.88-5.26-20.96-18.83-21.09-32.96-.13-14.4,3.36-28.01,15.44-37.02,10.83-8.08,27.18-9.03,38.64-1.7,2.49,1.59,5.04,3.58,6.93,5.88,3.06,3.7.82,7.21-1.33,10.62s-3.94,3.85-7.58,1.86c-2.25-1.23-4.66-2.36-7.16-2.97-9.28-2.29-19.83,2.49-23.42,11.37-3.6,8.88-1.74,22.09,7.14,27.33,4.89,2.89,21.47,3.59,17.4-6.44-.77-1.88-2.51-2.99-4.18-4-1.81-1.1-4.36-1.43-4.48-4.25-.15-3.34,2.55-3.04,4.7-3.07,5.44-.08,11.44.44,16.88.83.85.06,2.78,0,3.38.32,1.39.75,1.07,2.83,1.21,4.71.27,3.4.17,6.84.03,10.25-.26,6.26-.59,12.52.72,18.69.7,3.31,5.77,1.91,5.07-1.4-1.5-7.05-.47-14.34-.41-21.48.03-4.03.96-12.58-3.18-15.17-3.91-2.45-10.91-1.29-15.29-1.38-4.87-.11-11.3-2.09-15.65,1-3.94,2.8-3.3,8.43-.65,11.93.71.94,1.55,1.85,2.56,2.48.8.5,3.88,1.33,4.09,2.13.7,2.6-5.82,1.6-6.91,1.34-2.46-.59-4.45-2.16-5.9-4.22-4.42-6.26-4.47-18.57,2.45-23.2,7.36-4.93,14.38-2.73,21.39,1.17,4.46,2.48,7.42,1.46,10.58-2.59s6.89-10.04,4.96-15.34c-1.98-5.43-8.43-9.95-13.37-12.48-6.17-3.16-13.17-4.33-20.05-3.99-14.15.7-26.03,8.55-33.24,20.62-6.75,11.29-8.17,28.41-4.59,40.99,4.28,15.03,18.04,25.7,33.29,26.99,9.3.79,18.61,1.46,27.95,1.04,5.87-.26,12.77-1.81,12.06-9.14-.33-3.34-5.58-3.37-5.26,0Z"/>
    <g>
      <path class="j" d="M366.37,148.24c-10.37,12.46-28.05,14.67-42.62,8.7s-23.71-21.83-21.57-37.35c2.13-15.45,10.06-31.93,25.88-36.63,8.07-2.4,17.07-3.37,25.26-1.01s12.65,7.77,16.48,14.98c9.03,17.02,7.91,36.47-3.84,51.83-2.05,2.69,2.51,5.31,4.54,2.65,11.94-15.61,13.68-35.57,5.66-53.4-3.42-7.61-8.13-15.35-15.92-19.05-8.55-4.06-18.35-4.27-27.51-2.53s-16.86,4.96-22.82,11.98-9.7,15.93-11.86,24.9c-4.25,17.59,2.36,35.72,17.91,45.55,16.69,10.54,41.26,8.55,54.12-6.91,2.15-2.58-1.55-6.32-3.72-3.72Z"/>
      <path class="j" d="M356.21,113.88c-1.34-10.03-10.64-16.99-20.77-13.71s-14.88,15.57-12.1,24.96,10.17,16.95,20.61,13.43c9.84-3.31,12.59-15.59,12.25-24.69-.12-3.37-5.38-3.39-5.26,0,.22,5.91-.59,12.75-4.93,17.21-2.43,2.5-6.22,3.7-9.68,2.89-3.09-.73-4.95-3.59-6.31-6.24-3.27-6.37-2.86-13.17,1.83-18.71,5.97-7.04,17.77-4.96,19.08,4.85.44,3.3,5.7,3.35,5.26,0Z"/>
    </g>
  </g>
  <g>
    <path class="k" d="M135.71,167.44c0,14.67-12.57,26.56-28.07,26.56s-28.07-11.89-28.07-26.56,12.57-26.56,28.07-26.56,28.07,11.89,28.07,26.56Z"/>
    <path class="k" d="M49.34,268.29l23.25-25.88s9.28,25,9.28,33.91-5.14,9.21-12.09,21.92l-20.44-29.95ZM144.42,298.25c-6.95-12.71-11.72-13.01-11.72-21.92,0-8.91,9.28-33.91,9.28-33.91l22.88,25.88-20.44,29.95ZM111.86,367.02s0,151.51,0,157.93c0,9.77,16.69,10.64,18.98,1.35,1.43-5.83,22.26-157.88,24.39-189.48.54-7.95-1.22-16.39-4.22-24.37l34.22-30.77c8.49-7.49,6.22-18.2,2.83-22.49-3.4-4.28-36.54-41.22-41.63-47.11-5.09-5.89-16.59-7.49-23.38-7.49h-31.91c-6.79,0-18.28,1.61-23.38,7.49-5.09,5.89-38.23,42.83-41.63,47.11-3.4,4.28-5.66,14.99,2.83,22.49l34.22,30.77c-3,7.98-4.76,16.42-4.22,24.37,2.13,31.6,22.96,183.65,24.39,189.48,2.29,9.3,18.98,8.42,18.98-1.35v-157.93h9.53Z"/>
  </g>
</svg>