<?xml version="1.0" encoding="UTF-8"?>
<svg xmlns="http://www.w3.org/2000/svg" viewBox="0 0 512 512">
	<defs>
		<style>
			.icon-fill {
        		fill: #1d477f;
				opacity: 1;
			}
		</style>
	</defs>
	<path class="icon-fill" d="M80.6,80.6c96.9-96.9,253.9-96.9,350.7,0,96.9,96.9,96.9,253.9,0,350.7-96.9,96.9-253.9,96.9-350.7,0-96.9-96.9-96.9-253.9,0-350.7ZM205.1,369.1l82-82,50.1,50.1c7.6,7.6,20.6,2.2,20.5-8.5l-.4-162.1c0-6.6-5.3-12-12-12l-162.1-.4c-10.7,0-16.1,12.9-8.5,20.5l50.1,50.1-82,82c-4.7,4.7-4.7,12.3,0,17l45.3,45.3c4.7,4.7,12.3,4.7,17,0Z"/>
</svg>