<?xml version="1.0" encoding="UTF-8"?>
<svg xmlns="http://www.w3.org/2000/svg" viewBox="0 0 512 512">
	<defs>
		<style>
			.icon-fill {
        		fill: #1d477f;
				opacity: 1;
			}
		</style>
	</defs>
	<path class="icon-fill" d="M192.9,349.9l-28.3-28.3c-4.7-4.7-4.7-12.3,0-17l223.5-223.5-47.4-47.4c-7.6-7.6-2.2-20.4,8.5-20.5h140c6.6,0,12,5.4,12,12v140c0,10.7-12.9,16.1-20.5,8.5l-47.4-47.4-223.5,223.5c-4.7,4.7-12.3,4.7-17,0Z"/>
	<path class="icon-fill" d="M415.7,188.9l-46.9,46.9c6.1,16.7,9.4,34.7,9.4,53.4,0,86-69.6,155.6-155.6,155.6s-155.6-69.6-155.6-155.6,69.6-155.6,155.6-155.6,39.8,3.9,57.6,11l46.5-46.5c-30.9-16.9-66.4-26.5-104.1-26.5C102.4,71.6,5,169,5,289.2s97.4,217.6,217.6,217.6,217.6-97.4,217.6-217.6-8.8-70.3-24.5-100.4Z"/>
</svg>