<?xml version="1.0" encoding="UTF-8"?>
<svg id="Layer_1" xmlns="http://www.w3.org/2000/svg" version="1.1" viewBox="0 0 384 512">
  <!-- Generator: Adobe Illustrator 29.3.1, SVG Export Plug-In . SVG Version: 2.1.0 Build 151)  -->
  	<defs>
		<style>
			.icon-fill {
				fill: #1d477f;
				opacity: 1;
			}
		</style>
	</defs>
	<path class="icon-fill" d="M136,416h192c13.3,0,24,10.7,24,24v48c0,13.3-10.7,24-24,24h-192c-13.3,0-24-10.7-24-24v-48c0-13.3,10.7-24,24-24ZM304,444c-11,0-20,9-20,20s9,20,20,20,20-9,20-20-9-20-20-20ZM266,139c22.8-14.3,58-3,61,26,49.1-9,57,24.3,57,75s-.2,13.3-.2,16c.2,62-31.1,76.9-38.3,123.7-1.8,11.7-11.9,20.3-23.7,20.3h-171.5c-18.4,0-35.9-10.6-43.8-28.5-13-28.9-49-95.4-77.3-107.5C10.9,256.2,0,242.6,0,224c0-34.2,35.1-57.8,66.9-44.1,8.4,3.6,16.7,8.3,24.9,14.2v-23c0-23.5,20.5-47,43.8-47s35.3,7,44.2,19l.4-98C180.3,21.5,200.8.2,224.1.2s43.8,20.6,43.8,44.8l-1.9,94Z"/>
</svg>