<?xml version="1.0" encoding="UTF-8"?>
<svg id="Layer_1" data-name="Layer 1" xmlns="http://www.w3.org/2000/svg" version="1.1" viewBox="0 0 60 60">
  <defs>
    <style>
      .cls-1 {
        fill: #1d477f;
        fill-rule: evenodd;
        stroke-width: 0px;
      }
    </style>
  </defs>
  <path class="cls-1" d="M14.9,38.4c1.1,2.6,2.9,4.8,5.3,6.4,5.9,4,13.7,4,19.6,0,2.3-1.6,4.2-3.8,5.4-6.4,2.6-6.1,2.1-16.6-.8-22.6-.8-1.6-1.7-2.8-3.3-5.6-1.3-2.2-1.9-4.2.4-6,1.8-1.4,4-2.1,6.2-2.1s3.4,1.5,4.1,3.4c.5,1.3,1,3.8.7,5.1-.2.7-.5.9-.8,1.4-.3.7,0,1.4.5,2.3,7.4,14.4,5,31.5-7.2,39.2-7.7,4.9-18.8,5.4-27.1,1.6C3.2,48.6-.2,30,7.8,14.4c.5-.9.9-1.6.5-2.3-.2-.5-.6-.6-.7-1.4-.3-1.4.2-3.9.7-5.1.7-1.9,2-3.3,4.1-3.4,2.3,0,4.4.7,6.2,2.1,2.2,1.8,1.6,3.8.4,6-1.5,2.8-2.5,4-3.3,5.6-2.9,6-3.5,16.5-.8,22.6h0ZM13.5,7.8c.8,0,1.5.7,1.5,1.5s-.7,1.5-1.5,1.5-1.5-.7-1.5-1.5h0c0-.8.7-1.5,1.5-1.5h0ZM30,50.6c.9,0,1.7.7,1.7,1.6s-.7,1.7-1.6,1.7-1.7-.7-1.7-1.6h0c0-.9.7-1.7,1.6-1.7h0ZM48.5,41.9c.9,0,1.7.7,1.7,1.7s-.7,1.7-1.7,1.7-1.7-.7-1.7-1.7h0c0-.9.7-1.7,1.7-1.7h0ZM11.5,41.9c.9,0,1.7.7,1.7,1.7s-.7,1.7-1.6,1.7-1.7-.7-1.7-1.6h0c0-.9.7-1.6,1.6-1.7h0ZM51.6,30.1c.9,0,1.6.7,1.6,1.7s-.7,1.6-1.7,1.6-1.6-.7-1.6-1.6.7-1.7,1.6-1.7h.1ZM8.4,30.1c.9,0,1.6.8,1.6,1.7s-.8,1.6-1.7,1.6-1.6-.8-1.6-1.6.7-1.7,1.6-1.7h0ZM49.9,18.3c.9,0,1.7.7,1.7,1.7s-.7,1.7-1.7,1.7-1.7-.7-1.7-1.7.7-1.7,1.7-1.7h0ZM10.1,18.3c.9,0,1.7.7,1.7,1.7s-.7,1.7-1.7,1.7-1.7-.7-1.7-1.7h0c0-.9.7-1.7,1.7-1.7ZM46.5,7.8c.8,0,1.5.7,1.5,1.5s-.7,1.5-1.5,1.5-1.5-.7-1.5-1.5.7-1.5,1.5-1.5h0Z"/>
</svg>