<?xml version="1.0" encoding="UTF-8"?>
<svg xmlns="http://www.w3.org/2000/svg" xmlns:xlink="http://www.w3.org/1999/xlink" version="1.2" >
<font id="Spinner Rack BB Bold Italic">
<font-face  font-family="Spinner Rack BB" units-per-em="1000" ascent="691" descent="-309" font-style="italic" font-weight="700" font-stretch="normal" slope="-16" cap-height="613" x-height="640" underline-position="-75" underline-thickness="50" />
<missing-glyph  horiz-adv-x="554" d="M26 0 L446 0 L621 613 L201 613 L26 0 Z M294 569 L504 569 L353 42 L143 42 L294 569 Z " />
<glyph glyph-name="NULL" d="" />
<glyph glyph-name="CR" unicode="&#xd;" horiz-adv-x="250" d="" />
<glyph glyph-name="space" unicode="&#x20;" horiz-adv-x="266" d="" />
<glyph glyph-name="exclam" unicode="&#x21;" horiz-adv-x="314" d="M47 -70 C46 -70 190 -67 217 25 C221 42 214 78 164 78 C139 75 118 67 93 61 C74 55 18 53 6 12 C-8 -41 2 -70 47 -70 L47 -70 Z M153 142 C211 142 236 200 244 224 C259 253 277 289 287 323 C295 350 320 387 341 425 C358 452 376 482 393 514 C397 526 405 540 409 552 C417 582 401 616 363 616 C303 616 285 561 271 541 C254 515 244 488 231 456 C217 421 184 368 163 325 L150 304 C132 274 115 243 107 215 C98 184 114 142 153 142 L153 142 Z " />
<glyph glyph-name="quotedbl" unicode="&#x22;" horiz-adv-x="495" d="M287 348 C286 339 287 328 284 321 C277 306 241 295 224 294 C206 291 194 299 185 314 C178 326 171 339 167 353 C162 367 163 381 161 397 C157 429 158 463 161 495 C162 524 161 555 173 581 C179 597 198 616 219 614 C237 613 286 600 290 583 C293 570 292 557 291 546 C287 528 287 511 288 493 C289 473 287 454 287 433 C287 418 289 403 286 388 C287 375 286 361 287 348 L287 348 Z M497 343 C506 371 508 405 505 433 C502 450 500 468 500 486 C501 511 504 535 503 560 C502 573 503 590 497 601 C491 614 486 623 475 630 C464 635 427 637 414 631 C404 627 398 625 390 617 C381 609 377 594 378 581 C377 566 374 552 374 537 C373 504 379 472 377 440 C376 403 381 380 394 345 C403 321 421 301 446 310 C464 318 487 312 497 343 L497 343 Z " />
<glyph glyph-name="numbersign" unicode="&#x23;" horiz-adv-x="749" d="M157 272 L175 272 L232 274 C222 239 214 211 207 189 L160 185 L123 180 C102 178 35 164 24 110 C14 56 87 45 136 49 C146 49 155 50 166 52 C162 37 160 26 157 14 C150 -8 140 -71 194 -71 C250 -71 289 5 302 52 L306 65 L409 75 C407 59 406 45 406 32 C406 -4 432 -44 470 -44 C493 -44 528 -28 542 19 C548 41 554 65 560 88 C616 93 705 110 717 168 C727 222 696 233 681 231 L654 226 C626 220 602 216 584 216 C589 241 595 265 603 290 L608 308 L621 308 C634 308 654 305 678 305 C726 305 757 336 766 369 C773 393 760 409 747 423 C735 438 714 440 693 442 C679 442 666 442 653 441 C662 472 669 504 671 533 C672 552 652 588 624 588 C575 588 536 525 524 482 C519 464 515 445 512 427 L404 419 C419 473 444 574 379 574 C325 574 303 542 298 526 C297 520 296 513 293 502 C289 472 282 442 275 412 L236 412 C231 412 193 412 163 402 C153 400 119 389 110 359 C107 347 108 332 111 321 C114 297 120 272 157 272 L157 272 Z M364 282 C401 286 433 288 452 291 C458 291 465 292 473 292 C463 265 454 238 445 209 L445 207 L341 198 C349 225 356 252 364 282 L364 282 Z " />
<glyph glyph-name="dollar" unicode="&#x24;" horiz-adv-x="650" d="M223 -133 C277 -133 319 -54 336 3 C425 18 600 93 634 213 C637 225 638 237 637 247 C619 343 503 354 421 354 C389 354 344 345 312 345 C267 345 265 348 240 357 C278 393 342 409 389 420 C427 429 458 437 484 437 C496 437 507 434 519 432 C530 429 538 429 543 429 C581 429 612 453 625 490 C639 538 605 573 528 573 C516 573 504 573 492 572 C502 640 488 672 455 672 C402 672 378 639 373 622 C372 616 370 608 370 600 C366 581 362 566 360 551 C332 539 268 526 215 487 C167 453 140 428 111 385 C97 363 92 349 88 336 C55 219 188 213 243 213 C272 213 305 221 356 221 C464 221 482 203 484 197 C468 167 301 124 243 124 C173 124 168 140 117 144 C80 144 47 128 34 84 C31 74 31 62 29 50 C28 14 108 -9 139 -12 C160 -14 177 -16 194 -16 C181 -61 164 -133 223 -133 L223 -133 Z " />
<glyph glyph-name="percent" unicode="&#x25;" horiz-adv-x="1073" d="M215 -92 C237 -92 260 -75 283 -57 C307 -41 337 -17 355 0 C432 61 507 140 587 202 C652 253 713 310 794 366 C814 380 834 394 854 412 C859 418 962 497 980 560 C1001 634 926 634 904 634 C811 630 715 595 620 595 C577 595 546 621 496 621 C470 621 441 616 412 604 C210 521 109 409 83 317 C77 297 76 281 82 261 C91 228 103 207 173 207 C310 207 412 265 498 326 C516 345 596 387 615 454 C656 454 708 469 759 475 C683 415 604 354 515 275 C460 221 394 181 321 119 C271 78 201 19 187 -30 C176 -67 185 -92 215 -92 L215 -92 Z M398 476 C408 472 452 453 480 453 C425 388 331 349 266 343 C256 341 244 340 235 340 C231 340 209 339 211 348 C217 366 250 388 274 406 C333 451 363 449 398 476 L398 476 Z M701 -69 C837 -69 1015 35 1058 186 C1069 226 1073 325 995 325 C968 325 944 312 922 309 C818 309 651 191 618 76 C608 41 601 1 616 -34 C629 -65 669 -69 701 -69 L701 -69 Z M863 160 C876 160 943 177 941 167 C930 132 820 70 759 70 C737 70 732 75 733 78 C741 105 838 160 863 160 L863 160 Z " />
<glyph glyph-name="ampersand" unicode="&#x26;" horiz-adv-x="822" d="M215 -67 C350 -67 543 -17 625 136 C633 153 641 189 650 207 C710 219 819 209 841 286 C859 349 806 359 788 359 C773 359 757 356 743 356 C650 341 552 354 528 270 C522 250 524 229 518 206 C503 154 430 109 372 93 C333 83 293 71 255 71 C194 71 168 75 159 119 C162 181 353 228 391 222 C448 226 462 274 467 291 C480 337 454 353 435 357 C329 380 283 349 275 419 C317 453 367 462 415 462 C445 462 455 459 478 441 C485 434 493 431 503 431 C535 431 569 475 578 508 C598 575 524 609 454 609 C343 609 179 543 144 418 C127 359 145 325 162 292 C85 233 56 194 40 138 C22 74 38 -36 120 -53 C151 -63 180 -67 215 -67 L215 -67 Z " />
<glyph glyph-name="quotesingle" unicode="&#x27;" horiz-adv-x="273" d="M274 348 C274 361 274 375 274 388 C276 403 274 418 275 433 C275 454 276 473 276 493 C274 511 275 528 278 546 C279 557 281 570 278 583 C273 600 224 613 206 614 C185 616 167 597 160 581 C149 555 150 524 148 495 C145 463 144 429 148 397 C151 381 150 367 155 353 C159 339 166 326 172 314 C181 299 194 291 212 294 C228 295 264 306 271 321 C274 328 274 339 274 348 L274 348 Z " />
<glyph glyph-name="parenleft" unicode="&#x28;" horiz-adv-x="396" d="M103 -164 C139 -164 179 -136 190 -97 C195 -80 190 -63 185 -49 C173 -18 167 22 169 54 C171 102 162 132 176 180 C177 186 181 194 187 215 C202 259 260 381 297 419 C352 473 420 534 483 572 C503 583 518 603 524 625 C535 663 514 702 480 702 C466 702 453 696 441 689 C293 616 122 434 58 208 C36 132 22 41 26 -25 C27 -41 30 -164 103 -164 L103 -164 Z " />
<glyph glyph-name="parenright" unicode="&#x29;" horiz-adv-x="380" d="M61 -145 C156 -145 230 -40 273 26 C337 124 371 213 387 313 C415 438 427 683 257 683 C220 683 188 656 178 621 C168 584 191 568 212 555 C251 530 256 487 263 442 C266 402 258 374 252 343 C245 310 239 272 224 221 C209 169 179 94 121 22 C97 -8 38 -48 24 -96 C16 -125 29 -145 61 -145 L61 -145 Z " />
<glyph glyph-name="asterisk" unicode="&#x2a;" horiz-adv-x="569" d="M270 140 C331 140 353 193 357 209 C367 235 373 256 380 277 C392 269 409 260 424 250 C436 242 447 233 466 233 C519 233 541 286 544 296 C554 331 525 349 506 362 C495 370 475 383 475 383 C475 383 634 467 647 512 C658 552 629 556 615 556 C592 556 560 546 538 533 C502 516 465 499 447 485 C450 494 453 503 456 512 C472 569 474 619 416 619 C367 619 351 588 342 556 C338 542 334 528 329 512 C326 500 323 490 322 480 C303 489 286 500 266 509 C251 515 236 525 219 525 C185 525 141 503 132 471 C117 419 188 403 216 385 C209 383 205 381 196 378 C162 363 107 339 95 296 C86 266 105 243 132 243 C147 243 165 250 185 257 C209 265 238 279 262 292 C258 278 254 265 250 252 C245 233 202 140 270 140 L270 140 Z " />
<glyph glyph-name="plus" unicode="&#x2b;" horiz-adv-x="599" d="M255 23 C323 23 353 140 371 191 C407 191 441 184 480 184 C510 184 577 200 595 262 C603 290 584 300 566 310 C526 330 465 340 417 345 C418 350 420 357 422 363 C435 411 472 519 395 519 C356 519 314 489 304 453 C295 423 301 392 287 349 C238 349 98 357 75 277 C55 207 104 197 149 197 C181 197 212 203 243 203 C234 184 228 164 222 144 C214 115 187 23 255 23 L255 23 Z " />
<glyph glyph-name="comma" unicode="&#x2c;" horiz-adv-x="275" d="M61 -104 C101 -104 127 -68 142 -47 C160 -18 171 0 181 17 C189 30 222 71 241 136 C253 178 211 194 186 194 C114 194 104 137 80 96 C64 69 44 43 31 17 C24 1 8 -16 4 -33 C3 -36 -13 -104 61 -104 L61 -104 Z " />
<glyph glyph-name="hyphen" unicode="&#x2d;" horiz-adv-x="410" d="M81 290 C76 277 73 266 76 252 C78 226 91 206 112 200 C147 193 186 202 221 203 C268 206 418 199 423 283 C424 310 414 334 393 343 C371 353 347 344 324 340 C289 334 223 331 188 328 C171 328 155 328 137 327 C107 323 96 321 81 290 L81 290 Z " />
<glyph glyph-name="period" unicode="&#x2e;" horiz-adv-x="266" d="M155 111 C150 115 143 116 138 116 C104 116 61 62 47 40 C43 34 39 27 37 19 C28 -9 34 -53 68 -53 C140 -53 177 17 190 63 C197 87 172 101 155 111 L155 111 Z " />
<glyph glyph-name="slash" unicode="&#x2f;" horiz-adv-x="561" d="M-3 -67 C28 -88 103 -6 128 26 C134 34 141 43 148 50 C174 80 203 109 231 136 C253 156 274 178 296 200 C315 221 339 242 362 261 C374 273 390 284 402 297 C418 312 435 326 451 340 C461 348 470 356 480 365 C499 381 522 400 543 416 C568 437 597 459 621 482 C643 502 668 524 668 555 C669 578 654 597 633 604 C624 606 616 608 610 608 C588 608 572 595 556 581 C534 562 513 543 491 525 C451 493 411 459 374 422 C349 397 328 375 303 353 C249 306 195 257 147 203 C130 184 111 166 92 147 C69 124 46 101 26 75 C2 47 -13 25 -25 0 C-37 -26 -30 -59 -3 -67 L-3 -67 Z " />
<glyph glyph-name="zero" unicode="0" horiz-adv-x="697" d="M686 478 C656 544 581 592 507 600 C474 604 436 591 404 577 C294 531 204 445 132 350 C98 306 68 252 52 198 C45 172 42 146 43 122 C44 87 48 52 63 23 C78 -9 104 -26 138 -40 C175 -57 213 -63 258 -56 C313 -47 364 -28 417 -6 C471 16 526 52 574 88 C613 116 655 158 677 199 C692 226 706 255 714 283 C719 301 722 319 722 337 C722 391 706 434 686 478 L686 478 Z M569 270 C562 246 517 208 497 191 C472 167 445 150 414 133 C382 115 324 91 289 83 C252 74 203 81 187 118 C180 132 182 151 188 171 C197 203 216 238 226 261 C237 284 251 305 266 323 C288 347 312 365 338 380 C373 403 458 449 492 449 C539 449 568 392 575 352 C578 327 576 295 569 270 L569 270 Z " />
<glyph glyph-name="one" unicode="1" horiz-adv-x="366" d="M343 241 C348 262 356 284 362 308 C378 366 399 424 418 481 C430 517 442 590 387 597 C375 599 363 597 352 595 C299 583 141 516 116 431 C111 411 117 393 144 380 C171 366 218 385 244 398 C243 371 237 345 229 318 C224 299 218 278 212 260 C200 213 192 164 179 118 C168 76 147 16 165 -27 C175 -48 190 -57 208 -57 C235 -57 266 -37 279 -14 C290 6 298 36 301 59 C309 120 327 181 343 241 L343 241 Z " />
<glyph glyph-name="two" unicode="2" horiz-adv-x="520" d="M259 546 C212 521 152 486 136 429 C124 389 141 369 185 369 C225 369 252 402 287 420 C339 446 377 446 418 454 C386 411 345 376 309 332 C259 269 190 200 127 154 C88 125 12 72 0 27 C-12 -16 12 -61 59 -61 C87 -61 108 -57 133 -57 C190 -57 248 -43 306 -39 C348 -36 452 -26 469 31 C483 83 437 96 398 96 C347 96 294 80 237 80 C248 100 277 123 295 140 C320 164 343 193 367 219 C449 304 544 366 575 477 C590 529 545 603 474 603 C402 603 337 587 259 546 L259 546 Z " />
<glyph glyph-name="three" unicode="3" horiz-adv-x="564" d="M296 575 C216 552 148 521 132 464 C124 438 134 396 178 396 C203 396 229 414 256 427 C323 459 361 461 420 461 C437 461 453 457 468 456 C407 353 318 337 221 305 C187 294 160 286 144 231 C131 187 155 173 186 173 C240 173 256 197 318 197 C406 197 399 169 415 152 C339 116 297 67 203 67 C154 67 121 81 86 81 C50 81 8 43 2 21 C-20 -58 90 -75 142 -75 C212 -75 266 -60 350 -25 C442 13 514 59 545 170 C562 229 528 267 490 293 C526 349 578 400 593 452 C600 474 607 532 593 562 C582 591 514 604 470 604 C398 604 367 595 296 575 L296 575 Z " />
<glyph glyph-name="four" unicode="4" horiz-adv-x="502" d="M561 477 C565 511 566 560 544 582 C517 612 461 586 451 544 C447 528 442 512 438 495 C428 463 418 431 409 398 C404 381 400 363 396 347 C383 347 372 345 358 344 C317 339 272 330 232 332 C236 363 242 396 252 428 C262 463 267 497 271 530 C270 553 270 568 251 581 C234 594 220 594 197 583 C165 568 151 543 143 515 C140 502 137 489 134 475 C126 427 118 380 108 334 C104 313 96 286 98 266 C100 252 112 230 121 221 C138 202 164 197 193 197 C208 197 224 198 239 199 C263 202 288 207 314 207 C324 207 334 207 345 206 C332 173 321 138 312 105 C301 66 282 13 293 -23 C298 -44 314 -53 332 -53 C348 -53 368 -44 384 -30 C407 -8 420 13 426 43 C427 54 430 66 434 81 C459 168 497 255 527 350 C534 375 544 402 552 429 C556 445 560 462 561 477 L561 477 Z " />
<glyph glyph-name="five" unicode="5" horiz-adv-x="559" d="M219 590 C203 584 185 568 174 555 C160 539 158 516 159 497 C158 476 168 460 162 440 C156 420 142 398 132 379 C125 361 117 341 110 322 C105 308 95 288 90 269 C83 246 82 224 99 209 C111 198 126 195 142 195 C168 195 197 204 223 203 C270 200 327 198 366 172 C379 162 405 147 390 127 C375 107 351 97 330 88 C288 67 241 57 196 65 C176 70 154 70 134 76 C114 83 91 89 70 93 C30 102 0 47 4 13 C5 -3 24 -19 35 -30 C63 -56 181 -63 222 -59 C268 -54 318 -47 364 -28 C407 -12 445 10 477 45 C501 70 521 96 529 124 C533 137 534 151 533 167 C524 230 491 281 436 301 C416 309 394 314 373 319 C334 328 290 337 248 328 C256 348 267 369 274 385 C284 407 296 425 306 446 C328 450 349 445 370 445 C424 445 550 464 561 519 C563 528 568 539 565 548 C563 559 559 566 555 575 C546 591 532 597 512 600 C470 606 427 592 385 590 C346 590 312 582 276 586 C256 587 239 596 219 590 L219 590 Z " />
<glyph glyph-name="six" unicode="6" horiz-adv-x="606" d="M601 268 C588 323 516 341 447 341 C337 341 212 264 186 242 C254 391 343 437 482 476 C506 482 531 494 540 524 C554 573 479 594 452 594 C386 594 302 539 247 497 C163 432 99 371 66 273 C49 213 39 124 62 71 C74 41 91 -52 240 -52 C335 -52 458 -21 533 75 C561 110 585 140 596 178 C606 215 606 238 601 268 L601 268 Z M282 75 C260 75 232 80 239 106 C261 181 370 212 419 212 C440 212 464 206 482 199 C444 136 348 75 282 75 L282 75 Z " />
<glyph glyph-name="seven" unicode="7" horiz-adv-x="559" d="M292 583 C280 581 147 568 125 493 C111 444 135 432 169 432 C185 432 199 434 211 437 C294 456 372 467 450 460 C369 375 297 294 213 202 C182 169 114 61 97 1 C87 -34 120 -61 151 -61 C185 -61 210 -22 229 6 C254 44 280 80 306 116 C363 198 444 257 509 331 C559 391 620 447 641 522 C662 595 579 601 531 601 C459 601 374 600 292 583 L292 583 Z " />
<glyph glyph-name="eight" unicode="8" horiz-adv-x="606" d="M638 411 C652 431 662 450 667 468 C678 508 669 543 636 565 C614 579 583 583 557 590 C523 597 485 597 449 596 C374 592 288 583 217 537 C176 509 118 456 114 410 C111 359 152 318 194 303 C208 299 220 292 234 288 C228 284 221 281 215 277 C176 255 136 230 105 197 C79 169 67 138 58 106 C40 34 94 -17 154 -34 C192 -45 226 -58 271 -54 C313 -50 357 -36 401 -19 C443 -5 491 22 524 54 C552 80 571 115 584 149 C610 217 566 265 516 292 C531 300 544 310 556 321 C586 348 616 378 638 411 L638 411 Z M453 145 C419 102 367 83 319 75 C294 71 267 71 242 76 C229 79 213 84 204 94 C197 102 186 112 194 124 C207 141 223 151 240 163 C272 182 308 199 342 203 C358 204 373 204 387 199 C400 194 412 186 424 178 C434 172 466 162 453 145 L453 145 Z M479 402 C453 383 427 378 399 378 C382 378 365 378 349 380 C334 381 322 387 308 393 C298 397 250 424 250 424 C250 424 319 460 345 467 C369 472 400 484 425 481 C447 480 466 473 487 469 C500 467 509 462 521 459 C518 441 498 415 479 402 L479 402 Z " />
<glyph glyph-name="nine" unicode="9" horiz-adv-x="565" d="M633 480 C626 504 602 515 591 530 C564 566 567 592 502 592 C460 592 418 583 375 574 C277 553 137 516 100 387 C79 316 121 237 195 237 C215 237 232 238 249 238 C279 238 318 248 350 256 C322 229 297 185 275 147 C250 106 229 75 216 28 C206 -6 208 -50 250 -50 C308 -50 376 78 397 105 C423 142 446 180 473 213 C500 248 528 286 552 325 C577 366 619 418 632 460 C634 467 634 473 633 480 L633 480 Z M404 387 C350 361 283 357 247 357 C232 358 217 362 207 366 C207 366 206 366 206 366 C241 434 354 451 401 454 C412 454 422 455 434 455 C445 455 458 454 470 450 C451 432 427 397 404 387 L404 387 Z " />
<glyph glyph-name="colon" unicode="&#x3a;" horiz-adv-x="238" d="M270 438 C265 464 255 468 232 471 C205 473 192 464 172 447 C148 428 122 419 113 388 C108 371 115 352 123 337 C131 321 152 317 167 317 C185 317 203 323 219 335 C238 350 243 363 257 384 C268 401 274 416 270 438 L270 438 Z M153 243 C141 244 135 243 126 238 C119 233 113 229 108 221 C105 213 98 206 91 198 C78 181 64 163 55 144 C45 123 51 111 62 93 C73 75 84 72 105 74 C119 75 135 76 147 83 C178 101 202 147 207 180 C210 193 202 216 193 229 C186 241 164 242 153 243 L153 243 Z " />
<glyph glyph-name="semicolon" unicode="&#x3b;" horiz-adv-x="250" d="M232 166 C231 140 222 115 208 91 C192 66 184 40 163 17 C143 -6 126 -32 104 -56 C95 -69 82 -87 61 -93 C38 -101 3 -83 -3 -71 C-12 -57 -6 -37 -2 -22 C4 3 22 26 34 49 C46 72 58 96 72 118 C83 136 93 153 101 171 C107 186 109 202 130 213 C149 225 172 225 190 216 C216 203 233 184 232 166 L232 166 Z M255 444 C246 455 226 456 214 458 C203 459 197 458 187 453 C180 447 173 444 169 436 C165 428 159 420 153 412 C139 396 126 378 116 358 C106 337 114 326 124 308 C135 290 145 287 166 288 C181 290 195 291 208 297 C239 316 263 362 268 394 C271 407 263 431 255 444 L255 444 Z " />
<glyph glyph-name="less" unicode="&#x3c;" horiz-adv-x="581" d="M441 -58 C472 -58 499 -31 506 -6 C527 65 430 98 363 127 C333 140 305 163 277 173 C250 187 245 204 227 230 C236 238 250 244 263 255 C314 288 358 335 408 371 C427 384 551 445 575 530 C590 581 529 597 521 597 C495 597 447 562 426 544 C389 513 354 490 324 460 C276 412 230 379 194 352 C156 323 82 279 67 226 C40 132 150 72 217 41 C233 34 252 17 273 8 C312 -8 362 -58 441 -58 L441 -58 Z " />
<glyph glyph-name="equal" unicode="&#x3d;" horiz-adv-x="428" d="M55 187 C85 251 150 211 299 238 C314 241 328 246 343 246 C381 246 408 211 396 168 C376 98 240 103 196 101 C171 100 144 94 117 94 C75 94 35 118 51 176 C52 180 55 184 55 187 L55 187 Z M196 301 C213 300 231 299 249 299 C302 299 430 287 454 371 C470 425 436 446 410 446 C357 446 305 436 251 428 C204 422 140 437 126 389 C110 331 166 304 196 301 L196 301 Z " />
<glyph glyph-name="greater" unicode="&#x3e;" horiz-adv-x="588" d="M30 -78 C70 -78 190 -6 253 39 C293 67 338 88 396 129 C463 177 575 235 590 288 C607 349 542 369 502 405 C472 431 442 451 417 477 C374 521 384 617 296 617 C265 617 234 597 225 566 C211 515 228 468 252 429 C279 388 307 362 330 331 C347 309 371 296 391 279 C383 273 372 262 295 209 C238 169 190 141 124 106 C75 79 10 45 -6 -14 C-16 -48 -1 -78 30 -78 L30 -78 Z " />
<glyph glyph-name="question" unicode="&#x3f;" horiz-adv-x="590" d="M251 188 C332 260 617 377 656 513 C690 633 450 624 444 624 C412 622 382 621 349 612 C320 603 204 582 183 510 C177 489 181 448 218 448 C227 448 237 450 247 457 C300 483 401 501 460 501 C474 501 490 499 502 494 C442 436 390 412 325 378 C276 352 147 292 128 229 C118 193 128 158 175 158 C196 158 223 165 251 188 L251 188 Z M174 72 C133 72 34 57 15 -11 C-2 -71 49 -71 90 -71 C142 -71 211 -17 224 27 C236 69 191 71 174 72 L174 72 Z " />
<glyph glyph-name="at" unicode="&#x40;" horiz-adv-x="906" d="M118 -87 C147 -87 171 -63 180 -31 C184 -16 185 0 181 10 C159 65 159 93 180 164 C188 193 201 209 223 237 C347 397 531 482 707 482 C749 482 766 471 776 444 C788 424 816 354 799 292 C788 256 747 222 717 175 C687 142 680 137 636 118 C627 154 658 204 672 252 C688 309 651 312 640 340 L640 341 C629 375 623 392 562 392 C528 392 308 330 246 114 C224 34 268 -37 364 -37 C423 -37 480 -6 527 32 C533 6 565 -17 586 -19 C635 -21 658 -13 733 31 C773 54 795 89 821 123 C863 181 899 226 914 279 C936 356 930 482 885 543 C831 616 810 628 715 628 C648 628 526 608 435 559 C366 521 280 478 228 424 C190 384 182 374 151 337 C115 292 60 217 39 144 C25 96 26 47 27 30 C30 -19 61 -87 118 -87 L118 -87 Z M545 248 C523 172 458 92 368 92 C363 92 357 89 361 103 C383 178 514 248 545 248 L545 248 Z " />
<glyph glyph-name="A" unicode="A" horiz-adv-x="744" d="M658 189 C652 261 634 354 625 400 C599 516 560 603 504 603 C408 603 317 491 247 402 C154 288 29 158 -4 41 C-14 4 -16 -39 47 -39 C112 -39 126 -8 149 25 C166 49 179 72 194 92 C219 89 232 85 245 85 C336 88 436 123 518 103 C520 76 532 45 539 19 C550 -23 565 -58 622 -58 C649 -58 669 -39 678 -10 C686 19 674 67 672 92 C669 136 660 153 658 189 L658 189 Z M403 231 C358 230 322 226 276 217 C336 294 377 375 464 433 C480 375 498 327 505 242 C466 230 453 234 403 231 L403 231 Z " />
<glyph glyph-name="B" unicode="B" horiz-adv-x="640" d="M180 -62 C195 -62 209 -62 225 -61 C267 -58 391 -48 462 -9 C517 19 588 65 609 137 C619 173 610 195 589 231 C574 259 536 275 516 287 C550 314 601 356 617 410 C632 463 621 507 577 553 C546 586 505 608 436 608 C381 608 354 584 284 584 C192 578 178 528 168 493 C164 481 162 469 159 458 C153 440 147 424 138 406 C119 372 108 335 99 301 C77 224 44 142 23 69 C11 28 -7 -30 48 -47 C90 -59 143 -62 180 -62 L180 -62 Z M163 75 C171 103 189 156 198 182 C206 182 216 181 228 181 C231 181 327 191 380 191 C406 187 482 176 476 155 C464 115 396 72 233 72 C206 72 179 74 163 75 L163 75 Z M247 326 C257 353 283 420 294 455 C319 456 353 459 392 469 C396 471 402 472 409 472 C446 472 488 442 481 418 C472 385 375 323 281 323 C266 323 256 325 247 326 L247 326 Z " />
<glyph glyph-name="C" unicode="C" horiz-adv-x="599" d="M590 597 C567 606 531 619 497 619 C411 619 340 568 270 508 C176 428 89 321 57 211 C50 186 45 160 45 136 C43 76 50 14 90 -28 C128 -67 197 -79 259 -72 C327 -65 391 -52 456 -17 C496 4 581 62 552 105 C541 120 527 125 512 125 C486 125 456 109 425 94 C373 69 301 48 249 50 C183 53 170 129 187 185 C200 233 236 284 268 323 C311 375 337 405 400 445 C423 459 459 478 481 472 C503 466 523 456 537 441 C547 428 566 423 582 423 C602 423 619 429 629 441 C644 460 651 478 652 500 C654 520 630 581 590 597 L590 597 Z " />
<glyph glyph-name="D" unicode="D" horiz-adv-x="649" d="M73 -53 C107 -53 134 -41 211 -37 C290 -34 336 -12 418 28 C535 92 635 185 670 310 C673 319 676 328 676 337 C692 500 621 537 581 565 C542 599 498 597 419 597 C339 597 170 582 147 499 C120 406 113 314 85 215 L78 193 C64 154 56 114 41 74 C35 53 25 35 19 14 C10 -17 12 -53 73 -53 L73 -53 Z M273 459 C297 462 346 464 394 464 C415 464 431 464 442 463 C483 460 562 415 557 371 C556 358 553 344 549 330 C537 287 507 239 424 172 C333 100 211 84 170 81 C173 92 176 107 181 125 C193 167 212 217 223 257 C242 322 266 424 273 459 L273 459 Z " />
<glyph glyph-name="E" unicode="E" horiz-adv-x="545" d="M627 548 C634 590 556 600 516 600 C474 600 430 596 388 596 C357 596 327 599 296 599 C193 599 161 555 141 486 C131 453 130 416 119 380 C106 334 95 288 82 242 C78 230 75 219 72 207 C62 172 59 137 48 101 C40 72 31 44 24 18 C12 -22 37 -56 76 -56 C105 -56 149 -37 188 -30 C283 -12 463 -18 485 58 C497 101 437 118 405 118 C373 118 338 118 306 114 C261 109 211 92 172 92 C180 114 182 129 189 150 C193 164 197 178 199 194 C255 215 320 221 376 229 C424 235 535 230 550 279 C570 349 485 353 428 353 C368 353 297 345 238 334 C250 375 266 462 266 462 C266 462 324 468 371 473 C421 478 598 462 627 548 L627 548 Z " />
<glyph glyph-name="F" unicode="F" horiz-adv-x="564" d="M653 535 C659 561 636 568 618 575 C583 588 540 592 497 592 C473 592 448 591 425 590 C366 587 351 586 293 579 C259 575 227 570 198 555 C155 534 150 503 140 463 C133 438 131 414 122 389 C107 335 98 278 84 225 C71 172 57 119 54 66 C53 32 40 -28 78 -41 C132 -61 158 -21 173 28 C185 71 188 122 193 147 C197 166 195 166 199 182 C259 194 275 200 335 203 C369 204 409 208 444 208 C466 208 489 209 512 213 C530 216 553 222 563 242 C573 259 576 284 568 300 C558 317 539 325 521 328 C496 334 475 335 445 335 C433 335 420 335 405 335 C361 335 355 332 308 328 C284 327 262 325 239 321 C244 339 257 374 262 392 C266 407 277 442 277 442 C277 442 320 453 334 454 C356 458 360 459 381 462 C421 466 431 467 470 468 C500 469 528 469 558 471 C577 472 596 472 614 480 C635 490 649 515 653 535 L653 535 Z " />
<glyph glyph-name="G" unicode="G" horiz-adv-x="712" d="M701 213 C709 235 719 255 723 270 C739 325 673 352 583 352 C542 352 501 347 472 339 C416 325 339 332 319 262 C307 221 333 189 378 189 C474 189 485 213 563 213 C508 76 365 48 292 48 C217 48 167 116 189 194 C212 274 283 376 361 427 C394 449 458 489 486 489 C550 489 543 444 604 444 C640 444 659 468 664 487 C689 572 593 622 533 622 C433 622 331 570 247 498 C161 423 86 308 61 220 C17 67 87 -78 257 -78 C442 -78 635 34 701 213 L701 213 Z " />
<glyph glyph-name="H" unicode="H" horiz-adv-x="597" d="M662 519 C671 557 671 603 623 603 C560 603 530 559 517 513 C509 485 508 458 499 427 C493 406 486 384 478 362 C404 357 320 343 248 325 C283 466 317 553 203 553 C172 553 148 512 141 486 C128 442 125 394 112 348 C97 296 78 244 64 193 C59 177 55 163 52 147 C37 81 -18 -58 72 -58 C126 -58 152 -8 163 31 C168 48 170 65 174 80 C182 106 189 131 197 159 C200 169 203 180 208 190 C268 206 427 213 427 213 C427 213 425 204 417 177 C402 125 382 76 368 25 C361 1 356 -47 394 -47 C459 -47 489 9 507 53 C533 119 565 200 586 274 C595 306 602 340 611 372 C626 423 648 469 662 519 L662 519 Z " />
<glyph glyph-name="I" unicode="I" horiz-adv-x="537" d="M568 473 C593 482 606 498 611 515 C628 573 569 584 511 584 C458 584 403 577 349 570 C299 564 162 575 144 511 C126 449 175 441 223 441 C243 441 265 444 286 446 C260 385 244 321 226 261 C215 221 213 200 211 164 C209 141 202 112 206 89 C135 83 65 101 42 19 C32 -17 51 -40 94 -40 C178 -40 261 -30 345 -30 C354 -30 364 -30 375 -30 C408 -30 447 -26 460 19 C476 74 453 102 410 102 C388 102 367 97 345 97 C335 97 321 100 321 100 C321 100 353 260 377 343 C388 383 423 459 423 459 C423 459 466 466 477 466 C486 466 496 466 506 466 C527 466 548 467 568 473 L568 473 Z " />
<glyph glyph-name="J" unicode="J" horiz-adv-x="498" d="M100 -48 C115 -48 132 -46 151 -46 C173 -44 280 -37 330 20 C357 51 384 127 395 164 C417 242 419 306 438 375 C447 405 453 421 461 451 C504 451 577 460 591 509 C605 557 563 586 505 586 C469 586 428 578 398 573 L385 570 C366 568 296 557 261 557 C236 555 185 551 170 499 C157 438 207 426 243 426 L296 434 C306 434 319 434 329 432 C319 399 322 387 316 365 C297 300 279 235 259 168 C249 144 240 127 229 106 C222 96 209 94 172 94 C144 97 117 103 84 103 C71 103 22 89 12 51 C-5 -10 36 -48 100 -48 L100 -48 Z " />
<glyph glyph-name="K" unicode="K" horiz-adv-x="618" d="M671 525 C678 546 669 582 652 590 C631 599 620 604 594 596 C512 573 330 425 255 363 C257 371 258 380 261 388 C273 441 295 468 314 521 C326 556 320 578 310 590 C296 605 293 608 275 610 C226 618 213 605 181 550 C152 499 135 446 121 393 C107 344 92 294 77 244 C63 190 52 137 40 83 C34 56 25 28 19 1 C15 -21 39 -52 59 -61 C97 -78 127 -63 152 -19 C163 1 171 30 177 52 C185 80 193 107 200 138 C212 149 225 160 235 168 C255 182 273 198 292 213 C298 206 302 199 307 193 C333 158 376 97 400 61 C420 30 446 0 470 -27 C479 -39 494 -44 508 -44 C532 -44 558 -27 562 1 C567 21 569 32 563 50 C560 58 552 79 533 118 C514 156 465 217 443 253 C435 269 419 282 401 303 C416 317 432 332 448 345 C484 375 528 401 569 427 C607 451 656 482 671 525 L671 525 Z " />
<glyph glyph-name="L" unicode="L" horiz-adv-x="592" d="M138 405 C132 354 112 292 97 239 C84 193 68 144 55 98 C35 28 55 -45 138 -45 C206 -45 270 -25 332 -13 C410 1 525 -6 541 49 C560 116 499 120 458 120 C431 120 422 120 411 120 C348 120 272 100 196 94 C201 111 200 122 205 138 C218 182 229 225 242 270 C248 292 256 316 263 339 C286 419 339 590 231 590 C192 590 165 570 155 535 C143 493 143 447 138 405 L138 405 Z " />
<glyph glyph-name="M" unicode="M" horiz-adv-x="892" d="M62 -45 C92 -45 108 -18 118 -1 C193 123 257 282 308 366 C315 326 322 243 326 163 C327 160 333 -36 414 -36 C458 -36 489 16 505 41 C538 87 561 129 605 184 C643 229 719 326 730 326 C733 297 729 266 729 216 C731 158 723 106 712 41 C707 10 719 -32 757 -32 C795 -32 829 8 839 45 C847 72 849 102 849 131 C851 184 868 273 863 326 C855 376 866 423 867 478 C867 497 883 586 800 586 C755 586 724 548 705 522 C636 436 580 357 512 266 C491 239 474 221 459 204 C461 252 454 306 452 357 C451 374 445 447 431 500 C425 525 422 590 333 590 C255 590 220 480 168 384 C115 288 46 173 17 71 C3 22 -2 -45 62 -45 L62 -45 Z " />
<glyph glyph-name="N" unicode="N" horiz-adv-x="673" d="M113 255 C109 213 95 171 77 109 C72 94 55 25 64 -10 C69 -32 97 -49 126 -49 C172 -49 193 1 204 41 C222 102 243 231 260 334 C295 262 327 185 360 115 C370 96 383 65 389 45 C405 1 408 -57 486 -57 C547 -57 561 10 577 53 C635 200 693 354 737 509 C749 550 733 597 688 601 C600 601 578 495 564 446 C560 432 558 419 554 406 C531 339 517 294 482 202 C471 217 467 229 461 241 C430 304 404 350 380 402 C347 473 320 575 234 575 C181 575 149 534 135 486 C123 445 123 418 123 381 C121 341 119 296 113 255 L113 255 Z " />
<glyph glyph-name="O" unicode="O" horiz-adv-x="732" d="M284 -59 C407 -59 476 -22 543 19 C574 37 599 53 627 81 C678 133 720 185 738 250 C750 291 758 361 745 412 C713 531 670 582 546 604 C411 604 239 522 153 397 C114 331 79 294 59 224 C50 195 44 168 46 144 C50 14 116 5 170 -32 L171 -32 C201 -53 232 -59 284 -59 L284 -59 Z M497 456 C569 456 650 380 625 290 C617 265 599 242 579 219 L579 217 C504 128 402 75 307 75 C273 75 254 85 225 93 C170 115 170 159 182 199 C197 252 225 288 264 328 C339 407 403 456 497 456 L497 456 Z " />
<glyph glyph-name="P" unicode="P" horiz-adv-x="560" d="M88 -58 C157 -58 174 21 179 40 C185 61 188 81 191 106 C195 129 193 159 199 180 C275 187 351 191 435 222 C515 260 586 318 611 406 C636 495 583 542 557 560 C524 583 474 603 411 603 C381 603 351 596 323 588 C239 572 169 569 141 471 C119 396 84 260 57 136 C42 70 5 -58 88 -58 L88 -58 Z M278 449 C308 455 391 466 413 467 C420 467 479 434 471 405 C450 334 310 313 242 309 C246 319 249 330 253 343 C264 383 273 428 278 449 L278 449 Z " />
<glyph glyph-name="Q" unicode="Q" horiz-adv-x="800" d="M687 133 C708 162 737 190 750 225 C764 253 774 286 778 297 C807 400 767 535 703 559 C678 575 639 583 581 583 C570 583 560 582 550 582 C536 582 522 590 495 590 C479 590 461 587 441 583 C240 538 107 381 77 277 C67 242 60 185 67 128 C69 89 82 58 107 30 C120 14 132 1 148 -6 C207 -43 264 -44 326 -44 C425 -44 519 -13 594 44 C627 21 680 -16 710 -16 C731 -16 749 9 752 18 C767 72 710 107 687 133 L687 133 Z M380 94 C366 92 352 91 339 91 C225 91 182 159 207 247 C239 358 408 437 467 449 C479 451 488 453 500 453 C550 441 643 446 646 397 C642 361 648 332 638 297 C628 264 615 238 589 212 C562 241 507 277 476 277 C427 277 387 260 375 219 C361 169 438 142 470 119 C453 107 417 100 380 94 L380 94 Z " />
<glyph glyph-name="R" unicode="R" horiz-adv-x="650" d="M674 513 C651 566 577 596 493 596 C450 596 445 599 407 590 C330 570 187 569 154 490 C146 473 141 458 136 442 C129 418 123 394 118 375 C110 347 101 326 94 300 C75 237 62 202 53 168 C47 147 40 125 38 105 C31 71 13 -52 92 -52 C137 -52 158 -28 165 -4 C180 47 176 78 183 102 C186 112 189 125 193 137 C197 138 222 145 224 146 C265 122 289 101 309 92 C399 47 472 -45 550 -47 C564 -47 584 -28 589 -12 C603 36 569 59 542 88 C527 102 492 140 443 173 C428 184 403 204 389 216 C515 257 576 270 643 349 C658 367 666 384 670 401 C677 424 691 477 674 513 L674 513 Z M421 358 C338 325 251 319 251 319 C252 341 277 432 277 432 C293 440 380 464 464 464 C517 464 548 453 548 453 C523 394 449 369 421 358 L421 358 Z " />
<glyph glyph-name="S" unicode="S" horiz-adv-x="596" d="M524 394 C554 394 588 419 597 453 C600 462 600 472 599 487 C593 570 549 610 476 610 C429 610 345 574 294 542 C225 498 212 467 152 403 C134 385 110 349 100 316 C69 206 198 194 276 194 C286 194 298 194 310 194 C337 194 409 190 444 182 C387 84 239 74 228 74 C189 72 142 79 119 87 C96 94 84 111 55 111 C29 111 12 92 5 67 C0 48 0 26 11 8 C45 -56 105 -66 180 -66 C352 -66 532 8 573 150 C583 185 578 237 556 266 C513 322 438 321 364 326 C348 327 291 327 276 332 C316 391 407 466 454 473 C472 475 463 432 479 419 C492 409 507 394 524 394 L524 394 Z " />
<glyph glyph-name="T" unicode="T" horiz-adv-x="600" d="M666 491 C678 498 685 508 688 519 C703 570 648 608 597 608 C568 608 540 603 513 603 C504 603 494 603 483 603 C412 603 326 579 252 565 C207 556 137 548 121 495 C110 455 138 418 189 418 C234 418 285 434 332 445 C330 438 328 431 324 415 C318 396 315 378 301 330 C290 290 282 251 272 212 C259 163 177 -63 301 -63 C323 -63 351 -49 360 -18 C381 53 383 118 403 185 C413 220 421 243 425 257 C432 281 437 309 445 336 C457 380 471 424 484 468 C511 471 538 473 586 473 C613 473 639 475 666 491 L666 491 Z " />
<glyph glyph-name="U" unicode="U" horiz-adv-x="656" d="M697 476 C703 519 710 595 672 595 C611 595 578 551 567 511 C545 434 531 330 518 283 C510 255 493 195 465 162 C435 129 274 97 231 97 C217 97 205 98 193 102 C195 124 200 159 204 172 C206 180 209 185 238 308 C249 340 263 381 274 419 C291 480 307 579 247 579 C190 579 159 542 145 494 C134 455 131 427 120 389 C105 337 87 272 73 222 C28 66 48 -50 202 -50 C260 -50 333 -35 397 -14 C441 0 482 1 523 23 C565 45 582 76 597 114 C633 206 654 279 681 374 C690 407 693 442 697 476 L697 476 Z " />
<glyph glyph-name="V" unicode="V" horiz-adv-x="574" d="M176 566 C151 552 135 522 129 499 C121 473 132 427 131 388 C130 313 137 241 144 167 C152 88 124 -56 222 -57 C287 -57 323 14 366 94 C433 230 560 356 637 472 C646 487 660 511 666 533 C678 572 655 601 605 601 C533 601 419 400 381 348 C346 300 302 239 272 203 C264 274 265 349 268 422 C270 484 300 575 208 575 C197 575 187 572 176 566 L176 566 Z " />
<glyph glyph-name="W" unicode="W" horiz-adv-x="922" d="M654 -41 C695 -41 722 -5 741 30 C810 158 887 275 955 403 C970 431 989 467 1000 504 C1008 533 1016 601 957 601 C926 601 906 574 893 555 C806 428 753 297 698 222 C700 243 700 297 692 334 C687 375 688 416 681 471 C674 520 659 603 602 603 C539 603 483 484 459 446 C413 362 351 283 288 203 C286 216 285 253 284 268 C286 331 274 418 278 508 C280 542 255 583 212 583 C176 583 148 557 139 524 C130 493 134 455 137 428 C140 397 142 369 143 339 C143 247 153 185 169 114 C169 70 187 -57 266 -57 C335 -57 362 43 386 81 C402 107 415 127 425 147 C446 190 478 226 509 268 C522 284 547 312 560 328 C564 288 563 275 564 242 C563 208 553 142 569 92 C574 74 579 -41 654 -41 L654 -41 Z " />
<glyph glyph-name="X" unicode="X" horiz-adv-x="559" d="M567 438 C593 469 624 500 634 535 C644 569 638 619 572 619 C517 619 436 494 353 412 C317 526 351 609 271 609 C233 609 212 579 203 550 C201 543 201 535 200 529 C189 400 224 318 238 288 C216 272 200 248 180 229 C133 184 18 92 -10 -9 C-22 -52 -6 -75 40 -75 C98 -75 213 81 288 155 C300 122 309 92 328 61 C354 18 368 -57 416 -57 C450 -57 482 -21 489 0 C499 36 478 84 446 150 C428 186 405 220 396 259 C426 294 447 321 474 348 C492 366 549 418 567 438 L567 438 Z " />
<glyph glyph-name="Y" unicode="Y" horiz-adv-x="581" d="M681 543 C687 573 658 614 624 614 C568 614 505 524 456 476 C416 436 371 372 330 330 C312 354 304 385 293 411 C270 460 275 564 205 564 C172 564 136 531 128 503 C115 458 134 409 147 371 C180 278 202 255 233 211 C192 164 104 63 90 14 C73 -44 96 -69 152 -69 C162 -69 171 -67 180 -65 C206 -57 280 59 332 119 C479 300 658 460 677 524 C678 529 679 535 681 543 L681 543 Z " />
<glyph glyph-name="Z" unicode="Z" horiz-adv-x="604" d="M399 594 C373 591 332 586 308 584 C238 581 165 583 139 494 C126 449 167 428 190 428 C217 428 232 446 261 450 C299 455 370 468 429 468 C436 468 445 468 453 467 C360 358 248 259 146 158 C98 112 19 62 3 21 C-12 -37 0 -59 53 -59 C114 -59 183 -53 246 -47 C335 -37 499 -47 526 49 C539 93 493 105 459 105 C396 105 331 91 258 85 C312 150 376 209 439 265 C500 317 550 376 605 433 C634 464 677 503 688 543 C706 606 620 604 537 604 C483 604 457 599 399 594 L399 594 Z " />
<glyph glyph-name="bracketleft" unicode="&#x5b;" horiz-adv-x="431" d="M124 -154 C184 -154 272 -158 298 -67 C316 -5 237 -16 136 -1 C146 31 160 65 169 97 C176 120 179 144 186 168 C198 212 220 261 237 313 C252 365 265 414 282 471 C286 486 297 511 307 535 C338 542 377 544 413 544 C431 544 519 553 540 626 C553 670 505 689 478 692 L464 693 C447 694 428 696 410 696 C397 696 261 697 216 640 C190 606 160 537 142 477 C132 440 130 406 120 371 C111 340 101 309 86 268 C59 186 31 106 8 26 C2 6 1 -14 -4 -35 C-30 -146 53 -154 124 -154 L124 -154 Z " />
<glyph glyph-name="backslash" unicode="&#x5c;" horiz-adv-x="459" d="M324 -57 C360 -57 392 -36 400 -6 C406 13 398 31 394 47 C384 100 378 147 358 212 C336 277 335 369 302 445 C288 476 279 507 266 541 L265 542 C255 565 242 596 210 596 C179 596 144 574 135 546 C128 521 133 497 138 478 C165 383 193 299 207 194 C214 145 239 105 248 58 C255 8 266 -57 324 -57 L324 -57 Z " />
<glyph glyph-name="bracketright" unicode="&#x5d;" horiz-adv-x="449" d="M42 -162 C67 -162 93 -158 117 -154 L134 -151 C222 -138 295 -140 319 -54 C326 -31 329 -5 335 14 C342 40 358 66 366 96 C388 171 427 257 462 347 C472 371 480 394 487 419 C493 441 499 463 505 485 C510 503 516 522 522 541 C534 582 542 625 528 661 C513 698 476 703 450 703 C436 703 422 702 409 701 C317 692 218 715 192 639 C177 586 207 543 284 543 C310 543 339 547 360 550 C374 552 376 552 380 552 C378 546 377 537 374 526 C366 499 357 477 350 454 C344 432 339 410 333 389 C325 361 309 332 301 305 C299 297 299 290 292 274 C273 208 247 140 228 93 C220 65 191 4 191 4 C191 4 127 -8 105 -8 C90 -8 74 -5 61 -5 C9 -5 -16 -30 -26 -66 L-26 -67 C-39 -110 -48 -162 42 -162 L42 -162 Z " />
<glyph glyph-name="asciicircum" unicode="&#x5e;" horiz-adv-x="473" d="M436 234 C451 246 459 259 463 273 C473 310 461 406 438 454 C411 490 430 557 359 557 C285 557 202 449 154 391 C126 358 82 316 70 275 C63 250 72 211 111 211 C151 211 192 216 213 257 C237 296 275 328 307 358 C326 321 316 272 327 242 C333 222 355 211 375 211 C396 211 418 220 436 234 L436 234 Z " />
<glyph glyph-name="underscore" unicode="&#x5f;" horiz-adv-x="641" d="M58 -54 C63 -54 67 -54 76 -54 C103 -53 126 -52 150 -52 C194 -53 236 -44 275 -40 C332 -36 389 -23 445 -23 C458 -23 477 -26 502 -26 C550 -26 581 5 590 37 C597 62 584 78 571 92 C558 107 537 109 516 111 C476 111 439 109 399 102 C297 93 226 87 137 87 C132 87 94 87 64 76 C55 74 21 63 12 34 C9 21 9 6 11 -5 C15 -28 21 -54 58 -54 L58 -54 Z " />
<glyph glyph-name="grave" unicode="&#x60;" horiz-adv-x="328" d="M359 694 C380 685 402 679 425 681 C439 684 445 693 445 707 C446 723 428 742 419 753 C386 789 316 828 270 843 C255 848 234 853 217 852 C204 851 197 838 193 825 C188 798 213 777 234 767 C268 750 325 710 359 694 L359 694 Z " />
<glyph glyph-name="a" unicode="a" horiz-adv-x="700" d="M638 224 C635 310 618 397 599 478 C585 537 573 616 493 616 C389 616 250 427 174 314 C144 269 109 228 79 182 C60 153 19 85 2 28 C-9 -14 -10 -69 41 -69 C104 -69 157 56 179 88 C213 98 244 98 280 103 C349 112 415 115 496 124 C508 58 510 -31 573 -31 C600 -31 632 -12 642 22 C661 88 640 136 638 224 L638 224 Z M262 220 C276 244 308 272 406 389 C417 403 437 431 452 441 C468 398 468 369 478 327 C484 304 489 275 491 251 C407 248 340 231 262 220 L262 220 Z " />
<glyph glyph-name="b" unicode="b" horiz-adv-x="656" d="M209 -66 C220 -66 238 -65 250 -65 C379 -65 476 -27 545 21 C571 37 597 56 620 122 C630 156 626 195 605 233 C590 257 522 277 506 290 C568 337 625 367 648 445 C664 500 634 559 588 578 C567 587 527 614 458 614 C415 614 385 606 352 600 C260 572 190 595 165 507 C157 480 158 456 146 428 C136 396 129 363 116 318 C87 244 58 151 28 72 L24 66 C21 57 17 47 13 35 C-11 -52 92 -65 168 -65 C189 -65 198 -66 209 -66 L209 -66 Z M160 75 C170 102 191 160 201 190 C239 190 283 198 320 198 C352 198 427 184 434 181 C439 178 479 167 496 147 C454 103 379 72 211 72 C189 72 171 74 160 75 L160 75 Z M257 330 C269 371 284 432 291 456 C313 462 336 478 398 478 C459 478 497 455 511 444 C504 433 483 406 413 370 C338 331 281 330 257 330 L257 330 Z " />
<glyph glyph-name="c" unicode="c" horiz-adv-x="637" d="M594 608 C577 613 562 616 546 616 C458 616 379 578 315 544 C204 485 108 376 78 272 C50 173 53 43 130 -23 C165 -53 227 -67 286 -67 C422 -67 572 14 595 94 C605 128 575 147 555 147 C508 147 450 96 397 80 C372 72 345 61 319 61 C231 61 180 133 207 226 C234 321 296 389 386 441 C417 459 457 485 491 485 C535 485 544 420 592 420 C632 420 665 441 676 480 C686 516 681 575 594 608 L594 608 Z " />
<glyph glyph-name="d" unicode="d" horiz-adv-x="621" d="M88 -50 C105 -50 123 -49 141 -47 C172 -44 248 -30 291 -13 C348 4 446 53 493 103 C565 180 609 228 646 313 C650 325 656 336 659 348 C690 455 660 497 608 548 C584 572 549 581 504 592 C484 596 464 599 442 599 C398 599 320 579 272 579 C236 579 167 566 150 509 C147 497 147 485 145 477 C142 467 138 456 135 446 C128 422 121 392 112 361 C104 335 96 310 88 281 C80 255 75 230 69 207 C58 171 46 141 36 109 C9 14 -4 -50 88 -50 L88 -50 Z M282 444 C322 449 394 466 413 471 C508 459 526 422 530 406 C530 396 531 375 523 347 C510 304 460 185 315 125 C268 106 200 100 169 97 C206 199 244 313 282 444 L282 444 Z " />
<glyph glyph-name="e" unicode="e" horiz-adv-x="599" d="M548 52 C550 56 553 63 555 70 C570 120 535 127 503 127 C450 124 434 116 380 111 C347 107 305 106 271 101 C240 97 205 84 175 88 C182 101 187 114 191 128 C196 147 205 166 212 187 C292 204 289 212 345 216 C417 220 541 228 559 292 C575 348 493 344 460 344 C364 344 322 335 252 321 C258 361 260 387 271 423 C273 433 279 440 284 453 C369 460 588 446 616 542 C636 612 563 605 536 605 C492 605 463 594 412 591 C370 588 327 587 286 584 C214 578 179 575 147 462 C132 411 127 362 113 312 C90 234 58 178 30 79 C8 1 14 -57 121 -57 C157 -57 197 -50 231 -43 C291 -30 350 -22 410 -12 C452 -5 520 13 548 52 L548 52 Z " />
<glyph glyph-name="f" unicode="f" horiz-adv-x="529" d="M103 -52 C154 -52 179 19 182 30 C192 67 193 105 204 142 C208 156 212 171 215 185 C235 187 258 187 276 187 C424 187 497 212 510 256 C513 269 517 322 454 322 C446 322 436 321 427 321 C380 313 307 316 244 313 C249 328 256 344 260 359 C268 388 278 433 284 455 C327 460 593 442 618 529 C628 564 610 575 595 584 C576 599 556 600 542 600 C445 600 369 583 261 583 C251 583 240 586 226 586 C189 586 159 555 152 531 C147 511 144 491 143 472 C136 429 124 391 113 345 C114 349 96 234 62 96 C49 47 30 -52 103 -52 L103 -52 Z " />
<glyph glyph-name="g" unicode="g" horiz-adv-x="710" d="M725 270 C742 361 642 367 589 362 C531 357 453 366 384 320 C352 299 336 279 331 261 C326 245 330 231 342 220 C363 200 383 196 428 201 C450 204 544 215 565 215 C503 104 386 65 331 57 C274 47 214 64 187 101 C171 122 173 161 184 199 C195 236 214 274 233 301 C270 355 319 404 379 445 C419 473 474 472 517 477 C538 472 545 466 558 453 C573 440 592 431 622 442 C655 456 657 461 666 488 C686 551 608 622 537 614 C474 609 416 605 337 562 C298 542 237 489 206 460 C175 428 147 404 113 349 C94 317 80 283 71 249 C58 204 51 158 48 118 C44 66 72 1 114 -22 C144 -38 171 -51 207 -60 C225 -65 245 -66 266 -66 C293 -66 321 -64 348 -60 C422 -50 544 5 599 62 C643 106 715 220 725 270 L725 270 Z " />
<glyph glyph-name="h" unicode="h" horiz-adv-x="564" d="M617 499 C625 522 636 547 632 569 C627 592 597 603 573 608 C529 616 497 561 487 526 C472 473 461 420 447 367 C380 369 308 350 238 332 C243 352 247 371 255 400 C262 422 268 442 275 463 C285 490 298 525 286 548 C278 562 252 579 234 579 C184 581 159 521 145 473 C141 458 138 445 135 434 C128 400 114 365 108 331 C95 256 74 180 57 105 C46 63 22 -35 79 -45 C101 -49 127 -18 143 0 C165 26 172 61 180 91 C187 129 197 167 207 206 C272 225 343 224 407 230 C400 206 394 182 387 159 C376 109 361 53 358 4 C356 -16 364 -53 383 -62 C404 -71 452 -45 466 -26 C477 -13 483 4 488 21 C492 36 495 50 498 65 C508 114 530 164 542 215 C555 274 566 335 582 394 C593 429 606 464 617 499 L617 499 Z " />
<glyph glyph-name="i" unicode="i" horiz-adv-x="253" d="M136 415 C128 388 121 361 113 332 C101 291 84 251 72 209 C56 153 33 85 33 32 C33 -4 59 -44 97 -44 C120 -44 155 -28 169 19 C195 109 203 198 230 290 C243 335 262 378 275 422 C285 458 296 498 298 533 C299 552 279 588 251 588 C201 588 163 525 151 482 C144 460 142 437 136 415 L136 415 Z " />
<glyph glyph-name="j" unicode="j" horiz-adv-x="497" d="M109 -52 C124 -52 212 -50 256 -17 C321 21 348 62 367 129 C380 172 399 211 412 255 C423 296 431 335 443 379 C451 407 454 427 461 457 C531 466 561 475 585 541 C596 579 573 596 528 596 C481 596 421 591 369 583 C294 573 188 572 167 500 C154 454 192 433 212 433 C240 433 301 443 329 446 C323 425 324 407 317 383 C262 190 231 111 200 101 C182 96 162 91 146 91 C132 91 111 96 85 96 C47 96 14 79 3 39 C-19 -40 64 -52 109 -52 L109 -52 Z " />
<glyph glyph-name="k" unicode="k" horiz-adv-x="645" d="M650 453 C671 472 690 495 698 521 C704 543 701 596 666 596 C634 596 585 559 561 546 C527 528 496 506 464 485 C388 434 324 387 244 340 C255 376 268 411 279 447 C292 493 300 570 236 570 C180 570 149 509 136 463 C112 380 105 299 82 219 C65 151 52 105 39 57 C28 18 30 -50 88 -50 C132 -50 151 -12 162 25 C168 49 177 74 185 105 C188 114 191 123 194 136 C193 136 211 153 257 182 L294 198 C348 153 387 89 433 43 C447 23 486 -13 526 -13 C557 -13 578 -1 585 22 C592 47 568 88 543 124 C502 181 445 225 402 287 C482 340 576 388 650 453 L650 453 Z " />
<glyph glyph-name="l" unicode="l" horiz-adv-x="542" d="M247 353 C261 398 279 444 292 489 C301 520 312 594 251 594 C176 594 127 411 119 383 C110 352 103 321 94 290 C83 253 70 219 59 180 C31 81 -16 -49 99 -49 C181 -49 275 -23 359 -12 C408 -5 477 4 492 57 C506 106 452 114 417 114 C328 114 269 92 187 92 C169 92 167 92 165 92 C170 102 173 114 176 125 C184 151 189 176 196 202 C211 252 231 299 247 353 L247 353 Z " />
<glyph glyph-name="m" unicode="m" horiz-adv-x="900" d="M874 480 C876 515 867 603 798 603 C758 603 724 559 700 537 C641 480 548 335 460 235 C464 279 450 363 455 420 C456 433 468 584 369 584 C323 584 292 539 273 507 C213 418 167 322 104 226 C66 168 18 96 1 36 C-12 -12 -3 -50 51 -50 C91 -50 101 -31 155 59 C185 124 228 169 260 226 C277 255 294 273 318 312 C320 295 318 277 320 266 C323 197 317 123 321 67 C322 31 319 -58 390 -58 C464 -58 463 8 539 112 C591 180 642 255 716 343 C716 331 717 319 716 309 C716 309 728 264 710 31 C708 -12 720 -57 757 -57 C759 -57 818 -56 839 14 C842 25 843 34 845 50 C850 70 853 91 861 274 C863 301 874 446 874 480 L874 480 Z " />
<glyph glyph-name="n" unicode="n" horiz-adv-x="635" d="M142 482 C138 476 136 469 134 463 C115 397 112 328 94 261 C77 191 71 122 65 54 C62 27 37 -69 105 -69 C150 -69 177 -13 192 39 C218 131 214 225 239 313 C242 321 243 327 246 334 C280 274 311 198 330 132 C355 67 377 -45 456 -45 C513 -45 541 27 556 78 C572 133 583 189 598 244 C621 305 647 366 674 427 C683 447 695 467 702 490 C716 539 732 613 644 613 C578 613 553 486 547 473 C518 393 491 313 454 233 C415 305 400 391 362 463 C339 509 301 570 240 570 C189 570 158 519 142 482 L142 482 Z " />
<glyph glyph-name="o" unicode="o" horiz-adv-x="764" d="M780 414 C771 502 716 572 639 581 C616 581 599 583 575 583 C566 583 555 582 546 582 C525 582 510 591 489 591 C474 591 456 587 441 584 C221 542 101 354 79 279 C68 239 66 185 70 125 C74 89 87 59 117 26 C127 14 138 1 160 -10 C214 -43 271 -44 332 -44 C492 -44 618 35 706 151 C720 176 741 197 754 229 C765 255 773 281 778 297 C790 340 785 380 780 414 L780 414 Z M633 294 C607 206 512 149 493 136 C455 110 402 97 346 97 C236 97 190 160 215 247 C238 325 347 407 405 428 C431 437 472 449 490 449 C503 449 519 440 532 437 C570 432 637 440 638 393 C636 354 642 328 633 294 L633 294 Z " />
<glyph glyph-name="p" unicode="p" horiz-adv-x="586" d="M97 -61 C151 -61 172 -4 178 14 C185 41 186 67 208 166 C223 177 259 180 276 180 C373 185 583 233 629 394 C639 436 630 472 623 516 C605 582 541 605 460 605 C400 605 349 591 306 583 C200 562 158 546 144 498 C135 466 142 444 134 418 C131 407 130 397 127 387 C104 304 83 224 62 136 C53 103 1 -61 97 -61 L97 -61 Z M242 306 C247 319 252 335 256 352 C267 388 277 428 282 449 C319 450 412 464 437 471 C457 471 504 449 496 416 C487 387 465 358 381 322 C353 310 321 304 285 304 C267 304 252 305 242 306 L242 306 Z " />
<glyph glyph-name="q" unicode="q" horiz-adv-x="797" d="M759 80 C762 107 722 132 702 151 C720 177 736 207 753 266 C767 314 776 367 753 423 C720 528 637 591 502 591 C337 591 136 487 67 246 C49 182 31 32 137 -13 C161 -26 179 -34 202 -37 C232 -43 252 -47 278 -47 C415 -47 487 5 556 30 C575 39 592 48 608 58 C635 47 674 23 709 23 C731 23 748 37 754 59 C756 66 759 74 759 80 L759 80 Z M377 115 C343 107 308 100 276 100 C217 100 162 102 199 231 C239 370 400 450 501 450 C565 450 579 424 603 393 C636 345 646 344 640 321 C637 313 634 304 632 299 C621 272 607 250 591 230 C537 260 530 275 481 275 C457 275 406 261 399 235 C387 194 443 155 461 141 C429 128 401 122 377 115 L377 115 Z " />
<glyph glyph-name="r" unicode="r" horiz-adv-x="675" d="M591 563 C545 592 475 597 415 597 C354 597 301 592 239 559 C193 535 177 522 145 430 C137 410 131 389 125 369 C119 346 112 323 104 301 C87 260 73 218 58 176 C42 131 41 92 35 47 C32 22 27 -9 39 -31 C48 -47 65 -55 85 -55 C109 -55 138 -41 148 -18 C168 24 164 59 177 102 C181 111 187 139 196 158 C225 156 249 143 271 131 C313 111 379 71 415 50 C428 42 442 33 455 25 C469 18 480 10 493 4 C517 -10 537 -24 562 -31 C591 -36 614 -19 621 4 C625 17 623 32 614 47 C588 92 551 124 503 157 C479 171 443 204 419 219 C427 225 440 228 449 232 C502 257 530 267 556 288 C609 332 631 365 642 403 C648 422 651 441 652 463 C653 508 623 542 591 563 L591 563 Z M498 411 C457 376 432 364 378 342 C352 332 336 330 303 314 C287 307 264 306 244 299 C252 322 258 343 264 364 C270 384 274 416 286 439 C293 449 321 462 342 468 C379 477 402 482 434 481 C450 480 484 472 499 466 C531 449 518 429 498 411 L498 411 Z " />
<glyph glyph-name="s" unicode="s" horiz-adv-x="653" d="M392 310 C346 310 306 308 263 317 C290 369 386 440 444 459 C460 464 476 473 489 464 C498 456 506 424 513 418 C529 403 558 396 573 403 C581 407 593 411 600 416 C610 425 619 437 622 450 C626 463 631 504 629 517 C627 522 621 538 616 542 C601 556 591 565 571 575 C553 584 537 591 516 594 C472 600 431 583 388 566 C278 525 183 441 130 349 C111 313 104 270 130 243 C158 209 201 194 252 187 C269 185 288 185 308 185 C329 185 349 185 370 185 C414 185 457 182 492 167 C422 98 320 87 222 79 C182 75 142 76 115 96 C90 114 65 138 31 106 C-1 72 9 30 32 3 C58 -26 98 -41 141 -45 C169 -48 196 -49 223 -49 C273 -49 324 -44 377 -30 C450 -10 526 14 579 69 C598 89 615 124 625 158 C632 185 634 209 629 228 C614 262 583 282 541 292 C519 297 501 305 476 306 C449 309 420 310 392 310 L392 310 Z " />
<glyph glyph-name="t" unicode="t" horiz-adv-x="616" d="M707 555 C708 596 677 605 643 605 C629 605 615 604 601 603 C556 597 509 592 464 586 C421 579 375 568 335 565 C275 562 187 574 133 509 C119 490 110 473 115 453 C121 431 148 428 170 427 C198 425 230 427 261 429 C277 431 296 432 314 437 C308 407 303 365 295 334 C282 275 267 217 252 159 C242 124 231 91 219 57 C210 35 196 6 200 -14 C203 -34 221 -48 238 -56 C264 -66 285 -57 309 -34 C344 1 359 40 370 80 C377 102 381 125 388 147 C413 234 434 322 449 407 C452 419 454 442 458 454 C509 454 564 460 621 476 C671 494 705 489 707 555 L707 555 Z " />
<glyph glyph-name="u" unicode="u" horiz-adv-x="610" d="M63 162 C54 125 41 80 50 47 C60 6 90 -21 132 -35 C147 -40 162 -41 178 -41 C215 -41 255 -31 294 -23 C329 -17 369 -10 405 3 C433 12 459 19 479 41 C496 58 511 75 522 96 C535 116 550 146 559 168 C581 224 615 335 630 392 C638 420 647 454 654 484 C658 504 661 526 658 546 C649 582 608 600 566 577 C540 564 529 546 523 524 C518 507 516 487 514 469 C510 437 503 414 496 389 C491 372 486 356 481 337 C475 316 455 255 445 230 C439 211 418 176 406 160 C394 145 342 115 295 103 C276 100 237 91 218 93 C196 97 184 107 193 134 C206 171 220 215 233 261 C253 331 270 405 276 467 C279 489 279 513 273 533 C268 550 260 562 242 566 C202 577 158 533 149 500 C144 485 146 472 144 456 C142 420 126 372 115 335 C107 299 71 199 63 162 L63 162 Z " />
<glyph glyph-name="v" unicode="v" horiz-adv-x="601" d="M132 243 C137 211 138 177 142 145 C145 118 155 91 163 63 C170 35 179 6 188 -22 C193 -39 203 -56 217 -66 C233 -76 269 -79 289 -71 C317 -61 331 -36 348 -12 C390 54 421 125 464 191 C491 231 516 272 547 309 C580 352 606 394 634 440 C650 467 676 506 686 541 C692 564 693 586 680 603 C671 616 659 621 646 621 C617 621 584 594 560 566 C513 512 474 451 436 393 C397 334 360 288 322 229 C313 216 292 185 283 175 C275 202 275 234 269 257 C266 294 259 328 256 363 C251 411 265 506 231 525 C215 534 192 551 169 538 C143 524 129 495 122 468 C116 449 114 431 112 415 C106 356 124 299 132 243 L132 243 Z " />
<glyph glyph-name="w" unicode="w" horiz-adv-x="922" d="M234 -79 C273 -79 290 -61 296 -50 C335 8 370 76 413 140 C434 175 471 229 494 257 C497 207 523 53 530 14 C529 1 538 -66 613 -66 C662 -66 706 17 739 78 C773 140 812 199 853 270 C877 316 907 357 933 402 C954 438 985 477 997 517 C1008 556 985 623 933 623 C868 623 815 497 791 446 C749 354 689 282 647 204 C637 283 641 370 641 456 C639 478 640 573 571 573 C536 573 483 498 443 434 C417 393 357 291 305 237 C304 277 308 319 304 363 C301 384 303 409 299 431 C291 460 294 566 220 566 C186 566 151 538 143 512 C134 480 145 431 151 406 C183 265 129 112 159 -34 C165 -70 198 -79 234 -79 L234 -79 Z " />
<glyph glyph-name="x" unicode="x" horiz-adv-x="643" d="M707 566 C708 596 680 616 646 616 C632 616 617 612 603 604 C580 591 566 574 548 554 C526 528 502 501 480 475 C456 447 426 414 401 386 C399 392 385 405 383 410 C367 438 355 456 336 482 C317 504 306 528 287 550 C273 571 258 588 232 595 C208 603 191 598 176 583 C159 566 150 542 147 523 C145 500 157 480 169 465 C184 439 204 425 220 401 C239 374 255 348 275 323 C285 311 291 289 301 277 C245 220 192 164 133 112 C109 90 86 69 61 47 C38 27 20 8 12 -17 C0 -60 65 -79 104 -64 C151 -47 194 -13 232 20 C273 56 314 95 352 134 C357 139 365 147 371 153 C382 131 399 113 410 92 C420 69 430 51 441 25 C448 7 461 -13 480 -23 C508 -41 550 -40 574 3 C591 31 582 63 577 85 C569 112 559 138 545 162 C530 184 512 205 497 226 C490 237 482 249 475 261 C521 311 571 366 614 415 C652 458 706 520 707 566 L707 566 Z " />
<glyph glyph-name="y" unicode="y" horiz-adv-x="650" d="M746 535 C761 557 737 586 727 601 C713 621 688 616 661 609 C602 594 547 522 502 478 C461 438 423 396 385 353 C364 363 348 381 333 398 C315 420 296 441 278 464 C266 480 257 489 241 520 C231 541 205 557 182 547 C153 534 139 516 134 498 C130 484 131 469 133 453 C141 397 175 350 203 321 C231 295 250 255 288 238 C246 190 211 150 178 100 C157 70 126 27 116 -9 C112 -23 112 -37 116 -48 C123 -66 180 -75 202 -66 C238 -49 261 -18 286 12 C298 26 309 44 318 59 C330 78 340 93 353 110 C377 141 402 169 427 199 C456 234 484 268 514 300 C542 330 571 357 601 385 C626 411 655 437 679 464 C701 487 728 509 746 535 L746 535 Z " />
<glyph glyph-name="z" unicode="z" horiz-adv-x="613" d="M358 574 C298 574 201 544 183 478 C172 440 198 418 229 418 C297 418 375 454 445 447 C421 423 401 412 375 388 C312 331 243 277 180 216 C132 169 12 87 -4 27 C-18 -23 1 -48 49 -48 C67 -48 89 -45 103 -43 C158 -32 265 -32 367 -17 C439 -6 544 6 565 78 C574 110 561 137 522 137 C513 137 506 136 497 134 C426 122 349 114 267 112 C292 144 354 197 389 228 C459 290 545 344 601 406 C623 432 678 476 687 506 C707 577 623 592 563 592 C495 592 421 578 358 574 L358 574 Z " />
<glyph glyph-name="braceleft" unicode="&#x7b;" horiz-adv-x="537" d="M169 189 C154 184 136 178 121 178 C82 178 60 222 71 260 C89 322 190 340 301 361 C313 365 332 369 348 369 C442 369 444 341 428 287 C418 253 391 234 328 225 C275 220 217 197 169 189 L169 189 Z M392 146 C346 146 361 147 268 91 C247 78 228 66 202 47 C170 23 148 -6 141 -32 C131 -66 163 -107 189 -107 C213 -107 236 -85 250 -78 C380 14 430 17 440 53 C455 107 443 146 392 146 L392 146 Z M562 529 C530 566 489 575 466 597 C452 610 434 621 415 630 L408 635 C400 639 384 647 370 647 C330 647 314 614 309 597 C284 511 417 459 462 437 C476 431 487 420 505 420 C568 420 585 469 586 471 C592 494 577 513 562 529 L562 529 Z " />
<glyph glyph-name="bar" unicode="&#x7c;" horiz-adv-x="230" d="M48 -94 C103 -94 142 -18 155 28 C196 171 230 308 276 464 C290 512 328 634 257 634 C202 634 180 601 176 586 C174 579 173 573 171 561 C165 524 156 485 145 447 C136 414 123 381 115 354 C81 235 49 132 18 26 C15 14 14 3 10 -9 C4 -31 -6 -94 48 -94 L48 -94 Z " />
<glyph glyph-name="braceright" unicode="&#x7d;" horiz-adv-x="541" d="M254 -100 C310 -100 326 -66 329 -54 C346 5 280 36 241 52 C209 70 171 88 137 101 C121 107 109 111 96 111 C56 111 39 78 35 63 C10 -25 136 -69 197 -83 C214 -87 231 -100 254 -100 L254 -100 Z M244 184 C274 184 312 193 343 193 C369 193 398 190 426 190 C470 190 531 198 544 246 C558 292 490 317 483 319 C447 331 401 335 343 335 C273 335 188 304 171 244 C164 220 181 184 244 184 L244 184 Z M206 398 C251 397 264 397 313 434 C341 455 464 512 483 579 C491 606 487 639 452 639 C434 639 412 631 391 625 C352 612 313 597 264 568 C212 537 171 526 152 471 C140 429 181 398 206 398 L206 398 Z " />
<glyph glyph-name="asciitilde" unicode="&#x7e;" horiz-adv-x="683" d="M95 112 C147 112 167 154 198 204 C209 222 226 234 249 251 C278 273 290 275 292 275 C297 275 302 264 306 253 C348 140 373 115 422 115 C507 115 676 235 709 348 C719 385 703 422 663 422 C612 422 569 363 558 347 C534 316 503 277 463 268 C435 281 431 425 357 425 C314 425 259 405 214 381 C132 345 73 268 49 186 C44 167 38 112 95 112 L95 112 Z " />
<glyph glyph-name="exclamdown" unicode="&#xa1;" horiz-adv-x="314" d="M370 632 C371 632 219 630 192 533 C186 515 195 477 248 477 C273 480 296 489 322 495 C341 500 401 503 414 547 C430 603 417 632 370 632 L370 632 Z M258 410 C197 410 172 348 162 323 C147 292 127 253 118 219 C109 190 82 151 60 111 C42 81 23 50 6 17 C1 4 -6 -10 -10 -23 C-19 -56 -2 -91 37 -91 C101 -91 119 -32 133 -12 C152 16 163 45 176 78 C191 115 226 171 249 216 L262 239 C280 270 299 303 307 332 C316 365 299 410 258 410 L258 410 Z " />
<glyph glyph-name="cent" unicode="&#xa2;" horiz-adv-x="556" d="M235 -119 C284 -119 318 -78 334 -23 C340 -3 345 19 351 40 C353 47 355 53 358 61 C402 74 496 98 513 159 C519 178 505 222 451 222 C399 222 344 181 282 181 C243 181 193 207 203 241 C212 273 277 305 322 322 C333 325 384 353 412 353 C437 353 440 305 477 305 C512 305 558 339 568 375 C581 418 557 455 536 472 C512 490 513 494 513 494 C513 494 581 659 486 658 C432 657 413 594 408 578 L385 499 C383 494 379 487 377 480 C285 451 117 387 78 253 C41 123 127 52 212 45 C200 3 165 -119 235 -119 L235 -119 Z " />
<glyph glyph-name="sterling" unicode="&#xa3;" horiz-adv-x="628" d="M383 -67 C477 -67 537 -40 551 9 C570 75 495 59 473 66 C409 75 340 75 272 70 C309 111 334 149 350 190 C381 193 412 198 452 200 C498 206 572 215 592 282 C595 295 601 337 533 337 C479 337 413 318 358 318 C347 349 327 365 336 394 C348 438 458 472 497 472 C521 472 537 459 554 459 C577 459 612 484 620 513 C635 564 582 609 522 609 C507 609 494 606 483 606 C374 599 241 495 213 397 C205 369 200 339 209 316 C188 316 168 319 135 319 C123 319 86 318 74 275 C48 187 154 181 206 181 C187 155 160 127 142 111 C103 79 56 71 38 19 C8 -85 164 -66 255 -66 C273 -66 292 -63 312 -63 C318 -63 339 -67 383 -67 L383 -67 Z " />
<glyph glyph-name="yen" unicode="&#xa5;" horiz-adv-x="702" d="M290 -63 C337 -63 374 -16 386 27 C388 34 390 40 392 47 C550 67 577 57 607 134 L608 136 C620 178 595 194 547 194 C510 194 514 190 428 184 C429 195 429 208 433 221 C472 225 479 224 508 229 C510 229 615 225 634 292 C653 357 577 345 558 361 C618 398 632 418 677 446 C717 471 780 502 792 547 C800 573 784 605 756 605 C740 605 729 599 712 594 C665 579 622 548 598 531 C515 467 435 414 379 372 L377 371 C332 405 279 480 260 541 C253 559 239 568 213 568 C178 568 146 542 134 499 C125 467 136 445 152 418 C168 388 192 359 211 336 C218 327 221 326 222 325 C190 310 145 319 130 268 C127 257 111 189 168 189 C171 189 174 189 183 190 C218 191 256 200 294 209 C291 194 288 181 288 171 C263 164 239 164 215 164 C170 164 109 147 93 91 C79 43 117 26 140 26 C159 26 175 27 244 32 C231 -13 237 -63 290 -63 L290 -63 Z " />
<glyph glyph-name="dieresis" unicode="&#xa8;" horiz-adv-x="406" d="M513 824 C509 825 506 825 502 825 C491 825 417 809 407 775 C397 740 413 707 449 707 C454 707 516 733 531 785 C536 803 526 816 513 824 L513 824 Z M325 798 C315 804 304 816 291 816 C257 816 216 784 216 784 C211 778 208 775 206 768 C197 736 212 707 254 707 C278 711 329 759 334 776 C336 784 333 794 325 798 L325 798 Z " />
<glyph glyph-name="copyright" unicode="&#xa9;" horiz-adv-x="786" d="M273 -56 C507 -56 732 91 795 309 C847 491 787 573 602 591 C586 592 569 594 551 594 C512 594 481 586 425 573 C220 525 110 393 71 260 C63 229 57 197 54 162 C48 106 75 78 84 45 C102 -22 166 -56 273 -56 L273 -56 Z M541 463 C570 463 590 458 616 453 C633 449 717 445 692 359 C682 323 671 277 643 237 C559 116 444 87 349 79 C318 79 256 78 204 107 C158 136 161 173 174 220 C187 264 234 354 297 391 C374 436 490 463 541 463 L541 463 Z M363 124 C379 124 394 125 409 128 C429 131 507 145 520 193 C522 198 526 253 480 253 C449 253 409 234 386 234 C375 234 365 235 360 238 C369 268 442 290 461 295 C474 299 480 301 487 301 C493 301 505 272 528 272 C559 272 581 305 588 327 C597 358 596 427 528 427 C439 427 284 353 252 241 C228 158 284 124 363 124 L363 124 Z " />
<glyph glyph-name="ordfeminine" unicode="&#xaa;" horiz-adv-x="485" d="M197 181 C258 181 313 211 357 247 C361 229 351 195 407 195 C433 195 461 208 473 251 C484 291 475 319 475 327 C466 370 482 398 498 446 C500 454 502 462 504 469 C521 528 483 530 472 559 C465 587 458 608 416 609 C378 610 347 599 297 579 C221 548 116 459 80 331 C57 251 99 181 197 181 L197 181 Z M379 467 C376 459 373 451 371 445 C334 343 249 309 201 309 C194 309 191 308 195 321 C218 402 340 455 379 467 L379 467 Z " />
<glyph glyph-name="guillemotleft" unicode="&#xab;" horiz-adv-x="856" d="M333 36 C371 36 395 70 405 106 C424 172 371 194 346 206 C309 215 263 235 231 255 C289 273 344 299 404 341 C438 365 497 389 515 450 C523 478 502 503 481 503 C471 503 457 495 446 490 C412 471 385 453 356 441 C307 422 269 398 235 387 C200 374 102 357 79 274 C48 167 148 142 171 123 C197 100 238 91 273 69 C286 58 310 36 333 36 L333 36 Z M870 475 C857 475 841 471 821 460 C796 446 772 433 747 428 C666 410 479 388 449 281 C416 168 503 153 547 132 C572 120 592 106 619 94 C650 81 715 36 731 36 C742 36 785 53 799 103 C807 128 789 142 782 156 C765 186 674 244 602 266 C619 275 659 282 681 284 C745 292 884 341 907 422 C916 455 896 475 870 475 L870 475 Z " />
<glyph glyph-name="registered" unicode="&#xae;" horiz-adv-x="797" d="M324 -71 C408 -71 448 -41 515 -18 C615 23 712 94 782 231 C792 251 802 270 808 291 C814 312 814 331 815 349 C816 412 816 440 813 476 C802 543 761 572 694 595 C664 606 638 606 616 606 C597 606 576 609 551 609 C516 609 229 562 112 337 C101 316 58 234 41 173 C30 137 44 93 67 59 C87 5 172 -32 219 -49 C259 -57 281 -71 324 -71 L324 -71 Z M530 487 C555 487 638 482 655 469 C713 425 710 365 689 294 C671 231 633 184 575 138 C577 142 580 146 581 151 C596 202 542 222 509 239 C557 260 607 279 625 341 C627 349 645 449 534 449 C518 449 501 447 484 444 C384 424 324 436 305 371 C304 366 303 361 304 356 C304 326 292 279 280 239 C275 221 270 204 265 189 C255 164 247 147 243 132 C237 111 242 78 274 78 C335 78 357 162 371 197 C382 182 402 168 417 158 L420 156 C432 149 477 107 513 107 C520 107 526 109 531 110 C477 80 421 63 354 63 C320 63 120 63 163 213 C190 308 263 407 398 458 C429 469 484 487 530 487 L530 487 Z M411 334 C439 341 462 345 482 345 C493 345 515 334 520 331 C488 316 426 304 401 299 L411 334 Z " />
<glyph glyph-name="macron" unicode="&#xaf;" horiz-adv-x="481" d="M202 640 C206 640 209 640 215 640 C234 641 250 642 267 642 C299 641 329 647 358 650 C399 653 459 663 499 663 C508 663 522 660 540 660 C575 660 596 683 602 705 C608 723 598 735 589 745 C580 756 564 757 550 758 C522 758 494 757 466 752 C393 746 323 741 259 741 C255 741 228 741 206 733 C199 732 175 724 169 703 C166 694 167 683 168 675 C171 659 176 640 202 640 L202 640 Z " />
<glyph glyph-name="degree" unicode="&#xb0;" horiz-adv-x="453" d="M444 494 C423 522 385 530 353 541 C343 543 331 547 318 546 C240 542 145 493 107 423 C80 372 108 313 139 270 C171 225 218 207 271 199 C335 190 380 224 423 268 C445 291 462 319 470 349 C484 397 477 449 444 494 L444 494 Z M340 363 C333 334 311 316 287 316 C275 316 262 321 249 330 C231 343 223 362 236 383 C246 400 275 412 294 418 C299 419 344 428 345 418 C347 400 343 381 340 363 L340 363 Z " />
<glyph glyph-name="acute" unicode="&#xb4;" horiz-adv-x="303" d="M267 772 C247 760 228 746 217 725 C210 712 215 701 225 693 C238 683 265 688 279 689 C329 696 405 732 444 760 C458 771 474 784 483 799 C490 811 484 824 475 834 C457 855 424 846 403 834 C368 815 301 791 267 772 L267 772 Z " />
<glyph glyph-name="periodcentered" unicode="&#xb7;" horiz-adv-x="230" d="M202 370 C197 374 190 375 185 375 C152 375 108 321 94 299 C90 292 87 286 85 278 C77 250 82 206 115 206 C188 206 224 275 237 322 C244 345 219 359 202 370 L202 370 Z " />
<glyph glyph-name="cedilla" unicode="&#xb8;" horiz-adv-x="308" d="M203 -28 C196 -3 177 18 164 40 C151 62 131 91 105 88 C83 88 65 57 67 32 C70 16 76 -6 82 -21 C87 -31 110 -49 111 -61 C112 -71 82 -91 73 -94 C60 -100 55 -94 43 -89 C17 -79 4 -71 -20 -79 C-43 -85 -75 -109 -62 -136 C-50 -160 -15 -175 8 -181 C20 -185 33 -186 46 -186 C99 -186 156 -159 188 -115 C208 -89 214 -58 203 -28 L203 -28 Z " />
<glyph glyph-name="ordmasculine" unicode="&#xba;" horiz-adv-x="434" d="M197 175 C283 175 445 291 482 420 C514 531 461 616 367 616 C304 616 266 570 224 537 C160 494 105 411 84 340 C75 308 79 278 91 252 C105 224 137 175 197 175 L197 175 Z M363 482 C364 482 369 481 362 459 C347 405 268 306 219 306 C216 306 212 306 218 327 C223 347 238 363 252 391 C283 438 304 432 341 466 C346 469 359 482 363 482 L363 482 Z " />
<glyph glyph-name="guillemotright" unicode="&#xbb;" horiz-adv-x="860" d="M607 498 C570 498 546 464 535 428 C516 362 570 340 595 328 C632 319 677 299 711 279 C652 261 597 235 537 193 C503 169 443 145 426 84 C418 56 439 31 460 31 C470 31 484 39 494 44 C530 63 557 81 584 93 C634 112 672 136 706 147 C741 160 838 177 862 260 C893 367 793 392 771 411 C744 434 703 444 668 466 C655 476 630 498 607 498 L607 498 Z M71 59 C84 59 100 63 120 74 C145 88 169 101 194 106 C274 124 462 146 492 253 C525 366 438 381 394 402 C368 414 348 428 322 440 C291 453 226 498 209 498 C198 498 156 481 141 431 C134 406 152 392 159 378 C175 348 267 290 338 268 C322 259 282 252 259 250 C197 242 57 193 34 112 C24 79 45 59 71 59 L71 59 Z " />
<glyph glyph-name="questiondown" unicode="&#xbf;" horiz-adv-x="590" d="M441 376 C470 401 499 409 521 409 C570 409 580 371 570 334 C551 268 414 204 363 177 C294 141 240 116 177 56 C190 50 206 48 221 48 C283 48 389 66 445 94 C456 101 465 103 475 103 C513 103 518 61 512 39 C491 -36 369 -59 337 -69 C304 -78 271 -80 239 -81 C233 -81 -19 -91 16 35 C57 178 355 301 441 376 L441 376 Z M521 498 C564 498 669 515 689 586 C707 648 653 648 611 648 C555 648 483 592 469 546 C457 502 504 499 521 498 L521 498 Z " />
<glyph glyph-name="Agrave" unicode="&#xc0;" horiz-adv-x="744" d="M658 189 C652 261 634 354 625 400 C599 516 560 603 504 603 C408 603 317 491 247 402 C154 288 29 158 -4 41 C-14 4 -16 -39 47 -39 C112 -39 126 -8 149 25 C166 49 179 72 194 92 C219 89 232 85 245 85 C336 88 436 123 518 103 C520 76 532 45 539 19 C550 -23 565 -58 622 -58 C649 -58 669 -39 678 -10 C686 19 674 67 672 92 C669 136 660 153 658 189 L658 189 Z M403 231 C358 230 322 226 276 217 C336 294 377 375 464 433 C480 375 498 327 505 242 C466 230 453 234 403 231 L403 231 Z M558 633 C579 624 601 618 624 620 C638 623 644 632 644 646 C645 662 627 681 618 692 C585 728 515 767 469 782 C454 787 433 792 416 791 C403 790 396 777 392 764 C387 737 412 716 433 706 C467 689 524 649 558 633 L558 633 Z " />
<glyph glyph-name="Aacute" unicode="&#xc1;" horiz-adv-x="744" d="M658 189 C652 261 634 354 625 400 C599 516 560 603 504 603 C408 603 317 491 247 402 C154 288 29 158 -4 41 C-14 4 -16 -39 47 -39 C112 -39 126 -8 149 25 C166 49 179 72 194 92 C219 89 232 85 245 85 C336 88 436 123 518 103 C520 76 532 45 539 19 C550 -23 565 -58 622 -58 C649 -58 669 -39 678 -10 C686 19 674 67 672 92 C669 136 660 153 658 189 L658 189 Z M403 231 C358 230 322 226 276 217 C336 294 377 375 464 433 C480 375 498 327 505 242 C466 230 453 234 403 231 L403 231 Z M450 716 C430 704 411 690 400 669 C393 656 398 645 408 637 C421 627 448 632 462 633 C512 640 588 676 627 704 C641 715 657 728 666 743 C673 755 667 768 658 778 C640 799 607 790 586 778 C551 759 484 735 450 716 L450 716 Z " />
<glyph glyph-name="Acircumflex" unicode="&#xc2;" horiz-adv-x="744" d="M658 189 C652 261 634 354 625 400 C599 516 560 603 504 603 C408 603 317 491 247 402 C154 288 29 158 -4 41 C-14 4 -16 -39 47 -39 C112 -39 126 -8 149 25 C166 49 179 72 194 92 C219 89 232 85 245 85 C336 88 436 123 518 103 C520 76 532 45 539 19 C550 -23 565 -58 622 -58 C649 -58 669 -39 678 -10 C686 19 674 67 672 92 C669 136 660 153 658 189 L658 189 Z M403 231 C358 230 322 226 276 217 C336 294 377 375 464 433 C480 375 498 327 505 242 C466 230 453 234 403 231 L403 231 Z M663 677 C659 689 652 698 645 707 C625 736 624 795 569 795 C504 795 411 720 372 690 C349 674 312 650 306 628 C300 608 315 597 335 597 C395 597 439 642 475 663 C496 675 515 690 540 701 C572 676 577 601 621 601 C646 601 663 617 668 635 C673 652 669 663 663 677 L663 677 Z " />
<glyph glyph-name="Atilde" unicode="&#xc3;" horiz-adv-x="744" d="M658 189 C652 261 634 354 625 400 C599 516 560 603 504 603 C408 603 317 491 247 402 C154 288 29 158 -4 41 C-14 4 -16 -39 47 -39 C112 -39 126 -8 149 25 C166 49 179 72 194 92 C219 89 232 85 245 85 C336 88 436 123 518 103 C520 76 532 45 539 19 C550 -23 565 -58 622 -58 C649 -58 669 -39 678 -10 C686 19 674 67 672 92 C669 136 660 153 658 189 L658 189 Z M403 231 C358 230 322 226 276 217 C336 294 377 375 464 433 C480 375 498 327 505 242 C466 230 453 234 403 231 L403 231 Z M360 626 C391 626 403 651 421 681 C427 691 438 697 451 708 C469 721 476 722 477 722 C480 722 483 716 485 709 C510 642 525 628 553 628 C604 628 704 699 723 765 C730 788 721 809 696 809 C666 809 641 774 634 765 C620 747 601 723 578 718 C561 726 559 811 515 811 C489 811 458 798 430 785 C383 763 347 718 333 669 C330 659 326 626 360 626 L360 626 Z " />
<glyph glyph-name="Adieresis" unicode="&#xc4;" horiz-adv-x="744" d="M658 189 C652 261 634 354 625 400 C599 516 560 603 504 603 C408 603 317 491 247 402 C154 288 29 158 -4 41 C-14 4 -16 -39 47 -39 C112 -39 126 -8 149 25 C166 49 179 72 194 92 C219 89 232 85 245 85 C336 88 436 123 518 103 C520 76 532 45 539 19 C550 -23 565 -58 622 -58 C649 -58 669 -39 678 -10 C686 19 674 67 672 92 C669 136 660 153 658 189 L658 189 Z M403 231 C358 230 322 226 276 217 C336 294 377 375 464 433 C480 375 498 327 505 242 C466 230 453 234 403 231 L403 231 Z M676 757 C672 758 669 758 665 758 C654 758 580 742 570 708 C560 673 576 640 612 640 C617 640 679 666 694 718 C699 736 689 749 676 757 L676 757 Z M488 731 C478 737 467 749 454 749 C420 749 379 717 379 717 C374 711 371 708 369 701 C360 669 375 640 417 640 C441 644 492 692 497 709 C499 717 496 727 488 731 L488 731 Z " />
<glyph glyph-name="Aring" unicode="&#xc5;" horiz-adv-x="744" d="M654 758 C641 777 613 782 591 789 C582 791 573 794 566 794 C511 791 444 756 418 707 C399 672 418 630 441 600 C444 595 447 590 451 586 C380 551 315 471 260 402 C167 288 42 158 9 41 C-1 4 -2 -39 61 -39 C126 -39 139 -8 162 25 C179 49 192 72 207 92 C232 89 245 85 258 85 C327 87 405 109 472 109 C500 109 497 103 531 103 C534 76 546 45 552 19 C563 -23 578 -58 635 -58 C662 -58 683 -39 691 -10 C699 19 687 67 685 92 C682 136 674 153 671 189 C666 261 647 354 638 400 C624 463 607 519 583 555 C603 564 621 579 639 597 C656 614 667 634 672 654 C682 688 677 725 654 758 L654 758 Z M416 231 C372 230 336 226 289 217 C349 294 390 375 477 433 C493 375 512 327 518 242 C480 230 466 234 416 231 L416 231 Z M581 666 C574 635 544 623 517 641 C505 650 500 665 509 679 C517 691 536 700 549 702 C553 703 583 709 584 702 C583 689 583 678 581 666 L581 666 Z " />
<glyph glyph-name="AE" unicode="&#xc6;" horiz-adv-x="905" d="M32 -31 C64 -52 140 30 164 62 L188 85 C192 81 199 79 206 78 C240 70 280 79 314 80 C335 81 376 80 417 87 C410 63 402 40 396 18 C385 -22 410 -56 448 -56 C478 -56 521 -37 560 -30 C654 -12 836 -18 858 58 C870 101 810 118 778 118 C745 118 710 118 678 114 C632 109 582 92 543 92 C553 114 554 129 560 150 C564 164 568 178 572 194 C627 215 692 221 749 229 C795 235 908 230 922 279 C942 349 856 353 799 353 C740 353 669 345 611 334 C622 375 638 462 638 462 C638 462 695 468 744 473 C793 478 970 462 999 548 C1006 590 927 600 887 600 C846 600 802 596 761 596 C730 596 700 599 669 599 L657 599 C652 601 648 603 644 604 C634 606 627 608 620 608 C598 608 582 595 567 581 L501 525 C462 493 422 459 385 422 C360 397 337 375 313 353 C258 305 146 198 62 111 C38 83 22 61 10 36 C-1 10 5 -23 32 -31 L32 -31 Z M448 222 L418 217 C391 212 348 209 313 207 C330 225 352 243 372 261 C385 273 399 284 412 297 L460 340 L486 361 C475 321 465 282 453 242 L448 222 Z " />
<glyph glyph-name="Ccedilla" unicode="&#xc7;" horiz-adv-x="599" d="M344 -78 L337 -58 C374 -49 412 -36 449 -17 C489 4 575 62 545 105 C534 120 521 125 506 125 C480 125 449 109 419 94 C367 69 295 48 242 50 C176 53 164 129 180 185 C194 233 229 284 262 323 C305 375 330 405 394 445 C417 459 452 478 474 472 C497 466 517 456 530 441 C541 428 559 423 575 423 C595 423 612 429 622 441 C638 460 644 478 645 500 C647 520 624 581 583 597 C561 606 524 619 490 619 C404 619 334 568 264 508 C170 428 82 321 50 211 C43 186 39 160 38 136 C37 76 43 14 84 -28 C116 -62 171 -75 227 -74 C234 -84 251 -100 252 -110 C254 -120 223 -140 214 -144 C201 -149 196 -144 183 -138 C158 -128 145 -120 120 -128 C98 -134 65 -158 78 -185 C91 -209 127 -224 149 -230 C161 -234 174 -235 187 -235 C240 -235 296 -208 330 -164 C348 -138 355 -107 344 -78 L344 -78 Z " />
<glyph glyph-name="Egrave" unicode="&#xc8;" horiz-adv-x="539" d="M627 548 C598 462 421 478 371 473 C324 468 266 462 266 462 C266 462 250 375 238 334 C297 345 368 353 428 353 C485 353 570 349 550 279 C535 230 424 235 376 229 C320 221 255 215 199 194 C197 178 193 164 189 150 C182 129 180 114 172 92 C211 92 261 109 306 114 C338 118 373 118 405 118 C437 118 497 101 485 58 C463 -18 283 -12 188 -30 C149 -37 105 -56 76 -56 C37 -56 12 -22 24 18 C31 44 40 72 48 101 C59 137 62 172 72 207 C75 219 78 230 82 242 C95 288 106 334 119 380 C130 416 131 453 141 486 C161 555 193 599 296 599 C327 599 357 596 388 596 C430 596 474 600 516 600 C556 600 634 590 627 548 L627 548 Z M465 643 C486 634 508 628 531 630 C545 633 551 642 551 656 C552 672 534 691 525 702 C492 738 422 777 376 792 C361 797 340 802 323 801 C310 800 303 787 299 774 C294 747 319 726 340 716 C374 699 431 659 465 643 L465 643 Z " />
<glyph glyph-name="Eacute" unicode="&#xc9;" horiz-adv-x="539" d="M627 548 C598 462 421 478 371 473 C324 468 266 462 266 462 C266 462 250 375 238 334 C297 345 368 353 428 353 C485 353 570 349 550 279 C535 230 424 235 376 229 C320 221 255 215 199 194 C197 178 193 164 189 150 C182 129 180 114 172 92 C211 92 261 109 306 114 C338 118 373 118 405 118 C437 118 497 101 485 58 C463 -18 283 -12 188 -30 C149 -37 105 -56 76 -56 C37 -56 12 -22 24 18 C31 44 40 72 48 101 C59 137 62 172 72 207 C75 219 78 230 82 242 C95 288 106 334 119 380 C130 416 131 453 141 486 C161 555 193 599 296 599 C327 599 357 596 388 596 C430 596 474 600 516 600 C556 600 634 590 627 548 L627 548 Z M369 726 C349 714 330 700 319 679 C312 666 317 655 327 647 C340 637 367 642 381 643 C431 650 507 686 546 714 C560 725 576 738 585 753 C592 765 586 778 577 788 C559 809 526 800 505 788 C470 769 403 745 369 726 L369 726 Z " />
<glyph glyph-name="Ecircumflex" unicode="&#xca;" horiz-adv-x="539" d="M627 548 C598 462 421 478 371 473 C324 468 266 462 266 462 C266 462 250 375 238 334 C297 345 368 353 428 353 C485 353 570 349 550 279 C535 230 424 235 376 229 C320 221 255 215 199 194 C197 178 193 164 189 150 C182 129 180 114 172 92 C211 92 261 109 306 114 C338 118 373 118 405 118 C437 118 497 101 485 58 C463 -18 283 -12 188 -30 C149 -37 105 -56 76 -56 C37 -56 12 -22 24 18 C31 44 40 72 48 101 C59 137 62 172 72 207 C75 219 78 230 82 242 C95 288 106 334 119 380 C130 416 131 453 141 486 C161 555 193 599 296 599 C327 599 357 596 388 596 C430 596 474 600 516 600 C556 600 634 590 627 548 L627 548 Z M602 721 C598 733 591 742 584 751 C564 780 563 839 508 839 C443 839 350 764 311 734 C288 718 251 694 245 672 C239 652 254 641 274 641 C334 641 378 686 414 707 C435 719 454 734 479 745 C511 720 516 645 560 645 C585 645 602 661 607 679 C612 696 608 707 602 721 L602 721 Z " />
<glyph glyph-name="Edieresis" unicode="&#xcb;" horiz-adv-x="539" d="M627 548 C634 590 556 600 516 600 C474 600 430 596 388 596 C357 596 327 599 296 599 C193 599 161 555 141 486 C131 453 130 416 119 380 C106 334 95 288 82 242 C78 230 75 219 72 207 C62 172 59 137 48 101 C40 72 31 44 24 18 C12 -22 37 -56 76 -56 C105 -56 149 -37 188 -30 C283 -12 463 -18 485 58 C497 101 437 118 405 118 C373 118 338 118 306 114 C261 109 211 92 172 92 C180 114 182 129 189 150 C193 164 197 178 199 194 C255 215 320 221 376 229 C424 235 535 230 550 279 C570 349 485 353 428 353 C368 353 297 345 238 334 C250 375 266 462 266 462 C266 462 324 468 371 473 C421 478 598 462 627 548 L627 548 Z M569 763 C565 764 562 764 558 764 C547 764 473 748 463 714 C453 679 469 646 505 646 C510 646 572 672 587 724 C592 742 582 755 569 763 L569 763 Z M381 737 C371 743 360 755 347 755 C313 755 272 723 272 723 C267 717 264 714 262 707 C253 675 268 646 310 646 C334 650 385 698 390 715 C392 723 389 733 381 737 L381 737 Z " />
<glyph glyph-name="Igrave" unicode="&#xcc;" horiz-adv-x="537" d="M568 473 C548 467 527 466 506 466 C496 466 486 466 477 466 C466 466 423 459 423 459 C423 459 388 383 377 343 C353 260 321 100 321 100 C321 100 335 97 345 97 C367 97 388 102 410 102 C453 102 476 74 460 19 C447 -26 408 -30 375 -30 C364 -30 354 -30 345 -30 C261 -30 178 -40 94 -40 C51 -40 32 -17 42 19 C65 101 135 83 206 89 C202 112 209 141 211 164 C213 200 215 221 226 261 C244 321 260 385 286 446 C265 444 243 441 223 441 C175 441 126 449 144 511 C162 575 299 564 349 570 C403 577 458 584 511 584 C569 584 628 573 611 515 C606 498 593 482 568 473 L568 473 Z M461 633 C482 624 504 618 527 620 C541 623 547 632 547 646 C548 662 530 681 521 692 C488 728 418 767 372 782 C357 787 336 792 319 791 C306 790 299 777 295 764 C290 737 315 716 336 706 C370 689 427 649 461 633 L461 633 Z " />
<glyph glyph-name="Iacute" unicode="&#xcd;" horiz-adv-x="537" d="M568 473 C548 467 527 466 506 466 C496 466 486 466 477 466 C466 466 423 459 423 459 C423 459 388 383 377 343 C353 260 321 100 321 100 C321 100 335 97 345 97 C367 97 388 102 410 102 C453 102 476 74 460 19 C447 -26 408 -30 375 -30 C364 -30 354 -30 345 -30 C261 -30 178 -40 94 -40 C51 -40 32 -17 42 19 C65 101 135 83 206 89 C202 112 209 141 211 164 C213 200 215 221 226 261 C244 321 260 385 286 446 C265 444 243 441 223 441 C175 441 126 449 144 511 C162 575 299 564 349 570 C403 577 458 584 511 584 C569 584 628 573 611 515 C606 498 593 482 568 473 L568 473 Z M339 692 C319 680 300 666 289 645 C282 632 287 621 297 613 C310 603 337 608 351 609 C401 616 477 652 516 680 C530 691 546 704 555 719 C562 731 556 744 547 754 C529 775 496 766 475 754 C440 735 373 711 339 692 L339 692 Z " />
<glyph glyph-name="Icircumflex" unicode="&#xce;" horiz-adv-x="537" d="M568 473 C548 467 527 466 506 466 C496 466 486 466 477 466 C466 466 423 459 423 459 C423 459 388 383 377 343 C353 260 321 100 321 100 C321 100 335 97 345 97 C367 97 388 102 410 102 C453 102 476 74 460 19 C447 -26 408 -30 375 -30 C364 -30 354 -30 345 -30 C261 -30 178 -40 94 -40 C51 -40 32 -17 42 19 C65 101 135 83 206 89 C202 112 209 141 211 164 C213 200 215 221 226 261 C244 321 260 385 286 446 C265 444 243 441 223 441 C175 441 126 449 144 511 C162 575 299 564 349 570 C403 577 458 584 511 584 C569 584 628 573 611 515 C606 498 593 482 568 473 L568 473 Z M589 688 C585 700 578 709 571 718 C551 747 550 806 495 806 C430 806 337 731 298 701 C275 685 238 661 232 639 C226 619 241 608 261 608 C321 608 365 653 401 674 C422 686 441 701 466 712 C498 687 503 612 547 612 C572 612 589 628 594 646 C599 663 595 674 589 688 L589 688 Z " />
<glyph glyph-name="Idieresis" unicode="&#xcf;" horiz-adv-x="537" d="M568 473 C593 482 606 498 611 515 C628 573 569 584 511 584 C458 584 403 577 349 570 C299 564 162 575 144 511 C126 449 175 441 223 441 C243 441 265 444 286 446 C260 385 244 321 226 261 C215 221 213 200 211 164 C209 141 202 112 206 89 C135 83 65 101 42 19 C32 -17 51 -40 94 -40 C178 -40 261 -30 345 -30 C354 -30 364 -30 375 -30 C408 -30 447 -26 460 19 C476 74 453 102 410 102 C388 102 367 97 345 97 C335 97 321 100 321 100 C321 100 353 260 377 343 C388 383 423 459 423 459 C423 459 466 466 477 466 C486 466 496 466 506 466 C527 466 548 467 568 473 L568 473 Z M573 736 C569 737 566 737 562 737 C551 737 477 721 467 687 C457 652 473 619 509 619 C514 619 576 645 591 697 C596 715 586 728 573 736 L573 736 Z M385 710 C375 716 364 728 351 728 C317 728 276 696 276 696 C271 690 268 687 266 680 C257 648 272 619 314 619 C338 623 389 671 394 688 C396 696 393 706 385 710 L385 710 Z " />
<glyph glyph-name="Eth" unicode="&#xd0;" horiz-adv-x="706" d="M66 290 C61 277 58 266 60 252 C62 226 76 206 97 200 C106 198 118 197 129 197 L128 193 C115 154 107 114 92 74 C86 53 76 35 70 14 C61 -17 63 -53 123 -53 C157 -53 184 -41 262 -37 C340 -34 386 -12 468 28 C586 92 685 185 720 310 C723 319 726 328 727 337 C743 500 671 537 631 565 C592 599 548 597 469 597 C389 597 220 582 197 499 C180 442 171 385 161 328 C148 328 135 328 121 327 C92 323 80 321 66 290 L66 290 Z M323 459 C348 462 397 464 444 464 C465 464 482 464 493 463 C533 460 613 415 608 371 C606 358 603 344 599 330 C587 287 558 239 474 172 C383 100 262 84 221 81 C224 92 226 107 231 125 C239 150 248 177 257 204 C319 208 403 220 408 283 C408 310 399 334 377 343 C356 353 332 344 309 340 L295 337 L323 459 Z " />
<glyph glyph-name="Ntilde" unicode="&#xd1;" horiz-adv-x="661" d="M113 255 C109 213 95 171 77 109 C72 94 55 25 64 -10 C69 -32 97 -49 126 -49 C172 -49 193 1 204 41 C222 102 243 231 260 334 C295 262 327 185 360 115 C370 96 383 65 389 45 C405 1 408 -57 486 -57 C547 -57 561 10 577 53 C635 200 693 354 737 509 C749 550 733 597 688 601 C600 601 578 495 564 446 C560 432 558 419 554 406 C531 339 517 294 482 202 C471 217 467 229 461 241 C430 304 404 350 380 402 C347 473 320 575 234 575 C181 575 149 534 135 486 C123 445 123 418 123 381 C121 341 119 296 113 255 L113 255 Z M314 592 C345 592 357 617 375 647 C381 657 392 663 405 674 C423 687 430 688 431 688 C434 688 437 682 439 675 C464 608 479 594 507 594 C558 594 658 665 677 731 C684 754 675 775 650 775 C620 775 595 740 588 731 C574 713 555 689 532 684 C515 692 513 777 469 777 C443 777 412 764 384 751 C337 729 301 684 287 635 C284 625 280 592 314 592 L314 592 Z " />
<glyph glyph-name="Ograve" unicode="&#xd2;" horiz-adv-x="732" d="M284 -59 C232 -59 201 -53 171 -32 L170 -32 C116 5 50 14 46 144 C44 168 50 195 59 224 C79 294 114 331 153 397 C239 522 411 604 546 604 C670 582 713 531 745 412 C758 361 750 291 738 250 C720 185 678 133 627 81 C599 53 574 37 543 19 C476 -22 407 -59 284 -59 L284 -59 Z M497 456 C403 456 339 407 264 328 C225 288 197 252 182 199 C170 159 170 115 225 93 C254 85 273 75 307 75 C402 75 504 128 579 217 L579 219 C599 242 617 265 625 290 C650 380 569 456 497 456 L497 456 Z M609 651 C630 642 652 636 675 638 C689 641 695 650 695 664 C696 680 678 699 669 710 C636 746 566 785 520 800 C505 805 484 810 467 809 C454 808 447 795 443 782 C438 755 463 734 484 724 C518 707 575 667 609 651 L609 651 Z " />
<glyph glyph-name="Oacute" unicode="&#xd3;" horiz-adv-x="732" d="M284 -59 C232 -59 201 -53 171 -32 L170 -32 C116 5 50 14 46 144 C44 168 50 195 59 224 C79 294 114 331 153 397 C239 522 411 604 546 604 C670 582 713 531 745 412 C758 361 750 291 738 250 C720 185 678 133 627 81 C599 53 574 37 543 19 C476 -22 407 -59 284 -59 L284 -59 Z M497 456 C403 456 339 407 264 328 C225 288 197 252 182 199 C170 159 170 115 225 93 C254 85 273 75 307 75 C402 75 504 128 579 217 L579 219 C599 242 617 265 625 290 C650 380 569 456 497 456 L497 456 Z M443 731 C423 719 404 705 393 684 C386 671 391 660 401 652 C414 642 441 647 455 648 C505 655 581 691 620 719 C634 730 650 743 659 758 C666 770 660 783 651 793 C633 814 600 805 579 793 C544 774 477 750 443 731 L443 731 Z " />
<glyph glyph-name="Ocircumflex" unicode="&#xd4;" horiz-adv-x="732" d="M284 -59 C232 -59 201 -53 171 -32 L170 -32 C116 5 50 14 46 144 C44 168 50 195 59 224 C79 294 114 331 153 397 C239 522 411 604 546 604 C670 582 713 531 745 412 C758 361 750 291 738 250 C720 185 678 133 627 81 C599 53 574 37 543 19 C476 -22 407 -59 284 -59 L284 -59 Z M497 456 C403 456 339 407 264 328 C225 288 197 252 182 199 C170 159 170 115 225 93 C254 85 273 75 307 75 C402 75 504 128 579 217 L579 219 C599 242 617 265 625 290 C650 380 569 456 497 456 L497 456 Z M709 698 C705 710 698 719 691 728 C671 757 670 816 615 816 C550 816 457 741 418 711 C395 695 358 671 352 649 C346 629 361 618 381 618 C441 618 485 663 521 684 C542 696 561 711 586 722 C618 697 623 622 667 622 C692 622 709 638 714 656 C719 673 715 684 709 698 L709 698 Z " />
<glyph glyph-name="Otilde" unicode="&#xd5;" horiz-adv-x="732" d="M284 -59 C407 -59 476 -22 543 19 C574 37 599 53 627 81 C678 133 720 185 738 250 C750 291 758 361 745 412 C713 531 670 582 546 604 C411 604 239 522 153 397 C114 331 79 294 59 224 C50 195 44 168 46 144 C50 14 116 5 170 -32 L171 -32 C201 -53 232 -59 284 -59 L284 -59 Z M497 456 C569 456 650 380 625 290 C617 265 599 242 579 219 L579 217 C504 128 402 75 307 75 C273 75 254 85 225 93 C170 115 170 159 182 199 C197 252 225 288 264 328 C339 407 403 456 497 456 L497 456 Z M383 634 C414 634 426 659 444 689 C450 699 461 705 474 716 C492 729 499 730 500 730 C503 730 506 724 508 717 C533 650 548 636 576 636 C627 636 727 707 746 773 C753 796 744 817 719 817 C689 817 664 782 657 773 C643 755 624 731 601 726 C584 734 582 819 538 819 C512 819 481 806 453 793 C406 771 370 726 356 677 C353 667 349 634 383 634 L383 634 Z " />
<glyph glyph-name="Odieresis" unicode="&#xd6;" horiz-adv-x="732" d="M284 -59 C407 -59 476 -22 543 19 C574 37 599 53 627 81 C678 133 720 185 738 250 C750 291 758 361 745 412 C713 531 670 582 546 604 C411 604 239 522 153 397 C114 331 79 294 59 224 C50 195 44 168 46 144 C50 14 116 5 170 -32 L171 -32 C201 -53 232 -59 284 -59 L284 -59 Z M497 456 C569 456 650 380 625 290 C617 265 599 242 579 219 L579 217 C504 128 402 75 307 75 C273 75 254 85 225 93 C170 115 170 159 182 199 C197 252 225 288 264 328 C339 407 403 456 497 456 L497 456 Z M709 746 C705 747 702 747 698 747 C687 747 613 731 603 697 C593 662 609 629 645 629 C650 629 712 655 727 707 C732 725 722 738 709 746 L709 746 Z M521 720 C511 726 500 738 487 738 C453 738 412 706 412 706 C407 700 404 697 402 690 C393 658 408 629 450 629 C474 633 525 681 530 698 C532 706 529 716 521 720 L521 720 Z " />
<glyph glyph-name="multiply" unicode="&#xd7;" horiz-adv-x="450" d="M42 102 C77 54 179 140 230 173 C248 149 258 116 278 89 C294 69 341 36 396 80 C422 100 419 123 419 145 C413 190 390 242 370 282 C374 286 380 290 387 295 C430 328 531 400 492 454 C471 482 428 485 396 459 C369 438 347 406 307 376 C282 411 218 517 145 460 C82 411 98 367 120 335 C138 313 157 297 173 275 C155 264 136 251 117 235 C92 216 9 151 42 102 L42 102 Z " />
<glyph glyph-name="Oslash" unicode="&#xd8;" horiz-adv-x="732" d="M104 -84 C122 -97 158 -71 189 -41 C215 -54 243 -59 286 -59 C409 -59 478 -22 545 19 C576 37 601 53 629 81 C680 133 722 185 740 250 C752 291 760 361 747 412 L730 466 C751 485 777 507 776 538 C776 561 763 581 741 587 C732 590 724 591 718 591 C696 591 679 578 663 564 C662 562 662 562 661 561 C633 582 597 595 548 604 C413 604 241 522 155 397 C116 331 81 294 61 224 C52 195 46 168 48 144 C50 71 71 36 99 13 C92 3 86 -6 82 -17 C69 -43 77 -76 104 -84 L104 -84 Z M499 456 C509 456 521 455 532 451 C515 437 497 420 482 405 C456 380 435 358 411 336 C358 290 304 241 255 186 C238 167 218 149 200 131 L190 120 C172 142 176 172 184 199 C199 252 227 288 266 328 C341 407 405 456 499 456 L499 456 Z M294 75 C310 91 324 105 340 119 L404 184 C423 204 447 225 469 244 C482 256 497 268 510 281 L558 323 C568 331 579 339 587 348 L620 375 C632 349 636 321 627 290 C619 265 601 242 581 219 L581 217 C506 128 404 75 309 75 L294 75 Z " />
<glyph glyph-name="Ugrave" unicode="&#xd9;" horiz-adv-x="656" d="M697 476 C693 442 690 407 681 374 C654 279 633 206 597 114 C582 76 565 45 523 23 C482 1 441 0 397 -14 C333 -35 260 -50 202 -50 C48 -50 28 66 73 222 C87 272 105 337 120 389 C131 427 134 455 145 494 C159 542 190 579 247 579 C307 579 291 480 274 419 C263 381 249 340 238 308 C209 185 206 180 204 172 C200 159 195 124 193 102 C205 98 217 97 231 97 C274 97 435 129 465 162 C493 195 510 255 518 283 C531 330 545 434 567 511 C578 551 611 595 672 595 C710 595 703 519 697 476 L697 476 Z M443 577 C464 568 486 562 509 564 C523 567 529 576 529 590 C530 606 512 625 503 636 C470 672 400 711 354 726 C339 731 318 736 301 735 C288 734 281 721 277 708 C272 681 297 660 318 650 C352 633 409 593 443 577 L443 577 Z " />
<glyph glyph-name="Uacute" unicode="&#xda;" horiz-adv-x="656" d="M697 476 C693 442 690 407 681 374 C654 279 633 206 597 114 C582 76 565 45 523 23 C482 1 441 0 397 -14 C333 -35 260 -50 202 -50 C48 -50 28 66 73 222 C87 272 105 337 120 389 C131 427 134 455 145 494 C159 542 190 579 247 579 C307 579 291 480 274 419 C263 381 249 340 238 308 C209 185 206 180 204 172 C200 159 195 124 193 102 C205 98 217 97 231 97 C274 97 435 129 465 162 C493 195 510 255 518 283 C531 330 545 434 567 511 C578 551 611 595 672 595 C710 595 703 519 697 476 L697 476 Z M413 660 C393 648 374 634 363 613 C356 600 361 589 371 581 C384 571 411 576 425 577 C475 584 551 620 590 648 C604 659 620 672 629 687 C636 699 630 712 621 722 C603 743 570 734 549 722 C514 703 447 679 413 660 L413 660 Z " />
<glyph glyph-name="Ucircumflex" unicode="&#xdb;" horiz-adv-x="656" d="M697 476 C693 442 690 407 681 374 C654 279 633 206 597 114 C582 76 565 45 523 23 C482 1 441 0 397 -14 C333 -35 260 -50 202 -50 C48 -50 28 66 73 222 C87 272 105 337 120 389 C131 427 134 455 145 494 C159 542 190 579 247 579 C307 579 291 480 274 419 C263 381 249 340 238 308 C209 185 206 180 204 172 C200 159 195 124 193 102 C205 98 217 97 231 97 C274 97 435 129 465 162 C493 195 510 255 518 283 C531 330 545 434 567 511 C578 551 611 595 672 595 C710 595 703 519 697 476 L697 476 Z M645 713 C641 725 634 734 627 743 C607 772 606 831 551 831 C486 831 393 756 354 726 C331 710 294 686 288 664 C282 644 297 633 317 633 C377 633 421 678 457 699 C478 711 497 726 522 737 C554 712 559 637 603 637 C628 637 645 653 650 671 C655 688 651 699 645 713 L645 713 Z " />
<glyph glyph-name="Udieresis" unicode="&#xdc;" horiz-adv-x="656" d="M697 476 C703 519 710 595 672 595 C611 595 578 551 567 511 C545 434 531 330 518 283 C510 255 493 195 465 162 C435 129 274 97 231 97 C217 97 205 98 193 102 C195 124 200 159 204 172 C206 180 209 185 238 308 C249 340 263 381 274 419 C291 480 307 579 247 579 C190 579 159 542 145 494 C134 455 131 427 120 389 C105 337 87 272 73 222 C28 66 48 -50 202 -50 C260 -50 333 -35 397 -14 C441 0 482 1 523 23 C565 45 582 76 597 114 C633 206 654 279 681 374 C690 407 693 442 697 476 L697 476 Z M616 724 C612 725 609 725 605 725 C594 725 520 709 510 675 C500 640 516 607 552 607 C557 607 619 633 634 685 C639 703 629 716 616 724 L616 724 Z M428 698 C418 704 407 716 394 716 C360 716 319 684 319 684 C314 678 311 675 309 668 C300 636 315 607 357 607 C381 611 432 659 437 676 C439 684 436 694 428 698 L428 698 Z " />
<glyph glyph-name="Yacute" unicode="&#xdd;" horiz-adv-x="581" d="M681 543 C679 535 678 529 677 524 C658 460 479 300 332 119 C280 59 206 -57 180 -65 C171 -67 162 -69 152 -69 C96 -69 73 -44 90 14 C104 63 192 164 233 211 C202 255 180 278 147 371 C134 409 115 458 128 503 C136 531 172 564 205 564 C275 564 270 460 293 411 C304 385 312 354 330 330 C371 372 416 436 456 476 C505 524 568 614 624 614 C658 614 687 573 681 543 L681 543 Z M366 672 C346 660 327 646 316 625 C309 612 314 601 324 593 C337 583 364 588 378 589 C428 596 504 632 543 660 C557 671 573 684 582 699 C589 711 583 724 574 734 C556 755 523 746 502 734 C467 715 400 691 366 672 L366 672 Z " />
<glyph glyph-name="Thorn" unicode="&#xde;" horiz-adv-x="582" d="M50 -72 C58 -72 67 -71 78 -67 C126 -50 149 13 162 56 C238 56 329 72 419 119 C461 140 523 176 565 220 C591 248 610 279 618 309 C623 326 624 344 623 361 C620 393 601 406 584 429 C576 438 567 449 556 456 C522 477 478 486 416 486 C403 486 388 486 373 485 C366 485 361 485 335 485 C320 485 304 485 286 481 C289 494 292 508 295 522 C299 548 308 612 250 612 C201 612 167 570 153 521 C143 484 135 445 129 405 C125 385 121 363 115 341 C113 334 110 325 108 316 C97 272 80 226 66 184 C53 150 50 140 47 129 C43 116 38 103 32 84 C23 62 13 39 10 16 C7 -9 -1 -72 50 -72 L50 -72 Z M241 331 C249 332 255 332 263 334 C274 335 286 336 299 339 C308 340 316 341 325 343 C343 345 361 349 415 344 C420 343 426 343 431 343 C450 343 490 340 494 321 C496 313 484 296 467 283 C434 256 392 241 351 225 C342 222 333 219 323 215 C288 202 249 193 205 191 C207 200 210 209 210 217 C219 255 230 294 241 331 L241 331 Z " />
<glyph glyph-name="germandbls" unicode="&#xdf;" horiz-adv-x="734" d="M42 -71 C104 -71 125 -8 142 36 C163 89 186 142 206 197 L213 219 C232 272 241 312 267 356 C311 427 397 476 473 476 C499 476 558 464 550 438 C543 412 481 369 445 350 C395 326 313 327 292 251 C274 191 319 186 337 186 C415 186 497 180 556 136 C515 100 473 81 429 81 C394 81 288 79 269 10 C256 -32 270 -66 302 -69 C312 -69 322 -67 335 -65 C383 -53 436 -63 491 -47 C580 -21 677 67 702 153 C721 221 648 290 582 294 C592 306 667 370 689 449 C723 566 618 613 502 613 C484 613 467 612 452 608 C325 590 296 553 226 498 C170 453 127 345 113 305 C96 259 36 136 0 12 C-5 -10 -6 -69 42 -71 L42 -71 Z " />
<glyph glyph-name="agrave" unicode="&#xe0;" horiz-adv-x="700" d="M638 224 C635 310 618 397 599 478 C585 537 573 616 493 616 C389 616 250 427 174 314 C144 269 109 228 79 182 C60 153 19 85 2 28 C-9 -14 -10 -69 41 -69 C104 -69 157 56 179 88 C213 98 244 98 280 103 C349 112 415 115 496 124 C508 58 510 -31 573 -31 C600 -31 632 -12 642 22 C661 88 640 136 638 224 L638 224 Z M262 220 C276 244 308 272 406 389 C417 403 437 431 452 441 C468 398 468 369 478 327 C484 304 489 275 491 251 C407 248 340 231 262 220 L262 220 Z M556 659 C577 650 599 644 622 646 C636 649 642 658 642 672 C643 688 625 707 616 718 C583 754 513 793 467 808 C452 813 431 818 414 817 C401 816 394 803 390 790 C385 763 410 742 431 732 C465 715 522 675 556 659 L556 659 Z " />
<glyph glyph-name="aacute" unicode="&#xe1;" horiz-adv-x="700" d="M638 224 C635 310 618 397 599 478 C585 537 573 616 493 616 C389 616 250 427 174 314 C144 269 109 228 79 182 C60 153 19 85 2 28 C-9 -14 -10 -69 41 -69 C104 -69 157 56 179 88 C213 98 244 98 280 103 C349 112 415 115 496 124 C508 58 510 -31 573 -31 C600 -31 632 -12 642 22 C661 88 640 136 638 224 L638 224 Z M262 220 C276 244 308 272 406 389 C417 403 437 431 452 441 C468 398 468 369 478 327 C484 304 489 275 491 251 C407 248 340 231 262 220 L262 220 Z M440 741 C420 729 401 715 390 694 C383 681 388 670 398 662 C411 652 438 657 452 658 C502 665 578 701 617 729 C631 740 647 753 656 768 C663 780 657 793 648 803 C630 824 597 815 576 803 C541 784 474 760 440 741 L440 741 Z " />
<glyph glyph-name="acircumflex" unicode="&#xe2;" horiz-adv-x="700" d="M638 224 C635 310 618 397 599 478 C585 537 573 616 493 616 C389 616 250 427 174 314 C144 269 109 228 79 182 C60 153 19 85 2 28 C-9 -14 -10 -69 41 -69 C104 -69 157 56 179 88 C213 98 244 98 280 103 C349 112 415 115 496 124 C508 58 510 -31 573 -31 C600 -31 632 -12 642 22 C661 88 640 136 638 224 L638 224 Z M262 220 C276 244 308 272 406 389 C417 403 437 431 452 441 C468 398 468 369 478 327 C484 304 489 275 491 251 C407 248 340 231 262 220 L262 220 Z M666 710 C662 722 655 731 648 740 C628 769 627 828 572 828 C507 828 414 753 375 723 C352 707 315 683 309 661 C303 641 318 630 338 630 C398 630 442 675 478 696 C499 708 518 723 543 734 C575 709 580 634 624 634 C649 634 666 650 671 668 C676 685 672 696 666 710 L666 710 Z " />
<glyph glyph-name="atilde" unicode="&#xe3;" horiz-adv-x="700" d="M638 224 C635 310 618 397 599 478 C585 537 573 616 493 616 C389 616 250 427 174 314 C144 269 109 228 79 182 C60 153 19 85 2 28 C-9 -14 -10 -69 41 -69 C104 -69 157 56 179 88 C213 98 244 98 280 103 C349 112 415 115 496 124 C508 58 510 -31 573 -31 C600 -31 632 -12 642 22 C661 88 640 136 638 224 L638 224 Z M262 220 C276 244 308 272 406 389 C417 403 437 431 452 441 C468 398 468 369 478 327 C484 304 489 275 491 251 C407 248 340 231 262 220 L262 220 Z M371 663 C402 663 414 688 432 718 C438 728 449 734 462 745 C480 758 487 759 488 759 C491 759 494 753 496 746 C521 679 536 665 564 665 C615 665 715 736 734 802 C741 825 732 846 707 846 C677 846 652 811 645 802 C631 784 612 760 589 755 C572 763 570 848 526 848 C500 848 469 835 441 822 C394 800 358 755 344 706 C341 696 337 663 371 663 L371 663 Z " />
<glyph glyph-name="adieresis" unicode="&#xe4;" horiz-adv-x="700" d="M638 224 C635 310 618 397 599 478 C585 537 573 616 493 616 C389 616 250 427 174 314 C144 269 109 228 79 182 C60 153 19 85 2 28 C-9 -14 -10 -69 41 -69 C104 -69 157 56 179 88 C213 98 244 98 280 103 C349 112 415 115 496 124 C508 58 510 -31 573 -31 C600 -31 632 -12 642 22 C661 88 640 136 638 224 L638 224 Z M262 220 C276 244 308 272 406 389 C417 403 437 431 452 441 C468 398 468 369 478 327 C484 304 489 275 491 251 C407 248 340 231 262 220 L262 220 Z M668 759 C664 760 661 760 657 760 C646 760 572 744 562 710 C552 675 568 642 604 642 C609 642 671 668 686 720 C691 738 681 751 668 759 L668 759 Z M480 733 C470 739 459 751 446 751 C412 751 371 719 371 719 C366 713 363 710 361 703 C352 671 367 642 409 642 C433 646 484 694 489 711 C491 719 488 729 480 733 L480 733 Z " />
<glyph glyph-name="aring" unicode="&#xe5;" horiz-adv-x="700" d="M620 780 C606 799 579 804 557 811 C547 813 539 816 532 816 C476 813 409 778 384 729 C365 694 384 652 406 622 C413 612 419 604 427 597 C334 548 230 406 169 314 C139 269 103 228 73 182 C55 153 13 85 -2 28 C-14 -14 -16 -69 35 -69 C98 -69 152 56 173 88 C208 98 239 98 275 103 C344 112 410 115 491 124 C503 58 505 -31 568 -31 C595 -31 627 -12 636 22 C655 88 635 136 632 224 C630 310 613 397 594 478 C586 512 577 552 558 581 C574 590 590 604 605 619 C621 636 632 656 638 676 C648 710 642 747 620 780 L620 780 Z M455 248 C401 246 351 237 303 226 C312 226 271 224 257 220 C271 244 303 272 401 389 C412 403 432 431 446 441 C463 398 463 369 473 327 C478 304 484 275 486 251 C474 251 463 248 455 248 L455 248 Z M546 688 C539 657 510 645 482 663 C471 672 466 687 475 701 C482 712 502 722 515 724 C519 725 549 731 550 724 C550 711 549 700 546 688 L546 688 Z " />
<glyph glyph-name="ae" unicode="&#xe6;" horiz-adv-x="910" d="M9 -30 C40 -50 115 30 140 62 C173 56 212 65 245 66 C265 67 304 66 342 71 C321 -3 331 -57 435 -57 C472 -57 511 -50 545 -43 C605 -30 664 -22 724 -12 C766 -5 834 13 862 52 C864 56 868 63 870 70 C885 120 849 127 817 127 C764 124 748 116 694 111 C661 107 619 106 585 101 C554 97 519 84 489 88 C496 101 501 114 505 128 C510 147 519 166 526 187 C606 204 603 212 659 216 C732 220 855 228 873 292 C889 348 808 344 774 344 C678 344 637 335 567 321 C572 361 574 387 585 423 C587 433 593 440 598 453 C683 460 903 446 931 542 C951 612 878 605 850 605 C806 605 778 594 726 591 L600 584 C569 582 530 586 440 499 C402 467 361 433 325 396 C300 371 277 349 253 327 C198 279 46 124 -12 37 C-25 12 -18 -22 9 -30 L9 -30 Z M428 312 C417 275 404 243 390 209 C377 209 363 206 349 203 C327 199 296 197 266 194 C280 208 297 221 312 235 C325 247 339 259 352 272 L400 314 C411 322 421 330 435 344 C433 332 431 322 428 312 L428 312 Z " />
<glyph glyph-name="ccedilla" unicode="&#xe7;" horiz-adv-x="637" d="M361 -70 C359 -66 358 -61 355 -57 C463 -34 562 31 580 94 C589 128 560 147 540 147 C493 147 434 96 382 80 C356 72 329 61 303 61 C215 61 165 133 191 226 C219 321 280 389 370 441 C401 459 442 485 476 485 C520 485 528 420 576 420 C616 420 649 441 660 480 C671 516 666 575 578 608 C561 613 546 616 530 616 C442 616 363 578 300 544 C189 485 93 376 63 272 C34 173 37 43 114 -23 C143 -48 192 -62 243 -66 C250 -76 267 -92 268 -102 C270 -112 239 -132 231 -136 C217 -141 212 -136 199 -131 C174 -120 161 -112 136 -120 C114 -127 82 -150 94 -177 C107 -202 143 -216 165 -222 C177 -226 189 -228 202 -228 C255 -228 312 -200 346 -156 C365 -131 371 -100 361 -70 L361 -70 Z " />
<glyph glyph-name="egrave" unicode="&#xe8;" horiz-adv-x="599" d="M548 52 C520 13 452 -5 410 -12 C350 -22 291 -30 231 -43 C197 -50 157 -57 121 -57 C14 -57 8 1 30 79 C58 178 90 234 113 312 C127 362 132 411 147 462 C179 575 214 578 286 584 C327 587 370 588 412 591 C463 594 492 605 536 605 C563 605 636 612 616 542 C588 446 369 460 284 453 C279 440 273 433 271 423 C260 387 258 361 252 321 C322 335 364 344 460 344 C493 344 575 348 559 292 C541 228 417 220 345 216 C289 212 292 204 212 187 C205 166 196 147 191 128 C187 114 182 101 175 88 C205 84 240 97 271 101 C305 106 347 107 380 111 C434 116 450 124 503 127 C535 127 570 120 555 70 C553 63 550 56 548 52 L548 52 Z M474 651 C495 642 517 636 540 638 C554 641 560 650 560 664 C561 680 543 699 534 710 C501 746 431 785 385 800 C370 805 349 810 332 809 C319 808 312 795 308 782 C303 755 328 734 349 724 C383 707 440 667 474 651 L474 651 Z " />
<glyph glyph-name="eacute" unicode="&#xe9;" horiz-adv-x="599" d="M548 52 C520 13 452 -5 410 -12 C350 -22 291 -30 231 -43 C197 -50 157 -57 121 -57 C14 -57 8 1 30 79 C58 178 90 234 113 312 C127 362 132 411 147 462 C179 575 214 578 286 584 C327 587 370 588 412 591 C463 594 492 605 536 605 C563 605 636 612 616 542 C588 446 369 460 284 453 C279 440 273 433 271 423 C260 387 258 361 252 321 C322 335 364 344 460 344 C493 344 575 348 559 292 C541 228 417 220 345 216 C289 212 292 204 212 187 C205 166 196 147 191 128 C187 114 182 101 175 88 C205 84 240 97 271 101 C305 106 347 107 380 111 C434 116 450 124 503 127 C535 127 570 120 555 70 C553 63 550 56 548 52 L548 52 Z M356 713 C336 701 317 687 306 666 C299 653 304 642 314 634 C327 624 354 629 368 630 C418 637 494 673 533 701 C547 712 563 725 572 740 C579 752 573 765 564 775 C546 796 513 787 492 775 C457 756 390 732 356 713 L356 713 Z " />
<glyph glyph-name="ecircumflex" unicode="&#xea;" horiz-adv-x="599" d="M548 52 C520 13 452 -5 410 -12 C350 -22 291 -30 231 -43 C197 -50 157 -57 121 -57 C14 -57 8 1 30 79 C58 178 90 234 113 312 C127 362 132 411 147 462 C179 575 214 578 286 584 C327 587 370 588 412 591 C463 594 492 605 536 605 C563 605 636 612 616 542 C588 446 369 460 284 453 C279 440 273 433 271 423 C260 387 258 361 252 321 C322 335 364 344 460 344 C493 344 575 348 559 292 C541 228 417 220 345 216 C289 212 292 204 212 187 C205 166 196 147 191 128 C187 114 182 101 175 88 C205 84 240 97 271 101 C305 106 347 107 380 111 C434 116 450 124 503 127 C535 127 570 120 555 70 C553 63 550 56 548 52 L548 52 Z M626 715 C622 727 615 736 608 745 C588 774 587 833 532 833 C467 833 374 758 335 728 C312 712 275 688 269 666 C263 646 278 635 298 635 C358 635 402 680 438 701 C459 713 478 728 503 739 C535 714 540 639 584 639 C609 639 626 655 631 673 C636 690 632 701 626 715 L626 715 Z " />
<glyph glyph-name="edieresis" unicode="&#xeb;" horiz-adv-x="599" d="M548 52 C550 56 553 63 555 70 C570 120 535 127 503 127 C450 124 434 116 380 111 C347 107 305 106 271 101 C240 97 205 84 175 88 C182 101 187 114 191 128 C196 147 205 166 212 187 C292 204 289 212 345 216 C417 220 541 228 559 292 C575 348 493 344 460 344 C364 344 322 335 252 321 C258 361 260 387 271 423 C273 433 279 440 284 453 C369 460 588 446 616 542 C636 612 563 605 536 605 C492 605 463 594 412 591 C370 588 327 587 286 584 C214 578 179 575 147 462 C132 411 127 362 113 312 C90 234 58 178 30 79 C8 1 14 -57 121 -57 C157 -57 197 -50 231 -43 C291 -30 350 -22 410 -12 C452 -5 520 13 548 52 L548 52 Z M589 753 C585 754 582 754 578 754 C567 754 493 738 483 704 C473 669 489 636 525 636 C530 636 592 662 607 714 C612 732 602 745 589 753 L589 753 Z M401 727 C391 733 380 745 367 745 C333 745 292 713 292 713 C287 707 284 704 282 697 C273 665 288 636 330 636 C354 640 405 688 410 705 C412 713 409 723 401 727 L401 727 Z " />
<glyph glyph-name="igrave" unicode="&#xec;" horiz-adv-x="253" d="M136 415 C128 388 121 361 113 332 C101 291 84 251 72 209 C56 153 33 85 33 32 C33 -4 59 -44 97 -44 C120 -44 155 -28 169 19 C195 109 203 198 230 290 C243 335 262 378 275 422 C285 458 296 498 298 533 C299 552 279 588 251 588 C201 588 163 525 151 482 C144 460 142 437 136 415 L136 415 Z M325 624 C346 615 368 609 391 611 C405 614 411 623 411 637 C412 653 394 672 385 683 C352 719 282 758 236 773 C221 778 200 783 183 782 C170 781 163 768 159 755 C154 728 179 707 200 697 C234 680 291 640 325 624 L325 624 Z " />
<glyph glyph-name="iacute" unicode="&#xed;" horiz-adv-x="253" d="M136 415 C128 388 121 361 113 332 C101 291 84 251 72 209 C56 153 33 85 33 32 C33 -4 59 -44 97 -44 C120 -44 155 -28 169 19 C195 109 203 198 230 290 C243 335 262 378 275 422 C285 458 296 498 298 533 C299 552 279 588 251 588 C201 588 163 525 151 482 C144 460 142 437 136 415 L136 415 Z M192 715 C172 703 153 689 142 668 C135 655 140 644 150 636 C163 626 190 631 204 632 C254 639 330 675 369 703 C383 714 399 727 408 742 C415 754 409 767 400 777 C382 798 349 789 328 777 C293 758 226 734 192 715 L192 715 Z " />
<glyph glyph-name="icircumflex" unicode="&#xee;" horiz-adv-x="253" d="M136 415 C128 388 121 361 113 332 C101 291 84 251 72 209 C56 153 33 85 33 32 C33 -4 59 -44 97 -44 C120 -44 155 -28 169 19 C195 109 203 198 230 290 C243 335 262 378 275 422 C285 458 296 498 298 533 C299 552 279 588 251 588 C201 588 163 525 151 482 C144 460 142 437 136 415 L136 415 Z M433 666 C429 678 422 687 415 696 C395 725 394 784 339 784 C274 784 181 709 142 679 C119 663 82 639 76 617 C70 597 85 586 105 586 C165 586 209 631 245 652 C266 664 285 679 310 690 C342 665 347 590 391 590 C416 590 433 606 438 624 C443 641 439 652 433 666 L433 666 Z " />
<glyph glyph-name="idieresis" unicode="&#xef;" horiz-adv-x="253" d="M136 415 C128 388 121 361 113 332 C101 291 84 251 72 209 C56 153 33 85 33 32 C33 -4 59 -44 97 -44 C120 -44 155 -28 169 19 C195 109 203 198 230 290 C243 335 262 378 275 422 C285 458 296 498 298 533 C299 552 279 588 251 588 C201 588 163 525 151 482 C144 460 142 437 136 415 L136 415 Z M420 737 C416 738 413 738 409 738 C398 738 324 722 314 688 C304 653 320 620 356 620 C361 620 423 646 438 698 C443 716 433 729 420 737 L420 737 Z M232 711 C222 717 211 729 198 729 C164 729 123 697 123 697 C118 691 115 688 113 681 C104 649 119 620 161 620 C185 624 236 672 241 689 C243 697 240 707 232 711 L232 711 Z " />
<glyph glyph-name="eth" unicode="&#xf0;" horiz-adv-x="698" d="M70 290 C66 277 62 266 64 252 C68 226 80 206 102 200 C111 198 122 197 133 197 C123 166 112 137 103 109 C76 14 62 -50 155 -50 C172 -50 190 -49 208 -47 C239 -44 315 -30 358 -13 C415 4 513 53 560 103 C633 180 676 228 713 313 C718 325 723 336 726 348 C757 455 728 497 676 548 C652 572 616 581 571 592 C551 596 532 599 510 599 C466 599 387 579 339 579 C303 579 234 566 217 509 C214 497 214 485 212 477 C209 467 205 456 202 446 C195 422 188 392 179 361 C175 349 171 339 168 328 C154 328 141 328 126 327 C97 323 84 321 70 290 L70 290 Z M349 444 C389 449 461 466 480 471 C576 459 593 422 597 406 C598 396 598 375 590 347 C577 304 528 185 383 125 C335 106 267 100 236 97 C249 132 261 168 274 206 C334 209 408 225 412 283 C414 310 404 334 382 343 C361 352 340 344 318 340 C328 374 338 407 349 444 L349 444 Z " />
<glyph glyph-name="ntilde" unicode="&#xf1;" horiz-adv-x="635" d="M142 482 C138 476 136 469 134 463 C115 397 112 328 94 261 C77 191 71 122 65 54 C62 27 37 -69 105 -69 C150 -69 177 -13 192 39 C218 131 214 225 239 313 C242 321 243 327 246 334 C280 274 311 198 330 132 C355 67 377 -45 456 -45 C513 -45 541 27 556 78 C572 133 583 189 598 244 C621 305 647 366 674 427 C683 447 695 467 702 490 C716 539 732 613 644 613 C578 613 553 486 547 473 C518 393 491 313 454 233 C415 305 400 391 362 463 C339 509 301 570 240 570 C189 570 158 519 142 482 L142 482 Z M293 613 C324 613 336 638 354 668 C360 678 371 684 384 695 C402 708 409 709 410 709 C413 709 416 703 418 696 C443 629 458 615 486 615 C537 615 637 686 656 752 C663 775 654 796 629 796 C599 796 574 761 567 752 C553 734 534 710 511 705 C494 713 492 798 448 798 C422 798 391 785 363 772 C316 750 280 705 266 656 C263 646 259 613 293 613 L293 613 Z " />
<glyph glyph-name="ograve" unicode="&#xf2;" horiz-adv-x="764" d="M780 414 C771 502 716 572 639 581 C616 581 599 583 575 583 C566 583 555 582 546 582 C525 582 510 591 489 591 C474 591 456 587 441 584 C221 542 101 354 79 279 C68 239 66 185 70 125 C74 89 87 59 117 26 C127 14 138 1 160 -10 C214 -43 271 -44 332 -44 C492 -44 618 35 706 151 C720 176 741 197 754 229 C765 255 773 281 778 297 C790 340 785 380 780 414 L780 414 Z M633 294 C607 206 512 149 493 136 C455 110 402 97 346 97 C236 97 190 160 215 247 C238 325 347 407 405 428 C431 437 472 449 490 449 C503 449 519 440 532 437 C570 432 637 440 638 393 C636 354 642 328 633 294 L633 294 Z M605 628 C626 619 648 613 671 615 C685 618 691 627 691 641 C692 657 674 676 665 687 C632 723 562 762 516 777 C501 782 480 787 463 786 C450 785 443 772 439 759 C434 732 459 711 480 701 C514 684 571 644 605 628 L605 628 Z " />
<glyph glyph-name="oacute" unicode="&#xf3;" horiz-adv-x="764" d="M780 414 C771 502 716 572 639 581 C616 581 599 583 575 583 C566 583 555 582 546 582 C525 582 510 591 489 591 C474 591 456 587 441 584 C221 542 101 354 79 279 C68 239 66 185 70 125 C74 89 87 59 117 26 C127 14 138 1 160 -10 C214 -43 271 -44 332 -44 C492 -44 618 35 706 151 C720 176 741 197 754 229 C765 255 773 281 778 297 C790 340 785 380 780 414 L780 414 Z M633 294 C607 206 512 149 493 136 C455 110 402 97 346 97 C236 97 190 160 215 247 C238 325 347 407 405 428 C431 437 472 449 490 449 C503 449 519 440 532 437 C570 432 637 440 638 393 C636 354 642 328 633 294 L633 294 Z M489 724 C469 712 450 698 439 677 C432 664 437 653 447 645 C460 635 487 640 501 641 C551 648 627 684 666 712 C680 723 696 736 705 751 C712 763 706 776 697 786 C679 807 646 798 625 786 C590 767 523 743 489 724 L489 724 Z " />
<glyph glyph-name="ocircumflex" unicode="&#xf4;" horiz-adv-x="764" d="M780 414 C771 502 716 572 639 581 C616 581 599 583 575 583 C566 583 555 582 546 582 C525 582 510 591 489 591 C474 591 456 587 441 584 C221 542 101 354 79 279 C68 239 66 185 70 125 C74 89 87 59 117 26 C127 14 138 1 160 -10 C214 -43 271 -44 332 -44 C492 -44 618 35 706 151 C720 176 741 197 754 229 C765 255 773 281 778 297 C790 340 785 380 780 414 L780 414 Z M633 294 C607 206 512 149 493 136 C455 110 402 97 346 97 C236 97 190 160 215 247 C238 325 347 407 405 428 C431 437 472 449 490 449 C503 449 519 440 532 437 C570 432 637 440 638 393 C636 354 642 328 633 294 L633 294 Z M717 705 C713 717 706 726 699 735 C679 764 678 823 623 823 C558 823 465 748 426 718 C403 702 366 678 360 656 C354 636 369 625 389 625 C449 625 493 670 529 691 C550 703 569 718 594 729 C626 704 631 629 675 629 C700 629 717 645 722 663 C727 680 723 691 717 705 L717 705 Z " />
<glyph glyph-name="otilde" unicode="&#xf5;" horiz-adv-x="764" d="M780 414 C771 502 716 572 639 581 C616 581 599 583 575 583 C566 583 555 582 546 582 C525 582 510 591 489 591 C474 591 456 587 441 584 C221 542 101 354 79 279 C68 239 66 185 70 125 C74 89 87 59 117 26 C127 14 138 1 160 -10 C214 -43 271 -44 332 -44 C492 -44 618 35 706 151 C720 176 741 197 754 229 C765 255 773 281 778 297 C790 340 785 380 780 414 L780 414 Z M633 294 C607 206 512 149 493 136 C455 110 402 97 346 97 C236 97 190 160 215 247 C238 325 347 407 405 428 C431 437 472 449 490 449 C503 449 519 440 532 437 C570 432 637 440 638 393 C636 354 642 328 633 294 L633 294 Z M400 627 C431 627 443 652 461 682 C467 692 478 698 491 709 C509 722 516 723 517 723 C520 723 523 717 525 710 C550 643 565 629 593 629 C644 629 744 700 763 766 C770 789 761 810 736 810 C706 810 681 775 674 766 C660 748 641 724 618 719 C601 727 599 812 555 812 C529 812 498 799 470 786 C423 764 387 719 373 670 C370 660 366 627 400 627 L400 627 Z " />
<glyph glyph-name="odieresis" unicode="&#xf6;" horiz-adv-x="764" d="M780 414 C771 502 716 572 639 581 C616 581 599 583 575 583 C566 583 555 582 546 582 C525 582 510 591 489 591 C474 591 456 587 441 584 C221 542 101 354 79 279 C68 239 66 185 70 125 C74 89 87 59 117 26 C127 14 138 1 160 -10 C214 -43 271 -44 332 -44 C492 -44 618 35 706 151 C720 176 741 197 754 229 C765 255 773 281 778 297 C790 340 785 380 780 414 L780 414 Z M633 294 C607 206 512 149 493 136 C455 110 402 97 346 97 C236 97 190 160 215 247 C238 325 347 407 405 428 C431 437 472 449 490 449 C503 449 519 440 532 437 C570 432 637 440 638 393 C636 354 642 328 633 294 L633 294 Z M717 749 C713 750 710 750 706 750 C695 750 621 734 611 700 C601 665 617 632 653 632 C658 632 720 658 735 710 C740 728 730 741 717 749 L717 749 Z M529 723 C519 729 508 741 495 741 C461 741 420 709 420 709 C415 703 412 700 410 693 C401 661 416 632 458 632 C482 636 533 684 538 701 C540 709 537 719 529 723 L529 723 Z " />
<glyph glyph-name="divide" unicode="&#xf7;" horiz-adv-x="534" d="M446 515 C441 541 431 544 408 547 C381 550 368 541 349 524 C325 504 298 495 289 464 C285 447 292 428 300 414 C306 397 329 393 344 393 C362 393 380 400 395 411 C415 427 420 440 433 460 C445 477 451 493 446 515 L446 515 Z M271 155 C259 156 253 155 243 150 C237 145 231 141 226 133 C222 125 215 118 209 110 C196 93 182 75 172 56 C162 35 170 23 180 5 C191 -13 203 -16 222 -14 C237 -13 253 -12 265 -5 C296 13 319 59 325 92 C327 105 320 128 311 141 C304 153 283 154 271 155 L271 155 Z M122 204 C127 204 131 204 140 204 C167 206 190 207 214 207 C275 206 342 222 396 222 C409 222 429 220 453 220 C501 220 532 251 542 283 C549 308 535 323 522 337 C510 353 488 354 469 357 C339 349 319 345 201 345 C196 345 158 345 128 335 C119 332 85 322 76 292 C72 279 73 265 75 253 C79 230 85 204 122 204 L122 204 Z " />
<glyph glyph-name="oslash" unicode="&#xf8;" horiz-adv-x="764" d="M131 -72 C150 -84 183 -61 214 -32 C252 -43 292 -44 333 -44 C493 -44 620 35 707 151 C721 176 742 197 755 229 C767 255 774 281 779 297 C791 340 787 380 782 414 C778 438 773 462 763 482 C783 500 803 521 804 550 C804 573 790 592 769 599 C759 601 752 603 745 603 C723 603 706 590 691 575 C687 573 685 570 682 569 C669 574 656 578 640 581 C617 581 600 583 576 583 C567 583 557 582 548 582 C527 582 511 591 490 591 C475 591 457 587 442 584 C222 542 102 354 81 279 C69 239 68 185 72 125 C75 89 89 59 118 26 L122 19 C118 12 113 3 109 -5 C97 -31 103 -65 131 -72 L131 -72 Z M217 247 C239 325 348 407 407 428 C432 437 474 449 492 449 C503 449 517 441 531 437 L509 416 C484 392 462 370 438 348 C384 301 330 252 283 198 C265 178 246 160 228 142 C208 169 205 206 217 247 L217 247 Z M634 294 C609 206 514 149 495 136 C456 110 404 97 348 97 L333 97 L366 131 L432 195 C451 216 475 237 497 256 C510 268 524 279 537 292 L586 335 C595 343 605 350 615 359 L639 380 C639 348 643 325 634 294 L634 294 Z " />
<glyph glyph-name="ugrave" unicode="&#xf9;" horiz-adv-x="610" d="M63 162 C54 125 41 80 50 47 C60 6 90 -21 132 -35 C147 -40 162 -41 178 -41 C215 -41 255 -31 294 -23 C329 -17 369 -10 405 3 C433 12 459 19 479 41 C496 58 511 75 522 96 C535 116 550 146 559 168 C581 224 615 335 630 392 C638 420 647 454 654 484 C658 504 661 526 658 546 C649 582 608 600 566 577 C540 564 529 546 523 524 C518 507 516 487 514 469 C510 437 503 414 496 389 C491 372 486 356 481 337 C475 316 455 255 445 230 C439 211 418 176 406 160 C394 145 342 115 295 103 C276 100 237 91 218 93 C196 97 184 107 193 134 C206 171 220 215 233 261 C253 331 270 405 276 467 C279 489 279 513 273 533 C268 550 260 562 242 566 C202 577 158 533 149 500 C144 485 146 472 144 456 C142 420 126 372 115 335 C107 299 71 199 63 162 L63 162 Z M384 562 C405 553 427 547 450 549 C464 552 470 561 470 575 C471 591 453 610 444 621 C411 657 341 696 295 711 C280 716 259 721 242 720 C229 719 222 706 218 693 C213 666 238 645 259 635 C293 618 350 578 384 562 L384 562 Z " />
<glyph glyph-name="uacute" unicode="&#xfa;" horiz-adv-x="610" d="M63 162 C54 125 41 80 50 47 C60 6 90 -21 132 -35 C147 -40 162 -41 178 -41 C215 -41 255 -31 294 -23 C329 -17 369 -10 405 3 C433 12 459 19 479 41 C496 58 511 75 522 96 C535 116 550 146 559 168 C581 224 615 335 630 392 C638 420 647 454 654 484 C658 504 661 526 658 546 C649 582 608 600 566 577 C540 564 529 546 523 524 C518 507 516 487 514 469 C510 437 503 414 496 389 C491 372 486 356 481 337 C475 316 455 255 445 230 C439 211 418 176 406 160 C394 145 342 115 295 103 C276 100 237 91 218 93 C196 97 184 107 193 134 C206 171 220 215 233 261 C253 331 270 405 276 467 C279 489 279 513 273 533 C268 550 260 562 242 566 C202 577 158 533 149 500 C144 485 146 472 144 456 C142 420 126 372 115 335 C107 299 71 199 63 162 L63 162 Z M382 649 C362 637 343 623 332 602 C325 589 330 578 340 570 C353 560 380 565 394 566 C444 573 520 609 559 637 C573 648 589 661 598 676 C605 688 599 701 590 711 C572 732 539 723 518 711 C483 692 416 668 382 649 L382 649 Z " />
<glyph glyph-name="ucircumflex" unicode="&#xfb;" horiz-adv-x="610" d="M63 162 C54 125 41 80 50 47 C60 6 90 -21 132 -35 C147 -40 162 -41 178 -41 C215 -41 255 -31 294 -23 C329 -17 369 -10 405 3 C433 12 459 19 479 41 C496 58 511 75 522 96 C535 116 550 146 559 168 C581 224 615 335 630 392 C638 420 647 454 654 484 C658 504 661 526 658 546 C649 582 608 600 566 577 C540 564 529 546 523 524 C518 507 516 487 514 469 C510 437 503 414 496 389 C491 372 486 356 481 337 C475 316 455 255 445 230 C439 211 418 176 406 160 C394 145 342 115 295 103 C276 100 237 91 218 93 C196 97 184 107 193 134 C206 171 220 215 233 261 C253 331 270 405 276 467 C279 489 279 513 273 533 C268 550 260 562 242 566 C202 577 158 533 149 500 C144 485 146 472 144 456 C142 420 126 372 115 335 C107 299 71 199 63 162 L63 162 Z M597 691 C593 703 586 712 579 721 C559 750 558 809 503 809 C438 809 345 734 306 704 C283 688 246 664 240 642 C234 622 249 611 269 611 C329 611 373 656 409 677 C430 689 449 704 474 715 C506 690 511 615 555 615 C580 615 597 631 602 649 C607 666 603 677 597 691 L597 691 Z " />
<glyph glyph-name="udieresis" unicode="&#xfc;" horiz-adv-x="610" d="M63 162 C54 125 41 80 50 47 C60 6 90 -21 132 -35 C147 -40 162 -41 178 -41 C215 -41 255 -31 294 -23 C329 -17 369 -10 405 3 C433 12 459 19 479 41 C496 58 511 75 522 96 C535 116 550 146 559 168 C581 224 615 335 630 392 C638 420 647 454 654 484 C658 504 661 526 658 546 C649 582 608 600 566 577 C540 564 529 546 523 524 C518 507 516 487 514 469 C510 437 503 414 496 389 C491 372 486 356 481 337 C475 316 455 255 445 230 C439 211 418 176 406 160 C394 145 342 115 295 103 C276 100 237 91 218 93 C196 97 184 107 193 134 C206 171 220 215 233 261 C253 331 270 405 276 467 C279 489 279 513 273 533 C268 550 260 562 242 566 C202 577 158 533 149 500 C144 485 146 472 144 456 C142 420 126 372 115 335 C107 299 71 199 63 162 L63 162 Z M584 735 C580 736 577 736 573 736 C562 736 488 720 478 686 C468 651 484 618 520 618 C525 618 587 644 602 696 C607 714 597 727 584 735 L584 735 Z M396 709 C386 715 375 727 362 727 C328 727 287 695 287 695 C282 689 279 686 277 679 C268 647 283 618 325 618 C349 622 400 670 405 687 C407 695 404 705 396 709 L396 709 Z " />
<glyph glyph-name="yacute" unicode="&#xfd;" horiz-adv-x="650" d="M746 535 C728 509 701 487 679 464 C655 437 626 411 601 385 C571 357 542 330 514 300 C484 268 456 234 427 199 C402 169 377 141 353 110 C340 93 330 78 318 59 C309 44 298 26 286 12 C261 -18 238 -49 202 -66 C180 -75 123 -66 116 -48 C112 -37 112 -23 116 -9 C126 27 157 70 178 100 C211 150 246 190 288 238 C250 255 231 295 203 321 C175 350 141 397 133 453 C131 469 130 484 134 498 C139 516 153 534 182 547 C205 557 231 541 241 520 C257 489 266 480 278 464 C296 441 315 420 333 398 C348 381 364 363 385 353 C423 396 461 438 502 478 C547 522 602 594 661 609 C688 616 713 621 727 601 C737 586 761 557 746 535 L746 535 Z M367 631 C347 619 328 605 317 584 C310 571 315 560 325 552 C338 542 365 547 379 548 C429 555 505 591 544 619 C558 630 574 643 583 658 C590 670 584 683 575 693 C557 714 524 705 503 693 C468 674 401 650 367 631 L367 631 Z " />
<glyph glyph-name="thorn" unicode="&#xfe;" horiz-adv-x="603" d="M31 -78 C110 -78 142 5 166 71 C174 70 180 69 188 69 C200 67 213 66 226 66 C346 66 470 115 551 194 C568 211 613 259 627 308 C632 323 633 337 630 353 C623 389 600 438 561 462 C530 481 491 482 453 484 C440 484 426 484 413 485 C405 486 397 486 388 486 C372 486 352 485 333 482 C320 480 304 476 289 472 C294 487 294 504 302 530 C308 550 314 572 305 591 C297 608 285 616 270 616 C257 616 242 610 224 597 C186 570 167 529 155 489 C149 468 147 449 140 418 C138 406 135 396 133 385 C127 353 121 319 112 286 C105 261 95 237 84 212 C68 176 60 138 41 94 C28 66 15 35 5 -1 C-2 -26 -4 -47 2 -61 C8 -70 18 -76 31 -78 L31 -78 Z M273 193 C255 193 230 194 213 200 C219 219 226 239 230 260 C237 283 243 305 252 328 C267 331 282 335 297 339 C329 347 359 353 390 353 C414 353 435 348 456 337 C460 336 466 334 470 332 C519 312 489 269 435 241 C386 217 326 193 273 193 L273 193 Z " />
<glyph glyph-name="ydieresis" unicode="&#xff;" horiz-adv-x="650" d="M746 535 C761 557 737 586 727 601 C713 621 688 616 661 609 C602 594 547 522 502 478 C461 438 423 396 385 353 C364 363 348 381 333 398 C315 420 296 441 278 464 C266 480 257 489 241 520 C231 541 205 557 182 547 C153 534 139 516 134 498 C130 484 131 469 133 453 C141 397 175 350 203 321 C231 295 250 255 288 238 C246 190 211 150 178 100 C157 70 126 27 116 -9 C112 -23 112 -37 116 -48 C123 -66 180 -75 202 -66 C238 -49 261 -18 286 12 C298 26 309 44 318 59 C330 78 340 93 353 110 C377 141 402 169 427 199 C456 234 484 268 514 300 C542 330 571 357 601 385 C626 411 655 437 679 464 C701 487 728 509 746 535 L746 535 Z M593 711 C589 712 586 712 582 712 C571 712 497 696 487 662 C477 627 493 594 529 594 C534 594 596 620 611 672 C616 690 606 703 593 711 L593 711 Z M405 685 C395 691 384 703 371 703 C337 703 296 671 296 671 C291 665 288 662 286 655 C277 623 292 594 334 594 C358 598 409 646 414 663 C416 671 413 681 405 685 L405 685 Z " />
<glyph glyph-name="Amacron" unicode="&#x100;" horiz-adv-x="744" d="M647 189 C641 261 623 354 614 400 C588 516 549 603 493 603 C397 603 306 491 236 402 C143 288 18 158 -15 41 C-25 4 -27 -39 36 -39 C101 -39 115 -8 138 25 C155 49 168 72 183 92 C208 89 221 85 234 85 C325 88 425 123 507 103 C509 76 521 45 528 19 C539 -23 554 -58 611 -58 C638 -58 658 -39 667 -10 C675 19 663 67 661 92 C657 136 649 153 647 189 L647 189 Z M392 231 C347 230 311 226 265 217 C325 294 366 375 453 433 C469 375 487 327 494 242 C455 230 442 234 392 231 L392 231 Z M304 638 C308 638 311 638 317 638 C337 639 353 640 370 640 C402 639 431 645 460 648 C501 651 562 661 602 661 C611 661 624 658 642 658 C677 658 699 681 705 703 C710 721 701 733 692 743 C683 754 667 755 652 756 C624 756 597 755 569 750 C496 744 425 739 361 739 C357 739 330 739 309 731 C302 730 277 722 271 701 C269 692 270 681 270 673 C274 657 278 638 304 638 L304 638 Z " />
<glyph glyph-name="amacron" unicode="&#x101;" horiz-adv-x="700" d="M638 224 C635 310 618 397 599 478 C585 537 573 616 493 616 C389 616 250 427 174 314 C144 269 109 228 79 182 C60 153 19 85 2 28 C-9 -14 -10 -69 41 -69 C104 -69 157 56 179 88 C213 98 244 98 280 103 C349 112 415 115 496 124 C508 58 510 -31 573 -31 C600 -31 632 -12 642 22 C661 88 640 136 638 224 L638 224 Z M262 220 C276 244 308 272 406 389 C417 403 437 431 452 441 C468 398 468 369 478 327 C484 304 489 275 491 251 C407 248 340 231 262 220 L262 220 Z M313 640 C317 640 320 640 326 640 C345 641 361 642 378 642 C410 641 440 647 469 650 C510 653 570 663 610 663 C619 663 633 660 651 660 C686 660 707 683 713 705 C719 723 709 735 700 745 C691 756 675 757 661 758 C633 758 605 757 577 752 C504 746 434 741 370 741 C366 741 339 741 317 733 C310 732 286 724 280 703 C277 694 278 683 279 675 C282 659 287 640 313 640 L313 640 Z " />
<glyph glyph-name="Abreve" unicode="&#x102;" horiz-adv-x="744" d="M658 189 C652 261 634 354 625 400 C599 516 560 603 504 603 C408 603 317 491 247 402 C154 288 29 158 -4 41 C-14 4 -16 -39 47 -39 C112 -39 126 -8 149 25 C166 49 179 72 194 92 C219 89 232 85 245 85 C336 88 436 123 518 103 C520 76 532 45 539 19 C550 -23 565 -58 622 -58 C649 -58 669 -39 678 -10 C686 19 674 67 672 92 C669 136 660 153 658 189 L658 189 Z M403 231 C358 230 322 226 276 217 C336 294 377 375 464 433 C480 375 498 327 505 242 C466 230 453 234 403 231 L403 231 Z M442 656 C457 650 486 646 518 646 C618 646 682 677 705 759 C715 793 713 818 669 818 C641 818 620 781 608 759 C595 734 550 726 527 726 C505 726 487 736 493 758 C497 772 511 787 514 796 C521 822 504 832 471 832 C446 832 414 791 407 765 C394 719 402 675 442 656 L442 656 Z " />
<glyph glyph-name="abreve" unicode="&#x103;" horiz-adv-x="700" d="M638 224 C635 310 618 397 599 478 C585 537 573 616 493 616 C389 616 250 427 174 314 C144 269 109 228 79 182 C60 153 19 85 2 28 C-9 -14 -10 -69 41 -69 C104 -69 157 56 179 88 C213 98 244 98 280 103 C349 112 415 115 496 124 C508 58 510 -31 573 -31 C600 -31 632 -12 642 22 C661 88 640 136 638 224 L638 224 Z M262 220 C276 244 308 272 406 389 C417 403 437 431 452 441 C468 398 468 369 478 327 C484 304 489 275 491 251 C407 248 340 231 262 220 L262 220 Z M426 666 C441 660 470 656 502 656 C602 656 666 687 689 769 C699 803 697 828 653 828 C625 828 604 791 592 769 C579 744 534 736 511 736 C489 736 471 746 477 768 C481 782 495 797 498 806 C505 832 488 842 455 842 C430 842 398 801 391 775 C378 729 386 685 426 666 L426 666 Z " />
<glyph glyph-name="Aogonek" unicode="&#x104;" horiz-adv-x="744" d="M521 18 C504 3 478 -10 467 -30 C460 -43 454 -59 449 -76 C442 -102 437 -129 439 -151 C443 -226 515 -253 580 -242 C606 -237 639 -222 659 -204 C674 -187 690 -153 678 -132 C661 -106 632 -115 610 -125 C591 -134 551 -155 535 -149 C533 -109 555 -81 582 -49 L582 -48 C593 -54 607 -58 626 -58 C653 -58 674 -39 682 -10 C690 19 678 67 676 92 C673 136 665 153 662 189 C657 261 638 354 630 400 C604 516 565 603 509 603 C413 603 322 491 251 402 C158 288 33 158 0 41 C-10 4 -11 -39 52 -39 C117 -39 131 -8 153 25 C170 49 183 72 198 92 C223 89 236 85 249 85 C318 87 396 109 463 109 C491 109 488 103 522 103 C523 80 533 56 539 32 C532 27 524 22 521 18 L521 18 Z M407 231 C363 230 327 226 280 217 C340 294 381 375 468 433 C484 375 503 327 509 242 C471 230 457 234 407 231 L407 231 Z " />
<glyph glyph-name="aogonek" unicode="&#x105;" horiz-adv-x="700" d="M513 47 C496 31 470 18 460 -1 C452 -14 446 -31 441 -48 C434 -74 429 -101 431 -123 C435 -198 507 -225 573 -213 C598 -208 631 -194 651 -176 C666 -159 682 -124 670 -103 C653 -78 624 -87 602 -97 C583 -106 543 -127 527 -120 C525 -83 542 -57 567 -28 C571 -30 578 -31 584 -31 C611 -31 642 -12 652 22 C671 88 651 136 648 224 C646 310 629 397 610 478 C596 537 583 616 503 616 C399 616 260 427 185 314 C155 269 119 228 89 182 C71 153 29 85 13 28 C1 -14 0 -69 51 -69 C114 -69 168 56 189 88 C224 98 255 98 290 103 C360 112 426 115 506 124 C511 101 513 75 519 52 L513 47 Z M471 248 C416 246 367 237 319 226 C328 226 287 224 273 220 C287 244 319 272 416 389 C427 403 447 431 462 441 C479 398 479 369 489 327 C494 304 500 275 502 251 C490 251 479 248 471 248 L471 248 Z " />
<glyph glyph-name="Cacute" unicode="&#x106;" horiz-adv-x="599" d="M590 597 C567 606 531 619 497 619 C411 619 340 568 270 508 C176 428 89 321 57 211 C50 186 45 160 45 136 C43 76 50 14 90 -28 C128 -67 197 -79 259 -72 C327 -65 391 -52 456 -17 C496 4 581 62 552 105 C541 120 527 125 512 125 C486 125 456 109 425 94 C373 69 301 48 249 50 C183 53 170 129 187 185 C200 233 236 284 268 323 C311 375 337 405 400 445 C423 459 459 478 481 472 C503 466 523 456 537 441 C547 428 566 423 582 423 C602 423 619 429 629 441 C644 460 651 478 652 500 C654 520 630 581 590 597 L590 597 Z M451 740 C431 728 412 714 401 693 C394 680 399 669 409 661 C422 651 449 656 463 657 C513 664 589 700 628 728 C642 739 658 752 667 767 C674 779 668 792 659 802 C641 823 608 814 587 802 C552 783 485 759 451 740 L451 740 Z " />
<glyph glyph-name="cacute" unicode="&#x107;" horiz-adv-x="637" d="M594 608 C577 613 562 616 546 616 C458 616 379 578 315 544 C204 485 108 376 78 272 C50 173 53 43 130 -23 C165 -53 227 -67 286 -67 C422 -67 572 14 595 94 C605 128 575 147 555 147 C508 147 450 96 397 80 C372 72 345 61 319 61 C231 61 180 133 207 226 C234 321 296 389 386 441 C417 459 457 485 491 485 C535 485 544 420 592 420 C632 420 665 441 676 480 C686 516 681 575 594 608 L594 608 Z M507 739 C487 727 468 713 457 692 C450 679 455 668 465 660 C478 650 505 655 519 656 C569 663 645 699 684 727 C698 738 714 751 723 766 C730 778 724 791 715 801 C697 822 664 813 643 801 C608 782 541 758 507 739 L507 739 Z " />
<glyph glyph-name="Ccaron" unicode="&#x10c;" horiz-adv-x="599" d="M590 597 C567 606 531 619 497 619 C411 619 340 568 270 508 C176 428 89 321 57 211 C50 186 45 160 45 136 C43 76 50 14 90 -28 C128 -67 197 -79 259 -72 C327 -65 391 -52 456 -17 C496 4 581 62 552 105 C541 120 527 125 512 125 C486 125 456 109 425 94 C373 69 301 48 249 50 C183 53 170 129 187 185 C200 233 236 284 268 323 C311 375 337 405 400 445 C423 459 459 478 481 472 C503 466 523 456 537 441 C547 428 566 423 582 423 C602 423 619 429 629 441 C644 460 651 478 652 500 C654 520 630 581 590 597 L590 597 Z M400 771 C403 761 411 752 417 742 C434 717 437 653 493 653 C557 653 652 730 691 758 C714 775 751 799 757 819 C763 842 749 852 728 852 C670 852 623 807 588 786 C566 773 536 757 522 748 C482 777 488 847 438 847 C416 847 399 832 394 814 C390 798 394 785 400 771 L400 771 Z " />
<glyph glyph-name="ccaron" unicode="&#x10d;" horiz-adv-x="637" d="M594 608 C577 613 562 616 546 616 C458 616 379 578 315 544 C204 485 108 376 78 272 C50 173 53 43 130 -23 C165 -53 227 -67 286 -67 C422 -67 572 14 595 94 C605 128 575 147 555 147 C508 147 450 96 397 80 C372 72 345 61 319 61 C231 61 180 133 207 226 C234 321 296 389 386 441 C417 459 457 485 491 485 C535 485 544 420 592 420 C632 420 665 441 676 480 C686 516 681 575 594 608 L594 608 Z M450 765 C453 755 461 746 467 736 C484 711 487 647 543 647 C607 647 702 724 741 752 C764 769 801 793 807 813 C813 836 799 846 778 846 C720 846 673 801 638 780 C616 767 586 751 572 742 C532 771 538 841 488 841 C466 841 449 826 444 808 C440 792 444 779 450 765 L450 765 Z " />
<glyph glyph-name="Dcaron" unicode="&#x10e;" horiz-adv-x="649" d="M73 -53 C12 -53 10 -17 19 14 C25 35 35 53 41 74 C56 114 64 154 78 193 L85 215 C113 314 120 406 147 499 C170 582 339 597 419 597 C498 597 542 599 581 565 C621 537 692 500 676 337 C676 328 673 319 670 310 C635 185 535 92 418 28 C336 -12 290 -34 211 -37 C134 -41 107 -53 73 -53 L73 -53 Z M273 459 C266 424 242 322 223 257 C212 217 193 167 181 125 C176 107 173 92 170 81 C211 84 333 100 424 172 C507 239 537 287 549 330 C553 344 556 358 557 371 C562 415 483 460 442 463 C431 464 415 464 394 464 C346 464 297 462 273 459 L273 459 Z M336 760 C339 750 347 741 353 731 C370 706 373 642 429 642 C493 642 588 719 627 747 C650 764 687 788 693 808 C699 831 685 841 664 841 C606 841 559 796 524 775 C502 762 472 746 458 737 C418 766 424 836 374 836 C352 836 335 821 330 803 C326 787 330 774 336 760 L336 760 Z " />
<glyph glyph-name="dcaron" unicode="&#x10f;" horiz-adv-x="646" d="M97 -50 C5 -50 20 14 46 109 C55 141 68 171 78 207 C85 230 90 255 97 281 C105 310 114 335 121 361 C130 392 138 422 144 446 C147 456 151 467 154 477 C157 485 156 497 160 509 C176 566 246 579 282 579 C330 579 407 599 451 599 C473 599 493 596 513 592 C558 581 594 572 618 548 C669 497 699 455 668 348 C665 336 660 325 655 313 C618 228 574 180 502 103 C456 53 358 4 301 -13 C257 -30 181 -44 150 -47 C133 -49 114 -50 97 -50 L97 -50 Z M291 444 C253 313 216 199 178 97 C209 100 277 106 324 125 C470 185 520 304 532 347 C540 375 539 396 539 406 C536 422 517 459 423 471 C403 466 331 449 291 444 L291 444 Z M363 736 C366 725 374 716 380 707 C398 681 400 618 456 618 C521 618 615 694 654 723 C677 740 714 764 719 784 C726 807 712 817 691 817 C633 817 587 772 551 751 C529 738 499 722 486 712 C446 742 450 812 400 812 C378 812 362 797 357 778 C352 763 357 750 363 736 L363 736 Z " />
<glyph glyph-name="Dcroat" unicode="&#x110;" horiz-adv-x="703" d="M66 290 C61 277 58 266 60 252 C62 226 76 206 97 200 C106 198 118 197 129 197 L128 193 C115 154 107 114 92 74 C86 53 76 35 70 14 C61 -17 63 -53 123 -53 C157 -53 184 -41 262 -37 C340 -34 386 -12 468 28 C586 92 685 185 720 310 C723 319 726 328 727 337 C743 500 671 537 631 565 C592 599 548 597 469 597 C389 597 220 582 197 499 C180 442 171 385 161 328 C148 328 135 328 121 327 C92 323 80 321 66 290 L66 290 Z M323 459 C348 462 397 464 444 464 C465 464 482 464 493 463 C533 460 613 415 608 371 C606 358 603 344 599 330 C587 287 558 239 474 172 C383 100 262 84 221 81 C224 92 226 107 231 125 C239 150 248 177 257 204 C319 208 403 220 408 283 C408 310 399 334 377 343 C356 353 332 344 309 340 L295 337 L323 459 Z " />
<glyph glyph-name="dcroat" unicode="&#x111;" horiz-adv-x="694" d="M70 290 C66 277 62 266 64 252 C68 226 80 206 102 200 C111 198 122 197 133 197 C123 166 112 137 103 109 C76 14 62 -50 155 -50 C172 -50 190 -49 208 -47 C239 -44 315 -30 358 -13 C415 4 513 53 560 103 C633 180 676 228 713 313 C718 325 723 336 726 348 C757 455 728 497 676 548 C652 572 616 581 571 592 C551 596 532 599 510 599 C466 599 387 579 339 579 C303 579 234 566 217 509 C214 497 214 485 212 477 C209 467 205 456 202 446 C195 422 188 392 179 361 C175 349 171 339 168 328 C154 328 141 328 126 327 C97 323 84 321 70 290 L70 290 Z M349 444 C389 449 461 466 480 471 C576 459 593 422 597 406 C598 396 598 375 590 347 C577 304 528 185 383 125 C335 106 267 100 236 97 C249 132 261 168 274 206 C334 209 408 225 412 283 C414 310 404 334 382 343 C361 352 340 344 318 340 C328 374 338 407 349 444 L349 444 Z " />
<glyph glyph-name="Emacron" unicode="&#x112;" horiz-adv-x="545" d="M627 548 C634 590 556 600 516 600 C474 600 430 596 388 596 C357 596 327 599 296 599 C193 599 161 555 141 486 C131 453 130 416 119 380 C106 334 95 288 82 242 C78 230 75 219 72 207 C62 172 59 137 48 101 C40 72 31 44 24 18 C12 -22 37 -56 76 -56 C105 -56 149 -37 188 -30 C283 -12 463 -18 485 58 C497 101 437 118 405 118 C373 118 338 118 306 114 C261 109 211 92 172 92 C180 114 182 129 189 150 C193 164 197 178 199 194 C255 215 320 221 376 229 C424 235 535 230 550 279 C570 349 485 353 428 353 C368 353 297 345 238 334 C250 375 266 462 266 462 C266 462 324 468 371 473 C421 478 598 462 627 548 L627 548 Z M253 652 C257 652 260 652 266 652 C285 653 301 654 318 654 C350 653 380 659 409 662 C450 665 510 675 550 675 C559 675 573 672 591 672 C626 672 647 695 653 717 C659 735 649 747 640 757 C631 768 615 769 601 770 C573 770 545 769 517 764 C444 758 374 753 310 753 C306 753 279 753 257 745 C250 744 226 736 220 715 C217 706 218 695 219 687 C222 671 227 652 253 652 L253 652 Z " />
<glyph glyph-name="emacron" unicode="&#x113;" horiz-adv-x="599" d="M548 52 C550 56 553 63 555 70 C570 120 535 127 503 127 C450 124 434 116 380 111 C347 107 305 106 271 101 C240 97 205 84 175 88 C182 101 187 114 191 128 C196 147 205 166 212 187 C292 204 289 212 345 216 C417 220 541 228 559 292 C575 348 493 344 460 344 C364 344 322 335 252 321 C258 361 260 387 271 423 C273 433 279 440 284 453 C369 460 588 446 616 542 C636 612 563 605 536 605 C492 605 463 594 412 591 C370 588 327 587 286 584 C214 578 179 575 147 462 C132 411 127 362 113 312 C90 234 58 178 30 79 C8 1 14 -57 121 -57 C157 -57 197 -50 231 -43 C291 -30 350 -22 410 -12 C452 -5 520 13 548 52 L548 52 Z M270 649 C274 649 277 649 283 649 C302 650 318 651 335 651 C367 650 397 656 426 659 C467 662 527 672 567 672 C576 672 590 669 608 669 C643 669 664 692 670 714 C676 732 666 744 657 754 C648 765 632 766 618 767 C590 767 562 766 534 761 C461 755 391 750 327 750 C323 750 296 750 274 742 C267 741 243 733 237 712 C234 703 235 692 236 684 C239 668 244 649 270 649 L270 649 Z " />
<glyph glyph-name="Eogonek" unicode="&#x118;" horiz-adv-x="539" d="M613 548 C620 590 542 600 502 600 C460 600 417 596 375 596 C344 596 314 599 283 599 C180 599 147 555 127 486 C118 453 116 416 106 380 C93 334 82 288 68 242 L58 207 C48 172 45 137 35 101 C27 72 18 44 10 18 C-1 -22 24 -56 63 -56 C92 -56 135 -37 174 -30 C206 -23 251 -19 292 -16 L292 -19 C284 -45 280 -72 282 -94 C287 -169 358 -197 424 -185 C448 -180 482 -166 502 -147 C517 -131 533 -96 521 -75 C504 -49 474 -58 453 -69 C434 -78 395 -98 379 -92 C375 -52 398 -25 425 8 L434 17 C453 27 466 40 472 58 C484 101 424 118 392 118 C360 118 325 118 293 114 C247 109 197 92 158 92 C167 114 169 129 175 150 C179 164 183 178 186 194 C242 215 306 221 363 229 C410 235 522 230 536 279 C556 349 471 353 414 353 C354 353 284 345 225 334 C236 375 252 462 252 462 C252 462 310 468 358 473 C407 478 584 462 613 548 L613 548 Z " />
<glyph glyph-name="eogonek" unicode="&#x119;" horiz-adv-x="599" d="M511 127 C458 124 443 116 388 111 C355 107 313 106 279 101 C248 97 213 84 183 88 C190 101 195 114 199 128 C204 147 213 166 220 187 C300 204 297 212 353 216 C425 220 549 228 567 292 C583 348 501 344 468 344 C372 344 330 335 260 321 C266 361 268 387 279 423 C281 433 287 440 292 453 C377 460 596 446 624 542 C644 612 571 605 544 605 C500 605 471 594 420 591 L294 584 C222 578 187 575 155 462 C140 411 135 362 121 312 C98 234 66 178 38 79 C16 1 22 -57 129 -57 C165 -57 205 -50 239 -43 C290 -31 340 -25 392 -16 C387 -37 385 -58 386 -76 C391 -151 463 -178 528 -167 C553 -162 587 -147 606 -129 C621 -112 638 -78 626 -57 C608 -31 579 -40 558 -50 C538 -59 498 -80 482 -74 C479 -34 502 -6 529 26 C529 26 529 27 531 27 C590 74 570 127 511 127 L511 127 Z " />
<glyph glyph-name="Ecaron" unicode="&#x11a;" horiz-adv-x="539" d="M627 548 C598 462 421 478 371 473 C324 468 266 462 266 462 C266 462 250 375 238 334 C297 345 368 353 428 353 C485 353 570 349 550 279 C535 230 424 235 376 229 C320 221 255 215 199 194 C197 178 193 164 189 150 C182 129 180 114 172 92 C211 92 261 109 306 114 C338 118 373 118 405 118 C437 118 497 101 485 58 C463 -18 283 -12 188 -30 C149 -37 105 -56 76 -56 C37 -56 12 -22 24 18 C31 44 40 72 48 101 C59 137 62 172 72 207 C75 219 78 230 82 242 C95 288 106 334 119 380 C130 416 131 453 141 486 C161 555 193 599 296 599 C327 599 357 596 388 596 C430 596 474 600 516 600 C556 600 634 590 627 548 L627 548 Z M300 759 C303 749 311 740 317 730 C334 705 337 641 393 641 C457 641 552 718 591 746 C614 763 651 787 657 807 C663 830 649 840 628 840 C570 840 523 795 488 774 C466 761 436 745 422 736 C382 765 388 835 338 835 C316 835 299 820 294 802 C290 786 294 773 300 759 L300 759 Z " />
<glyph glyph-name="ecaron" unicode="&#x11b;" horiz-adv-x="599" d="M548 52 C520 13 452 -5 410 -12 C350 -22 291 -30 231 -43 C197 -50 157 -57 121 -57 C14 -57 8 1 30 79 C58 178 90 234 113 312 C127 362 132 411 147 462 C179 575 214 578 286 584 C327 587 370 588 412 591 C463 594 492 605 536 605 C563 605 636 612 616 542 C588 446 369 460 284 453 C279 440 273 433 271 423 C260 387 258 361 252 321 C322 335 364 344 460 344 C493 344 575 348 559 292 C541 228 417 220 345 216 C289 212 292 204 212 187 C205 166 196 147 191 128 C187 114 182 101 175 88 C205 84 240 97 271 101 C305 106 347 107 380 111 C434 116 450 124 503 127 C535 127 570 120 555 70 C553 63 550 56 548 52 L548 52 Z M333 759 C336 749 344 740 350 730 C367 705 370 641 426 641 C490 641 585 718 624 746 C647 763 684 787 690 807 C696 830 682 840 661 840 C603 840 556 795 521 774 C499 761 469 745 455 736 C415 765 421 835 371 835 C349 835 332 820 327 802 C323 786 327 773 333 759 L333 759 Z " />
<glyph glyph-name="Imacron" unicode="&#x12a;" horiz-adv-x="537" d="M568 473 C593 482 606 498 611 515 C628 573 569 584 511 584 C458 584 403 577 349 570 C299 564 162 575 144 511 C126 449 175 441 223 441 C243 441 265 444 286 446 C260 385 244 321 226 261 C215 221 213 200 211 164 C209 141 202 112 206 89 C135 83 65 101 42 19 C32 -17 51 -40 94 -40 C178 -40 261 -30 345 -30 C354 -30 364 -30 375 -30 C408 -30 447 -26 460 19 C476 74 453 102 410 102 C388 102 367 97 345 97 C335 97 321 100 321 100 C321 100 353 260 377 343 C388 383 423 459 423 459 C423 459 466 466 477 466 C486 466 496 466 506 466 C527 466 548 467 568 473 L568 473 Z M240 624 C244 624 247 624 253 624 C272 625 288 626 305 626 C337 625 367 631 396 634 C437 637 497 647 537 647 C546 647 560 644 578 644 C613 644 634 667 640 689 C646 707 636 719 627 729 C618 740 602 741 588 742 C560 742 532 741 504 736 C431 730 361 725 297 725 C293 725 266 725 244 717 C237 716 213 708 207 687 C204 678 205 667 206 659 C209 643 214 624 240 624 L240 624 Z " />
<glyph glyph-name="imacron" unicode="&#x12b;" horiz-adv-x="253" d="M136 415 C128 388 121 361 113 332 C101 291 84 251 72 209 C56 153 33 85 33 32 C33 -4 59 -44 97 -44 C120 -44 155 -28 169 19 C195 109 203 198 230 290 C243 335 262 378 275 422 C285 458 296 498 298 533 C299 552 279 588 251 588 C201 588 163 525 151 482 C144 460 142 437 136 415 L136 415 Z M144 630 C148 630 150 630 155 630 C170 631 182 632 196 632 C221 631 245 637 268 640 C316 644 323 643 370 643 C398 643 414 666 419 688 C424 706 416 718 409 728 C402 739 389 740 378 741 C304 735 259 731 190 731 C186 731 165 731 148 723 C142 722 123 714 118 693 C116 684 117 673 117 665 C120 649 124 630 144 630 L144 630 Z " />
<glyph glyph-name="dotlessi" unicode="&#x131;" horiz-adv-x="253" d="M136 415 C128 388 121 361 113 332 C101 291 84 251 72 209 C56 153 33 85 33 32 C33 -4 59 -44 97 -44 C120 -44 155 -28 169 19 C195 109 203 198 230 290 C243 335 262 378 275 422 C285 458 296 498 298 533 C299 552 279 588 251 588 C201 588 163 525 151 482 C144 460 142 437 136 415 L136 415 Z " />
<glyph glyph-name="Lacute" unicode="&#x139;" horiz-adv-x="583" d="M138 405 C132 354 112 292 97 239 C84 193 68 144 55 98 C35 28 55 -45 138 -45 C206 -45 270 -25 332 -13 C410 1 525 -6 541 49 C560 116 499 120 458 120 C431 120 422 120 411 120 C348 120 272 100 196 94 C201 111 200 122 205 138 C218 182 229 225 242 270 C248 292 256 316 263 339 C286 419 339 590 231 590 C192 590 165 570 155 535 C143 493 143 447 138 405 L138 405 Z M380 657 C360 645 341 631 330 610 C323 597 328 586 338 578 C351 568 378 573 392 574 C442 581 518 617 557 645 C571 656 587 669 596 684 C603 696 597 709 588 719 C570 740 537 731 516 719 C481 700 414 676 380 657 L380 657 Z " />
<glyph glyph-name="lacute" unicode="&#x13a;" horiz-adv-x="542" d="M247 353 C261 398 279 444 292 489 C301 520 312 594 251 594 C176 594 127 411 119 383 C110 352 103 321 94 290 C83 253 70 219 59 180 C31 81 -16 -49 99 -49 C181 -49 275 -23 359 -12 C408 -5 477 4 492 57 C506 106 452 114 417 114 C328 114 269 92 187 92 C169 92 167 92 165 92 C170 102 173 114 176 125 C184 151 189 176 196 202 C211 252 231 299 247 353 L247 353 Z M357 693 C337 681 318 667 307 646 C300 633 305 622 315 614 C328 604 355 609 369 610 C419 617 495 653 534 681 C548 692 564 705 573 720 C580 732 574 745 565 755 C547 776 514 767 493 755 C458 736 391 712 357 693 L357 693 Z " />
<glyph glyph-name="Lcaron" unicode="&#x13d;" horiz-adv-x="583" d="M138 405 C132 354 112 292 97 239 C84 193 68 144 55 98 C35 28 55 -45 138 -45 C206 -45 270 -25 332 -13 C410 1 525 -6 541 49 C560 116 499 120 458 120 C431 120 422 120 411 120 C348 120 272 100 196 94 C201 111 200 122 205 138 C218 182 229 225 242 270 C248 292 256 316 263 339 C286 419 339 590 231 590 C192 590 165 570 155 535 C143 493 143 447 138 405 L138 405 Z M573 645 C575 661 551 685 523 685 C490 685 460 677 449 657 C420 605 377 531 359 468 C350 438 345 384 389 384 C410 384 433 384 448 401 C496 446 556 583 573 645 L573 645 Z " />
<glyph glyph-name="lcaron" unicode="&#x13e;" horiz-adv-x="539" d="M247 353 C261 398 279 444 292 489 C301 520 312 594 251 594 C176 594 127 411 119 383 C110 352 103 321 94 290 C83 253 70 219 59 180 C31 81 -16 -49 99 -49 C181 -49 275 -23 359 -12 C408 -5 477 4 492 57 C506 106 452 114 417 114 C328 114 269 92 187 92 C169 92 167 92 165 92 C170 102 173 114 176 125 C184 151 189 176 196 202 C211 252 231 299 247 353 L247 353 Z M553 583 C555 599 531 623 503 623 C470 623 440 615 429 595 C400 543 357 469 339 406 C330 376 325 322 369 322 C390 322 413 322 428 339 C476 384 536 521 553 583 L553 583 Z " />
<glyph glyph-name="Lslash" unicode="&#x141;" horiz-adv-x="671" d="M50 224 C49 211 50 202 59 190 C75 171 95 159 119 163 C128 164 143 169 161 176 C153 149 145 123 138 98 C118 28 138 -45 221 -45 C289 -45 353 -25 415 -13 C492 1 608 -6 624 49 C643 116 582 120 541 120 L494 120 C431 120 355 100 279 94 C284 111 283 122 288 138 C298 172 307 206 316 239 L334 247 C382 268 539 321 510 392 C499 414 479 428 453 427 C426 427 405 411 384 398 L359 385 C382 472 404 590 314 590 C275 590 248 570 238 535 C226 493 226 447 221 405 C216 379 211 350 204 322 C176 310 154 301 143 296 C127 290 109 283 91 275 C62 261 51 253 50 224 L50 224 Z " />
<glyph glyph-name="lslash" unicode="&#x142;" horiz-adv-x="627" d="M47 224 C47 211 48 202 56 190 C72 171 93 159 117 163 L150 172 C120 75 79 -49 192 -49 C274 -49 368 -23 452 -12 C501 -5 570 4 585 57 C599 106 545 114 510 114 C421 114 362 92 281 92 L259 92 C263 102 266 114 269 125 C277 151 283 176 290 202 L299 233 L331 247 C380 268 537 321 507 392 C497 414 476 428 450 427 C423 427 403 411 381 398 C374 394 363 389 349 383 C361 418 374 453 385 489 C394 520 405 594 344 594 C269 594 220 411 212 383 C206 361 200 340 196 319 L141 296 C124 290 107 283 88 275 C60 261 49 253 47 224 L47 224 Z " />
<glyph glyph-name="Nacute" unicode="&#x143;" horiz-adv-x="661" d="M113 255 C119 296 121 341 123 381 C123 418 123 445 135 486 C149 534 181 575 234 575 C320 575 347 473 380 402 C404 350 430 304 461 241 C467 229 471 217 482 202 C517 294 531 339 554 406 C558 419 560 432 564 446 C578 495 600 601 688 601 C733 597 749 550 737 509 C693 354 635 200 577 53 C561 10 547 -57 486 -57 C408 -57 405 1 389 45 C383 65 370 96 360 115 C327 185 295 262 260 334 C243 231 222 102 204 41 C193 1 172 -49 126 -49 C97 -49 69 -32 64 -10 C55 25 72 94 77 109 C95 171 109 213 113 255 L113 255 Z M426 651 C406 639 387 625 376 604 C369 591 374 580 384 572 C397 562 424 567 438 568 C488 575 564 611 603 639 C617 650 633 663 642 678 C649 690 643 703 634 713 C616 734 583 725 562 713 C527 694 460 670 426 651 L426 651 Z " />
<glyph glyph-name="nacute" unicode="&#x144;" horiz-adv-x="635" d="M142 482 C138 476 136 469 134 463 C115 397 112 328 94 261 C77 191 71 122 65 54 C62 27 37 -69 105 -69 C150 -69 177 -13 192 39 C218 131 214 225 239 313 C242 321 243 327 246 334 C280 274 311 198 330 132 C355 67 377 -45 456 -45 C513 -45 541 27 556 78 C572 133 583 189 598 244 C621 305 647 366 674 427 C683 447 695 467 702 490 C716 539 732 613 644 613 C578 613 553 486 547 473 C518 393 491 313 454 233 C415 305 400 391 362 463 C339 509 301 570 240 570 C189 570 158 519 142 482 L142 482 Z M426 685 C406 673 387 659 376 638 C369 625 374 614 384 606 C397 596 424 601 438 602 C488 609 564 645 603 673 C617 684 633 697 642 712 C649 724 643 737 634 747 C616 768 583 759 562 747 C527 728 460 704 426 685 L426 685 Z " />
<glyph glyph-name="Ncaron" unicode="&#x147;" horiz-adv-x="661" d="M113 255 C119 296 121 341 123 381 C123 418 123 445 135 486 C149 534 181 575 234 575 C320 575 347 473 380 402 C404 350 430 304 461 241 C467 229 471 217 482 202 C517 294 531 339 554 406 C558 419 560 432 564 446 C578 495 600 601 688 601 C733 597 749 550 737 509 C693 354 635 200 577 53 C561 10 547 -57 486 -57 C408 -57 405 1 389 45 C383 65 370 96 360 115 C327 185 295 262 260 334 C243 231 222 102 204 41 C193 1 172 -49 126 -49 C97 -49 69 -32 64 -10 C55 25 72 94 77 109 C95 171 109 213 113 255 L113 255 Z M330 665 C333 655 341 646 347 636 C364 611 367 547 423 547 C487 547 582 624 621 652 C644 669 681 693 687 713 C693 736 679 746 658 746 C600 746 553 701 518 680 C496 667 466 651 452 642 C412 671 418 741 368 741 C346 741 329 726 324 708 C320 692 324 679 330 665 L330 665 Z " />
<glyph glyph-name="ncaron" unicode="&#x148;" horiz-adv-x="635" d="M142 482 C138 476 136 469 134 463 C115 397 112 328 94 261 C77 191 71 122 65 54 C62 27 37 -69 105 -69 C150 -69 177 -13 192 39 C218 131 214 225 239 313 C242 321 243 327 246 334 C280 274 311 198 330 132 C355 67 377 -45 456 -45 C513 -45 541 27 556 78 C572 133 583 189 598 244 C621 305 647 366 674 427 C683 447 695 467 702 490 C716 539 732 613 644 613 C578 613 553 486 547 473 C518 393 491 313 454 233 C415 305 400 391 362 463 C339 509 301 570 240 570 C189 570 158 519 142 482 L142 482 Z M321 675 C324 665 332 656 338 646 C355 621 358 557 414 557 C478 557 573 634 612 662 C635 679 672 703 678 723 C684 746 670 756 649 756 C591 756 544 711 509 690 C487 677 457 661 443 652 C403 681 409 751 359 751 C337 751 320 736 315 718 C311 702 315 689 321 675 L321 675 Z " />
<glyph glyph-name="Omacron" unicode="&#x14c;" horiz-adv-x="732" d="M284 -59 C407 -59 476 -22 543 19 C574 37 599 53 627 81 C678 133 720 185 738 250 C750 291 758 361 745 412 C713 531 670 582 546 604 C411 604 239 522 153 397 C114 331 79 294 59 224 C50 195 44 168 46 144 C50 14 116 5 170 -32 L171 -32 C201 -53 232 -59 284 -59 L284 -59 Z M497 456 C569 456 650 380 625 290 C617 265 599 242 579 219 L579 217 C504 128 402 75 307 75 C273 75 254 85 225 93 C170 115 170 159 182 199 C197 252 225 288 264 328 C339 407 403 456 497 456 L497 456 Z M354 637 C358 637 361 637 367 637 C386 638 402 639 419 639 C451 638 481 644 510 647 C551 650 611 660 651 660 C660 660 674 657 692 657 C727 657 748 680 754 702 C760 720 750 732 741 742 C732 753 716 754 702 755 C674 755 646 754 618 749 C545 743 475 738 411 738 C407 738 380 738 358 730 C351 729 327 721 321 700 C318 691 319 680 320 672 C323 656 328 637 354 637 L354 637 Z " />
<glyph glyph-name="omacron" unicode="&#x14d;" horiz-adv-x="764" d="M780 414 C771 502 716 572 639 581 C616 581 599 583 575 583 C566 583 555 582 546 582 C525 582 510 591 489 591 C474 591 456 587 441 584 C221 542 101 354 79 279 C68 239 66 185 70 125 C74 89 87 59 117 26 C127 14 138 1 160 -10 C214 -43 271 -44 332 -44 C492 -44 618 35 706 151 C720 176 741 197 754 229 C765 255 773 281 778 297 C790 340 785 380 780 414 L780 414 Z M633 294 C607 206 512 149 493 136 C455 110 402 97 346 97 C236 97 190 160 215 247 C238 325 347 407 405 428 C431 437 472 449 490 449 C503 449 519 440 532 437 C570 432 637 440 638 393 C636 354 642 328 633 294 L633 294 Z M375 650 C379 650 382 650 388 650 C407 651 423 652 440 652 C472 651 502 657 531 660 C572 663 632 673 672 673 C681 673 695 670 713 670 C748 670 769 693 775 715 C781 733 771 745 762 755 C753 766 737 767 723 768 C695 768 667 767 639 762 C566 756 496 751 432 751 C428 751 401 751 379 743 C372 742 348 734 342 713 C339 704 340 693 341 685 C344 669 349 650 375 650 L375 650 Z " />
<glyph glyph-name="Ohungarumlaut" unicode="&#x150;" horiz-adv-x="732" d="M565 619 C560 613 554 606 552 600 L533 604 C521 604 507 603 494 601 C534 634 575 681 594 715 C604 731 615 747 613 763 C616 776 602 781 588 785 C557 790 530 768 514 749 C490 718 435 667 411 636 C397 618 384 599 385 578 L384 575 C289 542 196 478 140 397 C101 331 66 294 46 224 C37 195 31 168 33 144 C36 14 103 5 157 -32 L158 -32 C188 -53 219 -59 271 -59 C394 -59 463 -22 530 19 C561 37 586 53 614 81 C665 133 707 185 725 250 C737 291 745 361 732 412 C710 491 684 541 631 572 C676 603 725 661 749 698 C758 712 769 731 767 746 C770 758 757 764 741 767 C711 773 684 750 668 731 C645 700 589 649 565 619 L565 619 Z M484 456 C556 456 637 380 612 290 C604 265 586 242 566 219 L566 217 C491 128 389 75 294 75 C260 75 241 85 212 93 C157 115 157 159 169 199 C184 252 212 288 251 328 C326 407 390 456 484 456 L484 456 Z " />
<glyph glyph-name="ohungarumlaut" unicode="&#x151;" horiz-adv-x="764" d="M598 626 C588 612 579 597 575 583 L560 583 C551 583 541 582 532 582 C519 582 509 584 498 587 C498 588 499 588 502 590 C548 618 604 681 629 722 C638 737 648 754 647 769 C650 782 636 787 622 791 C590 797 564 775 547 755 C524 724 469 674 444 643 C430 625 418 605 418 584 L418 583 C203 538 86 353 65 279 C53 239 52 185 56 125 C59 89 73 59 102 26 C113 14 123 1 146 -10 C200 -43 256 -44 317 -44 C477 -44 604 35 691 151 C705 176 726 197 740 229 C751 255 758 281 763 297 C775 340 771 380 766 414 C758 489 717 550 657 573 C705 603 759 665 783 705 C792 719 802 737 802 753 C804 764 790 771 776 773 C745 780 718 756 701 737 C678 706 623 656 598 626 L598 626 Z M618 294 C593 206 498 149 479 136 C440 110 388 97 332 97 C222 97 176 160 201 247 C223 325 333 407 391 428 C416 437 458 449 476 449 C489 449 504 440 517 437 C556 432 622 440 624 393 C621 354 628 328 618 294 L618 294 Z " />
<glyph glyph-name="OE" unicode="&#x152;" horiz-adv-x="1085" d="M1169 548 C1176 590 1098 600 1058 600 C1016 600 972 596 930 596 C899 596 869 599 838 599 C755 599 718 570 697 525 C665 566 620 591 546 604 C411 604 239 522 153 397 C114 331 79 294 59 224 C50 195 44 168 46 144 C50 14 116 5 170 -32 L171 -32 C201 -53 232 -59 284 -59 C407 -59 476 -22 543 19 C552 25 561 30 571 36 L566 18 C554 -22 579 -56 618 -56 C647 -56 691 -37 730 -30 C825 -12 1005 -18 1027 58 C1039 101 979 118 947 118 C915 118 880 118 848 114 C803 109 753 92 714 92 C722 114 724 129 731 150 C735 164 739 178 741 194 C797 215 862 221 918 229 C965 235 1077 230 1092 279 C1112 349 1027 353 970 353 C910 353 839 345 780 334 C792 375 808 462 808 462 C808 462 866 468 913 473 C963 478 1140 462 1169 548 L1169 548 Z M497 456 C569 456 650 380 625 290 C617 265 599 242 579 219 L579 217 C504 128 402 75 307 75 C273 75 254 85 225 93 C170 115 170 159 182 199 C197 252 225 288 264 328 C339 407 403 456 497 456 L497 456 Z " />
<glyph glyph-name="oe" unicode="&#x153;" horiz-adv-x="1363" d="M1088 52 C1091 56 1094 63 1096 70 C1111 120 1075 127 1043 127 C990 124 974 116 920 111 C887 107 846 106 811 101 C781 97 746 84 716 88 C722 101 727 114 731 128 C736 147 745 166 752 187 C832 204 829 212 886 216 C958 220 1081 228 1099 292 C1115 348 1034 344 1000 344 C905 344 863 335 793 321 C798 361 800 387 811 423 C813 433 819 440 824 453 C909 460 1129 446 1157 542 C1177 612 1104 605 1077 605 C1033 605 1004 594 952 591 L826 584 C776 579 747 577 720 541 C698 562 670 577 639 581 C616 581 598 583 574 583 C565 583 555 582 546 582 C525 582 510 591 489 591 C474 591 456 587 441 584 C221 542 101 354 79 279 C68 239 66 185 70 125 C74 89 87 59 117 26 C127 14 138 1 160 -10 C214 -43 271 -44 332 -44 C417 -44 493 -21 559 18 C558 -27 584 -57 662 -57 C698 -57 737 -50 772 -43 C831 -30 890 -22 950 -12 C992 -5 1061 13 1088 52 L1088 52 Z M633 294 C607 206 512 149 493 136 C455 110 402 97 346 97 C236 97 190 160 215 247 C237 325 347 407 405 428 C431 437 472 449 490 449 C503 449 518 440 532 437 C570 432 636 440 638 393 C636 354 642 328 633 294 L633 294 Z " />
<glyph glyph-name="Racute" unicode="&#x154;" horiz-adv-x="650" d="M674 513 C651 566 577 596 493 596 C450 596 445 599 407 590 C330 570 187 569 154 490 C146 473 141 458 136 442 C129 418 123 394 118 375 C110 347 101 326 94 300 C75 237 62 202 53 168 C47 147 40 125 38 105 C31 71 13 -52 92 -52 C137 -52 158 -28 165 -4 C180 47 176 78 183 102 C186 112 189 125 193 137 C197 138 222 145 224 146 C265 122 289 101 309 92 C399 47 472 -45 550 -47 C564 -47 584 -28 589 -12 C603 36 569 59 542 88 C527 102 492 140 443 173 C428 184 403 204 389 216 C515 257 576 270 643 349 C658 367 666 384 670 401 C677 424 691 477 674 513 L674 513 Z M421 358 C338 325 251 319 251 319 C252 341 277 432 277 432 C293 440 380 464 464 464 C517 464 548 453 548 453 C523 394 449 369 421 358 L421 358 Z M413 728 C393 716 374 702 363 681 C356 668 361 657 371 649 C384 639 411 644 425 645 C475 652 551 688 590 716 C604 727 620 740 629 755 C636 767 630 780 621 790 C603 811 570 802 549 790 C514 771 447 747 413 728 L413 728 Z " />
<glyph glyph-name="racute" unicode="&#x155;" horiz-adv-x="675" d="M591 563 C545 592 475 597 415 597 C354 597 301 592 239 559 C193 535 177 522 145 430 C137 410 131 389 125 369 C119 346 112 323 104 301 C87 260 73 218 58 176 C42 131 41 92 35 47 C32 22 27 -9 39 -31 C48 -47 65 -55 85 -55 C109 -55 138 -41 148 -18 C168 24 164 59 177 102 C181 111 187 139 196 158 C225 156 249 143 271 131 C313 111 379 71 415 50 C428 42 442 33 455 25 C469 18 480 10 493 4 C517 -10 537 -24 562 -31 C591 -36 614 -19 621 4 C625 17 623 32 614 47 C588 92 551 124 503 157 C479 171 443 204 419 219 C427 225 440 228 449 232 C502 257 530 267 556 288 C609 332 631 365 642 403 C648 422 651 441 652 463 C653 508 623 542 591 563 L591 563 Z M498 411 C457 376 432 364 378 342 C352 332 336 330 303 314 C287 307 264 306 244 299 C252 322 258 343 264 364 C270 384 274 416 286 439 C293 449 321 462 342 468 C379 477 402 482 434 481 C450 480 484 472 499 466 C531 449 518 429 498 411 L498 411 Z M414 721 C394 709 375 695 364 674 C357 661 362 650 372 642 C385 632 412 637 426 638 C476 645 552 681 591 709 C605 720 621 733 630 748 C637 760 631 773 622 783 C604 804 571 795 550 783 C515 764 448 740 414 721 L414 721 Z " />
<glyph glyph-name="Rcaron" unicode="&#x158;" horiz-adv-x="650" d="M674 513 C651 566 577 596 493 596 C450 596 445 599 407 590 C330 570 187 569 154 490 C146 473 141 458 136 442 C129 418 123 394 118 375 C110 347 101 326 94 300 C75 237 62 202 53 168 C47 147 40 125 38 105 C31 71 13 -52 92 -52 C137 -52 158 -28 165 -4 C180 47 176 78 183 102 C186 112 189 125 193 137 C197 138 222 145 224 146 C265 122 289 101 309 92 C399 47 472 -45 550 -47 C564 -47 584 -28 589 -12 C603 36 569 59 542 88 C527 102 492 140 443 173 C428 184 403 204 389 216 C515 257 576 270 643 349 C658 367 666 384 670 401 C677 424 691 477 674 513 L674 513 Z M421 358 C338 325 251 319 251 319 C252 341 277 432 277 432 C293 440 380 464 464 464 C517 464 548 453 548 453 C523 394 449 369 421 358 L421 358 Z M336 751 C339 741 347 732 353 722 C370 697 373 633 429 633 C493 633 588 710 627 738 C650 755 687 779 693 799 C699 822 685 832 664 832 C606 832 559 787 524 766 C502 753 472 737 458 728 C418 757 424 827 374 827 C352 827 335 812 330 794 C326 778 330 765 336 751 L336 751 Z " />
<glyph glyph-name="rcaron" unicode="&#x159;" horiz-adv-x="675" d="M591 563 C545 592 475 597 415 597 C354 597 301 592 239 559 C193 535 177 522 145 430 C137 410 131 389 125 369 C119 346 112 323 104 301 C87 260 73 218 58 176 C42 131 41 92 35 47 C32 22 27 -9 39 -31 C48 -47 65 -55 85 -55 C109 -55 138 -41 148 -18 C168 24 164 59 177 102 C181 111 187 139 196 158 C225 156 249 143 271 131 C313 111 379 71 415 50 C428 42 442 33 455 25 C469 18 480 10 493 4 C517 -10 537 -24 562 -31 C591 -36 614 -19 621 4 C625 17 623 32 614 47 C588 92 551 124 503 157 C479 171 443 204 419 219 C427 225 440 228 449 232 C502 257 530 267 556 288 C609 332 631 365 642 403 C648 422 651 441 652 463 C653 508 623 542 591 563 L591 563 Z M498 411 C457 376 432 364 378 342 C352 332 336 330 303 314 C287 307 264 306 244 299 C252 322 258 343 264 364 C270 384 274 416 286 439 C293 449 321 462 342 468 C379 477 402 482 434 481 C450 480 484 472 499 466 C531 449 518 429 498 411 L498 411 Z M357 753 C360 743 368 734 374 724 C391 699 394 635 450 635 C514 635 609 712 648 740 C671 757 708 781 714 801 C720 824 706 834 685 834 C627 834 580 789 545 768 C523 755 493 739 479 730 C439 759 445 829 395 829 C373 829 356 814 351 796 C347 780 351 767 357 753 L357 753 Z " />
<glyph glyph-name="Sacute" unicode="&#x15a;" horiz-adv-x="596" d="M524 394 C507 394 492 409 479 419 C463 432 472 475 454 473 C407 466 316 391 276 332 C291 327 348 327 364 326 C438 321 513 322 556 266 C578 237 583 185 573 150 C532 8 352 -66 180 -66 C105 -66 45 -56 11 8 C0 26 0 48 5 67 C12 92 29 111 55 111 C84 111 96 94 119 87 C142 79 189 72 228 74 C239 74 387 84 444 182 C409 190 337 194 310 194 C298 194 286 194 276 194 C198 194 69 206 100 316 C110 349 134 385 152 403 C212 467 225 498 294 542 C345 574 429 610 476 610 C549 610 593 570 599 487 C600 472 600 462 597 453 C588 419 554 394 524 394 L524 394 Z M420 737 C400 725 381 711 370 690 C363 677 368 666 378 658 C391 648 418 653 432 654 C482 661 558 697 597 725 C611 736 627 749 636 764 C643 776 637 789 628 799 C610 820 577 811 556 799 C521 780 454 756 420 737 L420 737 Z " />
<glyph glyph-name="sacute" unicode="&#x15b;" horiz-adv-x="653" d="M392 310 C420 310 449 309 476 306 C501 305 519 297 541 292 C583 282 614 262 629 228 C634 209 632 185 625 158 C615 124 598 89 579 69 C526 14 450 -10 377 -30 C324 -44 273 -49 223 -49 C196 -49 169 -48 141 -45 C98 -41 58 -26 32 3 C9 30 -1 72 31 106 C65 138 90 114 115 96 C142 76 182 75 222 79 C320 87 422 98 492 167 C457 182 414 185 370 185 C349 185 329 185 308 185 C288 185 269 185 252 187 C201 194 158 209 130 243 C104 270 111 313 130 349 C183 441 278 525 388 566 C431 583 472 600 516 594 C537 591 553 584 571 575 C591 565 601 556 616 542 C621 538 627 522 629 517 C631 504 626 463 622 450 C619 437 610 425 600 416 C593 411 581 407 573 403 C558 396 529 403 513 418 C506 424 498 456 489 464 C476 473 460 464 444 459 C386 440 290 369 263 317 C306 308 346 310 392 310 L392 310 Z M457 725 C437 713 418 699 407 678 C400 665 405 654 415 646 C428 636 455 641 469 642 C519 649 595 685 634 713 C648 724 664 737 673 752 C680 764 674 777 665 787 C647 808 614 799 593 787 C558 768 491 744 457 725 L457 725 Z " />
<glyph glyph-name="Scedilla" unicode="&#x15e;" horiz-adv-x="596" d="M338 -44 C451 -13 546 52 574 150 C584 185 580 237 557 266 C514 322 439 321 366 326 C350 327 293 327 277 332 C317 391 409 466 456 473 C473 475 465 432 480 419 C493 409 509 394 526 394 C556 394 589 419 599 453 C602 462 601 472 601 487 C595 570 551 610 478 610 C431 610 347 574 296 542 C227 498 214 467 154 403 C136 385 111 349 102 316 C70 206 200 194 278 194 L312 194 C339 194 411 190 445 182 C388 84 240 74 229 74 C191 72 144 79 121 87 C98 94 86 111 57 111 C31 111 13 92 6 67 C1 48 2 26 12 8 C47 -56 106 -66 181 -66 C199 -66 217 -66 235 -63 C242 -72 251 -81 251 -88 C252 -98 222 -118 213 -122 C200 -127 195 -122 182 -116 C157 -106 143 -98 119 -106 C97 -112 64 -136 77 -163 C89 -187 125 -202 148 -208 C160 -212 173 -213 185 -213 C238 -213 296 -186 328 -142 C348 -116 354 -85 343 -56 L338 -44 Z " />
<glyph glyph-name="scedilla" unicode="&#x15f;" horiz-adv-x="653" d="M393 -54 C391 -45 387 -36 382 -28 C454 -9 529 14 582 69 C600 89 618 124 627 158 C635 185 637 209 631 228 C617 262 586 282 544 292 C521 297 503 305 479 306 C452 309 423 310 395 310 C349 310 308 308 266 317 C293 369 388 440 447 459 C463 464 479 473 492 464 C501 456 509 424 516 418 C532 403 561 396 576 403 C584 407 596 411 602 416 C613 425 621 437 625 450 C629 463 633 504 631 517 C630 522 623 538 618 542 C603 556 594 565 574 575 C555 584 539 591 518 594 C475 600 433 583 390 566 C281 525 185 441 133 349 C114 313 106 270 133 243 C161 209 204 194 255 187 C272 185 291 185 311 185 L373 185 C417 185 459 182 495 167 C425 98 323 87 225 79 C184 75 145 76 118 96 C93 114 68 138 33 106 C1 72 12 30 35 3 C61 -26 100 -41 144 -45 C171 -48 199 -49 226 -49 C241 -49 257 -49 272 -48 C278 -58 300 -75 301 -87 C302 -97 273 -116 264 -120 C250 -125 246 -120 233 -115 C207 -105 194 -97 170 -105 C147 -111 115 -134 128 -162 C140 -186 176 -200 199 -207 C210 -211 223 -212 236 -212 C289 -212 346 -185 379 -141 C398 -115 405 -84 393 -54 L393 -54 Z " />
<glyph glyph-name="Scaron" unicode="&#x160;" horiz-adv-x="596" d="M524 394 C507 394 492 409 479 419 C463 432 472 475 454 473 C407 466 316 391 276 332 C291 327 348 327 364 326 C438 321 513 322 556 266 C578 237 583 185 573 150 C532 8 352 -66 180 -66 C105 -66 45 -56 11 8 C0 26 0 48 5 67 C12 92 29 111 55 111 C84 111 96 94 119 87 C142 79 189 72 228 74 C239 74 387 84 444 182 C409 190 337 194 310 194 C298 194 286 194 276 194 C198 194 69 206 100 316 C110 349 134 385 152 403 C212 467 225 498 294 542 C345 574 429 610 476 610 C549 610 593 570 599 487 C600 472 600 462 597 453 C588 419 554 394 524 394 L524 394 Z M375 762 C378 752 386 743 392 733 C409 708 412 644 468 644 C532 644 627 721 666 749 C689 766 726 790 732 810 C738 833 724 843 703 843 C645 843 598 798 563 777 C541 764 511 748 497 739 C457 768 463 838 413 838 C391 838 374 823 369 805 C365 789 369 776 375 762 L375 762 Z " />
<glyph glyph-name="scaron" unicode="&#x161;" horiz-adv-x="653" d="M392 310 C420 310 449 309 476 306 C501 305 519 297 541 292 C583 282 614 262 629 228 C634 209 632 185 625 158 C615 124 598 89 579 69 C526 14 450 -10 377 -30 C324 -44 273 -49 223 -49 C196 -49 169 -48 141 -45 C98 -41 58 -26 32 3 C9 30 -1 72 31 106 C65 138 90 114 115 96 C142 76 182 75 222 79 C320 87 422 98 492 167 C457 182 414 185 370 185 C349 185 329 185 308 185 C288 185 269 185 252 187 C201 194 158 209 130 243 C104 270 111 313 130 349 C183 441 278 525 388 566 C431 583 472 600 516 594 C537 591 553 584 571 575 C591 565 601 556 616 542 C621 538 627 522 629 517 C631 504 626 463 622 450 C619 437 610 425 600 416 C593 411 581 407 573 403 C558 396 529 403 513 418 C506 424 498 456 489 464 C476 473 460 464 444 459 C386 440 290 369 263 317 C306 308 346 310 392 310 L392 310 Z M417 745 C420 735 428 726 434 716 C451 691 454 627 510 627 C574 627 669 704 708 732 C731 749 768 773 774 793 C780 816 766 826 745 826 C687 826 640 781 605 760 C583 747 553 731 539 722 C499 751 505 821 455 821 C433 821 416 806 411 788 C407 772 411 759 417 745 L417 745 Z " />
<glyph glyph-name="uni0162" unicode="&#x162;" horiz-adv-x="643" d="M684 491 C696 498 703 508 706 519 C721 570 665 608 614 608 C585 608 558 603 531 603 C522 603 512 603 501 603 C430 603 343 579 269 565 C225 556 154 548 139 495 C128 455 156 418 207 418 C252 418 303 434 350 445 C348 438 346 431 341 415 C336 396 333 378 319 330 C307 290 300 251 290 212 C277 163 207 -16 331 -16 C353 -16 380 -1 389 30 C409 101 401 118 420 185 C430 220 439 243 443 257 C450 281 455 309 462 336 C475 380 489 424 501 468 C528 471 556 473 604 473 C631 473 656 475 684 491 L684 491 Z M178 -309 C217 -309 241 -274 256 -253 C284 -209 341 -137 355 -89 C366 -49 325 -34 300 -34 C230 -34 218 -76 196 -115 C178 -146 131 -208 122 -241 C121 -244 107 -309 178 -309 L178 -309 Z " />
<glyph glyph-name="uni0163" unicode="&#x163;" horiz-adv-x="643" d="M171 -309 C209 -309 234 -274 249 -253 C276 -209 333 -137 347 -89 C358 -49 318 -34 294 -34 C224 -34 211 -76 188 -115 C170 -146 125 -208 115 -241 C114 -244 99 -309 171 -309 L171 -309 Z M724 555 C726 596 695 605 661 605 C647 605 632 604 619 603 C573 597 527 592 481 586 C438 579 393 568 352 565 C292 562 205 574 151 509 C137 490 128 473 133 453 C139 431 166 428 188 427 C216 425 248 427 278 429 C295 431 314 432 332 437 C326 407 321 365 313 334 C294 242 284 204 252 114 C243 92 229 63 234 43 C236 23 254 9 271 1 C297 -9 318 0 342 23 C376 58 391 97 403 137 C434 246 448 300 467 407 C469 419 472 442 475 454 C526 454 582 460 639 476 C689 494 722 489 724 555 L724 555 Z " />
<glyph glyph-name="Tcaron" unicode="&#x164;" horiz-adv-x="600" d="M666 491 C639 475 613 473 586 473 C538 473 511 471 484 468 C471 424 457 380 445 336 C437 309 432 281 425 257 C421 243 413 220 403 185 C383 118 381 53 360 -18 C351 -49 323 -63 301 -63 C177 -63 259 163 272 212 C282 251 290 290 301 330 C315 378 318 396 324 415 C328 431 330 438 332 445 C285 434 234 418 189 418 C138 418 110 455 121 495 C137 548 207 556 252 565 C326 579 412 603 483 603 C494 603 504 603 513 603 C540 603 568 608 597 608 C648 608 703 570 688 519 C685 508 678 498 666 491 L666 491 Z M336 765 C339 755 347 746 353 736 C370 711 373 647 429 647 C493 647 588 724 627 752 C650 769 687 793 693 813 C699 836 685 846 664 846 C606 846 559 801 524 780 C502 767 472 751 458 742 C418 771 424 841 374 841 C352 841 335 826 330 808 C326 792 330 779 336 765 L336 765 Z " />
<glyph glyph-name="tcaron" unicode="&#x165;" horiz-adv-x="863" d="M707 555 C708 596 677 605 643 605 C629 605 615 604 601 603 C556 597 509 592 464 586 C421 579 375 568 335 565 C275 562 187 574 133 509 C119 490 110 473 115 453 C121 431 148 428 170 427 C198 425 230 427 261 429 C277 431 296 432 314 437 C308 407 303 365 295 334 C282 275 267 217 252 159 C242 124 231 91 219 57 C210 35 196 6 200 -14 C203 -34 221 -48 238 -56 C264 -66 285 -57 309 -34 C344 1 359 40 370 80 C377 102 381 125 388 147 C413 234 434 322 449 407 C452 419 454 442 458 454 C509 454 564 460 621 476 C671 494 705 489 707 555 L707 555 Z M916 578 C918 594 894 618 866 618 C833 618 803 610 792 590 C763 538 720 464 702 401 C693 371 688 317 732 317 C753 317 776 317 791 334 C839 379 899 516 916 578 L916 578 Z " />
<glyph glyph-name="Umacron" unicode="&#x16a;" horiz-adv-x="656" d="M697 476 C703 519 710 595 672 595 C611 595 578 551 567 511 C545 434 531 330 518 283 C510 255 493 195 465 162 C435 129 274 97 231 97 C217 97 205 98 193 102 C195 124 200 159 204 172 C206 180 209 185 238 308 C249 340 263 381 274 419 C291 480 307 579 247 579 C190 579 159 542 145 494 C134 455 131 427 120 389 C105 337 87 272 73 222 C28 66 48 -50 202 -50 C260 -50 333 -35 397 -14 C441 0 482 1 523 23 C565 45 582 76 597 114 C633 206 654 279 681 374 C690 407 693 442 697 476 L697 476 Z M294 636 C298 636 301 636 307 636 C326 637 342 638 359 638 C391 637 421 643 450 646 C491 649 551 659 591 659 C600 659 614 656 632 656 C667 656 688 679 694 701 C700 719 690 731 681 741 C672 752 656 753 642 754 C614 754 586 753 558 748 C485 742 415 737 351 737 C347 737 320 737 298 729 C291 728 267 720 261 699 C258 690 259 679 260 671 C263 655 268 636 294 636 L294 636 Z " />
<glyph glyph-name="umacron" unicode="&#x16b;" horiz-adv-x="610" d="M63 162 C54 125 41 80 50 47 C60 6 90 -21 132 -35 C147 -40 162 -41 178 -41 C215 -41 255 -31 294 -23 C329 -17 369 -10 405 3 C433 12 459 19 479 41 C496 58 511 75 522 96 C535 116 550 146 559 168 C581 224 615 335 630 392 C638 420 647 454 654 484 C658 504 661 526 658 546 C649 582 608 600 566 577 C540 564 529 546 523 524 C518 507 516 487 514 469 C510 437 503 414 496 389 C491 372 486 356 481 337 C475 316 455 255 445 230 C439 211 418 176 406 160 C394 145 342 115 295 103 C276 100 237 91 218 93 C196 97 184 107 193 134 C206 171 220 215 233 261 C253 331 270 405 276 467 C279 489 279 513 273 533 C268 550 260 562 242 566 C202 577 158 533 149 500 C144 485 146 472 144 456 C142 420 126 372 115 335 C107 299 71 199 63 162 L63 162 Z M269 626 C273 626 276 626 282 626 C301 627 317 628 334 628 C366 627 396 633 425 636 C466 639 526 649 566 649 C575 649 589 646 607 646 C642 646 663 669 669 691 C675 709 665 721 656 731 C647 742 631 743 617 744 C589 744 561 743 533 738 C460 732 390 727 326 727 C322 727 295 727 273 719 C266 718 242 710 236 689 C233 680 234 669 235 661 C238 645 243 626 269 626 L269 626 Z " />
<glyph glyph-name="Uring" unicode="&#x16e;" horiz-adv-x="656" d="M697 476 C693 442 690 407 681 374 C654 279 633 206 597 114 C582 76 565 45 523 23 C482 1 441 0 397 -14 C333 -35 260 -50 202 -50 C48 -50 28 66 73 222 C87 272 105 337 120 389 C131 427 134 455 145 494 C159 542 190 579 247 579 C307 579 291 480 274 419 C263 381 249 340 238 308 C209 185 206 180 204 172 C200 159 195 124 193 102 C205 98 217 97 231 97 C274 97 435 129 465 162 C493 195 510 255 518 283 C531 330 545 434 567 511 C578 551 611 595 672 595 C710 595 703 519 697 476 L697 476 Z M555 745 C540 764 513 769 490 776 C482 778 474 781 466 781 C411 778 344 743 318 694 C299 659 318 617 341 587 C363 555 395 542 433 537 C478 530 510 553 539 584 C555 601 566 621 572 641 C581 675 577 712 555 745 L555 745 Z M481 653 C473 622 444 610 417 628 C406 637 401 652 410 666 C417 677 437 687 448 689 C453 690 484 696 483 689 C484 676 484 665 481 653 L481 653 Z " />
<glyph glyph-name="uring" unicode="&#x16f;" horiz-adv-x="610" d="M63 162 C54 125 41 80 50 47 C60 6 90 -21 132 -35 C147 -40 162 -41 178 -41 C215 -41 255 -31 294 -23 C329 -17 369 -10 405 3 C433 12 459 19 479 41 C496 58 511 75 522 96 C535 116 550 146 559 168 C581 224 615 335 630 392 C638 420 647 454 654 484 C658 504 661 526 658 546 C649 582 608 600 566 577 C540 564 529 546 523 524 C518 507 516 487 514 469 C510 437 503 414 496 389 C491 372 486 356 481 337 C475 316 455 255 445 230 C439 211 418 176 406 160 C394 145 342 115 295 103 C276 100 237 91 218 93 C196 97 184 107 193 134 C206 171 220 215 233 261 C253 331 270 405 276 467 C279 489 279 513 273 533 C268 550 260 562 242 566 C202 577 158 533 149 500 C144 485 146 472 144 456 C142 420 126 372 115 335 C107 299 71 199 63 162 L63 162 Z M525 767 C510 786 483 791 460 798 C452 800 444 803 436 803 C381 800 314 765 288 716 C269 681 288 639 311 609 C333 577 365 564 403 559 C448 552 480 575 509 606 C525 623 536 643 542 663 C551 697 547 734 525 767 L525 767 Z M451 675 C443 644 414 632 387 650 C376 659 371 674 380 688 C387 699 407 709 418 711 C423 712 454 718 453 711 C454 698 454 687 451 675 L451 675 Z " />
<glyph glyph-name="Uhungarumlaut" unicode="&#x170;" horiz-adv-x="656" d="M697 476 C693 442 690 407 681 374 C654 279 633 206 597 114 C582 76 565 45 523 23 C482 1 441 0 397 -14 C333 -35 260 -50 202 -50 C48 -50 28 66 73 222 C87 272 105 337 120 389 C131 427 134 455 145 494 C159 542 190 579 247 579 C307 579 291 480 274 419 C263 381 249 340 238 308 C209 185 206 180 204 172 C200 159 195 124 193 102 C205 98 217 97 231 97 C274 97 435 129 465 162 C493 195 510 255 518 283 C531 330 545 434 567 511 C578 551 611 595 672 595 C710 595 703 519 697 476 L697 476 Z M347 659 C333 641 322 622 322 601 C322 588 333 582 347 582 C366 581 391 597 404 606 C451 635 508 698 532 738 C542 754 551 771 551 786 C554 799 539 804 525 808 C494 813 467 791 451 772 C428 741 372 690 347 659 L347 659 Z M502 643 C487 623 476 604 476 583 C476 570 487 564 501 564 C521 562 545 581 559 588 C606 618 662 681 686 721 C695 736 706 754 705 769 C707 781 693 787 679 790 C648 796 621 773 605 754 C582 723 526 672 502 643 L502 643 Z " />
<glyph glyph-name="uhungarumlaut" unicode="&#x171;" horiz-adv-x="610" d="M63 162 C54 125 41 80 50 47 C60 6 90 -21 132 -35 C147 -40 162 -41 178 -41 C215 -41 255 -31 294 -23 C329 -17 369 -10 405 3 C433 12 459 19 479 41 C496 58 511 75 522 96 C535 116 550 146 559 168 C581 224 615 335 630 392 C638 420 647 454 654 484 C658 504 661 526 658 546 C649 582 608 600 566 577 C540 564 529 546 523 524 C518 507 516 487 514 469 C510 437 503 414 496 389 C491 372 486 356 481 337 C475 316 455 255 445 230 C439 211 418 176 406 160 C394 145 342 115 295 103 C276 100 237 91 218 93 C196 97 184 107 193 134 C206 171 220 215 233 261 C253 331 270 405 276 467 C279 489 279 513 273 533 C268 550 260 562 242 566 C202 577 158 533 149 500 C144 485 146 472 144 456 C142 420 126 372 115 335 C107 299 71 199 63 162 L63 162 Z M317 679 C303 661 292 642 292 621 C292 608 303 602 317 602 C336 601 361 617 374 626 C421 655 478 718 502 758 C512 774 521 791 521 806 C524 819 509 824 495 828 C464 833 437 811 421 792 C398 761 342 710 317 679 L317 679 Z M472 663 C457 643 446 624 446 603 C446 590 457 584 471 584 C491 582 515 601 529 608 C576 638 632 701 656 741 C665 756 676 774 675 789 C677 801 663 807 649 810 C618 816 591 793 575 774 C552 743 496 692 472 663 L472 663 Z " />
<glyph glyph-name="Ydieresis" unicode="&#x178;" horiz-adv-x="581" d="M681 543 C687 573 658 614 624 614 C568 614 505 524 456 476 C416 436 371 372 330 330 C312 354 304 385 293 411 C270 460 275 564 205 564 C172 564 136 531 128 503 C115 458 134 409 147 371 C180 278 202 255 233 211 C192 164 104 63 90 14 C73 -44 96 -69 152 -69 C162 -69 171 -67 180 -65 C206 -57 280 59 332 119 C479 300 658 460 677 524 C678 529 679 535 681 543 L681 543 Z M580 735 C576 736 573 736 569 736 C558 736 484 720 474 686 C464 651 480 618 516 618 C521 618 583 644 598 696 C603 714 593 727 580 735 L580 735 Z M392 709 C382 715 371 727 358 727 C324 727 283 695 283 695 C278 689 275 686 273 679 C264 647 279 618 321 618 C345 622 396 670 401 687 C403 695 400 705 392 709 L392 709 Z " />
<glyph glyph-name="Zacute" unicode="&#x179;" horiz-adv-x="604" d="M399 594 C457 599 483 604 537 604 C620 604 706 606 688 543 C677 503 634 464 605 433 C550 376 500 317 439 265 C376 209 312 150 258 85 C331 91 396 105 459 105 C493 105 539 93 526 49 C499 -47 335 -37 246 -47 C183 -53 114 -59 53 -59 C0 -59 -12 -37 3 21 C19 62 98 112 146 158 C248 259 360 358 453 467 C445 468 436 468 429 468 C370 468 299 455 261 450 C232 446 217 428 190 428 C167 428 126 449 139 494 C165 583 238 581 308 584 C332 586 373 591 399 594 L399 594 Z M398 730 C378 718 359 704 348 683 C341 670 346 659 356 651 C369 641 396 646 410 647 C460 654 536 690 575 718 C589 729 605 742 614 757 C621 769 615 782 606 792 C588 813 555 804 534 792 C499 773 432 749 398 730 L398 730 Z " />
<glyph glyph-name="zacute" unicode="&#x17a;" horiz-adv-x="613" d="M358 574 C421 578 495 592 563 592 C623 592 707 577 687 506 C678 476 623 432 601 406 C545 344 459 290 389 228 C354 197 292 144 267 112 C349 114 426 122 497 134 C506 136 513 137 522 137 C561 137 574 110 565 78 C544 6 439 -6 367 -17 C265 -32 158 -32 103 -43 C89 -45 67 -48 49 -48 C1 -48 -18 -23 -4 27 C12 87 132 169 180 216 C243 277 312 331 375 388 C401 412 421 423 445 447 C375 454 297 418 229 418 C198 418 172 440 183 478 C201 544 298 574 358 574 L358 574 Z M445 723 C425 711 406 697 395 676 C388 663 393 652 403 644 C416 634 443 639 457 640 C507 647 583 683 622 711 C636 722 652 735 661 750 C668 762 662 775 653 785 C635 806 602 797 581 785 C546 766 479 742 445 723 L445 723 Z " />
<glyph glyph-name="Zdotaccent" unicode="&#x17b;" horiz-adv-x="604" d="M399 594 C373 591 332 586 308 584 C238 581 165 583 139 494 C126 449 167 428 190 428 C217 428 232 446 261 450 C299 455 370 468 429 468 C436 468 445 468 453 467 C360 358 248 259 146 158 C98 112 19 62 3 21 C-12 -37 0 -59 53 -59 C114 -59 183 -53 246 -47 C335 -37 499 -47 526 49 C539 93 493 105 459 105 C396 105 331 91 258 85 C312 150 376 209 439 265 C500 317 550 376 605 433 C634 464 677 503 688 543 C706 606 620 604 537 604 C483 604 457 599 399 594 L399 594 Z M532 768 C529 769 526 769 522 769 C510 769 437 753 427 719 C417 684 432 651 469 651 C474 651 536 677 551 729 C556 747 546 760 532 768 L532 768 Z " />
<glyph glyph-name="zdotaccent" unicode="&#x17c;" horiz-adv-x="613" d="M358 574 C298 574 201 544 183 478 C172 440 198 418 229 418 C297 418 375 454 445 447 C421 423 401 412 375 388 C312 331 243 277 180 216 C132 169 12 87 -4 27 C-18 -23 1 -48 49 -48 C67 -48 89 -45 103 -43 C158 -32 265 -32 367 -17 C439 -6 544 6 565 78 C574 110 561 137 522 137 C513 137 506 136 497 134 C426 122 349 114 267 112 C292 144 354 197 389 228 C459 290 545 344 601 406 C623 432 678 476 687 506 C707 577 623 592 563 592 C495 592 421 578 358 574 L358 574 Z M548 751 C545 752 542 752 538 752 C526 752 453 736 443 702 C433 667 448 634 485 634 C490 634 552 660 567 712 C572 730 562 743 548 751 L548 751 Z " />
<glyph glyph-name="Zcaron" unicode="&#x17d;" horiz-adv-x="604" d="M399 594 C457 599 483 604 537 604 C620 604 706 606 688 543 C677 503 634 464 605 433 C550 376 500 317 439 265 C376 209 312 150 258 85 C331 91 396 105 459 105 C493 105 539 93 526 49 C499 -47 335 -37 246 -47 C183 -53 114 -59 53 -59 C0 -59 -12 -37 3 21 C19 62 98 112 146 158 C248 259 360 358 453 467 C445 468 436 468 429 468 C370 468 299 455 261 450 C232 446 217 428 190 428 C167 428 126 449 139 494 C165 583 238 581 308 584 C332 586 373 591 399 594 L399 594 Z M351 752 C354 742 362 733 368 723 C385 698 388 634 444 634 C508 634 603 711 642 739 C665 756 702 780 708 800 C714 823 700 833 679 833 C621 833 574 788 539 767 C517 754 487 738 473 729 C433 758 439 828 389 828 C367 828 350 813 345 795 C341 779 345 766 351 752 L351 752 Z " />
<glyph glyph-name="zcaron" unicode="&#x17e;" horiz-adv-x="613" d="M358 574 C421 578 495 592 563 592 C623 592 707 577 687 506 C678 476 623 432 601 406 C545 344 459 290 389 228 C354 197 292 144 267 112 C349 114 426 122 497 134 C506 136 513 137 522 137 C561 137 574 110 565 78 C544 6 439 -6 367 -17 C265 -32 158 -32 103 -43 C89 -45 67 -48 49 -48 C1 -48 -18 -23 -4 27 C12 87 132 169 180 216 C243 277 312 331 375 388 C401 412 421 423 445 447 C375 454 297 418 229 418 C198 418 172 440 183 478 C201 544 298 574 358 574 L358 574 Z M368 741 C371 731 379 722 385 712 C402 687 405 623 461 623 C525 623 620 700 659 728 C682 745 719 769 725 789 C731 812 717 822 696 822 C638 822 591 777 556 756 C534 743 504 727 490 718 C450 747 456 817 406 817 C384 817 367 802 362 784 C358 768 362 755 368 741 L368 741 Z " />
<glyph glyph-name="circumflex" unicode="&#x2c6;" horiz-adv-x="431" d="M526 747 C522 759 515 768 508 777 C488 806 487 865 432 865 C367 865 274 790 235 760 C212 744 175 720 169 698 C163 678 178 667 198 667 C258 667 302 712 338 733 C359 745 378 760 403 771 C435 746 440 671 484 671 C509 671 526 687 531 705 C536 722 532 733 526 747 L526 747 Z " />
<glyph glyph-name="caron" unicode="&#x2c7;" horiz-adv-x="418" d="M224 785 C227 775 235 766 241 756 C258 731 261 667 317 667 C381 667 476 744 515 772 C538 789 575 813 581 833 C587 856 573 866 552 866 C494 866 447 821 412 800 C390 787 360 771 346 762 C306 791 312 861 262 861 C240 861 223 846 218 828 C214 812 218 799 224 785 L224 785 Z " />
<glyph glyph-name="breve" unicode="&#x2d8;" horiz-adv-x="369" d="M236 684 C251 678 280 674 312 674 C412 674 476 705 499 787 C509 821 507 846 463 846 C435 846 414 809 402 787 C389 762 344 754 321 754 C299 754 281 764 287 786 C291 800 305 815 308 824 C315 850 298 860 265 860 C240 860 208 819 201 793 C188 747 196 703 236 684 L236 684 Z " />
<glyph glyph-name="dotaccent" unicode="&#x2d9;" horiz-adv-x="194" d="M292 824 C289 825 286 825 282 825 C270 825 197 809 187 775 C177 740 192 707 229 707 C234 707 296 733 311 785 C316 803 306 816 292 824 L292 824 Z " />
<glyph glyph-name="ring" unicode="&#x2da;" horiz-adv-x="336" d="M428 855 C413 874 386 879 363 886 C355 888 347 891 339 891 C284 888 217 853 191 804 C172 769 191 727 214 697 C236 665 268 652 306 647 C351 640 383 663 412 694 C428 711 439 731 445 751 C454 785 450 822 428 855 L428 855 Z M354 763 C346 732 317 720 290 738 C279 747 274 762 283 776 C290 787 310 797 321 799 C326 800 357 806 356 799 C357 786 357 775 354 763 L354 763 Z " />
<glyph glyph-name="ogonek" unicode="&#x2db;" horiz-adv-x="319" d="M101 67 C83 52 58 39 47 19 C39 6 34 -10 29 -27 C21 -53 18 -80 18 -102 C23 -177 95 -204 160 -193 C186 -187 219 -173 239 -155 C254 -138 271 -103 258 -83 C241 -57 212 -66 191 -76 C171 -85 131 -106 115 -100 C113 -59 134 -32 162 0 C175 14 195 28 197 48 C200 59 192 81 183 89 C158 112 118 83 101 67 L101 67 Z " />
<glyph glyph-name="tilde" unicode="&#x2dc;" horiz-adv-x="437" d="M232 663 C263 663 275 688 293 718 C299 728 310 734 323 745 C341 758 348 759 349 759 C352 759 355 753 357 746 C382 679 397 665 425 665 C476 665 576 736 595 802 C602 825 593 846 568 846 C538 846 513 811 506 802 C492 784 473 760 450 755 C433 763 431 848 387 848 C361 848 330 835 302 822 C255 800 219 755 205 706 C202 696 198 663 232 663 L232 663 Z " />
<glyph glyph-name="hungarumlaut" unicode="&#x2dd;" horiz-adv-x="398" d="M191 619 C177 601 166 582 166 561 C166 548 177 542 191 542 C210 541 235 557 248 566 C295 595 352 658 376 698 C386 714 395 731 395 746 C398 759 383 764 369 768 C338 773 311 751 295 732 C272 701 216 650 191 619 L191 619 Z M346 603 C331 583 320 564 320 543 C320 530 331 524 345 524 C365 522 389 541 403 548 C450 578 506 641 530 681 C539 696 550 714 549 729 C551 741 537 747 523 750 C492 756 465 733 449 714 C426 683 370 632 346 603 L346 603 Z " />
<glyph glyph-name="pi" unicode="&#x3c0;" horiz-adv-x="785" d="M154 -36 C212 -36 238 6 249 44 C259 79 261 109 267 128 C293 220 350 308 379 409 C431 409 489 412 556 414 C550 388 546 359 538 332 C517 257 476 191 455 118 C442 72 441 9 506 9 C580 9 594 103 607 145 C625 211 669 296 689 367 C695 388 699 406 705 425 C756 433 851 445 867 502 C888 574 788 574 758 574 C744 574 730 574 707 573 C640 570 570 559 504 559 C483 559 462 561 441 561 C388 561 331 551 268 551 C253 551 241 551 228 552 C207 552 154 555 124 472 C104 403 187 410 234 410 C226 380 152 241 104 74 C91 28 88 -36 154 -36 L154 -36 Z " />
<glyph glyph-name="endash" unicode="&#x2013;" horiz-adv-x="822" d="M80 268 C108 332 218 299 324 318 C339 322 354 326 370 326 C407 326 432 290 420 248 C399 177 264 185 220 182 C194 181 167 175 142 175 C99 175 58 198 75 255 C76 259 79 264 80 268 L80 268 Z M543 221 C562 220 610 222 628 222 C682 222 806 209 831 295 C845 345 813 369 790 369 C736 369 682 358 627 350 C583 344 525 350 504 312 C472 256 512 224 543 221 L543 221 Z " />
<glyph glyph-name="emdash" unicode="&#x2014;" horiz-adv-x="829" d="M80 268 C108 332 218 299 324 318 C339 322 354 326 370 326 C407 326 432 290 420 248 C399 177 264 185 220 182 C194 181 167 175 142 175 C99 175 58 198 75 255 C76 259 79 264 80 268 L80 268 Z M543 221 C562 220 610 222 628 222 C682 222 806 209 831 295 C845 345 813 369 790 369 C736 369 682 358 627 350 C583 344 525 350 504 312 C472 256 512 224 543 221 L543 221 Z " />
<glyph glyph-name="quoteleft" unicode="&#x2018;" horiz-adv-x="264" d="M257 635 C254 635 252 635 249 635 C168 635 139 493 132 469 C117 416 97 309 173 309 C208 309 222 328 234 358 C241 388 251 416 259 445 C265 466 272 485 278 506 C285 531 297 555 304 579 C311 605 288 628 257 635 L257 635 Z " />
<glyph glyph-name="quoteright" unicode="&#x2019;" horiz-adv-x="252" d="M329 578 C331 594 307 618 279 618 C246 618 216 610 205 590 C176 538 133 464 115 401 C106 371 101 317 145 317 C166 317 189 317 204 334 C252 379 312 516 329 578 L329 578 Z " />
<glyph glyph-name="quotesinglbase" unicode="&#x201a;" horiz-adv-x="251" d="M215 158 C216 173 193 198 165 198 C132 198 102 190 90 169 C62 118 18 44 0 -19 C-8 -49 -13 -103 31 -103 C52 -103 75 -103 90 -87 C138 -41 197 96 215 158 L215 158 Z " />
<glyph glyph-name="quotedblleft" unicode="&#x201c;" horiz-adv-x="467" d="M443 326 C436 305 411 294 380 294 C329 294 332 380 345 424 C347 433 350 442 352 451 C359 476 364 500 372 525 C378 546 384 561 389 578 C396 605 424 625 462 625 C515 625 515 572 504 533 C499 515 491 495 485 476 C477 446 474 415 466 388 C460 367 450 347 443 326 L443 326 Z M258 635 C255 635 253 635 250 635 C169 635 140 493 133 469 C118 416 99 309 175 309 C210 309 223 328 236 358 C242 388 252 416 261 445 C267 466 273 485 279 506 C286 531 298 555 305 579 C312 605 289 628 258 635 L258 635 Z " />
<glyph glyph-name="quotedblright" unicode="&#x201d;" horiz-adv-x="487" d="M336 578 C318 516 259 379 211 334 C196 317 173 317 152 317 C108 317 113 371 121 401 C139 464 182 538 211 590 C223 610 252 618 285 618 C313 618 337 594 336 578 L336 578 Z M559 568 C560 591 551 621 503 621 C449 621 418 556 365 441 C359 429 357 422 354 411 C340 362 316 306 406 306 C470 306 528 471 545 517 C551 537 555 551 559 568 L559 568 Z " />
<glyph glyph-name="quotedblbase" unicode="&#x201e;" horiz-adv-x="491" d="M217 168 C199 106 140 -31 92 -76 C77 -93 54 -93 33 -93 C-11 -93 -6 -39 2 -9 C20 54 63 128 92 180 C104 200 133 208 166 208 C194 208 219 184 217 168 L217 168 Z M440 158 C441 181 432 211 384 211 C330 211 299 146 246 31 C240 19 238 12 235 1 C221 -48 197 -103 287 -103 C351 -103 409 61 426 107 C432 127 436 141 440 158 L440 158 Z " />
<glyph glyph-name="bullet" unicode="&#x2022;" horiz-adv-x="288" d="M210 385 C163 385 94 272 86 244 C76 209 113 166 145 166 C221 166 264 215 283 283 C300 341 264 385 210 385 L210 385 Z " />
<glyph glyph-name="ellipsis" unicode="&#x2026;" horiz-adv-x="844" d="M757 62 C759 50 759 41 757 32 C746 -6 704 -58 661 -58 C625 -58 591 -35 601 12 C612 50 683 94 709 94 C741 94 751 89 757 62 L757 62 Z M141 111 C136 115 130 116 125 116 C91 116 47 62 33 40 C29 34 25 27 23 19 C15 -9 20 -53 54 -53 C126 -53 163 17 176 63 C183 87 158 101 141 111 L141 111 Z M414 115 C378 115 324 27 318 6 C310 -21 339 -54 363 -54 C423 -54 455 -17 471 36 C484 81 455 115 414 115 L414 115 Z " />
<glyph glyph-name="guilsinglleft" unicode="&#x2039;" horiz-adv-x="450" d="M333 36 C371 36 395 70 405 106 C424 172 371 194 346 206 C309 215 263 235 231 255 C289 273 344 299 404 341 C438 365 497 389 515 450 C523 478 502 503 481 503 C471 503 457 495 446 490 C412 471 385 453 356 441 C307 422 269 398 235 387 C200 374 102 357 79 274 C48 167 148 142 171 123 C197 100 238 91 273 69 C286 58 310 36 333 36 L333 36 Z " />
<glyph glyph-name="guilsinglright" unicode="&#x203a;" horiz-adv-x="477" d="M55 50 C68 50 85 54 105 65 C130 79 154 92 179 97 C259 115 446 137 477 244 C509 357 424 372 379 393 C354 405 333 419 307 431 C275 444 211 489 194 489 C184 489 140 472 126 422 C119 397 137 383 145 369 C160 339 253 281 323 259 C307 250 268 243 245 241 C182 233 42 184 18 103 C9 70 29 50 55 50 L55 50 Z " />
<glyph glyph-name="Euro" unicode="&#x20ac;" horiz-adv-x="639" d="M335 -69 C357 -69 520 -56 543 25 C554 61 532 93 497 93 C454 93 402 76 350 76 C313 76 273 83 256 107 C305 107 450 100 474 184 C480 204 473 230 402 230 C354 230 311 222 255 222 C259 237 274 261 278 275 C326 283 373 287 410 287 C424 290 532 284 548 341 C560 383 503 398 458 398 C437 398 410 397 384 397 C436 455 518 466 588 468 C582 468 695 447 720 535 C735 587 681 606 615 606 C522 606 288 553 184 372 C184 372 112 370 100 327 C98 322 83 261 137 261 C131 244 125 230 121 216 C92 213 43 189 34 155 C21 112 70 98 108 101 C121 -8 215 -69 335 -69 L335 -69 Z " />
<glyph glyph-name="trademark" unicode="&#x2122;" horiz-adv-x="819" d="M187 259 C226 259 246 295 256 314 C275 352 309 451 323 458 C373 464 458 478 473 530 C482 564 457 578 419 578 C405 577 392 575 375 575 L347 574 C320 575 291 572 263 572 C240 572 222 574 193 574 C163 574 142 553 136 530 C121 480 158 451 208 455 C196 414 174 375 160 326 C156 309 151 259 187 259 L187 259 Z M380 262 C425 262 451 327 513 389 C524 374 523 345 523 331 C523 325 521 278 563 278 C614 278 666 350 708 388 C717 374 717 347 716 318 C717 295 730 282 753 282 C780 282 812 306 824 347 C832 374 829 400 826 422 C821 454 807 574 760 574 C705 574 659 478 623 442 C598 515 605 566 565 566 C508 566 440 455 406 410 C379 376 354 352 345 321 C339 300 343 262 380 262 L380 262 Z " />
<glyph glyph-name="A_a" unicode="&#xe000;" horiz-adv-x="1443" d="M658 189 C652 261 634 354 625 400 C599 516 560 603 504 603 C408 603 317 491 247 402 C154 288 29 158 -4 41 C-14 4 -16 -39 47 -39 C112 -39 126 -8 149 25 C166 49 179 72 194 92 C219 89 232 85 245 85 C336 88 436 123 518 103 C520 76 532 45 539 19 C550 -23 565 -58 622 -58 C649 -58 669 -39 678 -10 C686 19 674 67 672 92 C669 136 660 153 658 189 L658 189 Z M403 231 C358 230 322 226 276 217 C336 294 377 375 464 433 C480 375 498 327 505 242 C466 230 453 234 403 231 L403 231 Z M1382 224 C1379 310 1362 397 1343 478 C1329 537 1317 616 1237 616 C1133 616 994 427 918 314 C888 269 853 228 823 182 C804 153 763 85 746 28 C735 -14 734 -69 785 -69 C848 -69 901 56 923 88 C957 98 988 98 1024 103 C1093 112 1159 115 1240 124 C1252 58 1254 -31 1317 -31 C1344 -31 1376 -12 1386 22 C1405 88 1384 136 1382 224 L1382 224 Z M1006 220 C1020 244 1052 272 1150 389 C1161 403 1181 431 1196 441 C1212 398 1212 369 1222 327 C1228 304 1233 275 1235 251 C1151 248 1084 231 1006 220 L1006 220 Z " />
<glyph glyph-name="B_b" unicode="&#xe001;" horiz-adv-x="1296" d="M180 -62 C195 -62 209 -62 225 -61 C267 -58 391 -48 462 -9 C517 19 588 65 609 137 C619 173 610 195 589 231 C574 259 536 275 516 287 C550 314 601 356 617 410 C632 463 621 507 577 553 C546 586 505 608 436 608 C381 608 354 584 284 584 C192 578 178 528 168 493 C164 481 162 469 159 458 C153 440 147 424 138 406 C119 372 108 335 99 301 C77 224 44 142 23 69 C11 28 -7 -30 48 -47 C90 -59 143 -62 180 -62 L180 -62 Z M163 75 C171 103 189 156 198 182 C206 182 216 181 228 181 C231 181 327 191 380 191 C406 187 482 176 476 155 C464 115 396 72 233 72 C206 72 179 74 163 75 L163 75 Z M247 326 C257 353 283 420 294 455 C319 456 353 459 392 469 C396 471 402 472 409 472 C446 472 488 442 481 418 C472 385 375 323 281 323 C266 323 256 325 247 326 L247 326 Z M849 -66 C860 -66 878 -65 890 -65 C1019 -65 1116 -27 1185 21 C1211 37 1237 56 1260 122 C1270 156 1266 195 1245 233 C1230 257 1162 277 1146 290 C1208 337 1265 367 1288 445 C1304 500 1274 559 1228 578 C1207 587 1167 614 1098 614 C1055 614 1025 606 992 600 C900 572 830 595 805 507 C797 480 798 456 786 428 C776 396 769 363 756 318 C727 244 698 151 668 72 L664 66 C661 57 657 47 653 35 C629 -52 732 -65 808 -65 C829 -65 838 -66 849 -66 L849 -66 Z M800 75 C810 102 831 160 841 190 C879 190 923 198 960 198 C992 198 1067 184 1074 181 C1079 178 1119 167 1136 147 C1094 103 1019 72 851 72 C829 72 811 74 800 75 L800 75 Z M897 330 C909 371 924 432 931 456 C953 462 976 478 1038 478 C1099 478 1137 455 1151 444 C1144 433 1123 406 1053 370 C978 331 921 330 897 330 L897 330 Z " />
<glyph glyph-name="C_c" unicode="&#xe002;" horiz-adv-x="1236" d="M590 597 C567 606 531 619 497 619 C411 619 340 568 270 508 C176 428 89 321 57 211 C50 186 45 160 45 136 C43 76 50 14 90 -28 C128 -67 197 -79 259 -72 C327 -65 391 -52 456 -17 C496 4 581 62 552 105 C541 120 527 125 512 125 C486 125 456 109 425 94 C373 69 301 48 249 50 C183 53 170 129 187 185 C200 233 236 284 268 323 C311 375 337 405 400 445 C423 459 459 478 481 472 C503 466 523 456 537 441 C547 428 566 423 582 423 C602 423 619 429 629 441 C644 460 651 478 652 500 C654 520 630 581 590 597 L590 597 Z M1193 608 C1176 613 1161 616 1145 616 C1057 616 978 578 914 544 C803 485 707 376 677 272 C649 173 652 43 729 -23 C764 -53 826 -67 885 -67 C1021 -67 1171 14 1194 94 C1204 128 1174 147 1154 147 C1107 147 1049 96 996 80 C971 72 944 61 918 61 C830 61 779 133 806 226 C833 321 895 389 985 441 C1016 459 1056 485 1090 485 C1134 485 1143 420 1191 420 C1231 420 1264 441 1275 480 C1285 516 1280 575 1193 608 L1193 608 Z " />
<glyph glyph-name="D_d" unicode="&#xe003;" horiz-adv-x="1305" d="M73 -53 C107 -53 134 -41 211 -37 C290 -34 336 -12 418 28 C535 92 635 185 670 310 C673 319 676 328 676 337 C692 500 621 537 581 565 C542 599 498 597 419 597 C339 597 170 582 147 499 C120 406 113 314 85 215 L78 193 C64 154 56 114 41 74 C35 53 25 35 19 14 C10 -17 12 -53 73 -53 L73 -53 Z M273 459 C297 462 346 464 394 464 C415 464 431 464 442 463 C483 460 562 415 557 371 C556 358 553 344 549 330 C537 287 507 239 424 172 C333 100 211 84 170 81 C173 92 176 107 181 125 C193 167 212 217 223 257 C242 322 266 424 273 459 L273 459 Z M756 -50 C773 -50 791 -49 809 -47 C840 -44 916 -30 959 -13 C1016 4 1114 53 1161 103 C1233 180 1277 228 1314 313 C1318 325 1324 336 1327 348 C1358 455 1328 497 1276 548 C1252 572 1217 581 1172 592 C1152 596 1132 599 1110 599 C1066 599 988 579 940 579 C904 579 835 566 818 509 C815 497 815 485 813 477 C810 467 806 456 803 446 C796 422 789 392 780 361 C772 335 764 310 756 281 C748 255 743 230 737 207 C726 171 714 141 704 109 C677 14 664 -50 756 -50 L756 -50 Z M950 444 C990 449 1062 466 1081 471 C1176 459 1194 422 1198 406 C1198 396 1199 375 1191 347 C1178 304 1128 185 983 125 C936 106 868 100 837 97 C874 199 912 313 950 444 L950 444 Z " />
<glyph glyph-name="E_e" unicode="&#xe004;" horiz-adv-x="1158" d="M627 548 C634 590 556 600 516 600 C474 600 430 596 388 596 C357 596 327 599 296 599 C193 599 161 555 141 486 C131 453 130 416 119 380 C106 334 95 288 82 242 C78 230 75 219 72 207 C62 172 59 137 48 101 C40 72 31 44 24 18 C12 -22 37 -56 76 -56 C105 -56 149 -37 188 -30 C283 -12 463 -18 485 58 C497 101 437 118 405 118 C373 118 338 118 306 114 C261 109 211 92 172 92 C180 114 182 129 189 150 C193 164 197 178 199 194 C255 215 320 221 376 229 C424 235 535 230 550 279 C570 349 485 353 428 353 C368 353 297 345 238 334 C250 375 266 462 266 462 C266 462 324 468 371 473 C421 478 598 462 627 548 L627 548 Z M1104 52 C1106 56 1109 63 1111 70 C1126 120 1091 127 1059 127 C1006 124 990 116 936 111 C903 107 861 106 827 101 C796 97 761 84 731 88 C738 101 743 114 747 128 C752 147 761 166 768 187 C848 204 845 212 901 216 C973 220 1097 228 1115 292 C1131 348 1049 344 1016 344 C920 344 878 335 808 321 C814 361 816 387 827 423 C829 433 835 440 840 453 C925 460 1144 446 1172 542 C1192 612 1119 605 1092 605 C1048 605 1019 594 968 591 C926 588 883 587 842 584 C770 578 735 575 703 462 C688 411 683 362 669 312 C646 234 614 178 586 79 C564 1 570 -57 677 -57 C713 -57 753 -50 787 -43 C847 -30 906 -22 966 -12 C1008 -5 1076 13 1104 52 L1104 52 Z " />
<glyph glyph-name="F_f" unicode="&#xe005;" horiz-adv-x="1133" d="M653 535 C659 561 636 568 618 575 C583 588 540 592 497 592 C473 592 448 591 425 590 C366 587 351 586 293 579 C259 575 227 570 198 555 C155 534 150 503 140 463 C133 438 131 414 122 389 C107 335 98 278 84 225 C71 172 57 119 54 66 C53 32 40 -28 78 -41 C132 -61 158 -21 173 28 C185 71 188 122 193 147 C197 166 195 166 199 182 C259 194 275 200 335 203 C369 204 409 208 444 208 C466 208 489 209 512 213 C530 216 553 222 563 242 C573 259 576 284 568 300 C558 317 539 325 521 328 C496 334 475 335 445 335 C433 335 420 335 405 335 C361 335 355 332 308 328 C284 327 262 325 239 321 C244 339 257 374 262 392 C266 407 277 442 277 442 C277 442 320 453 334 454 C356 458 360 459 381 462 C421 466 431 467 470 468 C500 469 528 469 558 471 C577 472 596 472 614 480 C635 490 649 515 653 535 L653 535 Z M693 -52 C744 -52 769 19 772 30 C782 67 783 105 794 142 C798 156 802 171 805 185 C825 187 848 187 866 187 C1014 187 1087 212 1100 256 C1103 269 1107 322 1044 322 C1036 322 1026 321 1017 321 C970 313 897 316 834 313 C839 328 846 344 850 359 C858 388 868 433 874 455 C917 460 1183 442 1208 529 C1218 564 1200 575 1185 584 C1166 599 1146 600 1132 600 C1035 600 959 583 851 583 C841 583 830 586 816 586 C779 586 749 555 742 531 C737 511 734 491 733 472 C726 429 714 391 703 345 C704 349 686 234 652 96 C639 47 620 -52 693 -52 L693 -52 Z " />
<glyph glyph-name="G_g" unicode="&#xe006;" horiz-adv-x="1458" d="M701 213 C709 235 719 255 723 270 C739 325 673 352 583 352 C542 352 501 347 472 339 C416 325 339 332 319 262 C307 221 333 189 378 189 C474 189 485 213 563 213 C508 76 365 48 292 48 C217 48 167 116 189 194 C212 274 283 376 361 427 C394 449 458 489 486 489 C550 489 543 444 604 444 C640 444 659 468 664 487 C689 572 593 622 533 622 C433 622 331 570 247 498 C161 423 86 308 61 220 C17 67 87 -78 257 -78 C442 -78 635 34 701 213 L701 213 Z M1454 270 C1471 361 1371 367 1318 362 C1260 357 1182 366 1113 320 C1081 299 1065 279 1060 261 C1055 245 1059 231 1071 220 C1092 200 1112 196 1157 201 C1179 204 1273 215 1294 215 C1232 104 1115 65 1060 57 C1003 47 943 64 916 101 C900 122 902 161 913 199 C924 236 943 274 962 301 C999 355 1048 404 1108 445 C1148 473 1203 472 1246 477 C1267 472 1274 466 1287 453 C1302 440 1321 431 1351 442 C1384 456 1386 461 1395 488 C1415 551 1337 622 1266 614 C1203 609 1145 605 1066 562 C1027 542 966 489 935 460 C904 428 876 404 842 349 C823 317 809 283 800 249 C787 204 780 158 777 118 C773 66 801 1 843 -22 C873 -38 900 -51 936 -60 C954 -65 974 -66 995 -66 C1022 -66 1050 -64 1077 -60 C1151 -50 1273 5 1328 62 C1372 106 1444 220 1454 270 L1454 270 Z " />
<glyph glyph-name="H_h" unicode="&#xe007;" horiz-adv-x="1182" d="M662 519 C671 557 671 603 623 603 C560 603 530 559 517 513 C509 485 508 458 499 427 C493 406 486 384 478 362 C404 357 320 343 248 325 C283 466 317 553 203 553 C172 553 148 512 141 486 C128 442 125 394 112 348 C97 296 78 244 64 193 C59 177 55 163 52 147 C37 81 -18 -58 72 -58 C126 -58 152 -8 163 31 C168 48 170 65 174 80 C182 106 189 131 197 159 C200 169 203 180 208 190 C268 206 427 213 427 213 C427 213 425 204 417 177 C402 125 382 76 368 25 C361 1 356 -47 394 -47 C459 -47 489 9 507 53 C533 119 565 200 586 274 C595 306 602 340 611 372 C626 423 648 469 662 519 L662 519 Z M1227 499 C1235 522 1246 547 1242 569 C1237 592 1207 603 1183 608 C1139 616 1107 561 1097 526 C1082 473 1071 420 1057 367 C990 369 918 350 848 332 C853 352 857 371 865 400 C872 422 878 442 885 463 C895 490 908 525 896 548 C888 562 862 579 844 579 C794 581 769 521 755 473 C751 458 748 445 745 434 C738 400 724 365 718 331 C705 256 684 180 667 105 C656 63 632 -35 689 -45 C711 -49 737 -18 753 0 C775 26 782 61 790 91 C797 129 807 167 817 206 C882 225 953 224 1017 230 C1010 206 1004 182 997 159 C986 109 971 53 968 4 C966 -16 974 -53 993 -62 C1014 -71 1062 -45 1076 -26 C1087 -13 1093 4 1098 21 C1102 36 1105 50 1108 65 C1118 114 1140 164 1152 215 C1165 274 1176 335 1192 394 C1203 429 1216 464 1227 499 L1227 499 Z " />
<glyph glyph-name="I_I" unicode="&#xe008;" horiz-adv-x="1122" d="M1137 581 C1058 581 977 562 893 556 C781 538 700 537 681 468 C670 429 698 418 738 418 C773 418 812 424 838 424 C816 348 787 260 764 181 C757 156 756 131 749 107 C683 103 562 115 538 30 C522 -25 582 -36 629 -36 C722 -34 825 -13 911 -13 C925 -13 1035 -13 1051 43 C1068 102 1034 118 990 118 C957 118 919 109 892 106 C894 147 900 193 909 224 C920 265 934 305 947 352 C953 372 976 445 976 445 C976 445 1040 454 1063 454 C1075 454 1086 453 1099 453 C1144 453 1180 462 1191 499 C1200 533 1167 581 1137 581 L1137 581 Z M568 473 C593 482 606 498 611 515 C628 573 569 584 511 584 C458 584 403 577 349 570 C299 564 162 575 144 511 C126 449 175 441 223 441 C243 441 265 444 286 446 C260 385 244 321 226 261 C215 221 213 200 211 164 C209 141 202 112 206 89 C135 83 65 101 42 19 C32 -17 51 -40 94 -40 C178 -40 261 -30 345 -30 C354 -30 364 -30 375 -30 C408 -30 447 -26 460 19 C476 74 453 102 410 102 C388 102 367 97 345 97 C335 97 321 100 321 100 C321 100 353 260 377 343 C388 383 423 459 423 459 C423 459 466 466 477 466 C486 466 496 466 506 466 C527 466 548 467 568 473 L568 473 Z " />
<glyph glyph-name="i_i" unicode="&#xe009;" horiz-adv-x="509" d="M135 415 C127 388 121 361 112 332 C101 291 84 251 72 209 C56 153 32 85 32 32 C33 -4 58 -44 96 -44 C119 -44 155 -28 169 19 C194 109 203 198 229 290 C242 335 261 378 274 422 C284 458 296 498 298 533 C298 552 279 588 251 588 C201 588 163 525 150 482 C144 460 141 437 135 415 L135 415 Z M332 -30 C387 -30 427 47 440 93 C480 235 485 268 531 424 C544 472 582 594 511 594 C456 594 434 561 430 546 C428 539 428 533 425 521 C420 484 410 445 399 407 C389 374 378 341 370 314 C336 195 334 197 303 91 C300 79 297 67 294 56 C288 34 277 -30 332 -30 L332 -30 Z " />
</font>
</svg>
