<?xml version="1.0" encoding="UTF-8"?>
<svg xmlns="http://www.w3.org/2000/svg" xmlns:xlink="http://www.w3.org/1999/xlink" version="1.2" >
<font id="Spinner Rack BB Italic">
<font-face  font-family="Spinner Rack BB" units-per-em="1000" ascent="691" descent="-309" font-style="italic" font-weight="400" font-stretch="normal" slope="-16" cap-height="569" x-height="559" underline-position="-75" underline-thickness="50" />
<missing-glyph  horiz-adv-x="561" d="M25 0 L445 0 L620 613 L200 613 L25 0 Z M293 569 L503 569 L352 42 L142 42 L293 569 Z " />
<glyph glyph-name="NULL" d="" />
<glyph glyph-name="CR" unicode="&#xd;" horiz-adv-x="250" d="" />
<glyph glyph-name="space" unicode="&#x20;" horiz-adv-x="254" d="" />
<glyph glyph-name="exclam" unicode="&#x21;" horiz-adv-x="284" d="M157 58 C152 34 140 16 116 1 C92 -12 67 -13 41 -25 C27 -31 19 -36 8 -28 C-4 -18 -7 -1 -2 16 C2 35 19 54 39 66 C62 79 93 83 116 85 C140 87 163 89 157 58 L157 58 Z M342 578 C315 575 296 542 283 522 C248 467 213 410 181 353 C153 304 115 248 112 198 C109 178 121 172 141 181 C166 193 182 216 196 237 C219 269 239 303 259 336 C279 370 301 403 321 437 C339 467 360 499 368 530 C374 553 373 581 342 578 L342 578 Z " />
<glyph glyph-name="quotedbl" unicode="&#x22;" horiz-adv-x="369" d="M370 319 C393 366 393 410 407 457 C411 473 416 488 421 504 C431 539 441 586 402 586 C375 586 348 559 342 538 C338 524 332 511 327 494 C319 464 314 433 305 403 C298 378 277 283 318 283 C340 283 363 303 370 319 L370 319 Z M215 562 C153 562 127 438 119 410 C103 355 87 264 130 264 C151 264 175 281 182 306 C206 387 205 388 212 414 C218 434 223 450 227 465 C233 485 242 503 246 519 C254 544 238 560 215 562 L215 562 Z " />
<glyph glyph-name="numbersign" unicode="&#x23;" horiz-adv-x="615" d="M573 215 C561 220 529 221 496 221 C498 230 501 239 504 248 C513 274 523 300 532 326 C565 327 598 328 612 332 C632 339 646 356 651 372 C657 392 651 412 631 418 C619 419 591 419 562 418 C573 455 581 486 576 519 C571 541 557 553 534 542 C502 528 488 497 478 464 C473 446 470 428 466 411 C439 409 394 406 353 403 C358 422 361 440 362 456 C364 480 365 503 354 521 C346 534 331 544 312 538 C283 528 276 502 274 477 C274 449 264 423 256 396 C235 393 213 392 190 391 C179 389 167 388 156 380 C143 372 132 353 128 341 C111 296 178 299 209 301 C215 303 223 303 232 304 C228 287 224 270 218 253 C213 239 207 225 201 209 C196 209 191 209 187 209 C169 208 150 208 131 206 C111 203 96 206 77 194 C61 185 44 172 44 154 C45 142 56 127 64 119 C79 106 114 114 135 115 C143 116 156 116 174 118 C168 105 165 92 161 80 C154 56 151 31 159 8 C163 -5 175 -12 188 -12 C208 -12 230 1 240 23 C250 44 250 67 256 87 C259 98 263 110 268 122 C314 124 359 127 378 128 C374 117 371 106 367 96 C360 79 352 61 350 44 C349 32 353 12 359 5 C366 -4 389 4 401 10 C437 30 454 88 466 128 C519 131 574 140 586 176 C589 189 582 208 573 215 L573 215 Z M294 213 C302 246 313 278 323 310 C368 313 414 317 444 319 C433 290 423 261 413 231 C413 228 409 222 408 219 C384 217 339 216 294 213 L294 213 Z " />
<glyph glyph-name="dollar" unicode="&#x24;" horiz-adv-x="562" d="M19 107 C-9 4 121 -25 210 -27 L196 -76 C189 -98 186 -111 201 -124 C214 -133 228 -139 246 -126 C282 -102 289 -66 295 -31 L297 -17 C400 7 517 76 548 184 C574 275 469 306 404 310 L390 310 L442 481 C462 476 465 420 516 420 C536 420 552 438 558 460 C580 536 508 567 471 570 C477 588 482 606 480 622 C478 635 468 653 452 652 C430 649 413 628 406 612 C396 593 386 572 380 552 L341 537 C248 496 179 433 146 337 C133 264 229 233 287 225 C284 216 281 207 278 199 C270 177 254 123 238 68 L228 68 C184 68 107 74 87 115 C80 129 70 134 55 134 C39 134 25 127 19 107 L19 107 Z M450 187 C436 138 380 104 324 85 C335 128 348 172 356 200 L361 218 C404 212 455 203 450 187 L450 187 Z M247 365 C254 391 300 426 351 451 C338 407 325 359 314 319 C275 327 240 341 247 365 L247 365 Z " />
<glyph glyph-name="percent" unicode="&#x25;" horiz-adv-x="755" d="M824 535 C824 548 815 566 804 572 C797 575 790 574 781 573 C763 572 747 570 731 568 C709 565 689 557 669 553 C651 550 637 550 619 548 C592 546 562 542 535 542 C512 542 488 544 471 552 C447 562 425 575 398 579 C375 583 346 570 323 560 C290 546 256 531 226 511 C184 485 141 441 124 398 C97 327 150 287 212 287 C227 287 240 290 254 294 C293 304 332 323 367 340 C393 354 422 384 442 407 C456 423 471 441 479 459 C505 460 529 463 555 463 C583 464 616 472 643 469 C619 447 592 429 567 411 C526 383 486 350 444 325 C405 300 372 270 333 243 C306 224 157 114 132 93 C114 80 88 52 81 28 C78 16 79 4 91 -3 C110 -12 121 -3 140 12 C162 28 185 49 207 67 C236 91 389 202 418 222 C450 243 470 261 494 275 C526 294 554 318 585 337 C613 354 640 375 665 394 C687 411 712 431 735 445 C755 458 772 475 792 489 C807 500 821 517 824 535 L824 535 Z M378 425 C368 419 358 414 349 407 C339 400 325 393 313 387 C293 378 265 371 244 370 C234 369 192 365 190 375 C188 380 202 396 206 401 C215 411 225 419 237 427 C271 453 312 471 351 484 C359 486 365 489 374 490 C383 491 383 489 390 485 C399 481 410 473 421 475 C417 456 394 436 378 425 L378 425 Z M613 241 C604 239 595 233 583 231 C539 231 503 220 461 198 C441 186 420 172 404 154 C374 122 354 84 350 47 C347 26 346 4 354 -12 C361 -27 379 -35 394 -41 C423 -50 456 -41 487 -34 C516 -27 543 -16 571 1 C617 28 653 65 671 111 C687 151 682 190 662 219 C652 233 636 244 613 241 L613 241 Z M614 125 C608 112 582 92 568 84 C549 72 528 58 508 50 C493 45 471 39 453 39 C435 39 420 45 421 65 C422 85 449 105 466 116 C492 132 520 141 545 147 C563 153 585 159 600 159 C612 159 621 140 614 125 L614 125 Z " />
<glyph glyph-name="ampersand" unicode="&#x26;" horiz-adv-x="692" d="M321 550 C286 542 246 529 215 503 C183 478 158 450 146 414 C140 398 136 380 136 365 C135 349 142 337 146 323 C150 312 155 301 160 291 C146 278 128 269 115 255 C103 242 91 225 80 211 C69 194 60 176 55 158 C50 141 49 124 49 107 C52 78 55 49 72 26 C81 12 100 4 115 -1 C129 -5 145 -6 160 -10 C193 -17 237 -10 275 -3 C318 5 341 13 382 30 C402 39 417 49 435 62 C454 75 472 91 486 107 C499 123 511 140 519 156 C532 179 537 206 544 229 C579 231 616 226 649 242 C685 259 706 273 702 308 C697 347 662 337 628 335 C595 331 561 322 528 322 C494 322 466 297 461 261 C459 244 459 230 455 215 C450 199 442 184 428 168 C398 138 360 115 323 105 C289 94 251 84 218 84 C187 84 147 81 135 111 C132 118 130 125 128 133 C127 144 130 146 139 158 C153 175 175 194 193 203 C228 219 256 235 291 239 C308 241 323 242 340 243 C355 244 369 251 379 270 C394 303 395 328 367 336 C338 343 292 340 263 347 C236 353 225 383 225 406 C259 438 303 451 334 453 C350 453 367 454 383 453 C400 451 407 442 419 432 C446 409 479 462 482 491 C482 506 477 520 468 529 C447 551 419 559 387 559 C365 559 343 555 321 550 L321 550 Z " />
<glyph glyph-name="quotesingle" unicode="&#x27;" horiz-adv-x="202" d="M193 319 C215 366 216 410 229 457 C234 473 239 488 244 504 C254 539 263 586 224 586 C197 586 171 559 165 538 C161 524 155 511 150 494 C141 464 136 433 128 403 C121 378 99 283 140 283 C162 283 186 303 193 319 L193 319 Z " />
<glyph glyph-name="parenleft" unicode="&#x28;" horiz-adv-x="334" d="M252 530 C223 500 199 468 174 434 C148 401 123 366 107 328 C94 296 82 265 73 233 C54 167 51 106 53 44 C52 -4 57 -63 96 -89 C107 -97 123 -103 140 -88 C154 -75 159 -50 155 -37 C146 -1 134 31 132 70 C131 92 133 115 135 138 C137 166 141 193 148 221 C161 279 189 334 227 385 C264 436 304 486 354 526 C384 551 438 557 443 601 C445 619 438 641 420 643 C368 645 291 565 252 530 L252 530 Z " />
<glyph glyph-name="parenright" unicode="&#x29;" horiz-adv-x="313" d="M324 343 C333 397 332 456 320 504 C313 541 299 574 276 600 C261 614 255 632 233 637 C211 643 198 632 182 612 C147 568 194 544 212 519 C243 469 252 419 239 352 C233 319 225 283 215 248 C201 199 183 151 157 107 C142 83 125 54 105 31 C88 13 72 -4 57 -25 C45 -41 35 -58 34 -78 C35 -101 55 -94 73 -85 C121 -63 163 -21 194 19 C237 78 265 140 285 202 C293 226 301 252 308 278 C315 300 321 322 324 343 L324 343 Z " />
<glyph glyph-name="asterisk" unicode="&#x2a;" horiz-adv-x="517" d="M515 401 C556 422 603 458 583 482 C570 498 547 500 515 487 C487 475 457 463 427 451 C437 476 452 507 459 533 C468 562 468 586 442 591 C431 594 407 582 395 566 C373 539 360 494 347 462 C345 456 329 423 329 424 C314 440 297 456 283 473 C269 489 256 506 235 512 C206 520 168 490 178 471 C184 455 196 438 207 424 C215 410 227 398 237 385 C212 378 186 370 160 361 C132 349 112 344 103 323 C90 297 112 290 141 290 C162 290 188 294 207 299 C233 306 262 314 290 323 C281 301 272 279 265 257 C256 233 247 216 247 194 C248 176 252 156 271 162 C284 166 306 182 318 194 C336 212 347 246 356 272 C365 265 373 259 381 253 C403 239 431 221 465 243 C482 252 481 259 474 277 C467 292 460 306 447 318 C433 331 416 344 402 358 C441 370 479 383 515 401 L515 401 Z " />
<glyph glyph-name="plus" unicode="&#x2b;" horiz-adv-x="441" d="M442 268 C451 286 455 299 442 313 C431 325 415 327 396 326 C365 325 335 322 306 321 C316 340 323 359 332 379 C338 394 354 419 352 433 C351 445 327 455 314 454 C275 450 250 409 238 374 C229 353 221 332 211 310 C179 310 76 313 64 256 C62 242 71 229 84 222 C96 216 112 220 130 222 C146 224 161 224 178 225 C172 211 167 197 161 182 C157 169 151 155 147 142 C141 122 139 102 158 92 C170 87 180 76 196 88 C234 112 242 150 255 187 C259 202 263 216 268 230 C312 233 353 234 396 241 C417 243 431 248 442 268 L442 268 Z " />
<glyph glyph-name="comma" unicode="&#x2c;" horiz-adv-x="222" d="M183 166 C188 185 186 199 170 210 C159 219 142 219 126 209 C107 197 103 183 96 168 C66 102 12 46 -14 -17 C-20 -31 -28 -51 -23 -64 C-19 -75 -5 -87 12 -81 C78 -55 170 113 183 166 L183 166 Z " />
<glyph glyph-name="hyphen" unicode="&#x2d;" horiz-adv-x="357" d="M328 325 C286 317 243 308 201 303 C183 301 165 300 147 299 C131 299 114 299 96 287 C80 276 55 227 73 220 C84 215 100 213 113 212 C166 210 250 213 310 237 C322 241 339 247 351 257 C371 273 388 309 366 319 C354 325 344 327 328 325 L328 325 Z " />
<glyph glyph-name="period" unicode="&#x2e;" horiz-adv-x="211" d="M55 67 C30 51 12 31 6 11 C1 -7 20 -32 41 -32 C94 -32 156 62 159 73 C162 86 153 112 130 112 C100 112 76 81 55 67 L55 67 Z " />
<glyph glyph-name="slash" unicode="&#x2f;" horiz-adv-x="456" d="M381 459 C353 428 187 230 160 198 C114 145 67 89 23 35 C0 6 -52 -61 -21 -80 C-10 -85 19 -72 31 -65 C51 -54 68 -27 81 -9 C125 48 169 107 218 160 C266 216 453 436 503 490 C533 524 575 559 571 599 C568 619 553 622 531 612 C502 599 483 570 459 546 C433 519 407 487 381 459 L381 459 Z " />
<glyph glyph-name="zero" unicode="0" horiz-adv-x="621" d="M633 297 C636 328 643 365 637 394 C633 412 628 431 619 446 C610 468 597 487 586 508 C579 524 569 539 553 546 C541 551 528 552 513 553 C503 555 493 559 483 560 C457 560 427 553 401 548 C348 535 294 512 247 481 C206 455 170 420 142 381 C118 347 90 312 70 274 C60 255 53 235 47 216 C42 198 38 178 37 159 C36 137 40 114 43 93 C47 69 65 57 79 41 C95 26 113 21 131 9 C148 -3 159 -10 182 -12 C196 -13 211 -14 225 -14 C253 -14 283 -12 311 -5 C331 -1 355 4 375 13 C401 23 423 39 448 54 C473 69 495 81 516 102 C537 124 558 144 576 167 C605 204 629 253 633 297 L633 297 Z M500 203 C428 117 323 63 220 72 C203 75 184 84 168 91 C156 96 140 105 132 116 C113 146 126 193 141 226 C160 269 172 300 204 333 C235 366 269 401 305 425 C340 450 404 459 442 459 C461 459 477 451 493 445 C526 431 549 394 555 356 C557 340 555 312 553 295 C548 260 523 231 500 203 L500 203 Z " />
<glyph glyph-name="one" unicode="1" horiz-adv-x="287" d="M298 335 C311 370 316 406 328 441 C334 463 339 480 339 502 C340 537 318 579 271 547 C249 533 229 517 205 502 C179 485 167 476 142 459 C121 446 108 433 101 411 C94 392 96 372 119 372 C134 372 158 389 173 397 C194 407 200 414 221 424 C227 428 235 431 241 433 C239 383 207 315 193 266 C173 208 148 153 127 94 C124 84 118 67 113 50 C105 21 101 -9 128 -13 C174 -19 196 48 209 80 C224 126 238 169 253 211 C268 252 285 294 298 335 L298 335 Z " />
<glyph glyph-name="two" unicode="2" horiz-adv-x="461" d="M236 499 C211 489 180 475 160 453 C152 441 144 428 141 415 C133 396 137 387 153 380 C170 375 184 380 202 391 C223 405 243 419 264 428 C299 444 332 454 366 462 C388 467 413 469 430 463 C418 441 399 419 383 398 C338 344 217 242 165 194 C137 168 107 142 79 119 C61 106 39 92 22 76 C-6 48 -6 14 17 -4 C31 -14 48 -13 68 -10 C100 -8 134 -6 166 -4 C227 1 289 9 350 19 C368 22 384 28 397 45 C410 61 408 79 396 87 C384 97 373 98 353 97 C337 96 321 91 303 89 C276 88 246 87 219 85 C195 83 172 86 148 81 C168 98 178 115 200 132 C223 150 240 169 261 187 C304 226 413 325 454 365 C489 400 510 434 515 475 C517 508 501 529 478 546 C464 553 450 557 433 557 C414 557 393 552 370 547 C339 539 307 530 277 517 C262 511 250 506 236 499 L236 499 Z " />
<glyph glyph-name="three" unicode="3" horiz-adv-x="530" d="M266 525 C230 516 184 500 155 469 C135 447 131 423 146 406 C160 393 171 397 192 407 C218 420 244 432 271 440 C309 451 350 456 388 460 C412 462 449 469 468 460 C458 427 432 394 401 374 C361 347 312 326 270 314 C235 305 195 305 161 277 C149 266 141 250 141 235 C142 221 159 215 171 212 C193 208 218 217 242 222 C275 228 307 231 337 229 C358 228 377 228 394 217 C409 209 416 197 423 185 C375 153 324 122 272 106 C224 92 172 75 129 84 C114 88 99 91 87 98 C76 105 67 116 52 112 C37 109 22 89 15 76 C5 54 10 41 21 27 C41 -1 75 -12 113 -12 C135 -12 159 -8 182 -3 C259 16 339 37 414 81 C457 107 498 163 508 209 C518 255 470 292 437 305 C442 309 461 322 471 332 C494 356 519 385 533 415 C553 455 552 487 543 521 C529 560 476 559 436 555 C403 551 371 546 338 539 C314 535 289 530 266 525 L266 525 Z " />
<glyph glyph-name="four" unicode="4" horiz-adv-x="457" d="M489 401 C499 428 505 455 509 482 C516 515 517 565 480 555 C465 551 453 535 447 521 C438 500 431 478 424 458 C416 436 408 411 400 389 C391 369 384 349 375 330 C351 332 327 328 302 327 C259 324 220 314 175 319 C184 343 191 367 199 391 C206 414 228 473 230 497 C233 526 228 568 182 544 C159 531 144 497 134 463 C127 436 121 409 116 393 C108 367 103 341 96 316 C91 299 88 282 93 268 C99 252 111 238 125 229 C140 221 156 222 175 222 C198 222 223 229 246 230 C275 233 304 234 331 233 C317 203 301 173 290 144 C280 122 269 96 262 70 C255 48 253 27 257 10 C262 -4 272 -16 290 -9 C304 -4 321 16 329 30 C341 50 345 72 352 93 C359 114 372 133 381 154 C388 175 398 195 408 216 C424 248 441 279 454 312 C466 341 480 371 489 401 L489 401 Z " />
<glyph glyph-name="five" unicode="5" horiz-adv-x="490" d="M280 12 C357 35 448 87 464 172 C480 259 396 310 321 318 C307 319 293 319 279 319 C266 319 260 317 243 316 C263 353 286 397 316 432 C320 437 325 442 330 447 C341 446 352 445 364 445 C392 444 423 449 452 451 C488 455 553 469 560 515 C561 529 557 547 542 550 C534 552 521 548 510 547 C495 546 478 543 463 541 C424 533 385 530 349 529 C322 528 295 534 268 529 C233 524 219 465 233 445 C229 436 219 425 214 418 C198 396 186 374 173 352 C153 319 119 279 121 246 C121 226 133 221 147 221 C163 221 183 228 198 231 C231 239 283 236 313 228 C345 220 369 197 374 166 C381 132 286 97 260 92 C234 85 217 85 190 83 C171 81 141 83 122 87 C108 91 94 98 77 101 C65 103 42 107 28 97 C16 85 9 63 12 50 C14 35 25 26 35 17 C52 5 74 0 95 -1 C122 -4 152 -6 179 -5 C213 -3 246 1 280 12 L280 12 Z " />
<glyph glyph-name="six" unicode="6" horiz-adv-x="517" d="M496 283 C473 305 437 314 398 314 C347 314 290 297 244 273 C166 229 164 217 118 155 C119 172 122 187 127 204 C143 262 180 321 231 365 C250 383 272 402 296 416 C321 431 352 447 378 456 C397 462 416 467 434 468 C450 469 465 471 476 489 C486 503 481 529 474 538 C462 550 443 552 424 551 C394 550 355 535 324 520 C290 503 256 481 223 456 C178 422 133 379 102 332 C87 309 75 286 66 262 C30 153 37 126 84 49 C111 10 155 -6 205 -6 C266 -6 335 18 393 53 C416 67 435 89 453 110 C472 132 491 158 501 184 C514 222 520 260 496 283 L496 283 Z M399 166 C367 132 326 111 286 94 C267 87 241 79 219 79 C203 79 190 83 181 92 C173 101 186 127 194 140 C202 155 217 172 233 184 C250 195 272 206 290 213 C329 228 360 233 394 226 C398 225 439 215 438 213 C429 197 413 181 399 166 L399 166 Z " />
<glyph glyph-name="seven" unicode="7" horiz-adv-x="447" d="M286 314 C260 287 241 270 214 244 C190 220 160 184 141 156 C126 133 107 111 94 87 C88 75 79 56 74 39 C67 17 68 -4 94 -1 C111 1 128 18 137 31 C168 70 192 108 223 146 C244 171 268 193 288 216 C312 242 339 265 365 290 C398 321 428 353 459 388 C483 416 514 450 523 484 C527 497 526 509 524 522 C518 543 497 544 476 546 C453 547 431 547 407 544 C334 538 261 538 184 516 C165 509 140 497 127 482 C116 469 106 445 111 432 C117 418 144 422 158 424 C180 428 203 433 224 436 C273 442 322 444 372 449 C387 450 404 450 417 449 C396 418 316 341 286 314 L286 314 Z " />
<glyph glyph-name="eight" unicode="8" horiz-adv-x="547" d="M463 291 C475 299 487 308 497 317 C526 341 552 369 573 398 C585 415 593 432 598 449 C608 484 602 516 573 535 C553 548 525 551 501 556 C472 564 439 564 405 562 C340 560 262 552 198 509 C160 485 109 438 105 396 C100 352 137 314 175 301 C186 297 199 292 211 288 C205 284 199 282 193 278 C158 259 121 237 94 207 C70 182 58 154 52 125 C34 61 81 16 135 0 C222 -24 261 -22 355 13 C392 27 435 50 465 79 C489 102 508 134 520 163 C537 206 512 271 463 291 L463 291 Z M202 414 C209 420 216 425 226 431 C251 444 273 455 300 462 C332 469 369 484 399 481 C443 476 479 459 519 453 C514 428 488 396 466 380 C433 354 401 347 365 347 C344 347 324 348 304 350 C286 352 270 359 254 366 C243 372 180 397 202 414 L202 414 Z M443 162 C401 111 338 88 282 79 C267 78 252 76 238 76 C221 76 205 78 190 80 C174 84 154 89 143 102 C136 111 123 124 133 137 C150 158 168 171 189 184 C227 207 272 228 312 231 C330 233 349 233 365 228 C389 217 422 202 440 184 C445 176 450 171 443 162 L443 162 Z " />
<glyph glyph-name="nine" unicode="9" horiz-adv-x="513" d="M581 480 C579 499 571 502 559 511 C548 519 544 535 534 546 C517 560 489 570 465 572 C429 573 389 564 351 557 C318 551 280 543 246 529 C222 519 194 502 171 484 C149 467 131 438 117 414 C104 391 97 365 97 341 C101 318 114 296 128 282 C152 259 211 254 247 264 C272 269 298 278 323 284 C343 291 368 303 383 303 C344 251 288 191 246 133 C215 94 185 48 182 4 C181 -21 204 -39 231 -16 C241 -5 248 9 256 21 C274 43 290 66 309 88 C326 109 343 132 360 153 C384 180 439 256 460 283 C477 306 496 334 514 354 C534 379 551 402 567 429 C577 446 581 463 581 480 L581 480 Z M415 411 C390 396 360 384 335 372 C292 355 236 343 200 350 C192 352 173 353 171 362 C168 371 186 393 193 400 C231 437 289 454 333 464 C363 469 391 473 419 473 C439 473 465 471 481 460 C461 441 439 427 415 411 L415 411 Z " />
<glyph glyph-name="colon" unicode="&#x3a;" horiz-adv-x="186" d="M219 393 C222 400 228 409 231 418 C236 435 224 448 208 448 C200 448 185 444 169 434 C161 430 108 390 101 366 C93 339 106 324 135 324 C178 324 202 365 219 393 L219 393 Z M136 216 C104 216 44 149 40 137 C33 113 36 87 64 87 C107 92 144 134 154 171 C159 188 146 216 136 216 L136 216 Z " />
<glyph glyph-name="semicolon" unicode="&#x3b;" horiz-adv-x="239" d="M185 218 C181 220 175 222 168 222 C121 222 105 166 76 131 C42 90 11 44 -21 6 C-28 -3 -36 -13 -38 -23 C-43 -43 -36 -63 -15 -63 C18 -63 55 -16 80 9 C104 35 124 62 146 93 C164 118 187 146 195 176 C200 193 200 212 185 218 L185 218 Z M246 369 C254 386 262 420 234 420 C209 420 149 367 141 338 C135 318 141 300 158 300 C204 300 222 324 246 369 L246 369 Z " />
<glyph glyph-name="less" unicode="&#x3c;" horiz-adv-x="451" d="M328 472 C261 420 183 344 108 286 C86 269 63 247 56 222 C44 181 80 160 102 138 C158 70 213 30 308 3 C318 0 330 -3 342 -3 C366 -3 386 6 394 34 C400 68 351 76 325 92 C308 102 288 110 272 123 C253 137 227 143 211 160 C191 181 171 202 150 221 C202 279 261 322 306 357 C343 386 376 414 412 445 C429 460 453 477 463 511 C470 536 456 547 442 547 C408 547 351 492 328 472 L328 472 Z " />
<glyph glyph-name="equal" unicode="&#x3d;" horiz-adv-x="435" d="M400 176 C380 115 303 131 262 128 C221 124 180 123 139 120 C118 119 83 111 69 124 C60 132 49 146 49 159 C47 177 66 190 81 199 C101 211 116 208 136 211 C154 213 172 213 191 213 C228 216 265 216 302 219 C327 219 365 226 387 216 C396 209 404 190 400 176 L400 176 Z M212 306 C257 312 301 314 346 321 C371 325 401 326 427 334 C447 340 460 357 465 374 C471 393 466 414 445 418 C423 423 391 415 367 412 C340 409 312 405 285 402 C255 400 224 398 194 396 C183 394 170 392 159 385 C147 378 137 358 133 347 C115 301 182 303 212 306 L212 306 Z " />
<glyph glyph-name="greater" unicode="&#x3e;" horiz-adv-x="408" d="M218 118 C288 162 397 235 419 295 C433 343 387 360 367 384 C348 405 327 423 309 442 C278 477 250 562 221 562 C196 562 183 545 176 522 C171 495 186 475 192 453 C207 405 230 370 264 339 C280 324 305 303 320 284 C302 264 276 249 254 234 C180 184 28 101 3 16 C0 2 3 -17 21 -17 C37 -17 60 4 75 18 C121 61 166 86 218 118 L218 118 Z " />
<glyph glyph-name="question" unicode="&#x3f;" horiz-adv-x="480" d="M284 280 C370 334 547 415 550 506 C551 549 487 563 418 563 C386 563 352 560 324 555 C269 547 187 527 153 468 C134 419 205 441 242 455 C280 469 323 476 358 477 C394 479 442 477 443 467 C444 457 407 436 379 415 C304 365 280 349 211 318 C179 305 106 263 87 229 C65 190 91 169 129 188 C155 200 214 228 284 280 L284 280 Z M183 77 C168 85 157 81 137 75 C114 66 75 66 57 47 C47 36 44 21 42 9 C39 -4 51 -10 62 -14 C74 -18 119 -13 133 -8 C162 4 236 56 183 77 L183 77 Z " />
<glyph glyph-name="at" unicode="&#x40;" horiz-adv-x="687" d="M707 371 C712 401 713 429 704 454 C684 506 648 546 596 569 C576 578 553 582 530 582 C507 582 481 578 457 570 C439 565 421 559 402 551 C320 520 240 473 183 405 C129 342 76 275 57 206 C38 149 30 87 52 40 C71 -1 100 -39 158 -36 C198 -35 257 -19 285 19 C298 35 294 49 278 54 C265 58 241 52 226 48 C207 44 188 37 171 40 C154 43 142 57 135 71 C114 109 119 162 138 211 C185 337 328 481 509 489 C530 490 561 494 576 484 C591 473 605 446 611 431 C623 397 623 378 619 339 C614 305 595 256 565 226 C551 212 527 187 509 180 C498 175 472 166 470 177 C470 195 486 231 489 251 C494 269 497 288 489 303 C484 309 483 312 485 321 C484 331 483 340 481 349 C476 367 461 383 446 393 C426 407 397 398 368 385 C338 371 307 347 280 323 C254 300 230 262 219 226 C213 204 212 182 218 164 C227 137 251 128 280 128 C315 128 356 142 391 160 C388 132 411 103 439 96 C477 85 528 110 567 132 C623 166 660 222 681 275 C694 308 702 340 707 371 L707 371 Z M380 241 C354 224 313 208 286 206 C291 220 299 233 310 244 C330 266 349 284 378 294 C381 295 421 305 419 297 C415 277 400 255 380 241 L380 241 Z " />
<glyph glyph-name="A" unicode="A" horiz-adv-x="582" d="M531 101 C531 125 531 149 532 173 C536 237 535 297 529 358 C525 389 517 419 511 449 C507 476 503 504 492 528 C483 548 463 555 438 557 C411 560 390 543 365 521 C297 463 240 385 187 316 C166 287 28 115 4 31 C-3 5 0 -13 22 -14 C45 -17 66 -5 82 19 C101 47 110 70 126 96 C131 103 136 111 140 118 C212 129 289 144 362 150 C384 153 410 153 437 159 C436 128 438 75 443 48 C449 23 463 8 480 8 C493 8 508 17 522 39 C533 58 531 80 531 101 L531 101 Z M363 246 C331 242 307 239 274 233 C256 230 237 228 218 225 C241 255 262 284 284 313 C311 347 373 423 405 449 C416 393 429 322 434 255 C405 253 384 249 363 246 L363 246 Z " />
<glyph glyph-name="B" unicode="B" horiz-adv-x="549" d="M455 300 C494 335 534 370 547 415 C559 463 539 481 509 512 C498 526 486 538 466 546 C450 553 428 555 407 556 C361 557 323 547 276 535 C252 529 228 535 202 521 C191 515 184 506 177 497 C161 468 164 450 153 422 C146 402 134 381 125 361 C115 331 108 301 100 272 C96 257 91 243 86 229 C77 207 67 176 61 154 C54 131 49 109 43 88 C33 52 15 6 56 -6 C90 -16 158 -18 210 -17 C225 -16 239 -14 251 -14 C301 -9 361 5 411 34 C460 63 503 92 520 140 C545 209 509 273 455 300 L455 300 Z M248 446 C248 446 332 458 375 464 C421 471 459 450 451 414 C441 375 396 340 339 319 C308 308 271 303 245 301 C224 301 206 303 200 304 C200 304 241 415 248 446 L248 446 Z M428 172 C430 146 388 112 335 96 C321 92 272 76 251 76 C235 76 216 76 198 76 C162 76 129 76 129 76 C135 105 169 211 169 211 C175 208 202 204 230 208 C255 213 347 230 366 229 C382 225 424 203 428 172 L428 172 Z " />
<glyph glyph-name="C" unicode="C" horiz-adv-x="552" d="M531 553 C518 559 498 561 479 561 C438 561 402 551 366 537 C301 513 234 472 185 422 C146 381 102 341 84 292 C79 278 73 264 69 250 C58 211 53 169 57 133 C60 89 88 43 122 13 C155 -16 210 -19 257 -18 C308 -17 361 -8 407 16 C427 27 450 45 467 58 C499 83 536 144 495 155 C479 160 468 147 454 138 C398 103 353 71 293 71 C267 72 234 74 211 81 C181 92 159 111 151 140 C140 173 145 220 159 255 C172 290 196 322 221 353 C239 376 276 402 300 422 C318 434 376 460 397 467 C415 473 464 482 477 475 C511 454 498 450 513 427 C521 416 550 410 563 415 C609 436 602 498 582 519 C566 535 554 546 531 553 L531 553 Z " />
<glyph glyph-name="D" unicode="D" horiz-adv-x="536" d="M567 420 C570 462 540 493 516 519 C496 541 463 548 430 556 C414 561 397 562 379 562 C359 562 338 560 315 556 C296 552 279 547 260 544 C243 543 226 546 206 542 C190 538 165 525 155 507 C146 491 147 477 145 462 C135 426 126 394 118 361 C108 305 91 250 76 197 C60 139 46 91 37 41 C35 26 29 9 38 -1 C48 -16 67 -19 87 -19 C101 -19 116 -17 130 -16 C151 -13 171 -6 189 -4 C208 -1 237 8 256 16 C307 34 376 67 420 119 C436 138 455 154 483 191 C516 231 530 265 547 309 C562 348 565 384 567 420 L567 420 Z M444 269 C409 206 355 147 277 114 C216 85 125 83 125 83 C125 83 163 195 176 238 C190 281 235 450 235 450 C263 451 366 478 366 478 C457 467 476 427 480 406 C482 393 482 370 472 337 C467 317 457 294 444 269 L444 269 Z " />
<glyph glyph-name="E" unicode="E" horiz-adv-x="487" d="M534 480 C560 498 561 515 552 535 C544 552 475 556 446 556 C391 556 330 554 270 543 C247 538 219 539 197 528 C174 515 162 480 155 458 C146 436 137 407 128 376 C114 326 100 272 91 234 C76 180 56 138 40 84 C23 32 28 -16 85 -13 C113 -12 137 0 164 5 C191 10 290 19 317 22 C342 23 374 32 400 43 C418 49 439 72 438 96 C438 112 417 115 403 115 C390 115 377 119 331 111 C287 103 168 96 125 92 C134 122 136 125 146 147 C155 171 158 184 164 207 C182 211 190 212 208 216 C229 220 338 230 364 229 C387 228 414 229 442 241 C459 248 468 262 469 281 C472 313 427 319 385 319 C323 319 258 313 192 305 C201 331 207 367 212 379 C220 405 232 423 238 446 C285 458 418 468 463 466 C489 464 507 460 534 480 L534 480 Z " />
<glyph glyph-name="F" unicode="F" horiz-adv-x="474" d="M192 316 C198 332 212 375 218 392 C220 400 233 432 233 432 C233 432 253 436 258 437 C277 441 289 444 308 446 C378 454 395 451 466 456 C497 459 549 469 547 504 C547 522 529 535 507 538 C495 539 482 539 468 539 C454 539 440 539 429 539 C386 538 342 539 293 541 C261 541 219 537 179 508 C163 495 156 484 151 463 C147 442 142 423 136 403 C128 374 117 346 102 294 C88 244 70 188 58 138 C53 110 44 68 39 40 C38 25 35 10 43 -2 C52 -12 72 -13 84 -13 C101 -12 106 -4 114 10 C127 31 130 43 133 64 C136 85 142 123 146 144 C150 164 155 184 164 204 C187 208 211 211 235 212 C280 216 291 217 335 219 C358 220 454 225 472 250 C483 265 478 281 467 292 C456 305 417 308 394 308 C360 308 331 306 295 305 C259 303 256 303 219 300 C208 299 197 299 187 297 C189 303 190 309 192 316 L192 316 Z " />
<glyph glyph-name="G" unicode="G" horiz-adv-x="681" d="M513 565 C498 566 479 561 463 559 C421 551 381 542 339 526 C296 508 255 495 218 464 C185 438 154 409 128 378 C88 327 77 265 71 213 C64 181 70 143 79 119 C89 83 105 70 124 43 C144 19 167 6 197 -6 C215 -16 234 -21 257 -22 C301 -22 350 -17 385 3 C407 13 431 22 452 35 C522 78 574 118 626 167 C655 196 672 230 682 262 C689 290 683 301 673 314 C657 336 631 337 599 339 C585 340 571 340 557 340 C501 340 445 334 388 319 C359 313 314 305 295 272 C276 237 318 222 345 224 C410 227 476 239 539 239 C543 239 565 239 569 238 C542 198 498 164 460 140 C421 115 367 79 327 75 C290 71 274 78 241 91 C212 102 199 123 181 145 C161 173 159 237 170 275 C175 292 183 308 195 325 C214 359 255 394 290 410 C330 427 367 441 406 453 C430 460 457 463 482 463 C496 463 510 462 522 460 C540 459 549 444 562 433 C571 427 584 416 599 422 C620 429 631 446 637 464 C641 478 641 493 636 504 C628 522 589 554 570 556 C551 561 534 565 513 565 L513 565 Z " />
<glyph glyph-name="H" unicode="H" horiz-adv-x="568" d="M597 434 C601 449 620 515 618 529 C616 537 616 543 614 552 C611 560 601 566 591 568 C574 569 549 560 537 546 C515 522 519 490 512 464 C500 430 494 396 483 352 C452 349 359 347 326 340 C290 334 237 330 202 316 C215 352 223 372 232 409 C237 436 240 463 243 490 C244 509 240 525 225 537 C209 550 190 541 174 524 C159 508 155 493 153 476 C149 453 145 431 139 411 C130 380 119 352 110 317 C96 259 74 200 56 144 C47 118 39 72 40 48 C41 32 39 10 51 -1 C59 -12 79 -14 95 -5 C110 3 118 30 122 44 C128 63 134 83 139 102 C150 142 162 182 174 225 C225 241 350 248 401 251 C414 252 428 250 442 251 C439 241 430 219 429 208 C424 186 421 175 415 154 C403 117 390 80 379 40 C372 14 367 -14 386 -22 C431 -39 465 21 473 54 C478 71 481 88 485 103 C495 136 505 167 518 199 C545 268 567 326 586 392 C590 406 593 420 597 434 L597 434 Z " />
<glyph glyph-name="I" unicode="I" horiz-adv-x="467" d="M403 47 C404 59 398 71 386 78 C376 84 362 85 348 85 C323 85 297 81 267 78 C261 94 278 149 284 172 C295 209 300 246 311 284 C323 325 336 363 351 403 C355 415 368 447 368 447 C368 447 368 447 390 450 C427 456 465 449 502 467 C518 475 527 493 529 508 C531 525 522 537 510 544 C500 551 487 553 474 553 C451 553 424 547 401 543 C326 534 348 534 274 534 C255 534 195 534 174 520 C160 509 151 487 148 475 C146 459 156 450 167 444 C177 436 189 434 202 434 C206 434 269 436 269 436 C269 436 255 390 246 359 C234 319 223 279 211 238 C200 198 192 159 181 119 C178 106 176 87 176 70 C147 68 122 68 91 71 C79 71 65 67 52 63 C34 57 23 43 14 27 C7 14 11 1 15 -10 C28 -39 111 -27 145 -22 C188 -17 344 -28 383 5 C394 13 401 36 403 47 L403 47 Z " />
<glyph glyph-name="J" unicode="J" horiz-adv-x="428" d="M519 520 C525 535 525 548 510 555 C484 568 438 556 405 553 C389 552 372 552 356 551 C340 549 280 543 264 543 C245 543 216 548 197 529 C188 518 177 504 172 493 C165 480 174 468 180 459 C187 446 210 451 227 453 C244 453 303 455 320 456 C316 426 311 389 298 356 C291 335 285 314 280 295 C274 274 268 255 263 235 C255 213 243 181 237 160 C217 90 188 52 109 57 C80 58 46 85 17 54 C6 43 -8 14 -6 0 C-3 -13 12 -22 23 -27 C41 -38 69 -43 98 -43 C112 -43 127 -41 139 -39 C159 -35 179 -25 199 -12 C217 1 235 13 251 28 C280 56 301 92 311 125 C325 165 345 202 357 242 C369 283 376 322 387 362 C396 394 404 434 409 465 C420 467 440 468 452 471 C467 473 488 473 501 486 C511 498 516 507 519 520 L519 520 Z " />
<glyph glyph-name="K" unicode="K" horiz-adv-x="526" d="M598 503 C606 513 616 533 616 543 C614 556 601 560 588 564 C540 578 437 484 392 453 C339 415 281 370 196 309 C204 335 221 376 229 400 C237 420 246 449 256 468 C263 486 278 507 281 525 C285 548 270 559 252 559 C239 559 224 553 212 543 C192 526 176 500 165 477 C150 445 138 414 128 380 C109 319 92 260 75 199 C57 138 40 79 27 19 C22 -3 26 -13 43 -19 C59 -26 76 -18 94 -3 C106 10 114 21 121 37 C139 67 142 109 158 164 C160 171 161 186 235 238 C241 243 251 250 261 257 C273 239 283 221 293 202 C306 176 310 151 320 123 C330 95 335 66 344 37 C349 26 357 8 372 6 C388 5 409 14 420 26 C446 50 437 100 432 124 C427 157 416 185 406 219 C394 256 382 300 354 328 C407 371 472 410 524 445 C548 460 581 481 598 503 L598 503 Z " />
<glyph glyph-name="L" unicode="L" horiz-adv-x="507" d="M133 356 C127 336 119 318 111 299 C82 240 60 165 43 105 C38 89 33 72 31 57 C28 36 31 16 51 5 C77 -10 120 -10 152 -6 C226 4 267 25 345 19 C393 20 436 23 458 74 C476 116 408 110 381 111 C341 114 302 110 263 103 C231 98 223 96 171 89 C161 88 145 85 130 88 C134 100 138 112 141 125 C145 138 150 153 153 164 C166 204 179 243 196 283 C210 317 217 352 230 385 C244 418 249 451 254 484 C260 511 254 557 217 551 C199 548 184 537 175 522 C162 502 142 388 133 356 L133 356 Z " />
<glyph glyph-name="M" unicode="M" horiz-adv-x="791" d="M677 6 C699 5 720 34 728 70 C732 98 735 125 739 155 C746 219 750 281 764 345 C770 378 782 410 791 442 C798 467 802 497 787 515 C777 528 765 533 753 533 C721 533 686 494 660 467 C620 427 582 383 542 341 C504 300 473 255 431 215 C418 202 394 180 380 166 C377 193 371 221 366 247 C363 273 354 331 350 357 C343 414 346 436 328 490 C322 507 302 539 284 546 C245 562 202 508 183 475 C156 431 148 396 142 379 C131 350 109 291 100 262 C89 233 77 206 67 177 C58 147 47 118 41 88 C36 66 26 22 35 5 C48 -16 76 -5 96 14 C116 35 125 66 134 92 C158 167 198 309 247 378 C249 331 262 273 266 259 C270 237 273 208 277 178 C282 154 284 128 289 102 C291 79 294 45 303 25 C312 1 315 -6 344 0 C376 9 393 36 410 61 C441 106 479 151 517 193 C559 241 614 313 666 353 C672 300 625 154 632 84 C635 52 638 9 677 6 L677 6 Z " />
<glyph glyph-name="N" unicode="N" horiz-adv-x="587" d="M104 283 C98 262 95 243 90 221 C72 157 58 108 39 61 C28 32 23 -8 55 -14 C107 -21 125 64 136 93 C155 158 168 204 181 250 C191 283 196 317 206 350 C208 356 210 359 211 363 C232 340 253 318 267 290 C289 233 327 175 355 120 C373 80 397 42 407 3 C410 -12 425 -19 441 -17 C483 -7 492 23 502 56 C510 93 519 132 531 171 C549 236 570 304 592 369 C599 384 603 400 610 416 C618 433 626 453 633 469 C650 504 652 544 639 551 C623 557 608 565 590 556 C576 548 570 541 561 528 C550 513 543 491 539 475 C532 455 526 436 520 415 C509 379 498 345 485 310 C469 272 453 232 443 195 C426 226 417 237 404 260 C371 328 332 383 300 440 C290 456 280 473 248 499 C228 515 198 527 171 506 C150 489 142 464 138 442 C128 389 119 335 104 283 L104 283 Z " />
<glyph glyph-name="O" unicode="O" horiz-adv-x="678" d="M682 299 C686 331 692 369 685 400 C682 419 676 438 668 454 C656 477 642 498 631 520 C622 535 612 552 596 559 C574 568 544 571 521 574 C492 574 461 568 434 561 C377 548 320 524 268 490 C225 463 188 428 158 385 C132 349 100 313 82 274 C70 253 62 231 56 209 C50 190 47 172 46 153 C46 129 49 105 53 83 C57 57 76 45 92 28 C116 7 170 -25 201 -28 C216 -30 230 -31 246 -31 C277 -31 309 -27 339 -21 C361 -17 387 -10 407 -3 C435 9 459 26 484 41 C540 74 581 112 621 160 C653 199 677 251 682 299 L682 299 Z M528 189 C457 119 364 70 273 70 C256 70 240 71 223 75 C205 80 187 92 172 101 C159 109 145 119 139 134 C132 153 133 176 139 198 C145 216 152 235 162 251 C187 294 216 322 253 354 C290 384 328 416 369 438 C409 460 460 464 499 460 C517 458 534 449 549 438 C581 419 600 378 601 335 C602 318 598 299 594 281 C586 244 556 216 528 189 L528 189 Z " />
<glyph glyph-name="P" unicode="P" horiz-adv-x="464" d="M500 369 C512 387 517 401 519 420 C525 458 524 500 496 525 C471 548 442 555 409 560 C373 565 339 555 299 550 C267 545 230 536 199 522 C177 515 153 506 141 480 C134 460 131 440 129 419 C123 367 113 319 99 270 C88 233 74 160 63 122 C53 88 38 41 47 6 C54 -13 74 -21 89 -18 C110 -16 122 9 127 27 C141 70 145 140 166 208 C203 209 232 207 269 213 C301 218 336 230 366 246 C446 290 500 369 500 369 L500 369 Z M386 358 C366 339 295 305 262 300 C232 295 190 295 190 295 C197 331 220 437 220 437 C220 437 283 442 358 466 C379 473 447 464 441 434 C432 396 409 379 386 358 L386 358 Z " />
<glyph glyph-name="Q" unicode="Q" horiz-adv-x="691" d="M571 110 C585 122 598 136 610 147 C627 164 640 185 653 203 C666 220 672 239 681 257 C690 274 698 292 704 312 C718 362 713 407 709 449 C707 464 701 481 691 494 C686 502 678 507 673 517 C669 526 663 530 653 537 C636 547 615 552 595 559 C579 562 561 565 541 565 C523 566 504 561 488 564 C450 569 405 556 365 541 C342 533 321 520 299 509 C275 499 247 482 226 466 C185 431 151 394 124 350 C101 314 84 279 72 241 C64 219 56 195 59 175 C64 153 67 128 76 107 C85 91 94 75 107 62 C118 50 133 41 148 31 C163 21 179 16 196 9 C215 1 236 -3 257 -4 C274 -5 292 -4 310 -4 C329 -4 349 -5 370 0 C393 5 415 9 439 19 C453 25 467 32 481 40 C485 36 488 32 492 28 C503 17 515 5 527 -4 C538 -10 545 -21 558 -22 C570 -23 586 -23 598 -16 C615 -6 617 17 616 30 C617 66 594 89 571 110 L571 110 Z M575 241 C560 222 547 202 530 185 C527 182 523 178 520 175 C510 187 494 204 488 212 C479 225 473 242 463 255 C455 264 440 277 426 277 C414 275 398 269 386 262 C349 243 376 197 387 177 C392 168 398 158 402 149 C408 141 425 123 433 110 C416 102 388 92 372 87 C352 81 321 88 303 89 C286 92 267 91 251 96 C237 100 223 107 209 112 C180 124 162 151 156 182 C150 212 159 255 174 287 C192 321 228 352 257 376 C289 401 315 422 349 440 C368 449 389 454 410 460 C427 466 447 471 464 472 C497 476 525 462 557 458 C571 456 597 462 609 453 C616 445 620 429 623 419 C632 394 629 363 620 334 C611 300 595 267 575 241 L575 241 Z " />
<glyph glyph-name="R" unicode="R" horiz-adv-x="555" d="M505 61 C505 78 483 96 461 114 C426 143 390 182 356 204 C352 207 334 224 330 226 C355 238 377 250 397 261 C445 286 452 294 480 319 C535 372 542 406 549 444 C553 464 547 491 539 508 C527 529 520 530 498 542 C473 556 441 560 410 564 C393 565 372 565 352 564 C328 561 306 555 282 551 C245 544 203 546 173 517 C153 499 147 472 140 447 C117 366 101 289 71 209 C55 162 39 117 30 70 C28 59 26 49 25 39 C22 19 19 -4 35 -14 C48 -25 69 -25 87 -10 C104 5 114 21 116 40 C120 57 118 72 124 91 C134 127 145 157 165 185 C165 185 191 187 191 187 C271 185 376 -10 476 23 C495 28 505 44 505 61 L505 61 Z M229 446 C233 457 302 472 313 473 C341 476 368 480 394 477 C415 475 427 468 442 459 C453 453 465 427 458 411 C414 333 253 273 187 282 C187 282 197 366 229 446 L229 446 Z " />
<glyph glyph-name="S" unicode="S" horiz-adv-x="562" d="M217 -27 C329 -27 507 47 546 184 C573 275 467 306 403 310 C402 310 231 315 245 365 C257 407 368 472 438 482 C460 482 461 420 514 420 C534 420 550 438 557 460 C579 539 501 570 465 570 C425 570 382 554 340 537 C246 496 177 433 144 337 C131 258 244 228 299 224 C323 221 456 213 448 187 C426 108 295 68 226 68 C182 68 105 74 86 115 C79 129 68 134 53 134 C37 134 23 127 17 107 C-12 1 129 -27 217 -27 L217 -27 Z " />
<glyph glyph-name="T" unicode="T" horiz-adv-x="506" d="M586 503 C598 528 573 550 553 553 C527 561 496 555 465 551 C389 546 313 539 233 531 C219 530 206 530 191 529 C178 529 164 529 151 524 C136 519 128 506 123 491 C119 477 120 462 128 453 C136 442 150 440 165 440 C177 440 192 442 205 442 C228 442 252 447 276 449 C258 399 247 346 229 272 C220 239 188 133 180 101 C175 83 174 67 171 49 C170 35 167 21 170 8 C172 -4 181 -13 194 -14 C204 -14 223 -4 232 4 C258 26 265 62 270 88 C275 118 277 145 286 176 C295 207 305 259 315 290 C325 318 353 400 362 429 C364 438 368 449 375 460 C407 460 440 462 475 464 C488 464 502 463 514 463 C543 463 572 476 586 503 L586 503 Z " />
<glyph glyph-name="U" unicode="U" horiz-adv-x="579" d="M86 241 C77 193 47 80 68 41 C89 1 99 -8 149 -19 C190 -31 297 -6 343 10 C389 27 454 39 479 94 C498 142 523 193 537 242 C553 296 580 349 600 405 C608 429 619 453 629 477 C643 506 653 524 638 548 C628 564 600 573 580 555 C563 541 547 511 537 491 C513 440 495 381 479 326 C462 273 442 217 422 167 C410 136 368 114 339 106 C309 98 282 94 253 91 C193 81 163 128 167 176 C170 212 180 253 191 292 C196 308 201 325 206 339 C218 374 235 412 246 450 C250 464 254 478 255 493 C257 512 240 535 221 541 C194 551 175 517 167 497 C150 455 138 414 124 372 C115 343 105 312 97 282 C92 268 89 255 86 241 L86 241 Z " />
<glyph glyph-name="V" unicode="V" horiz-adv-x="483" d="M141 308 C143 272 155 172 158 137 C165 97 148 48 164 13 C170 1 180 -3 191 -8 C202 -13 214 -13 227 -6 C238 0 247 16 254 26 C271 54 287 79 302 105 C378 225 449 341 522 456 C531 469 542 481 549 495 C555 509 553 522 548 534 C534 557 511 566 483 537 C460 511 439 477 422 447 C383 385 300 252 260 190 C255 182 251 176 245 169 C242 184 244 197 243 212 C243 225 239 305 235 317 C231 347 229 415 222 444 C213 469 212 486 195 503 C174 521 130 485 129 458 C121 410 138 356 141 308 L141 308 Z " />
<glyph glyph-name="W" unicode="W" horiz-adv-x="726" d="M746 381 C767 416 789 456 796 495 C799 512 792 533 776 537 C755 542 741 520 730 504 C681 437 638 365 600 294 C580 259 554 211 527 173 C521 189 525 235 523 253 C525 295 528 335 531 376 C532 396 533 412 533 433 C532 454 529 476 524 494 C520 507 517 528 505 534 C468 555 431 487 413 462 C387 425 365 385 338 350 C292 292 258 230 213 175 C204 221 211 294 213 344 C214 383 220 424 227 467 C230 497 191 543 152 511 C141 502 135 489 131 475 C123 447 124 416 125 396 C126 350 115 274 119 229 C123 189 122 149 125 110 C129 81 127 34 152 17 C165 8 182 0 199 13 C216 26 229 44 239 61 C261 94 290 143 307 175 C326 212 358 252 384 287 C403 310 423 332 445 356 C431 256 414 181 430 110 C437 75 438 32 467 12 C481 3 497 3 515 16 C528 27 538 43 547 58 C612 167 684 273 746 381 L746 381 Z " />
<glyph glyph-name="X" unicode="X" horiz-adv-x="500" d="M351 284 C371 303 389 325 410 346 C448 384 487 421 528 455 C548 472 570 496 576 518 C580 532 580 541 565 551 C551 562 549 568 519 553 C511 550 495 539 488 533 C463 513 431 481 407 459 C369 425 340 385 297 347 C277 385 260 411 243 451 C236 471 235 491 223 508 C210 525 196 538 168 521 C146 508 125 485 130 464 C132 454 134 441 139 432 C153 408 170 384 184 356 C200 322 216 300 227 264 C168 198 108 133 55 62 C41 43 34 16 44 -4 C53 -25 73 -16 95 0 C114 14 135 33 150 50 C171 73 179 87 193 107 C213 135 238 161 261 188 C272 172 282 146 289 128 C297 107 300 83 309 62 C314 45 316 22 326 9 C340 -8 370 1 385 22 C402 43 398 67 394 87 C390 124 378 160 363 195 C356 219 345 247 337 271 C341 275 347 280 351 284 L351 284 Z " />
<glyph glyph-name="Y" unicode="Y" horiz-adv-x="539" d="M638 537 C646 562 624 565 601 564 C565 560 544 528 520 502 C491 471 459 430 431 397 C404 363 399 356 372 322 C365 328 359 336 353 342 C331 366 302 390 288 419 C266 456 230 496 195 522 C179 532 166 539 146 526 C128 513 120 495 119 474 C119 442 132 424 152 404 C178 380 194 358 217 333 C238 313 255 288 275 266 C285 256 292 247 306 234 C296 222 267 182 259 171 C232 140 207 108 178 72 C165 57 152 41 145 23 C136 0 142 -9 160 -17 C196 -34 227 13 257 41 C293 76 320 116 352 154 C373 181 394 207 415 234 C436 262 454 291 475 319 C517 376 567 429 609 484 C623 500 633 519 638 537 L638 537 Z " />
<glyph glyph-name="Z" unicode="Z" horiz-adv-x="519" d="M279 531 C230 526 178 528 153 467 C147 450 159 429 170 422 C188 410 208 422 230 429 C266 440 298 442 334 447 C364 451 396 455 427 453 C413 442 401 429 389 418 C371 398 352 380 332 362 C306 340 284 314 257 292 C189 231 116 173 46 115 C29 102 19 84 14 67 C6 39 12 9 40 0 C60 -8 95 5 120 6 C152 8 184 8 216 12 C259 16 497 21 475 118 C471 134 455 136 434 131 C412 124 394 118 373 115 C341 111 312 110 281 106 C240 100 206 102 159 98 C207 150 274 207 326 256 C380 304 433 353 483 402 C513 431 555 478 548 513 C543 541 521 546 496 546 C483 546 469 544 455 544 C417 544 379 543 341 538 C320 535 299 534 279 531 L279 531 Z " />
<glyph glyph-name="bracketleft" unicode="&#x5b;" horiz-adv-x="350" d="M93 273 C76 200 26 44 16 -27 C11 -58 17 -78 44 -89 C73 -101 109 -101 143 -101 C187 -100 245 -98 262 -39 C270 -9 250 -4 223 -6 C196 -9 190 -14 164 -14 C146 -14 115 -13 103 0 C92 9 111 56 116 74 C134 136 173 281 191 344 C198 367 205 392 212 415 C222 450 232 486 247 520 C282 537 305 539 328 539 C340 539 353 539 366 539 C377 539 390 539 407 542 C438 547 447 573 446 599 C447 628 424 634 399 640 C382 644 367 645 354 645 C329 645 307 639 270 632 C246 628 217 618 198 596 C180 575 176 551 170 528 C163 502 154 476 147 450 C132 407 118 366 107 325 C102 308 97 290 93 273 L93 273 Z " />
<glyph glyph-name="backslash" unicode="&#x5c;" horiz-adv-x="408" d="M204 235 C211 184 223 134 228 81 C231 58 237 36 241 13 C245 -5 244 -26 252 -41 C258 -56 272 -67 291 -62 C308 -58 326 -44 333 -26 C341 -8 328 8 325 23 C323 41 321 61 315 80 C304 129 300 182 295 234 C287 294 255 480 247 539 C246 556 242 575 232 587 C222 597 196 604 182 597 C166 591 155 570 151 556 C145 541 150 525 155 512 C160 499 164 485 168 469 C174 434 201 272 204 235 L204 235 Z " />
<glyph glyph-name="bracketright" unicode="&#x5d;" horiz-adv-x="340" d="M313 219 C324 248 335 278 344 308 C348 323 353 339 354 354 C366 424 419 562 401 627 C395 650 370 648 344 647 C317 645 292 643 266 640 C247 639 224 636 205 626 C184 614 176 597 171 577 C168 560 170 542 188 541 C207 538 231 544 252 548 C272 550 290 551 309 550 C331 550 319 513 316 498 C314 480 307 456 300 432 C283 370 256 294 241 250 C221 186 184 76 160 14 C155 0 154 3 142 0 C127 -4 118 -5 105 -6 C83 -8 63 -10 40 -18 C19 -26 6 -37 -2 -58 C-12 -80 -4 -93 12 -100 C30 -106 52 -101 72 -98 C99 -96 125 -98 151 -94 C169 -92 187 -91 203 -71 C215 -53 222 -27 229 -6 C253 53 289 158 313 219 L313 219 Z " />
<glyph glyph-name="asciicircum" unicode="&#x5e;" horiz-adv-x="409" d="M177 405 C158 385 135 366 120 345 C109 330 93 313 91 296 C88 283 87 273 98 266 C113 256 136 262 156 275 C173 286 180 304 193 319 C213 343 241 367 264 389 C284 407 312 434 337 445 C342 428 344 409 345 391 C345 366 334 299 348 283 C358 272 387 278 402 287 C421 299 429 317 431 335 C435 378 433 424 426 464 C420 495 426 541 393 555 C357 572 302 520 272 494 C238 466 208 436 177 405 L177 405 Z " />
<glyph glyph-name="underscore" unicode="&#x5f;" horiz-adv-x="468" d="M21 -21 C58 -24 211 -10 248 -7 C286 -6 324 -8 363 4 C392 14 430 40 428 75 C426 97 415 108 393 103 C342 91 174 83 124 78 C96 74 71 77 44 73 C26 70 14 70 1 50 C-25 7 -7 -18 21 -21 L21 -21 Z " />
<glyph glyph-name="grave" unicode="&#x60;" horiz-adv-x="287" d="M233 678 C257 665 308 649 331 636 C347 628 371 623 389 639 C396 645 403 656 398 663 C394 674 381 683 372 689 C344 709 290 733 252 736 C241 737 221 740 209 732 C199 725 195 718 199 710 C206 694 219 685 233 678 L233 678 Z " />
<glyph glyph-name="a" unicode="a" horiz-adv-x="536" d="M492 92 C499 147 504 208 498 260 C491 321 488 378 484 438 C480 479 475 527 446 548 C432 560 414 557 392 548 C367 538 355 529 332 508 C300 481 286 451 262 419 C231 381 208 348 180 309 C155 275 128 237 106 200 C82 160 50 124 30 85 C22 69 7 40 1 16 C-4 -4 -5 -19 6 -27 C43 -51 83 23 116 70 C129 89 146 109 157 127 C196 130 234 140 273 145 C304 149 333 153 364 155 C378 156 386 158 400 158 C401 145 401 131 398 116 C398 87 399 16 432 12 C472 6 489 53 492 92 L492 92 Z M356 242 C309 237 263 220 219 220 C226 229 235 244 240 253 C286 325 318 369 373 431 C376 419 376 419 379 407 C384 385 389 366 392 343 C396 320 399 274 400 247 C380 246 367 243 356 242 L356 242 Z " />
<glyph glyph-name="b" unicode="b" horiz-adv-x="533" d="M493 235 C481 256 427 278 404 287 C421 295 437 309 453 319 C469 328 487 344 498 359 C522 394 539 419 541 459 C541 489 515 522 489 533 C472 538 440 561 383 559 C338 556 310 546 271 535 C250 530 242 528 222 526 C205 526 188 520 174 506 C162 494 150 475 149 460 C143 411 124 349 108 299 C95 261 81 224 70 184 C59 146 44 110 30 75 C16 40 6 5 41 -9 C69 -22 108 -21 138 -21 C191 -21 257 -21 308 -3 C355 12 405 31 445 62 C466 78 486 89 505 147 C515 178 508 211 493 235 L493 235 Z M341 463 C412 469 453 431 453 431 C453 431 448 398 355 347 C265 295 197 303 197 303 C209 347 232 433 232 433 C248 438 269 455 341 463 L341 463 Z M300 81 C228 63 117 67 117 67 C121 75 164 203 164 203 C177 203 230 204 253 211 C297 225 398 195 420 164 C406 144 372 100 300 81 L300 81 Z " />
<glyph glyph-name="c" unicode="c" horiz-adv-x="581" d="M246 -33 C318 -33 512 7 535 89 C540 107 530 122 507 122 C481 122 452 102 427 92 C380 73 324 63 269 63 C161 63 129 130 156 223 C172 278 221 351 286 397 C379 453 449 460 483 469 C518 456 508 403 560 403 C584 403 599 422 604 440 C626 518 538 560 483 560 C469 560 454 558 435 552 C379 536 334 515 284 484 C212 435 134 366 98 295 C81 261 65 223 56 191 C20 55 108 -33 246 -33 L246 -33 Z " />
<glyph glyph-name="d" unicode="d" horiz-adv-x="543" d="M562 334 C565 369 562 410 552 437 C530 483 491 533 436 539 C418 543 386 546 354 546 C322 546 287 543 267 538 C237 529 187 526 162 503 C146 486 145 467 141 449 C135 425 128 401 125 376 C116 328 110 281 96 231 C85 191 73 128 60 88 C55 71 46 53 41 35 C34 12 35 -10 60 -17 C76 -22 96 -18 115 -13 C207 9 271 39 357 81 C423 116 476 165 513 220 C525 238 536 259 546 278 C553 296 558 316 562 334 L562 334 Z M371 186 C275 107 141 83 141 83 C141 83 161 186 179 243 C199 300 229 449 229 449 C244 453 300 455 344 455 C410 455 492 422 487 366 C477 294 434 238 371 186 L371 186 Z " />
<glyph glyph-name="e" unicode="e" horiz-adv-x="503" d="M448 71 C461 94 443 100 436 102 C430 105 421 107 404 105 C336 96 266 89 193 89 C167 89 151 90 127 93 C133 123 155 159 165 189 C176 190 186 193 195 194 C239 203 274 213 316 213 C339 215 348 215 371 216 C393 217 438 221 460 231 C477 239 487 251 493 269 C498 286 476 296 461 297 C440 300 421 300 403 300 C381 300 360 300 333 299 C303 299 267 296 237 292 C225 291 210 290 197 288 C201 299 205 314 210 331 C219 362 230 392 243 438 C269 438 292 438 313 437 C338 436 355 438 381 438 C408 440 422 438 451 441 C471 442 502 445 524 454 C539 460 553 472 556 490 C559 504 541 521 530 524 C516 528 499 528 474 529 C451 530 438 528 414 528 C363 526 311 529 262 531 C250 531 227 535 216 528 C198 516 183 499 175 477 C166 455 155 423 148 400 C140 372 122 316 113 288 C94 231 66 175 45 116 C39 103 34 88 29 72 C23 48 19 23 32 9 C44 -3 63 -6 79 -6 C107 -6 118 -6 135 -5 C210 -1 286 6 369 22 C405 31 428 32 448 71 L448 71 Z " />
<glyph glyph-name="f" unicode="f" horiz-adv-x="464" d="M517 463 C535 472 542 487 543 506 C545 520 541 528 527 531 C467 544 336 530 276 530 C259 529 241 526 225 526 C209 526 194 534 179 525 C163 517 154 507 149 491 C139 455 137 423 125 387 C119 369 114 350 108 332 C104 314 103 295 99 277 C90 239 62 141 51 103 C41 70 28 23 45 0 C52 -12 62 -21 81 -12 C95 -4 108 17 115 30 C129 65 134 111 144 147 C150 167 147 167 155 197 C185 204 219 201 267 201 C310 202 459 203 444 267 C441 279 440 295 421 297 C407 299 389 296 372 295 C331 295 225 291 181 291 C194 330 218 392 227 432 C299 444 402 432 472 447 C487 450 503 456 517 463 L517 463 Z " />
<glyph glyph-name="g" unicode="g" horiz-adv-x="686" d="M666 206 C688 252 699 323 634 323 C589 323 546 327 488 321 C456 317 411 313 378 305 C353 300 342 296 319 282 C298 269 293 265 289 239 C288 217 312 211 343 211 C368 211 395 215 419 220 C452 226 480 229 507 229 C532 229 555 226 577 226 C559 174 512 121 456 96 C404 70 357 66 303 62 C272 61 243 65 224 80 C205 93 182 112 170 132 C147 168 149 224 179 272 C209 319 283 385 332 410 C358 423 392 434 427 445 C427 445 427 445 428 445 C476 459 538 482 567 441 C578 428 584 418 604 414 C623 410 654 415 662 433 C668 445 678 459 675 482 C667 524 647 531 612 547 C550 571 435 551 358 515 C301 492 249 456 198 412 C179 394 158 375 140 354 C96 303 66 253 58 191 C51 138 76 88 102 53 C131 16 176 -13 223 -23 C248 -30 282 -31 311 -31 C339 -31 367 -25 395 -19 C424 -13 451 1 481 14 C509 27 534 49 559 70 C602 105 643 156 666 206 L666 206 Z " />
<glyph glyph-name="h" unicode="h" horiz-adv-x="533" d="M529 318 C549 376 570 434 588 495 C593 513 594 530 585 543 C574 556 563 560 552 560 C532 560 511 541 503 517 C484 469 471 420 453 371 C448 357 442 334 437 319 C400 319 345 316 307 313 C275 313 242 309 206 305 C210 319 217 341 221 354 C228 372 237 391 246 407 C255 425 265 446 271 467 C275 482 277 499 272 512 C266 528 252 538 236 538 C221 538 204 528 192 506 C169 460 146 415 128 369 C109 318 92 259 78 208 C65 163 56 119 46 75 C42 54 41 34 38 13 C37 -3 36 -19 50 -30 C66 -40 90 -35 103 -14 C112 1 120 18 127 35 C149 89 159 146 170 202 C182 203 194 206 205 206 C264 209 324 222 387 222 C395 222 403 221 412 221 C400 177 383 134 371 87 C364 59 363 17 379 -3 C387 -13 415 -13 429 1 C443 16 447 41 452 59 C459 84 468 119 477 150 C493 205 511 260 529 318 L529 318 Z " />
<glyph glyph-name="i" unicode="i" horiz-adv-x="195" d="M135 392 C123 357 112 323 101 288 C82 233 62 178 46 122 C35 83 24 49 29 14 C31 -8 45 -21 68 -9 C96 5 112 36 122 69 C129 94 132 120 136 141 C142 166 148 191 156 216 C165 246 177 275 186 305 C201 352 217 398 233 444 C239 460 248 480 249 497 C249 507 247 529 242 535 C236 544 214 537 203 530 C164 507 147 432 135 392 L135 392 Z " />
<glyph glyph-name="j" unicode="j" horiz-adv-x="418" d="M485 481 C500 490 505 516 504 530 C503 553 475 561 438 561 C402 561 358 553 332 548 C313 544 239 538 220 535 C204 533 189 534 173 526 C156 519 146 502 141 485 C134 448 174 446 205 446 C235 446 268 448 303 453 C285 387 271 295 251 226 C239 183 223 90 161 78 C126 75 107 79 75 83 C58 84 44 84 26 71 C-12 35 14 1 49 -10 C65 -15 99 -19 120 -17 C172 -14 228 2 270 54 C295 84 315 122 325 154 C331 172 334 189 338 206 C350 281 356 339 380 423 C384 438 389 454 393 469 C416 473 463 470 485 481 L485 481 Z " />
<glyph glyph-name="k" unicode="k" horiz-adv-x="549" d="M359 314 C378 328 394 339 410 349 C455 379 502 411 547 446 C560 456 576 464 590 475 C617 495 636 528 625 551 C612 577 563 548 540 535 C522 525 506 513 491 502 C475 491 461 481 445 471 C363 419 285 357 200 310 C201 314 202 319 204 325 C209 344 214 359 222 383 C229 401 233 422 237 440 C243 466 233 494 232 495 C220 516 198 528 167 502 C155 491 149 478 145 464 C140 447 138 431 137 418 C128 385 126 354 113 322 C104 301 98 283 93 266 C86 242 82 222 77 208 C66 171 56 133 43 97 C36 79 29 58 24 39 C19 22 16 6 16 -8 C18 -26 31 -35 47 -35 C58 -35 72 -30 85 -18 C108 4 116 47 128 79 C141 111 148 144 162 185 C180 195 196 207 213 220 C228 230 235 233 263 250 C276 203 294 154 311 107 C327 70 336 18 371 -13 C379 -21 391 -25 404 -25 C421 -25 438 -17 446 1 C463 36 445 56 436 84 C429 109 410 158 400 182 C390 209 380 235 371 264 C367 279 364 297 359 314 L359 314 Z " />
<glyph glyph-name="l" unicode="l" horiz-adv-x="467" d="M125 344 C108 278 79 210 60 144 C51 111 42 80 33 48 C21 6 41 -10 69 -8 C158 -3 283 -6 383 28 C416 48 419 80 399 98 C388 106 368 107 353 107 C336 106 270 89 253 87 C211 81 160 72 126 83 C128 98 129 112 136 129 C155 185 177 234 191 290 C204 335 222 366 231 398 C240 428 259 463 257 491 C255 511 242 541 217 534 C206 531 189 521 183 511 C176 499 172 486 168 473 C156 431 139 383 125 344 L125 344 Z " />
<glyph glyph-name="m" unicode="m" horiz-adv-x="729" d="M123 296 C97 230 63 173 44 106 C35 67 17 -16 59 -17 C86 -18 101 3 111 34 C121 66 133 97 146 129 C160 163 175 199 190 233 C203 264 230 323 238 356 C242 322 247 299 251 279 C263 224 267 163 274 103 C278 61 281 -35 338 -8 C385 16 420 85 455 132 C480 166 507 200 534 233 C558 262 586 294 609 325 C590 234 584 136 585 50 C586 28 599 -4 615 -6 C640 -9 660 30 667 56 C675 84 675 116 679 144 C684 177 688 212 694 246 C706 312 723 379 740 445 C748 477 756 506 743 529 C734 550 702 542 679 525 C657 508 635 477 614 454 C587 423 558 391 533 357 C485 294 436 230 381 173 C359 221 358 281 347 335 C337 392 336 454 323 509 C319 533 306 543 289 543 C262 543 227 519 204 484 C186 458 173 422 162 393 C150 361 136 328 123 296 L123 296 Z " />
<glyph glyph-name="n" unicode="n" horiz-adv-x="585" d="M128 345 C104 261 98 230 78 155 C71 125 59 98 53 69 C44 37 35 -10 71 -19 C110 -28 133 34 139 61 C152 110 166 155 178 206 C192 264 210 316 219 369 C233 345 245 309 253 287 C265 260 273 234 288 211 C304 184 312 153 327 125 C340 102 348 78 359 53 C374 17 371 -28 423 -25 C442 -23 456 0 463 18 C477 48 487 69 499 100 C528 182 554 260 587 343 C602 379 611 414 622 449 C629 472 634 493 633 515 C632 534 618 544 601 544 C587 544 571 537 561 520 C548 499 544 476 536 454 C499 353 465 254 428 160 C406 193 380 235 370 269 C355 317 335 360 316 402 C308 419 301 442 293 460 C285 475 280 490 272 503 C256 529 224 570 183 539 C162 524 153 509 148 493 C139 459 149 419 128 345 L128 345 Z " />
<glyph glyph-name="o" unicode="o" horiz-adv-x="673" d="M693 335 C693 354 693 374 692 393 C691 431 683 468 664 497 C646 520 617 541 588 541 C562 542 538 546 511 543 C493 541 480 547 464 550 C448 552 426 547 408 543 C350 533 248 481 204 440 C172 410 144 379 118 343 C93 308 76 277 69 238 C66 220 64 202 60 184 C58 166 59 145 59 127 C58 93 69 67 88 43 C96 31 105 18 119 12 C170 -23 209 -23 270 -23 C349 -23 438 1 513 59 C548 87 582 119 609 155 C643 200 661 235 678 277 C687 296 692 317 693 335 L693 335 Z M557 224 C524 175 439 107 390 92 C366 84 343 79 320 75 C285 70 251 72 219 80 C154 94 135 168 158 238 C185 304 221 329 273 374 C299 396 337 420 368 433 C387 440 407 444 426 449 C439 451 451 455 464 453 C476 450 486 445 498 442 C528 437 562 440 590 425 C638 401 585 261 557 224 L557 224 Z " />
<glyph glyph-name="p" unicode="p" horiz-adv-x="484" d="M536 437 C542 485 523 512 500 530 C472 552 420 556 383 561 C338 566 290 544 243 538 C223 535 204 530 187 515 C165 497 151 464 146 442 C138 414 127 385 120 357 C115 334 108 310 101 286 C90 250 80 216 70 180 C66 166 61 150 56 134 C45 92 32 40 33 1 C36 -14 34 -34 54 -36 C83 -39 92 -22 103 0 C123 36 129 70 137 105 C144 136 147 163 151 189 C175 190 207 195 232 197 C232 197 293 200 356 226 C386 242 423 260 449 284 C491 322 531 392 536 437 L536 437 Z M297 296 C245 284 186 284 186 284 C195 305 206 335 214 363 C226 405 234 442 234 442 C252 450 357 463 376 464 C398 466 457 449 445 414 C421 344 346 308 297 296 L297 296 Z " />
<glyph glyph-name="q" unicode="q" horiz-adv-x="699" d="M625 53 C621 63 599 89 581 110 C595 123 607 136 618 149 C632 166 643 184 653 204 C667 231 680 262 689 294 C695 313 699 332 700 350 C702 369 695 389 691 406 C687 423 687 442 680 459 C675 477 664 487 650 499 C621 524 583 539 545 548 C529 552 511 553 494 553 C454 553 413 548 374 534 C330 519 287 495 246 468 C207 441 174 400 144 361 C118 323 94 279 78 237 C73 222 68 208 63 193 C54 159 47 124 53 97 C56 61 79 17 107 1 C126 -8 141 -17 162 -21 C182 -23 203 -28 225 -28 C276 -28 331 -17 383 -3 C410 5 434 19 462 32 C471 37 481 43 490 47 C511 26 538 0 550 -9 C560 -16 580 -22 597 -22 C613 -22 629 -16 637 8 C643 23 631 41 625 53 L625 53 Z M353 87 C310 76 262 63 220 71 C201 75 179 79 161 89 C146 98 151 125 153 145 C155 171 158 197 166 222 C172 243 181 264 191 283 C202 304 219 321 233 339 C248 358 264 378 285 391 C326 416 372 440 416 454 C438 462 462 460 485 460 C507 460 525 460 542 445 C559 429 571 409 585 391 C595 371 618 352 619 331 C619 317 611 297 606 284 C589 239 561 202 526 172 C496 204 493 209 489 213 C478 224 467 234 455 243 C437 257 413 270 386 264 C359 256 344 234 343 211 C343 193 348 186 361 178 C375 169 390 164 402 154 C409 149 415 142 420 136 L436 115 C408 102 380 93 353 87 L353 87 Z " />
<glyph glyph-name="r" unicode="r" horiz-adv-x="553" d="M501 52 C497 71 478 98 455 116 C446 124 437 131 429 138 C404 159 360 176 336 203 C370 215 395 234 425 251 C476 282 534 336 553 401 C558 419 560 438 557 458 C553 505 462 547 418 547 C406 547 393 548 382 548 C340 548 280 539 240 525 C225 520 193 511 180 499 C169 489 159 478 153 464 C145 444 145 429 139 409 C114 327 117 295 98 247 C87 219 77 189 64 153 C55 129 35 89 26 65 C15 36 11 5 20 -10 C27 -22 45 -26 58 -19 C88 -7 107 47 117 71 C126 93 137 120 154 162 C167 163 177 163 192 159 C228 151 300 99 324 80 C343 65 361 50 383 37 C406 23 425 5 453 5 C492 4 504 28 501 52 L501 52 Z M330 454 C383 454 397 454 410 453 C517 438 461 383 461 383 C436 354 425 348 394 325 C336 280 246 251 187 251 C203 312 221 371 234 429 C254 431 309 454 330 454 L330 454 Z " />
<glyph glyph-name="s" unicode="s" horiz-adv-x="588" d="M427 25 C482 57 540 96 559 159 C564 177 565 197 560 211 C552 243 518 278 481 283 C423 296 356 285 293 288 C280 288 262 295 251 300 C242 305 215 317 220 327 C240 365 298 407 340 428 C355 435 443 472 453 463 C468 451 474 429 483 411 C488 401 497 396 510 396 C519 396 537 400 546 409 C562 427 571 463 568 482 C567 499 558 520 539 530 C524 539 505 549 486 553 C451 562 415 559 373 542 C332 527 294 504 253 476 C214 449 152 384 126 345 C101 307 120 265 137 238 C157 207 217 194 254 190 C321 188 401 194 468 181 C465 120 352 84 301 72 C263 64 224 62 182 62 C165 62 148 63 132 66 C111 74 105 93 86 105 C78 109 71 116 62 116 C50 118 32 112 26 103 C17 87 12 65 20 44 C25 32 35 12 46 5 C68 -15 92 -17 126 -25 C147 -30 169 -34 193 -34 C249 -34 370 -11 427 25 L427 25 Z " />
<glyph glyph-name="t" unicode="t" horiz-adv-x="534" d="M596 467 C607 482 614 507 604 519 C588 537 562 542 535 542 C510 542 485 538 464 538 C424 539 394 537 354 533 C317 528 122 536 129 463 C130 451 140 437 151 432 C168 423 191 424 210 429 C233 436 256 436 278 436 C296 436 305 437 322 437 C315 416 311 389 306 371 C297 336 289 301 280 268 C266 226 246 172 231 120 C224 93 218 66 213 43 C210 21 212 25 216 4 C219 -8 238 -18 251 -16 C264 -13 276 0 281 12 C289 34 296 56 302 78 C311 109 323 140 333 172 C345 209 356 248 369 286 C379 317 386 347 393 378 C399 401 411 424 418 447 C438 450 460 450 479 451 C504 454 527 451 551 450 C571 449 584 449 596 467 L596 467 Z " />
<glyph glyph-name="u" unicode="u" horiz-adv-x="546" d="M202 304 C211 335 221 361 231 391 C244 428 271 504 227 516 C182 526 152 468 149 432 C147 412 143 396 137 374 C129 347 117 318 108 290 C96 251 83 213 72 175 C67 156 61 138 58 118 C48 70 74 19 112 -3 C125 -10 142 -13 162 -13 C193 -13 227 -6 256 -1 C309 8 379 27 417 75 C438 100 456 118 468 145 C488 178 501 216 516 251 C546 321 571 393 599 463 C606 486 611 507 600 524 C590 539 569 546 548 530 C525 513 514 491 508 468 C501 442 496 416 486 391 C465 331 445 270 414 212 C393 173 370 128 324 109 C297 97 270 96 245 91 C232 88 217 87 203 87 C188 87 173 88 166 94 C141 112 160 144 166 177 C169 194 177 217 182 234 C193 273 198 291 202 304 L202 304 Z " />
<glyph glyph-name="v" unicode="v" horiz-adv-x="482" d="M118 402 C118 374 120 347 120 318 C120 259 123 195 134 140 C144 91 139 34 159 -9 C169 -30 185 -39 210 -30 C229 -25 242 -14 253 5 C264 26 272 49 283 71 C299 102 313 129 330 158 C368 216 405 273 442 330 C472 378 513 424 543 473 C555 495 566 515 560 535 C554 552 542 565 522 556 C481 535 451 477 424 440 C390 391 353 339 322 287 C306 262 290 238 274 213 C262 195 244 164 231 142 C225 167 217 209 214 235 C211 270 214 296 212 331 C211 357 213 381 217 409 C223 440 238 502 192 502 C168 502 152 487 133 468 C117 450 119 423 118 402 L118 402 Z " />
<glyph glyph-name="w" unicode="w" horiz-adv-x="723" d="M129 229 C124 191 122 155 115 115 C109 79 110 43 114 10 C117 -8 124 -14 139 -17 C155 -21 180 -21 194 -1 C214 30 233 66 257 100 C283 136 307 175 333 212 C357 241 380 269 399 296 C401 277 398 257 398 242 C398 203 399 167 403 131 C406 105 408 81 412 58 C413 37 410 7 431 1 C445 -4 457 -13 475 -6 C491 -1 503 21 514 35 C542 69 562 111 585 147 C611 186 635 225 660 264 C683 301 709 337 732 374 C753 407 776 440 791 475 C813 526 788 543 759 544 C727 546 700 484 684 460 C661 424 645 388 622 352 C599 317 575 279 551 243 C533 219 515 190 499 167 C501 208 496 244 498 282 C498 334 496 382 500 432 C500 449 501 466 491 478 C485 487 468 504 454 500 C440 497 419 467 409 454 C383 422 360 385 336 352 C299 303 253 255 222 202 C213 242 226 290 225 331 C227 359 224 384 224 410 C224 442 221 477 194 493 C181 499 164 495 150 485 C131 472 130 455 129 438 C129 419 129 398 132 379 C139 332 132 278 129 229 L129 229 Z " />
<glyph glyph-name="x" unicode="x" horiz-adv-x="526" d="M435 -6 C451 3 459 16 462 28 C467 47 464 66 462 81 C459 101 449 124 441 141 C424 188 386 218 369 266 C389 293 414 318 439 344 C469 375 497 409 522 444 C532 458 548 481 553 500 C559 519 555 534 529 537 C488 542 458 490 436 464 C409 434 387 403 362 374 C353 362 344 352 335 341 C307 380 279 423 256 472 C246 490 239 511 223 524 C211 533 199 543 182 543 C160 543 149 524 141 507 C136 493 138 473 144 460 C153 442 161 423 172 406 C199 369 222 327 246 288 C251 279 254 270 260 261 C220 219 180 176 136 137 C117 118 95 100 72 81 C59 70 41 54 32 39 C14 12 17 -32 62 -13 C102 4 133 36 167 65 C197 92 226 119 253 147 C267 162 283 175 299 189 C303 178 308 167 314 156 C336 116 351 75 370 28 C380 6 393 -31 435 -6 L435 -6 Z " />
<glyph glyph-name="y" unicode="y" horiz-adv-x="530" d="M555 436 C579 463 616 495 611 528 C609 544 600 552 579 551 C558 551 548 539 533 526 C499 499 478 462 448 431 C408 389 373 343 336 295 C320 304 289 352 275 371 C261 394 240 449 227 475 C214 505 196 527 152 511 C121 495 120 433 133 410 C148 385 175 345 186 319 C206 275 241 242 271 204 C256 185 249 172 236 154 C225 138 211 127 200 112 C175 84 152 52 139 21 C130 1 132 -6 146 -18 C157 -27 170 -28 187 -18 C210 -5 244 26 264 53 C277 70 292 93 306 111 C328 147 365 198 392 235 C407 256 425 277 440 297 C457 321 475 341 491 363 C511 388 536 411 555 436 L555 436 Z " />
<glyph glyph-name="z" unicode="z" horiz-adv-x="490" d="M368 537 C334 535 298 533 263 533 C240 534 210 529 188 511 C171 495 155 473 158 454 C159 441 174 437 192 437 C220 437 250 445 292 445 C305 445 318 445 332 445 C362 447 391 440 423 444 C386 394 340 342 292 301 C256 270 223 238 188 207 C154 177 125 142 92 112 C69 92 43 70 31 43 C7 -4 44 -15 78 -13 C100 -12 123 -10 145 -9 C204 -6 297 -6 357 6 C376 10 394 12 411 26 C423 35 444 56 443 69 C444 84 427 96 414 98 C397 101 377 94 359 94 C310 92 224 85 177 88 C213 124 251 164 291 197 C319 220 343 243 369 268 C398 295 421 323 449 350 C485 388 519 433 537 478 C553 520 513 542 476 542 C442 542 404 538 368 537 L368 537 Z " />
<glyph glyph-name="braceleft" unicode="&#x7b;" horiz-adv-x="435" d="M472 447 C479 460 484 475 485 487 C486 519 455 520 432 525 C411 530 393 535 371 537 C357 539 342 542 325 542 C311 542 297 539 283 534 C262 524 248 506 247 484 C248 462 265 455 285 451 C306 446 331 447 354 444 C376 441 398 432 420 428 C438 424 457 427 472 447 L472 447 Z M314 252 C331 257 345 268 354 284 C360 295 364 309 359 318 C352 328 307 334 295 334 C265 335 235 335 204 330 C175 325 137 318 107 299 C85 283 75 265 77 243 C79 217 101 220 125 224 C161 230 198 237 235 242 C261 246 287 243 314 252 L314 252 Z M251 133 C232 124 216 115 199 101 C180 84 164 67 155 44 C145 22 157 12 173 6 C192 -1 213 16 231 28 C275 57 322 83 361 118 C376 132 383 146 376 162 C359 197 280 149 251 133 L251 133 Z " />
<glyph glyph-name="bar" unicode="&#x7c;" horiz-adv-x="212" d="M172 497 C158 445 136 365 115 294 C105 259 95 225 87 199 C71 153 35 32 22 -13 C16 -35 12 -48 27 -61 C41 -70 54 -76 73 -63 C109 -39 116 -3 122 32 C129 69 147 140 164 200 C173 230 181 259 188 277 C206 332 243 454 261 509 C270 533 279 557 276 578 C274 591 264 609 248 608 C226 605 209 584 202 568 C190 546 179 520 172 497 L172 497 Z " />
<glyph glyph-name="braceright" unicode="&#x7d;" horiz-adv-x="441" d="M148 385 C165 384 186 398 203 406 C224 416 245 425 268 433 C297 442 324 446 354 454 C368 456 383 463 394 477 C403 490 399 504 394 516 C388 530 376 534 360 537 C321 542 275 520 234 499 C202 484 149 462 134 424 C126 405 129 388 148 385 L148 385 Z M442 319 C426 332 395 332 372 332 C336 332 297 332 259 330 C243 328 229 326 214 316 C195 300 183 284 185 264 C187 247 192 239 209 238 C234 238 263 246 288 246 C320 247 351 244 385 247 C403 248 428 253 439 275 C449 292 453 309 442 319 L442 319 Z M243 66 C224 79 206 88 185 97 C168 103 152 112 139 124 C128 133 119 142 102 140 C72 136 51 102 50 76 C50 57 71 44 85 36 C106 23 129 18 155 13 C164 10 179 8 194 8 C208 8 221 10 234 22 C250 37 259 57 243 66 L243 66 Z " />
<glyph glyph-name="asciitilde" unicode="&#x7e;" horiz-adv-x="543" d="M142 328 C98 290 75 247 61 197 C55 177 65 149 88 149 C120 149 129 173 142 195 C151 213 202 284 245 284 C262 284 275 241 283 219 C292 194 295 151 348 151 C364 151 381 154 394 160 C456 191 540 268 559 333 C565 356 558 383 531 383 C467 383 442 254 373 254 C360 254 350 290 344 310 C335 343 327 386 289 386 C277 386 190 369 142 328 L142 328 Z " />
<glyph glyph-name="exclamdown" unicode="&#xa1;" horiz-adv-x="284" d="M209 487 C203 456 226 458 250 460 C273 462 304 466 327 479 C347 491 364 510 369 529 C374 546 371 563 358 573 C347 581 339 576 325 570 C300 558 274 557 250 544 C226 529 214 511 209 487 L209 487 Z M24 -33 C51 -30 70 3 83 23 C118 78 153 135 186 192 C214 241 251 297 254 347 C257 367 245 373 225 364 C200 352 184 329 170 308 C147 276 127 242 107 209 C87 175 65 142 45 108 C27 78 6 46 -1 15 C-7 -8 -6 -36 24 -33 L24 -33 Z " />
<glyph glyph-name="cent" unicode="&#xa2;" horiz-adv-x="419" d="M336 138 C357 149 381 167 386 185 C391 202 373 220 354 220 C313 220 272 186 224 186 C187 186 137 203 146 237 C163 296 272 347 326 347 C353 347 353 310 376 310 C396 310 424 335 430 355 C443 399 417 426 386 434 C391 453 396 464 401 481 C410 511 418 572 378 572 C345 572 333 523 325 500 C316 477 308 455 302 433 C256 422 158 384 120 331 C99 301 73 265 65 236 C40 149 111 106 185 102 C183 98 169 52 168 48 C163 31 146 -26 189 -26 C227 -26 247 14 254 37 C261 63 269 89 272 114 C293 120 315 129 336 138 L336 138 Z " />
<glyph glyph-name="sterling" unicode="&#xa3;" horiz-adv-x="513" d="M448 47 C458 58 464 78 458 88 C453 98 439 105 429 109 C413 115 392 114 374 112 C350 111 328 110 306 109 C284 107 263 106 241 103 C235 103 195 102 195 102 C195 102 269 158 296 195 C301 200 304 207 307 213 C311 213 316 213 320 213 C356 217 419 221 446 260 C470 295 427 313 400 309 C370 305 340 301 307 299 C301 309 295 318 289 327 C281 341 264 359 266 379 C269 398 299 418 315 427 C339 441 365 456 390 463 C413 468 426 464 435 447 C440 438 439 423 446 416 C452 407 469 411 481 418 C504 432 512 459 511 480 C510 519 471 542 432 544 C404 547 373 546 340 533 C311 522 281 500 255 481 C219 453 178 390 181 349 C181 331 190 314 197 299 C181 299 105 306 88 279 C66 242 93 225 126 220 C152 216 182 213 209 212 C205 196 171 169 156 159 C129 142 103 123 76 109 C58 101 38 91 24 78 C8 63 5 40 12 26 C17 10 29 -3 50 0 C69 3 92 12 112 16 C144 21 175 22 206 22 C243 23 282 26 320 30 C348 31 375 27 402 30 C417 31 435 34 448 47 L448 47 Z " />
<glyph glyph-name="yen" unicode="&#xa5;" horiz-adv-x="530" d="M411 325 C423 341 451 373 462 387 C506 438 538 459 584 511 C599 529 615 557 593 573 C577 584 531 573 514 557 C480 525 453 491 422 459 C396 433 369 402 347 376 C332 380 326 380 314 388 C287 401 244 466 232 500 C228 509 225 519 224 530 C223 538 218 543 211 548 C197 560 173 539 158 526 C150 520 139 494 140 469 C140 424 159 384 190 358 C209 341 222 322 241 308 C231 308 219 306 209 305 C197 305 185 303 174 297 C162 291 151 273 148 262 C132 222 200 225 230 228 C240 229 249 229 258 230 C254 211 248 191 245 173 C227 173 207 173 183 169 C163 167 149 169 130 159 C112 151 96 140 99 124 C100 114 110 100 118 93 C135 83 169 89 190 91 C201 91 212 92 223 92 C217 71 199 -3 203 -21 C207 -41 225 -50 248 -32 C267 -18 290 53 297 72 C301 80 303 88 306 96 C335 109 429 78 448 140 C451 151 445 169 434 175 C410 185 377 177 335 176 C339 190 352 225 362 241 C389 243 417 244 443 251 C464 257 477 272 481 287 C487 305 478 322 458 326 C444 328 427 327 411 325 L411 325 Z " />
<glyph glyph-name="dieresis" unicode="&#xa8;" horiz-adv-x="307" d="M421 689 C413 694 403 690 391 688 C344 667 331 668 322 637 C315 614 323 599 346 599 C358 599 363 605 373 611 C380 617 421 631 431 666 C434 676 428 687 421 689 L421 689 Z M269 669 C263 675 256 683 245 683 C190 683 166 643 168 646 C166 641 165 637 163 631 C157 610 175 599 193 599 C218 604 268 641 273 658 C274 662 273 668 269 669 L269 669 Z " />
<glyph glyph-name="copyright" unicode="&#xa9;" horiz-adv-x="673" d="M696 366 C701 401 699 436 686 466 C672 498 650 516 616 529 C592 539 564 544 536 546 C510 548 482 551 454 547 C433 544 411 539 388 534 C366 528 342 522 320 513 C293 503 263 485 237 468 C190 437 153 405 126 357 C108 327 95 296 86 265 C77 234 72 203 70 173 C67 143 94 55 109 36 C141 -6 207 -16 266 -13 C291 -13 317 -9 343 -3 C370 5 396 6 423 19 C481 47 532 80 579 124 C632 173 664 235 681 297 C688 321 694 344 696 366 L696 366 Z M580 239 C565 216 552 195 531 176 C491 141 444 112 396 97 C367 88 335 84 307 81 C281 80 259 87 234 89 C213 92 196 98 180 109 C163 118 147 127 141 146 C137 171 140 198 148 225 C153 244 161 264 171 282 C192 318 221 363 261 388 C304 414 347 425 392 442 C422 454 451 456 480 456 C507 458 524 451 548 446 C609 436 636 403 620 348 C609 310 600 271 580 239 L580 239 Z M507 335 C507 321 501 300 485 288 C466 277 454 287 448 299 C445 305 443 309 434 309 C426 309 415 306 406 304 C385 297 363 287 341 275 C324 265 315 250 302 235 C309 226 324 222 339 222 C353 222 370 226 383 229 C396 231 415 243 430 239 C436 237 445 221 446 213 C456 175 393 156 364 153 C353 151 339 150 326 150 C304 150 282 153 264 160 C241 172 233 213 241 239 C248 275 269 300 298 328 C326 356 366 376 398 387 C415 392 432 394 449 397 C486 402 500 387 507 354 C508 349 508 341 507 335 L507 335 Z " />
<glyph glyph-name="ordfeminine" unicode="&#xaa;" horiz-adv-x="376" d="M324 241 C326 238 334 234 343 234 C358 234 372 242 380 268 C390 303 381 327 381 327 C375 361 382 386 382 388 C392 407 400 428 405 448 C419 494 388 495 381 519 C372 548 370 555 327 555 C233 555 135 436 121 405 C112 384 100 359 94 337 C82 296 96 235 138 226 C150 223 164 222 177 222 C221 222 268 248 309 288 C319 280 305 267 324 241 L324 241 Z M304 387 C274 339 222 305 173 305 C158 305 156 315 160 328 C184 412 310 461 323 461 C329 461 331 458 328 448 C322 427 314 403 304 387 L304 387 Z " />
<glyph glyph-name="guillemotleft" unicode="&#xab;" horiz-adv-x="676" d="M607 177 C614 166 619 150 614 134 C607 110 589 102 572 102 C552 102 508 135 479 149 C463 156 450 166 436 175 C400 195 344 208 368 287 C378 323 428 361 460 376 C520 404 578 406 640 442 C651 448 664 453 675 453 C687 453 703 444 696 418 C679 360 575 320 527 313 C503 309 472 291 447 279 C485 272 523 243 553 222 C566 213 599 194 607 177 L607 177 Z M247 303 C271 313 299 332 323 350 C355 373 397 390 410 434 C415 452 414 467 397 467 C370 467 337 445 313 428 C293 414 213 377 191 369 C155 356 89 308 78 269 C58 201 184 140 227 118 C239 108 255 90 271 90 C292 90 308 105 317 137 C337 208 246 222 216 237 C196 246 183 258 165 268 C191 286 221 293 247 303 L247 303 Z " />
<glyph glyph-name="registered" unicode="&#xae;" horiz-adv-x="683" d="M692 350 C703 447 693 516 586 553 C558 566 510 564 475 564 C340 564 197 446 153 394 C111 344 87 279 77 256 C68 232 59 209 52 184 C28 102 99 55 147 17 C176 -8 243 -28 285 -28 C329 -28 462 18 501 45 C589 105 663 201 687 286 C693 308 693 328 692 350 L692 350 Z M579 220 C515 122 402 67 304 67 C225 67 94 93 129 216 C143 266 177 330 217 371 C285 431 387 479 464 479 C493 479 513 471 540 469 C577 469 592 451 607 423 C633 379 624 341 608 284 C601 262 593 241 579 220 L579 220 Z M454 217 C440 225 427 234 414 244 C462 259 513 274 530 335 C543 379 504 418 460 418 C425 418 383 402 345 401 C309 397 288 392 279 359 C268 321 266 272 253 226 C245 200 233 172 226 146 C221 128 223 107 245 107 C282 107 307 191 312 209 C314 217 314 219 328 222 C339 195 375 176 405 158 C420 149 428 134 449 134 C467 134 487 143 492 161 C501 190 473 207 454 217 L454 217 Z M337 290 L346 335 C380 345 404 349 422 349 C458 349 465 334 465 334 C421 303 337 290 337 290 L337 290 Z " />
<glyph glyph-name="macron" unicode="&#xaf;" horiz-adv-x="434" d="M202 574 C234 572 365 582 397 585 C429 586 463 584 496 593 C520 601 552 620 550 647 C548 664 537 673 519 668 C475 660 331 653 288 650 C264 646 243 649 219 646 C204 644 193 644 183 628 C161 596 179 576 202 574 L202 574 Z " />
<glyph glyph-name="degree" unicode="&#xb0;" horiz-adv-x="372" d="M402 503 C393 525 366 531 344 538 C336 541 326 543 317 543 C258 541 175 502 129 449 C98 410 106 365 120 332 C135 297 166 283 205 278 C253 272 295 296 337 330 C372 357 396 392 406 427 C414 453 412 480 402 503 L402 503 Z M303 402 C289 374 263 357 240 357 C228 357 216 361 208 370 C195 383 193 401 210 420 C225 437 256 449 274 454 C281 455 324 463 323 454 C320 436 312 419 303 402 L303 402 Z " />
<glyph glyph-name="acute" unicode="&#xb4;" horiz-adv-x="281" d="M228 678 C209 670 189 659 175 645 C167 636 166 628 173 622 C179 614 201 617 213 618 C253 622 320 645 360 665 C373 671 389 680 400 691 C410 700 409 709 405 715 C397 731 369 725 349 718 C318 705 259 691 228 678 L228 678 Z " />
<glyph glyph-name="periodcentered" unicode="&#xb7;" horiz-adv-x="214" d="M116 288 C91 272 72 252 67 232 C61 214 80 189 101 189 C154 189 216 283 219 294 C223 307 214 333 191 333 C161 333 137 302 116 288 L116 288 Z " />
<glyph glyph-name="cedilla" unicode="&#xb8;" horiz-adv-x="294" d="M202 -76 C201 -54 190 -37 184 -17 C180 1 169 26 146 25 C126 23 103 -4 100 -25 C98 -39 97 -57 100 -70 C102 -79 118 -94 115 -105 C112 -114 82 -131 74 -133 C61 -137 58 -133 49 -129 C29 -120 19 -114 -5 -120 C-24 -125 -59 -146 -53 -169 C-49 -190 -21 -203 -4 -208 C45 -222 118 -199 168 -151 C191 -129 204 -102 202 -76 L202 -76 Z " />
<glyph glyph-name="ordmasculine" unicode="&#xba;" horiz-adv-x="350" d="M368 538 C355 551 330 560 306 560 C265 560 249 535 215 508 C154 461 116 404 99 344 C83 291 118 217 179 217 C262 217 366 338 387 393 C403 450 399 507 368 538 L368 538 Z M317 429 C297 377 231 303 189 303 C180 303 174 311 180 331 C186 351 210 400 227 416 C243 431 263 436 279 451 C288 460 301 474 311 474 C332 474 319 438 317 429 L317 429 Z " />
<glyph glyph-name="guillemotright" unicode="&#xbb;" horiz-adv-x="676" d="M358 239 C280 147 185 167 102 115 C91 109 79 104 68 104 C55 104 39 114 47 139 C63 197 168 238 215 244 C238 247 270 267 296 279 C258 286 220 314 189 335 C160 355 115 378 128 424 C135 448 153 456 170 456 C191 456 233 423 263 409 C279 401 292 392 306 383 C342 361 397 349 373 268 C371 258 366 249 358 239 L358 239 Z M664 334 C663 341 605 383 597 392 C578 413 545 421 515 440 C503 450 484 467 471 467 C450 467 433 449 426 422 C403 344 498 335 527 322 C545 313 558 298 577 290 C564 281 550 278 541 274 C496 257 460 237 419 207 C387 184 345 168 332 123 C327 106 325 90 344 90 C373 90 404 112 429 129 C459 150 513 174 551 189 C589 204 652 249 664 290 C668 304 667 316 664 334 L664 334 Z " />
<glyph glyph-name="questiondown" unicode="&#xbf;" horiz-adv-x="483" d="M278 265 C348 317 407 345 432 357 C471 376 497 355 475 316 C456 282 383 240 351 227 C281 196 258 180 182 130 C154 109 117 88 118 78 C120 68 168 66 204 68 C239 69 282 76 320 90 C357 104 428 126 409 77 C374 18 293 -2 238 -10 C210 -15 176 -18 144 -18 C75 -18 11 -4 11 39 C14 130 192 211 278 265 L278 265 Z M372 447 C388 439 399 443 419 449 C441 458 480 458 499 477 C509 488 511 503 514 515 C516 528 504 534 493 538 C481 542 437 537 423 532 C394 520 319 468 372 447 L372 447 Z " />
<glyph glyph-name="Agrave" unicode="&#xc0;" horiz-adv-x="582" d="M531 101 C531 125 531 149 532 173 C536 237 535 297 529 358 C525 389 517 419 511 449 C507 476 503 504 492 528 C483 548 463 555 438 557 C411 560 390 543 365 521 C297 463 240 385 187 316 C166 287 28 115 4 31 C-3 5 0 -13 22 -14 C45 -17 66 -5 82 19 C101 47 110 70 126 96 C131 103 136 111 140 118 C212 129 289 144 362 150 C384 153 410 153 437 159 C436 128 438 75 443 48 C449 23 463 8 480 8 C493 8 508 17 522 39 C533 58 531 80 531 101 L531 101 Z M363 246 C331 242 307 239 274 233 C256 230 237 228 218 225 C241 255 262 284 284 313 C311 347 373 423 405 449 C416 393 429 322 434 255 C405 253 384 249 363 246 L363 246 Z M397 642 C421 629 472 613 495 600 C511 592 535 587 553 603 C560 609 567 620 562 627 C558 638 545 647 536 653 C508 673 454 697 416 700 C405 701 385 704 373 696 C363 689 359 682 363 674 C370 658 383 649 397 642 L397 642 Z " />
<glyph glyph-name="Aacute" unicode="&#xc1;" horiz-adv-x="582" d="M531 101 C531 125 531 149 532 173 C536 237 535 297 529 358 C525 389 517 419 511 449 C507 476 503 504 492 528 C483 548 463 555 438 557 C411 560 390 543 365 521 C297 463 240 385 187 316 C166 287 28 115 4 31 C-3 5 0 -13 22 -14 C45 -17 66 -5 82 19 C101 47 110 70 126 96 C131 103 136 111 140 118 C212 129 289 144 362 150 C384 153 410 153 437 159 C436 128 438 75 443 48 C449 23 463 8 480 8 C493 8 508 17 522 39 C533 58 531 80 531 101 L531 101 Z M363 246 C331 242 307 239 274 233 C256 230 237 228 218 225 C241 255 262 284 284 313 C311 347 373 423 405 449 C416 393 429 322 434 255 C405 253 384 249 363 246 L363 246 Z M399 653 C380 645 360 634 346 620 C338 611 337 603 344 597 C350 589 372 592 384 593 C424 597 491 620 531 640 C544 646 560 655 571 666 C581 675 580 684 576 690 C568 706 540 700 520 693 C489 680 430 666 399 653 L399 653 Z " />
<glyph glyph-name="Acircumflex" unicode="&#xc2;" horiz-adv-x="582" d="M531 101 C531 125 531 149 532 173 C536 237 535 297 529 358 C525 389 517 419 511 449 C507 476 503 504 492 528 C483 548 463 555 438 557 C411 560 390 543 365 521 C297 463 240 385 187 316 C166 287 28 115 4 31 C-3 5 0 -13 22 -14 C45 -17 66 -5 82 19 C101 47 110 70 126 96 C131 103 136 111 140 118 C212 129 289 144 362 150 C384 153 410 153 437 159 C436 128 438 75 443 48 C449 23 463 8 480 8 C493 8 508 17 522 39 C533 58 531 80 531 101 L531 101 Z M363 246 C331 242 307 239 274 233 C256 230 237 228 218 225 C241 255 262 284 284 313 C311 347 373 423 405 449 C416 393 429 322 434 255 C405 253 384 249 363 246 L363 246 Z M579 630 C559 658 526 711 484 711 C434 711 335 618 313 596 C309 592 306 589 306 586 C304 579 313 568 326 568 C380 568 427 643 474 654 C508 629 520 570 556 570 C571 570 577 581 580 592 C585 607 586 617 579 630 L579 630 Z " />
<glyph glyph-name="Atilde" unicode="&#xc3;" horiz-adv-x="582" d="M531 101 C531 125 531 149 532 173 C536 237 535 297 529 358 C525 389 517 419 511 449 C507 476 503 504 492 528 C483 548 463 555 438 557 C411 560 390 543 365 521 C297 463 240 385 187 316 C166 287 28 115 4 31 C-3 5 0 -13 22 -14 C45 -17 66 -5 82 19 C101 47 110 70 126 96 C131 103 136 111 140 118 C212 129 289 144 362 150 C384 153 410 153 437 159 C436 128 438 75 443 48 C449 23 463 8 480 8 C493 8 508 17 522 39 C533 58 531 80 531 101 L531 101 Z M363 246 C331 242 307 239 274 233 C256 230 237 228 218 225 C241 255 262 284 284 313 C311 347 373 423 405 449 C416 393 429 322 434 255 C405 253 384 249 363 246 L363 246 Z M356 702 C327 676 312 648 302 614 C298 601 305 582 320 582 C342 582 347 598 357 613 C362 625 396 672 425 672 C437 672 446 644 450 629 C456 612 458 584 493 584 C504 584 516 586 525 590 C566 610 623 662 635 705 C639 720 635 738 617 738 C574 738 557 652 511 652 C502 652 496 676 492 690 C485 712 480 740 454 740 C446 740 388 729 356 702 L356 702 Z " />
<glyph glyph-name="Adieresis" unicode="&#xc4;" horiz-adv-x="582" d="M531 101 C531 125 531 149 532 173 C536 237 535 297 529 358 C525 389 517 419 511 449 C507 476 503 504 492 528 C483 548 463 555 438 557 C411 560 390 543 365 521 C297 463 240 385 187 316 C166 287 28 115 4 31 C-3 5 0 -13 22 -14 C45 -17 66 -5 82 19 C101 47 110 70 126 96 C131 103 136 111 140 118 C212 129 289 144 362 150 C384 153 410 153 437 159 C436 128 438 75 443 48 C449 23 463 8 480 8 C493 8 508 17 522 39 C533 58 531 80 531 101 L531 101 Z M363 246 C331 242 307 239 274 233 C256 230 237 228 218 225 C241 255 262 284 284 313 C311 347 373 423 405 449 C416 393 429 322 434 255 C405 253 384 249 363 246 L363 246 Z M595 672 C587 677 577 673 565 671 C518 650 505 651 496 620 C489 597 497 582 520 582 C532 582 537 588 547 594 C554 600 595 614 605 649 C608 659 602 670 595 672 L595 672 Z M443 652 C437 658 430 666 419 666 C364 666 340 626 342 629 C340 624 339 620 337 614 C331 593 349 582 367 582 C392 587 442 624 447 641 C448 645 447 651 443 652 L443 652 Z " />
<glyph glyph-name="Aring" unicode="&#xc5;" horiz-adv-x="582" d="M550 692 C543 709 522 713 506 720 C501 721 493 722 486 722 C441 721 378 692 345 652 C321 623 327 588 338 564 C344 550 353 539 367 533 L353 521 C286 463 228 385 176 316 C154 287 16 115 -7 31 C-15 5 -11 -13 10 -14 C33 -17 54 -5 70 19 C89 47 98 70 114 96 C119 103 125 111 129 118 C200 129 277 144 350 150 C372 153 398 153 425 159 C425 128 426 75 432 48 C437 23 451 8 468 8 C481 8 496 17 510 39 C522 58 519 80 519 101 L520 173 C524 237 523 297 518 358 C513 389 505 419 500 449 C495 476 491 504 480 528 C478 533 475 537 471 541 C481 547 491 554 500 562 C527 583 546 610 553 636 C559 655 558 674 550 692 L550 692 Z M351 246 C319 242 295 239 263 233 L206 225 L273 313 C299 347 361 423 394 449 C405 393 417 322 422 255 C393 253 372 249 351 246 L351 246 Z M476 617 C459 585 425 572 404 593 C394 602 393 616 406 630 C417 642 439 652 455 655 C458 656 493 663 491 655 C487 642 483 629 476 617 L476 617 Z " />
<glyph glyph-name="AE" unicode="&#xc6;" horiz-adv-x="761" d="M134 94 C171 91 206 98 243 101 C271 101 300 101 328 105 L322 84 C305 32 310 -16 367 -13 C396 -12 419 0 447 5 C473 10 573 19 599 22 C625 23 656 32 682 43 C700 49 722 72 721 96 C720 112 699 115 685 115 C672 115 659 119 614 111 C570 103 451 96 407 92 C416 122 419 125 428 147 C437 171 441 184 446 207 L490 216 C511 220 620 230 647 229 C669 228 697 229 724 241 C741 248 750 262 752 281 C755 313 710 319 668 319 C606 319 541 313 475 305 C483 331 489 367 495 379 C502 405 514 423 520 446 C567 458 700 468 746 466 C771 464 789 460 817 480 C843 498 844 515 834 535 C826 552 758 556 729 556 C674 556 612 554 553 543 C537 539 521 539 504 536 C499 536 491 534 484 532 C454 521 433 493 408 471 C380 445 351 415 324 389 C293 360 214 281 185 251 C135 201 84 148 37 96 C11 69 -46 5 -18 -17 C-8 -23 22 -13 35 -7 C54 3 74 29 88 46 C102 62 115 78 130 94 L134 94 Z M237 207 C280 250 356 324 411 378 L411 376 C397 326 382 272 373 234 L365 206 C322 198 280 197 237 193 C231 192 226 191 221 191 L237 207 Z " />
<glyph glyph-name="Ccedilla" unicode="&#xc7;" horiz-adv-x="552" d="M321 -33 C320 -25 319 -18 317 -12 C347 -7 375 2 402 16 C422 27 444 45 462 58 C494 83 531 144 490 155 C473 160 463 147 449 138 C393 103 348 71 288 71 C262 72 229 74 206 81 C176 92 154 111 146 140 C135 173 140 220 154 255 C167 290 191 322 216 353 C234 376 271 402 295 422 C313 434 370 460 391 467 C410 473 459 482 472 475 C506 454 493 450 508 427 C516 416 545 410 558 415 C604 436 597 498 577 519 C561 535 549 546 526 553 C513 559 492 561 473 561 C432 561 397 551 361 537 C296 513 229 472 180 422 C141 381 97 341 79 292 C74 278 68 264 64 250 C53 211 48 169 52 133 C55 89 83 43 117 13 C142 -9 180 -16 217 -18 C218 -21 218 -24 219 -27 C221 -36 237 -51 234 -62 C231 -71 201 -88 193 -90 C180 -94 177 -90 168 -86 C148 -77 138 -71 114 -77 C95 -82 59 -103 65 -126 C70 -147 98 -160 115 -165 C164 -179 237 -156 287 -108 C310 -86 323 -59 321 -33 L321 -33 Z " />
<glyph glyph-name="Egrave" unicode="&#xc8;" horiz-adv-x="487" d="M534 480 C560 498 561 515 552 535 C544 552 475 556 446 556 C391 556 330 554 270 543 C247 538 219 539 197 528 C174 515 162 480 155 458 C146 436 137 407 128 376 C114 326 100 272 91 234 C76 180 56 138 40 84 C23 32 28 -16 85 -13 C113 -12 137 0 164 5 C191 10 290 19 317 22 C342 23 374 32 400 43 C418 49 439 72 438 96 C438 112 417 115 403 115 C390 115 377 119 331 111 C287 103 168 96 125 92 C134 122 136 125 146 147 C155 171 158 184 164 207 C182 211 190 212 208 216 C229 220 338 230 364 229 C387 228 414 229 442 241 C459 248 468 262 469 281 C472 313 427 319 385 319 C323 319 258 313 192 305 C201 331 207 367 212 379 C220 405 232 423 238 446 C285 458 418 468 463 466 C489 464 507 460 534 480 L534 480 Z M342 638 C366 625 417 609 440 596 C456 588 480 583 498 599 C505 605 512 616 507 623 C503 634 490 643 481 649 C453 669 399 693 361 696 C350 697 330 700 318 692 C308 685 304 678 308 670 C315 654 328 645 342 638 L342 638 Z " />
<glyph glyph-name="Eacute" unicode="&#xc9;" horiz-adv-x="487" d="M534 480 C507 460 489 464 463 466 C418 468 285 458 238 446 C232 423 220 405 212 379 C207 367 201 331 192 305 C258 313 323 319 385 319 C427 319 472 313 469 281 C468 262 459 248 442 241 C414 229 387 228 364 229 C338 230 229 220 208 216 C190 212 182 211 164 207 C158 184 155 171 146 147 C136 125 134 122 125 92 C168 96 287 103 331 111 C377 119 390 115 403 115 C417 115 438 112 438 96 C439 72 418 49 400 43 C374 32 342 23 317 22 C290 19 191 10 164 5 C137 0 113 -12 85 -13 C28 -16 23 32 40 84 C56 138 76 180 91 234 C100 272 114 326 128 376 C137 407 146 436 155 458 C162 480 174 515 197 528 C219 539 247 538 270 543 C330 554 391 556 446 556 C475 556 544 552 552 535 C561 515 560 498 534 480 L534 480 Z M367 645 C348 637 328 626 314 612 C306 603 305 595 312 589 C318 581 340 584 352 585 C392 589 459 612 499 632 C512 638 528 647 539 658 C549 667 548 676 544 682 C536 698 508 692 488 685 C457 672 398 658 367 645 L367 645 Z " />
<glyph glyph-name="Ecircumflex" unicode="&#xca;" horiz-adv-x="487" d="M534 480 C507 460 489 464 463 466 C418 468 285 458 238 446 C232 423 220 405 212 379 C207 367 201 331 192 305 C258 313 323 319 385 319 C427 319 472 313 469 281 C468 262 459 248 442 241 C414 229 387 228 364 229 C338 230 229 220 208 216 C190 212 182 211 164 207 C158 184 155 171 146 147 C136 125 134 122 125 92 C168 96 287 103 331 111 C377 119 390 115 403 115 C417 115 438 112 438 96 C439 72 418 49 400 43 C374 32 342 23 317 22 C290 19 191 10 164 5 C137 0 113 -12 85 -13 C28 -16 23 32 40 84 C56 138 76 180 91 234 C100 272 114 326 128 376 C137 407 146 436 155 458 C162 480 174 515 197 528 C219 539 247 538 270 543 C330 554 391 556 446 556 C475 556 544 552 552 535 C561 515 560 498 534 480 L534 480 Z M545 651 C525 679 492 732 450 732 C400 732 301 639 279 617 C275 613 272 610 272 607 C270 600 279 589 292 589 C346 589 393 664 440 675 C474 650 486 591 522 591 C537 591 543 602 546 613 C551 628 552 638 545 651 L545 651 Z " />
<glyph glyph-name="Edieresis" unicode="&#xcb;" horiz-adv-x="487" d="M534 480 C560 498 561 515 552 535 C544 552 475 556 446 556 C391 556 330 554 270 543 C247 538 219 539 197 528 C174 515 162 480 155 458 C146 436 137 407 128 376 C114 326 100 272 91 234 C76 180 56 138 40 84 C23 32 28 -16 85 -13 C113 -12 137 0 164 5 C191 10 290 19 317 22 C342 23 374 32 400 43 C418 49 439 72 438 96 C438 112 417 115 403 115 C390 115 377 119 331 111 C287 103 168 96 125 92 C134 122 136 125 146 147 C155 171 158 184 164 207 C182 211 190 212 208 216 C229 220 338 230 364 229 C387 228 414 229 442 241 C459 248 468 262 469 281 C472 313 427 319 385 319 C323 319 258 313 192 305 C201 331 207 367 212 379 C220 405 232 423 238 446 C285 458 418 468 463 466 C489 464 507 460 534 480 L534 480 Z M528 680 C520 685 510 681 498 679 C451 658 438 659 429 628 C422 605 430 590 453 590 C465 590 470 596 480 602 C487 608 528 622 538 657 C541 667 535 678 528 680 L528 680 Z M376 660 C370 666 363 674 352 674 C297 674 273 634 275 637 C273 632 272 628 270 622 C264 601 282 590 300 590 C325 595 375 632 380 649 C381 653 380 659 376 660 L376 660 Z " />
<glyph glyph-name="Igrave" unicode="&#xcc;" horiz-adv-x="467" d="M403 47 C404 59 398 71 386 78 C376 84 362 85 348 85 C323 85 297 81 267 78 C261 94 278 149 284 172 C295 209 300 246 311 284 C323 325 336 363 351 403 C355 415 368 447 368 447 C368 447 368 447 390 450 C427 456 465 449 502 467 C518 475 527 493 529 508 C531 525 522 537 510 544 C500 551 487 553 474 553 C451 553 424 547 401 543 C326 534 348 534 274 534 C255 534 195 534 174 520 C160 509 151 487 148 475 C146 459 156 450 167 444 C177 436 189 434 202 434 C206 434 269 436 269 436 C269 436 255 390 246 359 C234 319 223 279 211 238 C200 198 192 159 181 119 C178 106 176 87 176 70 C147 68 122 68 91 71 C79 71 65 67 52 63 C34 57 23 43 14 27 C7 14 11 1 15 -10 C28 -39 111 -27 145 -22 C188 -17 344 -28 383 5 C394 13 401 36 403 47 L403 47 Z M306 637 C330 624 381 608 404 595 C420 587 444 582 462 598 C469 604 476 615 471 622 C467 633 454 642 445 648 C417 668 363 692 325 695 C314 696 294 699 282 691 C272 684 268 677 272 669 C279 653 292 644 306 637 L306 637 Z " />
<glyph glyph-name="Iacute" unicode="&#xcd;" horiz-adv-x="467" d="M403 47 C401 36 394 13 383 5 C344 -28 188 -17 145 -22 C111 -27 28 -39 15 -10 C11 1 7 14 14 27 C23 43 34 57 52 63 C65 67 79 71 91 71 C122 68 147 68 176 70 C176 87 178 106 181 119 C192 159 200 198 211 238 C223 279 234 319 246 359 C255 390 269 436 269 436 C269 436 206 434 202 434 C189 434 177 436 167 444 C156 450 146 459 148 475 C151 487 160 509 174 520 C195 534 255 534 274 534 C348 534 326 534 401 543 C424 547 451 553 474 553 C487 553 500 551 510 544 C522 537 531 525 529 508 C527 493 518 475 502 467 C465 449 427 456 390 450 C368 447 368 447 368 447 C368 447 355 415 351 403 C336 363 323 325 311 284 C300 246 295 209 284 172 C278 149 261 94 267 78 C297 81 323 85 348 85 C362 85 376 84 386 78 C398 71 404 59 403 47 L403 47 Z M311 637 C292 629 272 618 258 604 C250 595 249 587 256 581 C262 573 284 576 296 577 C336 581 403 604 443 624 C456 630 472 639 483 650 C493 659 492 668 488 674 C480 690 452 684 432 677 C401 664 342 650 311 637 L311 637 Z " />
<glyph glyph-name="Icircumflex" unicode="&#xce;" horiz-adv-x="467" d="M403 47 C401 36 394 13 383 5 C344 -28 188 -17 145 -22 C111 -27 28 -39 15 -10 C11 1 7 14 14 27 C23 43 34 57 52 63 C65 67 79 71 91 71 C122 68 147 68 176 70 C176 87 178 106 181 119 C192 159 200 198 211 238 C223 279 234 319 246 359 C255 390 269 436 269 436 C269 436 206 434 202 434 C189 434 177 436 167 444 C156 450 146 459 148 475 C151 487 160 509 174 520 C195 534 255 534 274 534 C348 534 326 534 401 543 C424 547 451 553 474 553 C487 553 500 551 510 544 C522 537 531 525 529 508 C527 493 518 475 502 467 C465 449 427 456 390 450 C368 447 368 447 368 447 C368 447 355 415 351 403 C336 363 323 325 311 284 C300 246 295 209 284 172 C278 149 261 94 267 78 C297 81 323 85 348 85 C362 85 376 84 386 78 C398 71 404 59 403 47 L403 47 Z M504 636 C484 664 451 717 409 717 C359 717 260 624 238 602 C234 598 231 595 231 592 C229 585 238 574 251 574 C305 574 352 649 399 660 C433 635 445 576 481 576 C496 576 502 587 505 598 C510 613 511 623 504 636 L504 636 Z " />
<glyph glyph-name="Idieresis" unicode="&#xcf;" horiz-adv-x="467" d="M403 47 C404 59 398 71 386 78 C376 84 362 85 348 85 C323 85 297 81 267 78 C261 94 278 149 284 172 C295 209 300 246 311 284 C323 325 336 363 351 403 C355 415 368 447 368 447 C368 447 368 447 390 450 C427 456 465 449 502 467 C518 475 527 493 529 508 C531 525 522 537 510 544 C500 551 487 553 474 553 C451 553 424 547 401 543 C326 534 348 534 274 534 C255 534 195 534 174 520 C160 509 151 487 148 475 C146 459 156 450 167 444 C177 436 189 434 202 434 C206 434 269 436 269 436 C269 436 255 390 246 359 C234 319 223 279 211 238 C200 198 192 159 181 119 C178 106 176 87 176 70 C147 68 122 68 91 71 C79 71 65 67 52 63 C34 57 23 43 14 27 C7 14 11 1 15 -10 C28 -39 111 -27 145 -22 C188 -17 344 -28 383 5 C394 13 401 36 403 47 L403 47 Z M493 674 C485 679 475 675 463 673 C416 652 403 653 394 622 C387 599 395 584 418 584 C430 584 435 590 445 596 C452 602 493 616 503 651 C506 661 500 672 493 674 L493 674 Z M341 654 C335 660 328 668 317 668 C262 668 238 628 240 631 C238 626 237 622 235 616 C229 595 247 584 265 584 C290 589 340 626 345 643 C346 647 345 653 341 654 L341 654 Z " />
<glyph glyph-name="Eth" unicode="&#xd0;" horiz-adv-x="555" d="M593 420 C596 462 566 493 542 519 C522 541 489 548 456 556 C440 561 423 562 405 562 C385 562 364 560 341 556 C322 552 305 547 286 544 C269 543 252 546 232 542 C216 538 191 525 181 507 C172 491 173 477 171 462 C161 426 152 394 144 361 C140 340 136 319 130 298 L124 298 C108 298 91 298 74 286 C58 275 32 226 50 219 C61 214 77 212 90 211 C95 211 100 210 106 210 L102 197 C86 139 72 91 63 41 C61 26 55 9 64 -1 C74 -16 93 -19 113 -19 C127 -19 142 -17 156 -16 C177 -13 197 -6 215 -4 C234 -1 263 8 282 16 C333 34 402 67 446 119 C462 138 481 154 509 191 C542 231 556 265 573 309 C588 348 591 384 593 420 L593 420 Z M306 324 L222 308 C240 372 261 450 261 450 C289 451 392 478 392 478 C483 467 502 427 506 406 C508 393 508 370 498 337 C493 317 483 294 470 269 C435 206 381 147 303 114 C242 85 151 83 151 83 C151 83 179 164 194 214 C227 218 259 225 287 236 C299 240 316 246 328 256 C349 272 365 308 343 318 C332 324 321 326 306 324 L306 324 Z " />
<glyph glyph-name="Ntilde" unicode="&#xd1;" horiz-adv-x="587" d="M104 283 C98 262 95 243 90 221 C72 157 58 108 39 61 C28 32 23 -8 55 -14 C107 -21 125 64 136 93 C155 158 168 204 181 250 C191 283 196 317 206 350 C208 356 210 359 211 363 C232 340 253 318 267 290 C289 233 327 175 355 120 C373 80 397 42 407 3 C410 -12 425 -19 441 -17 C483 -7 492 23 502 56 C510 93 519 132 531 171 C549 236 570 304 592 369 C599 384 603 400 610 416 C618 433 626 453 633 469 C650 504 652 544 639 551 C623 557 608 565 590 556 C576 548 570 541 561 528 C550 513 543 491 539 475 C532 455 526 436 520 415 C509 379 498 345 485 310 C469 272 453 232 443 195 C426 226 417 237 404 260 C371 328 332 383 300 440 C290 456 280 473 248 499 C228 515 198 527 171 506 C150 489 142 464 138 442 C128 389 119 335 104 283 L104 283 Z M326 651 C297 625 282 597 272 563 C268 550 275 531 290 531 C312 531 317 547 327 562 C332 574 366 621 395 621 C407 621 416 593 420 578 C426 561 428 533 463 533 C474 533 486 535 495 539 C536 559 593 611 605 654 C609 669 605 687 587 687 C544 687 527 601 481 601 C472 601 466 625 462 639 C455 661 450 689 424 689 C416 689 358 678 326 651 L326 651 Z " />
<glyph glyph-name="Ograve" unicode="&#xd2;" horiz-adv-x="678" d="M682 299 C686 331 692 369 685 400 C682 419 676 438 668 454 C656 477 642 498 631 520 C622 535 612 552 596 559 C574 568 544 571 521 574 C492 574 461 568 434 561 C377 548 320 524 268 490 C225 463 188 428 158 385 C132 349 100 313 82 274 C70 253 62 231 56 209 C50 190 47 172 46 153 C46 129 49 105 53 83 C57 57 76 45 92 28 C116 7 170 -25 201 -28 C216 -30 230 -31 246 -31 C277 -31 309 -27 339 -21 C361 -17 387 -10 407 -3 C435 9 459 26 484 41 C540 74 581 112 621 160 C653 199 677 251 682 299 L682 299 Z M528 189 C457 119 364 70 273 70 C256 70 240 71 223 75 C205 80 187 92 172 101 C159 109 145 119 139 134 C132 153 133 176 139 198 C145 216 152 235 162 251 C187 294 216 322 253 354 C290 384 328 416 369 438 C409 460 460 464 499 460 C517 458 534 449 549 438 C581 419 600 378 601 335 C602 318 598 299 594 281 C586 244 556 216 528 189 L528 189 Z M462 659 C486 646 537 630 560 617 C576 609 600 604 618 620 C625 626 632 637 627 644 C623 655 610 664 601 670 C573 690 519 714 481 717 C470 718 450 721 438 713 C428 706 424 699 428 691 C435 675 448 666 462 659 L462 659 Z " />
<glyph glyph-name="Oacute" unicode="&#xd3;" horiz-adv-x="678" d="M682 299 C686 331 692 369 685 400 C682 419 676 438 668 454 C656 477 642 498 631 520 C622 535 612 552 596 559 C574 568 544 571 521 574 C492 574 461 568 434 561 C377 548 320 524 268 490 C225 463 188 428 158 385 C132 349 100 313 82 274 C70 253 62 231 56 209 C50 190 47 172 46 153 C46 129 49 105 53 83 C57 57 76 45 92 28 C116 7 170 -25 201 -28 C216 -30 230 -31 246 -31 C277 -31 309 -27 339 -21 C361 -17 387 -10 407 -3 C435 9 459 26 484 41 C540 74 581 112 621 160 C653 199 677 251 682 299 L682 299 Z M528 189 C457 119 364 70 273 70 C256 70 240 71 223 75 C205 80 187 92 172 101 C159 109 145 119 139 134 C132 153 133 176 139 198 C145 216 152 235 162 251 C187 294 216 322 253 354 C290 384 328 416 369 438 C409 460 460 464 499 460 C517 458 534 449 549 438 C581 419 600 378 601 335 C602 318 598 299 594 281 C586 244 556 216 528 189 L528 189 Z M454 666 C435 658 415 647 401 633 C393 624 392 616 399 610 C405 602 427 605 439 606 C479 610 546 633 586 653 C599 659 615 668 626 679 C636 688 635 697 631 703 C623 719 595 713 575 706 C544 693 485 679 454 666 L454 666 Z " />
<glyph glyph-name="Ocircumflex" unicode="&#xd4;" horiz-adv-x="678" d="M682 299 C686 331 692 369 685 400 C682 419 676 438 668 454 C656 477 642 498 631 520 C622 535 612 552 596 559 C574 568 544 571 521 574 C492 574 461 568 434 561 C377 548 320 524 268 490 C225 463 188 428 158 385 C132 349 100 313 82 274 C70 253 62 231 56 209 C50 190 47 172 46 153 C46 129 49 105 53 83 C57 57 76 45 92 28 C116 7 170 -25 201 -28 C216 -30 230 -31 246 -31 C277 -31 309 -27 339 -21 C361 -17 387 -10 407 -3 C435 9 459 26 484 41 C540 74 581 112 621 160 C653 199 677 251 682 299 L682 299 Z M528 189 C457 119 364 70 273 70 C256 70 240 71 223 75 C205 80 187 92 172 101 C159 109 145 119 139 134 C132 153 133 176 139 198 C145 216 152 235 162 251 C187 294 216 322 253 354 C290 384 328 416 369 438 C409 460 460 464 499 460 C517 458 534 449 549 438 C581 419 600 378 601 335 C602 318 598 299 594 281 C586 244 556 216 528 189 L528 189 Z M652 659 C632 687 599 740 557 740 C507 740 408 647 386 625 C382 621 379 618 379 615 C377 608 386 597 399 597 C453 597 500 672 547 683 C581 658 593 599 629 599 C644 599 650 610 653 621 C658 636 659 646 652 659 L652 659 Z " />
<glyph glyph-name="Otilde" unicode="&#xd5;" horiz-adv-x="678" d="M682 299 C686 331 692 369 685 400 C682 419 676 438 668 454 C656 477 642 498 631 520 C622 535 612 552 596 559 C574 568 544 571 521 574 C492 574 461 568 434 561 C377 548 320 524 268 490 C225 463 188 428 158 385 C132 349 100 313 82 274 C70 253 62 231 56 209 C50 190 47 172 46 153 C46 129 49 105 53 83 C57 57 76 45 92 28 C116 7 170 -25 201 -28 C216 -30 230 -31 246 -31 C277 -31 309 -27 339 -21 C361 -17 387 -10 407 -3 C435 9 459 26 484 41 C540 74 581 112 621 160 C653 199 677 251 682 299 L682 299 Z M528 189 C457 119 364 70 273 70 C256 70 240 71 223 75 C205 80 187 92 172 101 C159 109 145 119 139 134 C132 153 133 176 139 198 C145 216 152 235 162 251 C187 294 216 322 253 354 C290 384 328 416 369 438 C409 460 460 464 499 460 C517 458 534 449 549 438 C581 419 600 378 601 335 C602 318 598 299 594 281 C586 244 556 216 528 189 L528 189 Z M429 729 C400 703 385 675 375 641 C371 628 378 609 393 609 C415 609 420 625 430 640 C435 652 469 699 498 699 C510 699 519 671 523 656 C529 639 531 611 566 611 C577 611 589 613 598 617 C639 637 696 689 708 732 C712 747 708 765 690 765 C647 765 630 679 584 679 C575 679 569 703 565 717 C558 739 553 767 527 767 C519 767 461 756 429 729 L429 729 Z " />
<glyph glyph-name="Odieresis" unicode="&#xd6;" horiz-adv-x="678" d="M682 299 C686 331 692 369 685 400 C682 419 676 438 668 454 C656 477 642 498 631 520 C622 535 612 552 596 559 C574 568 544 571 521 574 C492 574 461 568 434 561 C377 548 320 524 268 490 C225 463 188 428 158 385 C132 349 100 313 82 274 C70 253 62 231 56 209 C50 190 47 172 46 153 C46 129 49 105 53 83 C57 57 76 45 92 28 C116 7 170 -25 201 -28 C216 -30 230 -31 246 -31 C277 -31 309 -27 339 -21 C361 -17 387 -10 407 -3 C435 9 459 26 484 41 C540 74 581 112 621 160 C653 199 677 251 682 299 L682 299 Z M528 189 C457 119 364 70 273 70 C256 70 240 71 223 75 C205 80 187 92 172 101 C159 109 145 119 139 134 C132 153 133 176 139 198 C145 216 152 235 162 251 C187 294 216 322 253 354 C290 384 328 416 369 438 C409 460 460 464 499 460 C517 458 534 449 549 438 C581 419 600 378 601 335 C602 318 598 299 594 281 C586 244 556 216 528 189 L528 189 Z M675 693 C667 698 657 694 645 692 C598 671 585 672 576 641 C569 618 577 603 600 603 C612 603 617 609 627 615 C634 621 675 635 685 670 C688 680 682 691 675 693 L675 693 Z M523 673 C517 679 510 687 499 687 C444 687 420 647 422 650 C420 645 419 641 417 635 C411 614 429 603 447 603 C472 608 522 645 527 662 C528 666 527 672 523 673 L523 673 Z " />
<glyph glyph-name="multiply" unicode="&#xd7;" horiz-adv-x="334" d="M375 383 C369 399 363 408 340 406 C322 404 305 394 288 380 C261 358 236 335 211 314 C204 330 197 345 189 361 C184 373 180 397 166 403 C156 408 126 396 116 387 C83 357 92 319 109 293 C116 276 125 260 132 241 C104 219 7 147 40 110 C49 102 67 101 83 107 C100 112 111 126 126 139 C139 152 154 163 167 175 C173 163 179 153 185 141 C191 132 196 120 203 111 C213 97 226 86 252 94 C265 100 283 101 289 119 C305 158 283 182 266 210 C259 221 252 231 246 241 C283 274 320 303 353 337 C371 353 381 366 375 383 L375 383 Z " />
<glyph glyph-name="Oslash" unicode="&#xd8;" horiz-adv-x="678" d="M683 299 C686 331 693 369 686 400 C682 419 677 438 668 454 C658 474 644 493 634 513 C660 540 684 568 681 599 C678 619 663 622 641 612 C618 602 602 582 585 563 C564 569 541 571 522 574 C493 574 461 568 434 561 C377 548 320 524 269 490 C226 463 189 428 158 385 C132 349 101 313 83 274 C71 253 62 231 56 209 C51 190 47 172 46 153 C46 129 49 105 54 83 C57 57 76 45 92 28 C98 23 105 17 114 11 C90 -21 63 -65 88 -80 C99 -85 129 -72 141 -65 C156 -56 170 -39 181 -23 C189 -26 195 -27 201 -28 C216 -30 230 -31 246 -31 C277 -31 309 -27 339 -21 C361 -17 387 -10 407 -3 C436 9 460 26 485 41 C540 74 581 112 621 160 C653 199 677 251 683 299 L683 299 Z M528 189 C457 119 364 70 273 70 L252 70 C276 101 301 131 328 160 L559 430 C585 409 600 373 601 335 C602 318 599 299 595 281 C586 244 556 216 528 189 L528 189 Z M491 459 C463 428 297 230 270 198 C240 164 210 130 181 95 L172 101 C159 109 145 119 140 134 C132 153 134 176 140 198 C145 216 152 235 162 251 C187 294 216 322 254 354 C290 384 328 416 370 438 C407 459 454 464 492 461 C492 460 491 459 491 459 L491 459 Z " />
<glyph glyph-name="Ugrave" unicode="&#xd9;" horiz-adv-x="579" d="M86 241 C77 193 47 80 68 41 C89 1 99 -8 149 -19 C190 -31 297 -6 343 10 C389 27 454 39 479 94 C498 142 523 193 537 242 C553 296 580 349 600 405 C608 429 619 453 629 477 C643 506 653 524 638 548 C628 564 600 573 580 555 C563 541 547 511 537 491 C513 440 495 381 479 326 C462 273 442 217 422 167 C410 136 368 114 339 106 C309 98 282 94 253 91 C193 81 163 128 167 176 C170 212 180 253 191 292 C196 308 201 325 206 339 C218 374 235 412 246 450 C250 464 254 478 255 493 C257 512 240 535 221 541 C194 551 175 517 167 497 C150 455 138 414 124 372 C115 343 105 312 97 282 C92 268 89 255 86 241 L86 241 Z M321 563 C345 550 396 534 419 521 C435 513 459 508 477 524 C484 530 491 541 486 548 C482 559 469 568 460 574 C432 594 378 618 340 621 C329 622 309 625 297 617 C287 610 283 603 287 595 C294 579 307 570 321 563 L321 563 Z " />
<glyph glyph-name="Uacute" unicode="&#xda;" horiz-adv-x="579" d="M86 241 C77 193 47 80 68 41 C89 1 99 -8 149 -19 C190 -31 297 -6 343 10 C389 27 454 39 479 94 C498 142 523 193 537 242 C553 296 580 349 600 405 C608 429 619 453 629 477 C643 506 653 524 638 548 C628 564 600 573 580 555 C563 541 547 511 537 491 C513 440 495 381 479 326 C462 273 442 217 422 167 C410 136 368 114 339 106 C309 98 282 94 253 91 C193 81 163 128 167 176 C170 212 180 253 191 292 C196 308 201 325 206 339 C218 374 235 412 246 450 C250 464 254 478 255 493 C257 512 240 535 221 541 C194 551 175 517 167 497 C150 455 138 414 124 372 C115 343 105 312 97 282 C92 268 89 255 86 241 L86 241 Z M386 608 C367 600 347 589 333 575 C325 566 324 558 331 552 C337 544 359 547 371 548 C411 552 478 575 518 595 C531 601 547 610 558 621 C568 630 567 639 563 645 C555 661 527 655 507 648 C476 635 417 621 386 608 L386 608 Z " />
<glyph glyph-name="Ucircumflex" unicode="&#xdb;" horiz-adv-x="579" d="M86 241 C77 193 47 80 68 41 C89 1 99 -8 149 -19 C190 -31 297 -6 343 10 C389 27 454 39 479 94 C498 142 523 193 537 242 C553 296 580 349 600 405 C608 429 619 453 629 477 C643 506 653 524 638 548 C628 564 600 573 580 555 C563 541 547 511 537 491 C513 440 495 381 479 326 C462 273 442 217 422 167 C410 136 368 114 339 106 C309 98 282 94 253 91 C193 81 163 128 167 176 C170 212 180 253 191 292 C196 308 201 325 206 339 C218 374 235 412 246 450 C250 464 254 478 255 493 C257 512 240 535 221 541 C194 551 175 517 167 497 C150 455 138 414 124 372 C115 343 105 312 97 282 C92 268 89 255 86 241 L86 241 Z M554 637 C534 665 501 718 459 718 C409 718 310 625 288 603 C284 599 281 596 281 593 C279 586 288 575 301 575 C355 575 402 650 449 661 C483 636 495 577 531 577 C546 577 552 588 555 599 C560 614 561 624 554 637 L554 637 Z " />
<glyph glyph-name="Udieresis" unicode="&#xdc;" horiz-adv-x="579" d="M86 241 C77 193 47 80 68 41 C89 1 99 -8 149 -19 C190 -31 297 -6 343 10 C389 27 454 39 479 94 C498 142 523 193 537 242 C553 296 580 349 600 405 C608 429 619 453 629 477 C643 506 653 524 638 548 C628 564 600 573 580 555 C563 541 547 511 537 491 C513 440 495 381 479 326 C462 273 442 217 422 167 C410 136 368 114 339 106 C309 98 282 94 253 91 C193 81 163 128 167 176 C170 212 180 253 191 292 C196 308 201 325 206 339 C218 374 235 412 246 450 C250 464 254 478 255 493 C257 512 240 535 221 541 C194 551 175 517 167 497 C150 455 138 414 124 372 C115 343 105 312 97 282 C92 268 89 255 86 241 L86 241 Z M555 648 C547 653 537 649 525 647 C478 626 465 627 456 596 C449 573 457 558 480 558 C492 558 497 564 507 570 C514 576 555 590 565 625 C568 635 562 646 555 648 L555 648 Z M403 628 C397 634 390 642 379 642 C324 642 300 602 302 605 C300 600 299 596 297 590 C291 569 309 558 327 558 C352 563 402 600 407 617 C408 621 407 627 403 628 L403 628 Z " />
<glyph glyph-name="Yacute" unicode="&#xdd;" horiz-adv-x="539" d="M638 537 C633 519 623 500 609 484 C567 429 517 376 475 319 C454 291 436 262 415 234 C394 207 373 181 352 154 C320 116 293 76 257 41 C227 13 196 -34 160 -17 C142 -9 136 0 145 23 C152 41 165 57 178 72 C207 108 232 140 259 171 C267 182 296 222 306 234 C292 247 285 256 275 266 C255 288 238 313 217 333 C194 358 178 380 152 404 C132 424 119 442 119 474 C120 495 128 513 146 526 C166 539 179 532 195 522 C230 496 266 456 288 419 C302 390 331 366 353 342 C359 336 365 328 372 322 C399 356 404 363 431 397 C459 430 491 471 520 502 C544 528 565 560 601 564 C624 565 646 562 638 537 L638 537 Z M362 596 C343 588 323 577 309 563 C301 554 300 546 307 540 C313 532 335 535 347 536 C387 540 454 563 494 583 C507 589 523 598 534 609 C544 618 543 627 539 633 C531 649 503 643 483 636 C452 623 393 609 362 596 L362 596 Z " />
<glyph glyph-name="Thorn" unicode="&#xde;" horiz-adv-x="497" d="M517 330 C521 348 516 376 504 388 C496 397 483 405 472 410 C453 419 435 428 413 431 C387 434 360 436 334 436 C301 436 266 433 233 431 C237 450 243 470 246 489 C251 515 249 531 244 553 C238 578 218 581 194 562 C185 556 171 544 165 534 C157 513 158 494 157 475 C155 455 151 436 146 416 C141 400 138 383 133 365 C124 325 114 284 102 244 C84 180 55 116 36 52 C31 35 29 18 30 3 C32 -9 43 -28 56 -28 C74 -28 94 -5 103 8 C118 31 125 61 134 85 C137 92 138 98 142 105 C170 103 206 111 236 122 C280 136 321 153 364 175 C401 195 440 219 470 250 C490 270 512 303 517 330 L517 330 Z M325 234 C276 212 222 194 173 189 C174 195 176 202 178 209 C190 250 201 290 209 330 C225 334 242 339 257 343 C276 347 293 349 311 349 C326 349 340 348 354 345 C382 341 410 337 425 317 C440 301 339 240 325 234 L325 234 Z " />
<glyph glyph-name="germandbls" unicode="&#xdf;" horiz-adv-x="536" d="M70 191 C49 146 27 102 15 58 C10 41 6 23 5 6 C3 -19 4 -57 35 -58 C59 -59 69 -43 75 -23 C79 -9 81 8 83 18 C96 63 112 110 130 154 C155 208 175 265 207 318 C232 358 250 405 285 441 C307 464 338 481 366 489 C381 494 397 497 413 497 C431 497 447 491 455 477 C463 462 464 442 451 422 C420 370 354 347 303 325 C281 314 261 301 257 278 C253 261 257 241 268 231 C283 222 316 231 336 229 C359 225 385 225 404 212 C415 204 429 184 429 168 C429 104 310 106 278 102 C262 100 237 101 223 84 C210 67 212 39 222 27 C234 9 260 5 282 4 C300 3 318 5 337 9 C362 13 388 21 413 36 C461 67 508 131 512 178 C516 207 512 230 499 252 C490 273 463 296 437 300 C471 327 500 352 520 391 C528 403 533 418 537 431 C546 462 546 493 541 521 C537 542 517 562 502 575 C487 587 464 594 442 594 C380 594 304 577 252 521 C195 460 158 392 125 319 C107 277 88 234 70 191 L70 191 Z " />
<glyph glyph-name="agrave" unicode="&#xe0;" horiz-adv-x="536" d="M492 92 C499 147 504 208 498 260 C491 321 488 378 484 438 C480 479 475 527 446 548 C432 560 414 557 392 548 C367 538 355 529 332 508 C300 481 286 451 262 419 C231 381 208 348 180 309 C155 275 128 237 106 200 C82 160 50 124 30 85 C22 69 7 40 1 16 C-4 -4 -5 -19 6 -27 C43 -51 83 23 116 70 C129 89 146 109 157 127 C196 130 234 140 273 145 C304 149 333 153 364 155 C378 156 386 158 400 158 C401 145 401 131 398 116 C398 87 399 16 432 12 C472 6 489 53 492 92 L492 92 Z M356 242 C309 237 263 220 219 220 C226 229 235 244 240 253 C286 325 318 369 373 431 C376 419 376 419 379 407 C384 385 389 366 392 343 C396 320 399 274 400 247 C380 246 367 243 356 242 L356 242 Z M372 627 C396 614 447 598 470 585 C486 577 510 572 528 588 C535 594 542 605 537 612 C533 623 520 632 511 638 C483 658 429 682 391 685 C380 686 360 689 348 681 C338 674 334 667 338 659 C345 643 358 634 372 627 L372 627 Z " />
<glyph glyph-name="aacute" unicode="&#xe1;" horiz-adv-x="536" d="M492 92 C499 147 504 208 498 260 C491 321 488 378 484 438 C480 479 475 527 446 548 C432 560 414 557 392 548 C367 538 355 529 332 508 C300 481 286 451 262 419 C231 381 208 348 180 309 C155 275 128 237 106 200 C82 160 50 124 30 85 C22 69 7 40 1 16 C-4 -4 -5 -19 6 -27 C43 -51 83 23 116 70 C129 89 146 109 157 127 C196 130 234 140 273 145 C304 149 333 153 364 155 C378 156 386 158 400 158 C401 145 401 131 398 116 C398 87 399 16 432 12 C472 6 489 53 492 92 L492 92 Z M356 242 C309 237 263 220 219 220 C226 229 235 244 240 253 C286 325 318 369 373 431 C376 419 376 419 379 407 C384 385 389 366 392 343 C396 320 399 274 400 247 C380 246 367 243 356 242 L356 242 Z M365 637 C346 629 326 618 312 604 C304 595 303 587 310 581 C316 573 338 576 350 577 C390 581 457 604 497 624 C510 630 526 639 537 650 C547 659 546 668 542 674 C534 690 506 684 486 677 C455 664 396 650 365 637 L365 637 Z " />
<glyph glyph-name="acircumflex" unicode="&#xe2;" horiz-adv-x="536" d="M492 92 C499 147 504 208 498 260 C491 321 488 378 484 438 C480 479 475 527 446 548 C432 560 414 557 392 548 C367 538 355 529 332 508 C300 481 286 451 262 419 C231 381 208 348 180 309 C155 275 128 237 106 200 C82 160 50 124 30 85 C22 69 7 40 1 16 C-4 -4 -5 -19 6 -27 C43 -51 83 23 116 70 C129 89 146 109 157 127 C196 130 234 140 273 145 C304 149 333 153 364 155 C378 156 386 158 400 158 C401 145 401 131 398 116 C398 87 399 16 432 12 C472 6 489 53 492 92 L492 92 Z M356 242 C309 237 263 220 219 220 C226 229 235 244 240 253 C286 325 318 369 373 431 C376 419 376 419 379 407 C384 385 389 366 392 343 C396 320 399 274 400 247 C380 246 367 243 356 242 L356 242 Z M560 607 C540 635 507 688 465 688 C415 688 316 595 294 573 C290 569 287 566 287 563 C285 556 294 545 307 545 C361 545 408 620 455 631 C489 606 501 547 537 547 C552 547 558 558 561 569 C566 584 567 594 560 607 L560 607 Z " />
<glyph glyph-name="atilde" unicode="&#xe3;" horiz-adv-x="536" d="M492 92 C499 147 504 208 498 260 C491 321 488 378 484 438 C480 479 475 527 446 548 C432 560 414 557 392 548 C367 538 355 529 332 508 C300 481 286 451 262 419 C231 381 208 348 180 309 C155 275 128 237 106 200 C82 160 50 124 30 85 C22 69 7 40 1 16 C-4 -4 -5 -19 6 -27 C43 -51 83 23 116 70 C129 89 146 109 157 127 C196 130 234 140 273 145 C304 149 333 153 364 155 C378 156 386 158 400 158 C401 145 401 131 398 116 C398 87 399 16 432 12 C472 6 489 53 492 92 L492 92 Z M356 242 C309 237 263 220 219 220 C226 229 235 244 240 253 C286 325 318 369 373 431 C376 419 376 419 379 407 C384 385 389 366 392 343 C396 320 399 274 400 247 C380 246 367 243 356 242 L356 242 Z M336 700 C307 674 292 646 282 612 C278 599 285 580 300 580 C322 580 327 596 337 611 C342 623 376 670 405 670 C417 670 426 642 430 627 C436 610 438 582 473 582 C484 582 496 584 505 588 C546 608 603 660 615 703 C619 718 615 736 597 736 C554 736 537 650 491 650 C482 650 476 674 472 688 C465 710 460 738 434 738 C426 738 368 727 336 700 L336 700 Z " />
<glyph glyph-name="adieresis" unicode="&#xe4;" horiz-adv-x="536" d="M492 92 C499 147 504 208 498 260 C491 321 488 378 484 438 C480 479 475 527 446 548 C432 560 414 557 392 548 C367 538 355 529 332 508 C300 481 286 451 262 419 C231 381 208 348 180 309 C155 275 128 237 106 200 C82 160 50 124 30 85 C22 69 7 40 1 16 C-4 -4 -5 -19 6 -27 C43 -51 83 23 116 70 C129 89 146 109 157 127 C196 130 234 140 273 145 C304 149 333 153 364 155 C378 156 386 158 400 158 C401 145 401 131 398 116 C398 87 399 16 432 12 C472 6 489 53 492 92 L492 92 Z M356 242 C309 237 263 220 219 220 C226 229 235 244 240 253 C286 325 318 369 373 431 C376 419 376 419 379 407 C384 385 389 366 392 343 C396 320 399 274 400 247 C380 246 367 243 356 242 L356 242 Z M584 669 C576 674 566 670 554 668 C507 647 494 648 485 617 C478 594 486 579 509 579 C521 579 526 585 536 591 C543 597 584 611 594 646 C597 656 591 667 584 669 L584 669 Z M432 649 C426 655 419 663 408 663 C353 663 329 623 331 626 C329 621 328 617 326 611 C320 590 338 579 356 579 C381 584 431 621 436 638 C437 642 436 648 432 649 L432 649 Z " />
<glyph glyph-name="aring" unicode="&#xe5;" horiz-adv-x="536" d="M527 696 C520 713 499 717 483 724 C478 725 470 726 463 726 C418 725 355 696 322 656 C298 627 305 592 315 568 C322 551 335 540 351 534 C341 527 332 519 319 508 C288 481 274 451 250 419 C219 381 196 348 167 309 C143 275 116 237 94 200 C70 160 38 124 18 85 C10 69 -4 40 -11 16 C-16 -4 -17 -19 -5 -27 C31 -51 70 23 104 70 C117 89 134 109 145 127 C184 130 222 140 260 145 C291 149 321 153 352 155 C365 156 374 158 388 158 C388 145 388 131 386 116 C386 87 386 16 420 12 C459 6 477 53 480 92 C487 147 491 208 486 260 C479 321 476 378 471 438 C468 475 463 517 442 541 C454 548 465 556 477 566 C504 587 523 614 530 640 C536 659 535 678 527 696 L527 696 Z M344 242 C297 237 251 220 207 220 C213 229 223 244 228 253 C274 325 306 369 360 431 L366 407 C372 385 377 366 380 343 C384 320 386 274 388 247 C368 246 354 243 344 242 L344 242 Z M453 621 C436 589 402 576 381 597 C371 606 370 620 383 634 C394 646 416 656 432 659 C435 660 470 667 468 659 C464 646 460 633 453 621 L453 621 Z " />
<glyph glyph-name="ae" unicode="&#xe6;" horiz-adv-x="751" d="M119 72 C156 69 191 76 228 79 C251 79 275 78 298 81 L296 72 C289 48 286 23 299 9 C310 -3 330 -6 346 -6 C374 -6 385 -6 402 -5 C476 -1 552 6 636 22 C671 31 694 32 715 71 C727 94 710 100 702 102 C696 105 688 107 670 105 C603 96 533 89 460 89 C434 89 417 90 394 93 C399 123 422 159 431 189 C443 190 453 193 462 194 C505 203 540 213 582 213 C606 215 615 215 637 216 C659 217 705 221 726 231 C744 239 753 251 759 269 C764 286 742 296 727 297 C706 300 687 300 669 300 C647 300 626 300 599 299 C569 299 533 296 503 292 C492 291 476 290 464 288 L476 331 C485 362 497 392 510 438 C536 438 559 438 580 437 C604 436 622 438 648 438 C674 440 689 438 718 441 C737 442 769 445 790 454 C805 460 820 472 823 490 C826 504 808 521 796 524 C783 528 766 528 741 529 C717 530 705 528 681 528 C629 526 578 529 528 531 C516 531 494 535 483 528 C479 525 475 523 472 520 C448 507 429 483 406 464 C378 438 349 408 322 382 C291 353 212 274 183 244 C133 194 82 141 35 89 C9 62 -48 -2 -20 -24 C-9 -30 20 -20 33 -14 C52 -4 73 22 86 39 L115 72 L119 72 Z M236 200 C277 242 350 313 404 366 C396 339 385 307 380 288 C367 252 352 218 337 182 C299 176 260 175 222 171 C216 170 210 169 204 169 L236 200 Z " />
<glyph glyph-name="ccedilla" unicode="&#xe7;" horiz-adv-x="581" d="M352 -42 C352 -34 351 -27 349 -20 C430 -2 522 34 538 89 C543 107 532 122 509 122 C483 122 455 102 430 92 C382 73 326 63 271 63 C163 63 132 130 158 223 C174 278 224 351 288 397 C381 453 451 460 486 469 C520 456 511 403 563 403 C587 403 601 422 606 440 C629 518 541 560 486 560 C472 560 456 558 438 552 C382 536 337 515 286 484 C214 435 136 366 101 295 C83 261 67 223 58 191 C22 55 111 -33 249 -33 L250 -36 C252 -45 268 -60 265 -71 C262 -80 232 -97 224 -99 C211 -103 208 -99 199 -95 C180 -86 169 -80 146 -86 C126 -91 90 -112 97 -135 C102 -156 129 -169 146 -174 C195 -188 268 -165 318 -117 C341 -95 354 -68 352 -42 L352 -42 Z " />
<glyph glyph-name="egrave" unicode="&#xe8;" horiz-adv-x="503" d="M448 71 C461 94 443 100 436 102 C430 105 421 107 404 105 C336 96 266 89 193 89 C167 89 151 90 127 93 C133 123 155 159 165 189 C176 190 186 193 195 194 C239 203 274 213 316 213 C339 215 348 215 371 216 C393 217 438 221 460 231 C477 239 487 251 493 269 C498 286 476 296 461 297 C440 300 421 300 403 300 C381 300 360 300 333 299 C303 299 267 296 237 292 C225 291 210 290 197 288 C201 299 205 314 210 331 C219 362 230 392 243 438 C269 438 292 438 313 437 C338 436 355 438 381 438 C408 440 422 438 451 441 C471 442 502 445 524 454 C539 460 553 472 556 490 C559 504 541 521 530 524 C516 528 499 528 474 529 C451 530 438 528 414 528 C363 526 311 529 262 531 C250 531 227 535 216 528 C198 516 183 499 175 477 C166 455 155 423 148 400 C140 372 122 316 113 288 C94 231 66 175 45 116 C39 103 34 88 29 72 C23 48 19 23 32 9 C44 -3 63 -6 79 -6 C107 -6 118 -6 135 -5 C210 -1 286 6 369 22 C405 31 428 32 448 71 L448 71 Z M338 609 C362 596 413 580 436 567 C452 559 476 554 494 570 C501 576 508 587 503 594 C499 605 486 614 477 620 C449 640 395 664 357 667 C346 668 326 671 314 663 C304 656 300 649 304 641 C311 625 324 616 338 609 L338 609 Z " />
<glyph glyph-name="eacute" unicode="&#xe9;" horiz-adv-x="503" d="M448 71 C428 32 405 31 369 22 C286 6 210 -1 135 -5 C118 -6 107 -6 79 -6 C63 -6 44 -3 32 9 C19 23 23 48 29 72 C34 88 39 103 45 116 C66 175 94 231 113 288 C122 316 140 372 148 400 C155 423 166 455 175 477 C183 499 198 516 216 528 C227 535 250 531 262 531 C311 529 363 526 414 528 C438 528 451 530 474 529 C499 528 516 528 530 524 C541 521 559 504 556 490 C553 472 539 460 524 454 C502 445 471 442 451 441 C422 438 408 440 381 438 C355 438 338 436 313 437 C292 438 269 438 243 438 C230 392 219 362 210 331 C205 314 201 299 197 288 C210 290 225 291 237 292 C267 296 303 299 333 299 C360 300 381 300 403 300 C421 300 440 300 461 297 C476 296 498 286 493 269 C487 251 477 239 460 231 C438 221 393 217 371 216 C348 215 339 215 316 213 C274 213 239 203 195 194 C186 193 176 190 165 189 C155 159 133 123 127 93 C151 90 167 89 193 89 C266 89 336 96 404 105 C421 107 430 105 436 102 C443 100 461 94 448 71 L448 71 Z M357 633 C338 625 318 614 304 600 C296 591 295 583 302 577 C308 569 330 572 342 573 C382 577 449 600 489 620 C502 626 518 635 529 646 C539 655 538 664 534 670 C526 686 498 680 478 673 C447 660 388 646 357 633 L357 633 Z " />
<glyph glyph-name="ecircumflex" unicode="&#xea;" horiz-adv-x="503" d="M448 71 C428 32 405 31 369 22 C286 6 210 -1 135 -5 C118 -6 107 -6 79 -6 C63 -6 44 -3 32 9 C19 23 23 48 29 72 C34 88 39 103 45 116 C66 175 94 231 113 288 C122 316 140 372 148 400 C155 423 166 455 175 477 C183 499 198 516 216 528 C227 535 250 531 262 531 C311 529 363 526 414 528 C438 528 451 530 474 529 C499 528 516 528 530 524 C541 521 559 504 556 490 C553 472 539 460 524 454 C502 445 471 442 451 441 C422 438 408 440 381 438 C355 438 338 436 313 437 C292 438 269 438 243 438 C230 392 219 362 210 331 C205 314 201 299 197 288 C210 290 225 291 237 292 C267 296 303 299 333 299 C360 300 381 300 403 300 C421 300 440 300 461 297 C476 296 498 286 493 269 C487 251 477 239 460 231 C438 221 393 217 371 216 C348 215 339 215 316 213 C274 213 239 203 195 194 C186 193 176 190 165 189 C155 159 133 123 127 93 C151 90 167 89 193 89 C266 89 336 96 404 105 C421 107 430 105 436 102 C443 100 461 94 448 71 L448 71 Z M539 628 C519 656 486 709 444 709 C394 709 295 616 273 594 C269 590 266 587 266 584 C264 577 273 566 286 566 C340 566 387 641 434 652 C468 627 480 568 516 568 C531 568 537 579 540 590 C545 605 546 615 539 628 L539 628 Z " />
<glyph glyph-name="edieresis" unicode="&#xeb;" horiz-adv-x="503" d="M448 71 C461 94 443 100 436 102 C430 105 421 107 404 105 C336 96 266 89 193 89 C167 89 151 90 127 93 C133 123 155 159 165 189 C176 190 186 193 195 194 C239 203 274 213 316 213 C339 215 348 215 371 216 C393 217 438 221 460 231 C477 239 487 251 493 269 C498 286 476 296 461 297 C440 300 421 300 403 300 C381 300 360 300 333 299 C303 299 267 296 237 292 C225 291 210 290 197 288 C201 299 205 314 210 331 C219 362 230 392 243 438 C269 438 292 438 313 437 C338 436 355 438 381 438 C408 440 422 438 451 441 C471 442 502 445 524 454 C539 460 553 472 556 490 C559 504 541 521 530 524 C516 528 499 528 474 529 C451 530 438 528 414 528 C363 526 311 529 262 531 C250 531 227 535 216 528 C198 516 183 499 175 477 C166 455 155 423 148 400 C140 372 122 316 113 288 C94 231 66 175 45 116 C39 103 34 88 29 72 C23 48 19 23 32 9 C44 -3 63 -6 79 -6 C107 -6 118 -6 135 -5 C210 -1 286 6 369 22 C405 31 428 32 448 71 L448 71 Z M532 650 C524 655 514 651 502 649 C455 628 442 629 433 598 C426 575 434 560 457 560 C469 560 474 566 484 572 C491 578 532 592 542 627 C545 637 539 648 532 650 L532 650 Z M380 630 C374 636 367 644 356 644 C301 644 277 604 279 607 C277 602 276 598 274 592 C268 571 286 560 304 560 C329 565 379 602 384 619 C385 623 384 629 380 630 L380 630 Z " />
<glyph glyph-name="igrave" unicode="&#xec;" horiz-adv-x="195" d="M135 392 C123 357 112 323 101 288 C82 233 62 178 46 122 C35 83 24 49 29 14 C31 -8 45 -21 68 -9 C96 5 112 36 122 69 C129 94 132 120 136 141 C142 166 148 191 156 216 C165 246 177 275 186 305 C201 352 217 398 233 444 C239 460 248 480 249 497 C249 507 247 529 242 535 C236 544 214 537 203 530 C164 507 147 432 135 392 L135 392 Z M181 607 C205 594 256 578 279 565 C295 557 319 552 337 568 C344 574 351 585 346 592 C342 603 329 612 320 618 C292 638 238 662 200 665 C189 666 169 669 157 661 C147 654 143 647 147 639 C154 623 167 614 181 607 L181 607 Z " />
<glyph glyph-name="iacute" unicode="&#xed;" horiz-adv-x="195" d="M135 392 C123 357 112 323 101 288 C82 233 62 178 46 122 C35 83 24 49 29 14 C31 -8 45 -21 68 -9 C96 5 112 36 122 69 C129 94 132 120 136 141 C142 166 148 191 156 216 C165 246 177 275 186 305 C201 352 217 398 233 444 C239 460 248 480 249 497 C249 507 247 529 242 535 C236 544 214 537 203 530 C164 507 147 432 135 392 L135 392 Z M207 635 C188 627 168 616 154 602 C146 593 145 585 152 579 C158 571 180 574 192 575 C232 579 299 602 339 622 C352 628 368 637 379 648 C389 657 388 666 384 672 C376 688 348 682 328 675 C297 662 238 648 207 635 L207 635 Z " />
<glyph glyph-name="icircumflex" unicode="&#xee;" horiz-adv-x="195" d="M135 392 C123 357 112 323 101 288 C82 233 62 178 46 122 C35 83 24 49 29 14 C31 -8 45 -21 68 -9 C96 5 112 36 122 69 C129 94 132 120 136 141 C142 166 148 191 156 216 C165 246 177 275 186 305 C201 352 217 398 233 444 C239 460 248 480 249 497 C249 507 247 529 242 535 C236 544 214 537 203 530 C164 507 147 432 135 392 L135 392 Z M355 588 C335 616 302 669 260 669 C210 669 111 576 89 554 C85 550 82 547 82 544 C80 537 89 526 102 526 C156 526 203 601 250 612 C284 587 296 528 332 528 C347 528 353 539 356 550 C361 565 362 575 355 588 L355 588 Z " />
<glyph glyph-name="idieresis" unicode="&#xef;" horiz-adv-x="195" d="M135 392 C123 357 112 323 101 288 C82 233 62 178 46 122 C35 83 24 49 29 14 C31 -8 45 -21 68 -9 C96 5 112 36 122 69 C129 94 132 120 136 141 C142 166 148 191 156 216 C165 246 177 275 186 305 C201 352 217 398 233 444 C239 460 248 480 249 497 C249 507 247 529 242 535 C236 544 214 537 203 530 C164 507 147 432 135 392 L135 392 Z M369 646 C361 651 351 647 339 645 C292 624 279 625 270 594 C263 571 271 556 294 556 C306 556 311 562 321 568 C328 574 369 588 379 623 C382 633 376 644 369 646 L369 646 Z M217 626 C211 632 204 640 193 640 C138 640 114 600 116 603 C114 598 113 594 111 588 C105 567 123 556 141 556 C166 561 216 598 221 615 C222 619 221 625 217 626 L217 626 Z " />
<glyph glyph-name="eth" unicode="&#xf0;" horiz-adv-x="583" d="M607 334 C610 369 607 410 597 437 C575 483 536 533 481 539 C463 543 431 546 399 546 C367 546 332 543 312 538 C282 529 232 526 207 503 C191 486 190 467 186 449 C180 425 173 401 170 376 C164 351 161 326 157 301 C148 301 140 300 131 300 C115 300 98 300 80 288 C64 277 39 228 57 221 C68 216 84 214 97 213 C108 212 122 212 136 212 C125 173 116 122 105 88 C100 71 91 53 86 35 C79 12 80 -10 105 -17 C121 -22 141 -18 160 -13 C252 9 316 39 402 81 C468 116 521 165 558 220 C570 238 581 259 591 278 C598 296 603 316 607 334 L607 334 Z M312 326 C289 321 266 316 243 312 C259 376 274 449 274 449 C289 453 345 455 389 455 C455 455 537 422 532 366 C522 294 479 238 416 186 C320 107 186 83 186 83 C186 83 201 160 216 218 C243 222 270 228 294 238 C306 242 323 248 335 258 C355 274 372 310 350 320 C338 326 328 328 312 326 L312 326 Z " />
<glyph glyph-name="ntilde" unicode="&#xf1;" horiz-adv-x="585" d="M128 345 C104 261 98 230 78 155 C71 125 59 98 53 69 C44 37 35 -10 71 -19 C110 -28 133 34 139 61 C152 110 166 155 178 206 C192 264 210 316 219 369 C233 345 245 309 253 287 C265 260 273 234 288 211 C304 184 312 153 327 125 C340 102 348 78 359 53 C374 17 371 -28 423 -25 C442 -23 456 0 463 18 C477 48 487 69 499 100 C528 182 554 260 587 343 C602 379 611 414 622 449 C629 472 634 493 633 515 C632 534 618 544 601 544 C587 544 571 537 561 520 C548 499 544 476 536 454 C499 353 465 254 428 160 C406 193 380 235 370 269 C355 317 335 360 316 402 C308 419 301 442 293 460 C285 475 280 490 272 503 C256 529 224 570 183 539 C162 524 153 509 148 493 C139 459 149 419 128 345 L128 345 Z M340 660 C311 634 296 606 286 572 C282 559 289 540 304 540 C326 540 331 556 341 571 C346 583 380 630 409 630 C421 630 430 602 434 587 C440 570 442 542 477 542 C488 542 500 544 509 548 C550 568 607 620 619 663 C623 678 619 696 601 696 C558 696 541 610 495 610 C486 610 480 634 476 648 C469 670 464 698 438 698 C430 698 372 687 340 660 L340 660 Z " />
<glyph glyph-name="ograve" unicode="&#xf2;" horiz-adv-x="673" d="M693 335 C693 354 693 374 692 393 C691 431 683 468 664 497 C646 520 617 541 588 541 C562 542 538 546 511 543 C493 541 480 547 464 550 C448 552 426 547 408 543 C350 533 248 481 204 440 C172 410 144 379 118 343 C93 308 76 277 69 238 C66 220 64 202 60 184 C58 166 59 145 59 127 C58 93 69 67 88 43 C96 31 105 18 119 12 C170 -23 209 -23 270 -23 C349 -23 438 1 513 59 C548 87 582 119 609 155 C643 200 661 235 678 277 C687 296 692 317 693 335 L693 335 Z M557 224 C524 175 439 107 390 92 C366 84 343 79 320 75 C285 70 251 72 219 80 C154 94 135 168 158 238 C185 304 221 329 273 374 C299 396 337 420 368 433 C387 440 407 444 426 449 C439 451 451 455 464 453 C476 450 486 445 498 442 C528 437 562 440 590 425 C638 401 585 261 557 224 L557 224 Z M455 630 C479 617 530 601 553 588 C569 580 593 575 611 591 C618 597 625 608 620 615 C616 626 603 635 594 641 C566 661 512 685 474 688 C463 689 443 692 431 684 C421 677 417 670 421 662 C428 646 441 637 455 630 L455 630 Z " />
<glyph glyph-name="oacute" unicode="&#xf3;" horiz-adv-x="673" d="M693 335 C693 354 693 374 692 393 C691 431 683 468 664 497 C646 520 617 541 588 541 C562 542 538 546 511 543 C493 541 480 547 464 550 C448 552 426 547 408 543 C350 533 248 481 204 440 C172 410 144 379 118 343 C93 308 76 277 69 238 C66 220 64 202 60 184 C58 166 59 145 59 127 C58 93 69 67 88 43 C96 31 105 18 119 12 C170 -23 209 -23 270 -23 C349 -23 438 1 513 59 C548 87 582 119 609 155 C643 200 661 235 678 277 C687 296 692 317 693 335 L693 335 Z M557 224 C524 175 439 107 390 92 C366 84 343 79 320 75 C285 70 251 72 219 80 C154 94 135 168 158 238 C185 304 221 329 273 374 C299 396 337 420 368 433 C387 440 407 444 426 449 C439 451 451 455 464 453 C476 450 486 445 498 442 C528 437 562 440 590 425 C638 401 585 261 557 224 L557 224 Z M467 646 C448 638 428 627 414 613 C406 604 405 596 412 590 C418 582 440 585 452 586 C492 590 559 613 599 633 C612 639 628 648 639 659 C649 668 648 677 644 683 C636 699 608 693 588 686 C557 673 498 659 467 646 L467 646 Z " />
<glyph glyph-name="ocircumflex" unicode="&#xf4;" horiz-adv-x="673" d="M693 335 C693 354 693 374 692 393 C691 431 683 468 664 497 C646 520 617 541 588 541 C562 542 538 546 511 543 C493 541 480 547 464 550 C448 552 426 547 408 543 C350 533 248 481 204 440 C172 410 144 379 118 343 C93 308 76 277 69 238 C66 220 64 202 60 184 C58 166 59 145 59 127 C58 93 69 67 88 43 C96 31 105 18 119 12 C170 -23 209 -23 270 -23 C349 -23 438 1 513 59 C548 87 582 119 609 155 C643 200 661 235 678 277 C687 296 692 317 693 335 L693 335 Z M557 224 C524 175 439 107 390 92 C366 84 343 79 320 75 C285 70 251 72 219 80 C154 94 135 168 158 238 C185 304 221 329 273 374 C299 396 337 420 368 433 C387 440 407 444 426 449 C439 451 451 455 464 453 C476 450 486 445 498 442 C528 437 562 440 590 425 C638 401 585 261 557 224 L557 224 Z M648 634 C628 662 595 715 553 715 C503 715 404 622 382 600 C378 596 375 593 375 590 C373 583 382 572 395 572 C449 572 496 647 543 658 C577 633 589 574 625 574 C640 574 646 585 649 596 C654 611 655 621 648 634 L648 634 Z " />
<glyph glyph-name="otilde" unicode="&#xf5;" horiz-adv-x="673" d="M693 335 C693 354 693 374 692 393 C691 431 683 468 664 497 C646 520 617 541 588 541 C562 542 538 546 511 543 C493 541 480 547 464 550 C448 552 426 547 408 543 C350 533 248 481 204 440 C172 410 144 379 118 343 C93 308 76 277 69 238 C66 220 64 202 60 184 C58 166 59 145 59 127 C58 93 69 67 88 43 C96 31 105 18 119 12 C170 -23 209 -23 270 -23 C349 -23 438 1 513 59 C548 87 582 119 609 155 C643 200 661 235 678 277 C687 296 692 317 693 335 L693 335 Z M557 224 C524 175 439 107 390 92 C366 84 343 79 320 75 C285 70 251 72 219 80 C154 94 135 168 158 238 C185 304 221 329 273 374 C299 396 337 420 368 433 C387 440 407 444 426 449 C439 451 451 455 464 453 C476 450 486 445 498 442 C528 437 562 440 590 425 C638 401 585 261 557 224 L557 224 Z M433 696 C404 670 389 642 379 608 C375 595 382 576 397 576 C419 576 424 592 434 607 C439 619 473 666 502 666 C514 666 523 638 527 623 C533 606 535 578 570 578 C581 578 593 580 602 584 C643 604 700 656 712 699 C716 714 712 732 694 732 C651 732 634 646 588 646 C579 646 573 670 569 684 C562 706 557 734 531 734 C523 734 465 723 433 696 L433 696 Z " />
<glyph glyph-name="odieresis" unicode="&#xf6;" horiz-adv-x="673" d="M693 335 C693 354 693 374 692 393 C691 431 683 468 664 497 C646 520 617 541 588 541 C562 542 538 546 511 543 C493 541 480 547 464 550 C448 552 426 547 408 543 C350 533 248 481 204 440 C172 410 144 379 118 343 C93 308 76 277 69 238 C66 220 64 202 60 184 C58 166 59 145 59 127 C58 93 69 67 88 43 C96 31 105 18 119 12 C170 -23 209 -23 270 -23 C349 -23 438 1 513 59 C548 87 582 119 609 155 C643 200 661 235 678 277 C687 296 692 317 693 335 L693 335 Z M557 224 C524 175 439 107 390 92 C366 84 343 79 320 75 C285 70 251 72 219 80 C154 94 135 168 158 238 C185 304 221 329 273 374 C299 396 337 420 368 433 C387 440 407 444 426 449 C439 451 451 455 464 453 C476 450 486 445 498 442 C528 437 562 440 590 425 C638 401 585 261 557 224 L557 224 Z M669 669 C661 674 651 670 639 668 C592 647 579 648 570 617 C563 594 571 579 594 579 C606 579 611 585 621 591 C628 597 669 611 679 646 C682 656 676 667 669 669 L669 669 Z M517 649 C511 655 504 663 493 663 C438 663 414 623 416 626 C414 621 413 617 411 611 C405 590 423 579 441 579 C466 584 516 621 521 638 C522 642 521 648 517 649 L517 649 Z " />
<glyph glyph-name="divide" unicode="&#xf7;" horiz-adv-x="466" d="M99 220 C137 217 255 227 292 230 C331 231 369 229 407 241 C436 251 475 277 473 312 C471 334 459 345 438 340 C386 328 337 327 287 322 C259 318 150 318 122 314 C105 311 93 311 80 291 C53 248 72 223 99 220 L99 220 Z M368 445 C371 452 378 461 380 470 C385 487 373 500 357 500 C349 500 334 496 318 486 C310 482 257 442 250 418 C242 391 255 376 284 376 C327 376 351 417 368 445 L368 445 Z M258 175 C226 175 165 108 161 96 C154 72 158 46 186 46 C228 51 265 93 276 130 C281 147 268 175 258 175 L258 175 Z " />
<glyph glyph-name="oslash" unicode="&#xf8;" horiz-adv-x="673" d="M692 335 C693 354 692 374 692 393 C691 431 682 468 664 497 C656 505 648 513 639 520 C662 545 682 571 679 599 C676 619 661 622 639 612 C610 599 591 570 567 546 L562 542 C546 544 528 545 511 543 C492 541 480 547 464 550 C447 552 426 547 408 543 C350 533 247 481 203 440 C172 410 144 379 117 343 C92 308 76 277 68 238 L60 184 C58 166 59 145 58 127 C58 93 68 67 87 43 C94 32 102 20 114 14 C90 -18 61 -64 86 -80 C97 -85 127 -72 139 -65 C155 -55 171 -34 183 -17 C209 -23 236 -23 269 -23 C348 -23 437 1 512 59 C547 87 581 119 609 155 C642 200 660 235 678 277 C686 296 691 317 692 335 L692 335 Z M556 224 C523 175 439 107 389 92 C365 84 343 79 320 75 C297 72 274 71 252 73 C276 103 300 132 326 160 C364 204 486 348 562 434 C571 432 580 429 589 425 C637 401 585 261 556 224 L556 224 Z M157 238 C184 304 220 329 272 374 C299 396 337 420 367 433 C386 440 406 444 426 449 C438 451 451 455 463 453 C468 451 474 450 479 448 C434 396 292 227 268 198 C239 165 210 131 182 97 C146 126 139 183 157 238 L157 238 Z " />
<glyph glyph-name="ugrave" unicode="&#xf9;" horiz-adv-x="546" d="M202 304 C211 335 221 361 231 391 C244 428 271 504 227 516 C182 526 152 468 149 432 C147 412 143 396 137 374 C129 347 117 318 108 290 C96 251 83 213 72 175 C67 156 61 138 58 118 C48 70 74 19 112 -3 C125 -10 142 -13 162 -13 C193 -13 227 -6 256 -1 C309 8 379 27 417 75 C438 100 456 118 468 145 C488 178 501 216 516 251 C546 321 571 393 599 463 C606 486 611 507 600 524 C590 539 569 546 548 530 C525 513 514 491 508 468 C501 442 496 416 486 391 C465 331 445 270 414 212 C393 173 370 128 324 109 C297 97 270 96 245 91 C232 88 217 87 203 87 C188 87 173 88 166 94 C141 112 160 144 166 177 C169 194 177 217 182 234 C193 273 198 291 202 304 L202 304 Z M331 577 C355 564 406 548 429 535 C445 527 469 522 487 538 C494 544 501 555 496 562 C492 573 479 582 470 588 C442 608 388 632 350 635 C339 636 319 639 307 631 C297 624 293 617 297 609 C304 593 317 584 331 577 L331 577 Z " />
<glyph glyph-name="uacute" unicode="&#xfa;" horiz-adv-x="546" d="M202 304 C211 335 221 361 231 391 C244 428 271 504 227 516 C182 526 152 468 149 432 C147 412 143 396 137 374 C129 347 117 318 108 290 C96 251 83 213 72 175 C67 156 61 138 58 118 C48 70 74 19 112 -3 C125 -10 142 -13 162 -13 C193 -13 227 -6 256 -1 C309 8 379 27 417 75 C438 100 456 118 468 145 C488 178 501 216 516 251 C546 321 571 393 599 463 C606 486 611 507 600 524 C590 539 569 546 548 530 C525 513 514 491 508 468 C501 442 496 416 486 391 C465 331 445 270 414 212 C393 173 370 128 324 109 C297 97 270 96 245 91 C232 88 217 87 203 87 C188 87 173 88 166 94 C141 112 160 144 166 177 C169 194 177 217 182 234 C193 273 198 291 202 304 L202 304 Z M354 601 C335 593 315 582 301 568 C293 559 292 551 299 545 C305 537 327 540 339 541 C379 545 446 568 486 588 C499 594 515 603 526 614 C536 623 535 632 531 638 C523 654 495 648 475 641 C444 628 385 614 354 601 L354 601 Z " />
<glyph glyph-name="ucircumflex" unicode="&#xfb;" horiz-adv-x="546" d="M202 304 C211 335 221 361 231 391 C244 428 271 504 227 516 C182 526 152 468 149 432 C147 412 143 396 137 374 C129 347 117 318 108 290 C96 251 83 213 72 175 C67 156 61 138 58 118 C48 70 74 19 112 -3 C125 -10 142 -13 162 -13 C193 -13 227 -6 256 -1 C309 8 379 27 417 75 C438 100 456 118 468 145 C488 178 501 216 516 251 C546 321 571 393 599 463 C606 486 611 507 600 524 C590 539 569 546 548 530 C525 513 514 491 508 468 C501 442 496 416 486 391 C465 331 445 270 414 212 C393 173 370 128 324 109 C297 97 270 96 245 91 C232 88 217 87 203 87 C188 87 173 88 166 94 C141 112 160 144 166 177 C169 194 177 217 182 234 C193 273 198 291 202 304 L202 304 Z M536 616 C516 644 483 697 441 697 C391 697 292 604 270 582 C266 578 263 575 263 572 C261 565 270 554 283 554 C337 554 384 629 431 640 C465 615 477 556 513 556 C528 556 534 567 537 578 C542 593 543 603 536 616 L536 616 Z " />
<glyph glyph-name="udieresis" unicode="&#xfc;" horiz-adv-x="546" d="M202 304 C211 335 221 361 231 391 C244 428 271 504 227 516 C182 526 152 468 149 432 C147 412 143 396 137 374 C129 347 117 318 108 290 C96 251 83 213 72 175 C67 156 61 138 58 118 C48 70 74 19 112 -3 C125 -10 142 -13 162 -13 C193 -13 227 -6 256 -1 C309 8 379 27 417 75 C438 100 456 118 468 145 C488 178 501 216 516 251 C546 321 571 393 599 463 C606 486 611 507 600 524 C590 539 569 546 548 530 C525 513 514 491 508 468 C501 442 496 416 486 391 C465 331 445 270 414 212 C393 173 370 128 324 109 C297 97 270 96 245 91 C232 88 217 87 203 87 C188 87 173 88 166 94 C141 112 160 144 166 177 C169 194 177 217 182 234 C193 273 198 291 202 304 L202 304 Z M544 635 C536 640 526 636 514 634 C467 613 454 614 445 583 C438 560 446 545 469 545 C481 545 486 551 496 557 C503 563 544 577 554 612 C557 622 551 633 544 635 L544 635 Z M392 615 C386 621 379 629 368 629 C313 629 289 589 291 592 C289 587 288 583 286 577 C280 556 298 545 316 545 C341 550 391 587 396 604 C397 608 396 614 392 615 L392 615 Z " />
<glyph glyph-name="yacute" unicode="&#xfd;" horiz-adv-x="530" d="M555 436 C536 411 511 388 491 363 C475 341 457 321 440 297 C425 277 407 256 392 235 C365 198 328 147 306 111 C292 93 277 70 264 53 C244 26 210 -5 187 -18 C170 -28 157 -27 146 -18 C132 -6 130 1 139 21 C152 52 175 84 200 112 C211 127 225 138 236 154 C249 172 256 185 271 204 C241 242 206 275 186 319 C175 345 148 385 133 410 C120 433 121 495 152 511 C196 527 214 505 227 475 C240 449 261 394 275 371 C289 352 320 304 336 295 C373 343 408 389 448 431 C478 462 499 499 533 526 C548 539 558 551 579 551 C600 552 609 544 611 528 C616 495 579 463 555 436 L555 436 Z M346 585 C327 577 307 566 293 552 C285 543 284 535 291 529 C297 521 319 524 331 525 C371 529 438 552 478 572 C491 578 507 587 518 598 C528 607 527 616 523 622 C515 638 487 632 467 625 C436 612 377 598 346 585 L346 585 Z " />
<glyph glyph-name="thorn" unicode="&#xfe;" horiz-adv-x="500" d="M518 369 C511 396 480 411 456 422 C411 441 355 442 303 444 C275 444 251 436 229 436 C231 446 234 456 238 466 C249 495 265 566 217 560 C202 557 180 541 171 526 C160 503 155 477 148 453 C137 412 129 371 117 331 C105 286 89 239 75 194 C59 137 33 80 19 23 C15 10 15 -3 27 -9 C36 -16 57 -18 69 -9 C100 14 111 58 125 88 C130 97 134 106 136 115 C158 110 183 110 205 111 C238 112 266 118 299 127 C380 151 462 199 505 279 C519 306 526 348 518 369 L518 369 Z M412 274 C370 235 324 213 271 202 C247 197 221 197 199 200 C187 203 175 200 163 198 C163 203 164 209 165 215 C168 228 173 239 176 251 C201 337 202 341 203 344 C223 350 244 353 263 354 C303 358 427 342 440 310 C446 300 421 282 412 274 L412 274 Z " />
<glyph glyph-name="ydieresis" unicode="&#xff;" horiz-adv-x="530" d="M555 436 C579 463 616 495 611 528 C609 544 600 552 579 551 C558 551 548 539 533 526 C499 499 478 462 448 431 C408 389 373 343 336 295 C320 304 289 352 275 371 C261 394 240 449 227 475 C214 505 196 527 152 511 C121 495 120 433 133 410 C148 385 175 345 186 319 C206 275 241 242 271 204 C256 185 249 172 236 154 C225 138 211 127 200 112 C175 84 152 52 139 21 C130 1 132 -6 146 -18 C157 -27 170 -28 187 -18 C210 -5 244 26 264 53 C277 70 292 93 306 111 C328 147 365 198 392 235 C407 256 425 277 440 297 C457 321 475 341 491 363 C511 388 536 411 555 436 L555 436 Z M513 622 C505 627 495 623 483 621 C436 600 423 601 414 570 C407 547 415 532 438 532 C450 532 455 538 465 544 C472 550 513 564 523 599 C526 609 520 620 513 622 L513 622 Z M361 602 C355 608 348 616 337 616 C282 616 258 576 260 579 C258 574 257 570 255 564 C249 543 267 532 285 532 C310 537 360 574 365 591 C366 595 365 601 361 602 L361 602 Z " />
<glyph glyph-name="Amacron" unicode="&#x100;" horiz-adv-x="582" d="M531 101 C531 125 531 149 532 173 C536 237 535 297 529 358 C525 389 517 419 511 449 C507 476 503 504 492 528 C483 548 463 555 438 557 C411 560 390 543 365 521 C297 463 240 385 187 316 C166 287 28 115 4 31 C-3 5 0 -13 22 -14 C45 -17 66 -5 82 19 C101 47 110 70 126 96 C131 103 136 111 140 118 C212 129 289 144 362 150 C384 153 410 153 437 159 C436 128 438 75 443 48 C449 23 463 8 480 8 C493 8 508 17 522 39 C533 58 531 80 531 101 L531 101 Z M363 246 C331 242 307 239 274 233 C256 230 237 228 218 225 C241 255 262 284 284 313 C311 347 373 423 405 449 C416 393 429 322 434 255 C405 253 384 249 363 246 L363 246 Z M303 585 C335 583 466 593 498 596 C530 597 564 595 597 604 C621 612 653 631 651 658 C649 675 638 684 620 679 C576 671 432 664 389 661 C365 657 344 660 320 657 C305 655 294 655 284 639 C262 607 280 587 303 585 L303 585 Z " />
<glyph glyph-name="amacron" unicode="&#x101;" horiz-adv-x="536" d="M492 92 C499 147 504 208 498 260 C491 321 488 378 484 438 C480 479 475 527 446 548 C432 560 414 557 392 548 C367 538 355 529 332 508 C300 481 286 451 262 419 C231 381 208 348 180 309 C155 275 128 237 106 200 C82 160 50 124 30 85 C22 69 7 40 1 16 C-4 -4 -5 -19 6 -27 C43 -51 83 23 116 70 C129 89 146 109 157 127 C196 130 234 140 273 145 C304 149 333 153 364 155 C378 156 386 158 400 158 C401 145 401 131 398 116 C398 87 399 16 432 12 C472 6 489 53 492 92 L492 92 Z M356 242 C309 237 263 220 219 220 C226 229 235 244 240 253 C286 325 318 369 373 431 C376 419 376 419 379 407 C384 385 389 366 392 343 C396 320 399 274 400 247 C380 246 367 243 356 242 L356 242 Z M275 574 C307 572 438 582 470 585 C502 586 536 584 569 593 C593 601 625 620 623 647 C621 664 610 673 592 668 C548 660 404 653 361 650 C337 646 316 649 292 646 C277 644 266 644 256 628 C234 596 252 576 275 574 L275 574 Z " />
<glyph glyph-name="Abreve" unicode="&#x102;" horiz-adv-x="582" d="M531 101 C531 125 531 149 532 173 C536 237 535 297 529 358 C525 389 517 419 511 449 C507 476 503 504 492 528 C483 548 463 555 438 557 C411 560 390 543 365 521 C297 463 240 385 187 316 C166 287 28 115 4 31 C-3 5 0 -13 22 -14 C45 -17 66 -5 82 19 C101 47 110 70 126 96 C131 103 136 111 140 118 C212 129 289 144 362 150 C384 153 410 153 437 159 C436 128 438 75 443 48 C449 23 463 8 480 8 C493 8 508 17 522 39 C533 58 531 80 531 101 L531 101 Z M363 246 C331 242 307 239 274 233 C256 230 237 228 218 225 C241 255 262 284 284 313 C311 347 373 423 405 449 C416 393 429 322 434 255 C405 253 384 249 363 246 L363 246 Z M409 592 C420 587 439 584 460 584 C512 584 568 607 590 662 C596 674 602 695 597 706 C595 718 574 720 562 711 C548 702 543 685 535 672 C527 656 491 645 472 640 C457 637 441 641 433 654 C430 667 442 686 452 698 C457 706 460 707 458 715 C454 720 449 725 443 725 C428 725 412 713 402 704 C389 693 385 677 381 663 C372 631 383 605 409 592 L409 592 Z " />
<glyph glyph-name="abreve" unicode="&#x103;" horiz-adv-x="536" d="M492 92 C499 147 504 208 498 260 C491 321 488 378 484 438 C480 479 475 527 446 548 C432 560 414 557 392 548 C367 538 355 529 332 508 C300 481 286 451 262 419 C231 381 208 348 180 309 C155 275 128 237 106 200 C82 160 50 124 30 85 C22 69 7 40 1 16 C-4 -4 -5 -19 6 -27 C43 -51 83 23 116 70 C129 89 146 109 157 127 C196 130 234 140 273 145 C304 149 333 153 364 155 C378 156 386 158 400 158 C401 145 401 131 398 116 C398 87 399 16 432 12 C472 6 489 53 492 92 L492 92 Z M356 242 C309 237 263 220 219 220 C226 229 235 244 240 253 C286 325 318 369 373 431 C376 419 376 419 379 407 C384 385 389 366 392 343 C396 320 399 274 400 247 C380 246 367 243 356 242 L356 242 Z M384 592 C395 587 414 584 435 584 C487 584 543 607 565 662 C571 674 577 695 572 706 C570 718 549 720 537 711 C523 702 518 685 510 672 C502 656 466 645 447 640 C432 637 416 641 408 654 C405 667 417 686 427 698 C432 706 435 707 433 715 C429 720 424 725 418 725 C403 725 387 713 377 704 C364 693 360 677 356 663 C347 631 358 605 384 592 L384 592 Z " />
<glyph glyph-name="Aogonek" unicode="&#x104;" horiz-adv-x="582" d="M438 58 C377 19 339 -25 327 -87 C312 -151 367 -176 426 -166 C449 -162 482 -149 503 -132 C521 -119 543 -88 537 -71 C529 -49 503 -56 480 -66 C458 -75 430 -88 410 -85 C421 -50 447 -25 476 1 L484 8 C497 8 511 18 525 39 C536 58 534 80 534 101 L535 173 C539 237 538 297 532 358 C528 389 520 419 514 449 C510 476 506 504 495 528 C486 548 466 555 441 557 C414 560 393 543 368 521 C300 463 243 385 190 316 C169 287 31 115 7 31 C-1 5 3 -13 25 -14 C48 -17 69 -5 85 19 C104 47 113 70 129 96 C134 103 140 111 144 118 C215 129 292 144 365 150 C387 153 413 153 440 159 C440 133 440 90 444 62 L438 58 Z M366 246 C334 242 310 239 277 233 L221 225 L287 313 C314 347 376 423 408 449 C419 393 432 322 437 255 C408 253 387 249 366 246 L366 246 Z " />
<glyph glyph-name="aogonek" unicode="&#x105;" horiz-adv-x="536" d="M394 61 C333 22 294 -22 282 -84 C268 -148 323 -173 382 -163 C405 -159 438 -146 459 -129 C476 -116 499 -85 493 -68 C484 -46 458 -53 435 -63 C414 -72 386 -85 366 -82 C377 -47 402 -22 432 4 L440 11 C475 11 490 55 494 92 C501 147 505 208 500 260 C493 321 490 378 485 438 C482 479 477 527 448 548 C433 560 415 557 394 548 C369 538 356 529 333 508 C301 481 288 451 264 419 C233 381 209 348 181 309 C156 275 130 237 108 200 C83 160 52 124 32 85 C23 69 9 40 2 16 C-4 -4 -4 -19 8 -27 C45 -51 84 23 118 70 C131 89 148 109 159 127 C198 130 236 140 274 145 C305 149 334 153 366 155 C379 156 388 158 402 158 C402 145 402 131 400 116 C399 104 400 85 401 66 C399 64 396 62 394 61 L394 61 Z M358 242 C311 237 265 220 221 220 C227 229 237 244 242 253 C288 325 319 369 374 431 L380 407 C386 385 390 366 394 343 C397 320 400 274 401 247 C382 246 368 243 358 242 L358 242 Z " />
<glyph glyph-name="Cacute" unicode="&#x106;" horiz-adv-x="552" d="M531 553 C518 559 498 561 479 561 C438 561 402 551 366 537 C301 513 234 472 185 422 C146 381 102 341 84 292 C79 278 73 264 69 250 C58 211 53 169 57 133 C60 89 88 43 122 13 C155 -16 210 -19 257 -18 C308 -17 361 -8 407 16 C427 27 450 45 467 58 C499 83 536 144 495 155 C479 160 468 147 454 138 C398 103 353 71 293 71 C267 72 234 74 211 81 C181 92 159 111 151 140 C140 173 145 220 159 255 C172 290 196 322 221 353 C239 376 276 402 300 422 C318 434 376 460 397 467 C415 473 464 482 477 475 C511 454 498 450 513 427 C521 416 550 410 563 415 C609 436 602 498 582 519 C566 535 554 546 531 553 L531 553 Z M434 647 C415 639 395 628 381 614 C373 605 372 597 379 591 C385 583 407 586 419 587 C459 591 526 614 566 634 C579 640 595 649 606 660 C616 669 615 678 611 684 C603 700 575 694 555 687 C524 674 465 660 434 647 L434 647 Z " />
<glyph glyph-name="cacute" unicode="&#x107;" horiz-adv-x="581" d="M246 -33 C108 -33 20 55 56 191 C65 223 81 261 98 295 C134 366 212 435 284 484 C334 515 379 536 435 552 C454 558 469 560 483 560 C538 560 626 518 604 440 C599 422 584 403 560 403 C508 403 518 456 483 469 C449 460 379 453 286 397 C221 351 172 278 156 223 C129 130 161 63 269 63 C324 63 380 73 427 92 C452 102 481 122 507 122 C530 122 540 107 535 89 C512 7 318 -33 246 -33 L246 -33 Z M455 651 C436 643 416 632 402 618 C394 609 393 601 400 595 C406 587 428 590 440 591 C480 595 547 618 587 638 C600 644 616 653 627 664 C637 673 636 682 632 688 C624 704 596 698 576 691 C545 678 486 664 455 651 L455 651 Z " />
<glyph glyph-name="Ccaron" unicode="&#x10c;" horiz-adv-x="552" d="M531 553 C518 559 498 561 479 561 C438 561 402 551 366 537 C301 513 234 472 185 422 C146 381 102 341 84 292 C79 278 73 264 69 250 C58 211 53 169 57 133 C60 89 88 43 122 13 C155 -16 210 -19 257 -18 C308 -17 361 -8 407 16 C427 27 450 45 467 58 C499 83 536 144 495 155 C479 160 468 147 454 138 C398 103 353 71 293 71 C267 72 234 74 211 81 C181 92 159 111 151 140 C140 173 145 220 159 255 C172 290 196 322 221 353 C239 376 276 402 300 422 C318 434 376 460 397 467 C415 473 464 482 477 475 C511 454 498 450 513 427 C521 416 550 410 563 415 C609 436 602 498 582 519 C566 535 554 546 531 553 L531 553 Z M363 677 C375 645 428 595 454 595 C510 595 615 697 628 710 C633 714 634 717 635 720 C638 728 628 739 614 739 C576 739 538 697 513 681 C497 671 482 660 467 651 C436 676 420 737 386 737 C370 737 364 726 361 715 C356 699 355 690 363 677 L363 677 Z " />
<glyph glyph-name="ccaron" unicode="&#x10d;" horiz-adv-x="581" d="M246 -33 C108 -33 20 55 56 191 C65 223 81 261 98 295 C134 366 212 435 284 484 C334 515 379 536 435 552 C454 558 469 560 483 560 C538 560 626 518 604 440 C599 422 584 403 560 403 C508 403 518 456 483 469 C449 460 379 453 286 397 C221 351 172 278 156 223 C129 130 161 63 269 63 C324 63 380 73 427 92 C452 102 481 122 507 122 C530 122 540 107 535 89 C512 7 318 -33 246 -33 L246 -33 Z M395 667 C407 635 460 585 486 585 C542 585 647 687 660 700 C665 704 666 707 667 710 C670 718 660 729 646 729 C608 729 570 687 545 671 C529 661 514 650 499 641 C468 666 452 727 418 727 C402 727 396 716 393 705 C388 689 387 680 395 667 L395 667 Z " />
<glyph glyph-name="Dcaron" unicode="&#x10e;" horiz-adv-x="536" d="M567 420 C570 462 540 493 516 519 C496 541 463 548 430 556 C414 561 397 562 379 562 C359 562 338 560 315 556 C296 552 279 547 260 544 C243 543 226 546 206 542 C190 538 165 525 155 507 C146 491 147 477 145 462 C135 426 126 394 118 361 C108 305 91 250 76 197 C60 139 46 91 37 41 C35 26 29 9 38 -1 C48 -16 67 -19 87 -19 C101 -19 116 -17 130 -16 C151 -13 171 -6 189 -4 C208 -1 237 8 256 16 C307 34 376 67 420 119 C436 138 455 154 483 191 C516 231 530 265 547 309 C562 348 565 384 567 420 L567 420 Z M444 269 C409 206 355 147 277 114 C216 85 125 83 125 83 C125 83 163 195 176 238 C190 281 235 450 235 450 C263 451 366 478 366 478 C457 467 476 427 480 406 C482 393 482 370 472 337 C467 317 457 294 444 269 L444 269 Z M307 683 C319 651 372 601 398 601 C454 601 559 703 572 716 C577 720 578 723 579 726 C582 734 572 745 558 745 C520 745 482 703 457 687 C441 677 426 666 411 657 C380 682 364 743 330 743 C314 743 308 732 305 721 C300 705 299 696 307 683 L307 683 Z " />
<glyph glyph-name="dcaron" unicode="&#x10f;" horiz-adv-x="535" d="M550 334 C553 369 550 410 540 437 C518 483 479 533 424 539 C406 543 374 546 342 546 C310 546 275 543 255 538 C225 529 175 526 150 503 C134 486 133 467 128 449 C123 425 116 401 113 376 C104 328 98 281 84 231 C73 191 61 128 48 88 C43 71 34 53 29 35 C22 12 23 -10 48 -17 C64 -22 84 -18 103 -13 C195 9 259 39 345 81 C411 116 464 165 501 220 C513 238 524 259 533 278 C541 296 546 316 550 334 L550 334 Z M359 186 C263 107 129 83 129 83 C129 83 149 186 167 243 C187 300 216 449 216 449 C232 453 288 455 332 455 C398 455 480 422 475 366 C465 294 422 238 359 186 L359 186 Z M291 653 C303 621 356 571 382 571 C438 571 543 673 556 686 C561 690 562 693 563 696 C566 704 556 715 542 715 C504 715 466 673 441 657 C425 647 410 636 395 627 C364 652 348 713 314 713 C298 713 292 702 289 691 C284 675 283 666 291 653 L291 653 Z " />
<glyph glyph-name="Dcroat" unicode="&#x110;" horiz-adv-x="561" d="M593 420 C596 462 566 493 542 519 C522 541 489 548 456 556 C440 561 423 562 405 562 C385 562 364 560 341 556 C322 552 305 547 286 544 C269 543 252 546 232 542 C216 538 191 525 181 507 C172 491 173 477 171 462 C161 426 152 394 144 361 C140 340 136 319 130 298 L124 298 C108 298 91 298 74 286 C58 275 32 226 50 219 C61 214 77 212 90 211 C95 211 100 210 106 210 L102 197 C86 139 72 91 63 41 C61 26 55 9 64 -1 C74 -16 93 -19 113 -19 C127 -19 142 -17 156 -16 C177 -13 197 -6 215 -4 C234 -1 263 8 282 16 C333 34 402 67 446 119 C462 138 481 154 509 191 C542 231 556 265 573 309 C588 348 591 384 593 420 L593 420 Z M306 324 L222 308 C240 372 261 450 261 450 C289 451 392 478 392 478 C483 467 502 427 506 406 C508 393 508 370 498 337 C493 317 483 294 470 269 C435 206 381 147 303 114 C242 85 151 83 151 83 C151 83 179 164 194 214 C227 218 259 225 287 236 C299 240 316 246 328 256 C349 272 365 308 343 318 C332 324 321 326 306 324 L306 324 Z " />
<glyph glyph-name="dcroat" unicode="&#x111;" horiz-adv-x="583" d="M607 334 C610 369 607 410 597 437 C575 483 536 533 481 539 C463 543 431 546 399 546 C367 546 332 543 312 538 C282 529 232 526 207 503 C191 486 190 467 186 449 C180 425 173 401 170 376 C164 351 161 326 157 301 C148 301 140 300 131 300 C115 300 98 300 80 288 C64 277 39 228 57 221 C68 216 84 214 97 213 C108 212 122 212 136 212 C125 173 116 122 105 88 C100 71 91 53 86 35 C79 12 80 -10 105 -17 C121 -22 141 -18 160 -13 C252 9 316 39 402 81 C468 116 521 165 558 220 C570 238 581 259 591 278 C598 296 603 316 607 334 L607 334 Z M312 326 C289 321 266 316 243 312 C259 376 274 449 274 449 C289 453 345 455 389 455 C455 455 537 422 532 366 C522 294 479 238 416 186 C320 107 186 83 186 83 C186 83 201 160 216 218 C243 222 270 228 294 238 C306 242 323 248 335 258 C355 274 372 310 350 320 C338 326 328 328 312 326 L312 326 Z " />
<glyph glyph-name="Emacron" unicode="&#x112;" horiz-adv-x="487" d="M534 480 C507 460 489 464 463 466 C418 468 285 458 238 446 C232 423 220 405 212 379 C207 367 201 331 192 305 C258 313 323 319 385 319 C427 319 472 313 469 281 C468 262 459 248 442 241 C414 229 387 228 364 229 C338 230 229 220 208 216 C190 212 182 211 164 207 C158 184 155 171 146 147 C136 125 134 122 125 92 C168 96 287 103 331 111 C377 119 390 115 403 115 C417 115 438 112 438 96 C439 72 418 49 400 43 C374 32 342 23 317 22 C290 19 191 10 164 5 C137 0 113 -12 85 -13 C28 -16 23 32 40 84 C56 138 76 180 91 234 C100 272 114 326 128 376 C137 407 146 436 155 458 C162 480 174 515 197 528 C219 539 247 538 270 543 C330 554 391 556 446 556 C475 556 544 552 552 535 C561 515 560 498 534 480 L534 480 Z M251 594 C283 592 414 602 446 605 C478 606 512 604 545 613 C569 621 601 640 599 667 C597 684 586 693 568 688 C524 680 380 673 337 670 C313 666 292 669 268 666 C253 664 242 664 232 648 C210 616 228 596 251 594 L251 594 Z " />
<glyph glyph-name="emacron" unicode="&#x113;" horiz-adv-x="503" d="M448 71 C428 32 405 31 369 22 C286 6 210 -1 135 -5 C118 -6 107 -6 79 -6 C63 -6 44 -3 32 9 C19 23 23 48 29 72 C34 88 39 103 45 116 C66 175 94 231 113 288 C122 316 140 372 148 400 C155 423 166 455 175 477 C183 499 198 516 216 528 C227 535 250 531 262 531 C311 529 363 526 414 528 C438 528 451 530 474 529 C499 528 516 528 530 524 C541 521 559 504 556 490 C553 472 539 460 524 454 C502 445 471 442 451 441 C422 438 408 440 381 438 C355 438 338 436 313 437 C292 438 269 438 243 438 C230 392 219 362 210 331 C205 314 201 299 197 288 C210 290 225 291 237 292 C267 296 303 299 333 299 C360 300 381 300 403 300 C421 300 440 300 461 297 C476 296 498 286 493 269 C487 251 477 239 460 231 C438 221 393 217 371 216 C348 215 339 215 316 213 C274 213 239 203 195 194 C186 193 176 190 165 189 C155 159 133 123 127 93 C151 90 167 89 193 89 C266 89 336 96 404 105 C421 107 430 105 436 102 C443 100 461 94 448 71 L448 71 Z M256 574 C288 572 419 582 451 585 C483 586 517 584 550 593 C574 601 606 620 604 647 C602 664 591 673 573 668 C529 660 385 653 342 650 C318 646 297 649 273 646 C258 644 247 644 237 628 C215 596 233 576 256 574 L256 574 Z " />
<glyph glyph-name="Eogonek" unicode="&#x118;" horiz-adv-x="487" d="M520 480 C546 498 547 515 538 535 C529 552 461 556 432 556 C377 556 315 554 256 543 C232 538 205 539 183 528 C160 515 148 480 140 458 C131 436 123 407 114 376 C100 326 85 272 76 234 C62 180 42 138 25 84 C8 32 14 -16 70 -13 C99 -12 122 0 150 5 C167 8 218 13 258 17 C239 -6 227 -32 221 -63 C207 -127 262 -152 320 -142 C344 -138 376 -125 397 -108 C415 -95 438 -64 432 -47 C423 -25 397 -32 374 -42 C352 -51 325 -64 305 -61 C316 -26 341 -1 370 25 C381 35 398 45 408 59 C418 69 424 82 424 96 C423 112 402 115 388 115 C375 115 362 119 317 111 C273 103 154 96 110 92 C119 122 122 125 131 147 C140 171 144 184 149 207 L193 216 C214 220 323 230 350 229 C372 228 400 229 427 241 C444 248 453 262 455 281 C458 313 413 319 371 319 C309 319 244 313 178 305 C186 331 192 367 198 379 C205 405 217 423 223 446 C270 458 403 468 449 466 C474 464 492 460 520 480 L520 480 Z " />
<glyph glyph-name="eogonek" unicode="&#x119;" horiz-adv-x="503" d="M439 71 C451 94 434 100 427 102 C420 105 412 107 394 105 C327 96 257 89 184 89 C158 89 141 90 118 93 C124 123 146 159 155 189 C167 190 177 193 186 194 C229 203 264 213 306 213 C330 215 339 215 361 216 C383 217 429 221 450 231 C468 239 477 251 483 269 C488 286 466 296 451 297 C430 300 411 300 393 300 C371 300 350 300 323 299 C293 299 257 296 227 292 C216 291 200 290 188 288 L200 331 C209 362 221 392 234 438 C260 438 283 438 304 437 C328 436 346 438 372 438 C398 440 413 438 442 441 C461 442 493 445 514 454 C529 460 544 472 547 490 C550 504 532 521 521 524 C507 528 490 528 465 529 C441 530 429 528 405 528 C353 526 302 529 253 531 C241 531 218 535 207 528 C188 516 173 499 165 477 C157 455 146 423 139 400 C131 372 113 316 104 288 C84 231 56 175 36 116 C30 103 24 88 20 72 C13 48 10 23 23 9 C34 -3 54 -6 70 -6 C98 -6 109 -6 126 -5 C174 -2 222 1 273 8 C254 -15 243 -41 237 -71 C223 -135 277 -160 336 -150 C359 -146 392 -133 413 -116 C431 -103 454 -72 447 -55 C439 -33 413 -40 390 -50 C368 -59 341 -72 320 -69 C332 -34 357 -9 386 17 C394 25 407 33 417 43 C424 49 432 58 439 71 L439 71 Z " />
<glyph glyph-name="Ecaron" unicode="&#x11a;" horiz-adv-x="487" d="M534 480 C507 460 489 464 463 466 C418 468 285 458 238 446 C232 423 220 405 212 379 C207 367 201 331 192 305 C258 313 323 319 385 319 C427 319 472 313 469 281 C468 262 459 248 442 241 C414 229 387 228 364 229 C338 230 229 220 208 216 C190 212 182 211 164 207 C158 184 155 171 146 147 C136 125 134 122 125 92 C168 96 287 103 331 111 C377 119 390 115 403 115 C417 115 438 112 438 96 C439 72 418 49 400 43 C374 32 342 23 317 22 C290 19 191 10 164 5 C137 0 113 -12 85 -13 C28 -16 23 32 40 84 C56 138 76 180 91 234 C100 272 114 326 128 376 C137 407 146 436 155 458 C162 480 174 515 197 528 C219 539 247 538 270 543 C330 554 391 556 446 556 C475 556 544 552 552 535 C561 515 560 498 534 480 L534 480 Z M287 664 C299 632 352 582 378 582 C434 582 539 684 552 697 C557 701 558 704 559 707 C562 715 552 726 538 726 C500 726 462 684 437 668 C421 658 406 647 391 638 C360 663 344 724 310 724 C294 724 288 713 285 702 C280 686 279 677 287 664 L287 664 Z " />
<glyph glyph-name="ecaron" unicode="&#x11b;" horiz-adv-x="503" d="M448 71 C428 32 405 31 369 22 C286 6 210 -1 135 -5 C118 -6 107 -6 79 -6 C63 -6 44 -3 32 9 C19 23 23 48 29 72 C34 88 39 103 45 116 C66 175 94 231 113 288 C122 316 140 372 148 400 C155 423 166 455 175 477 C183 499 198 516 216 528 C227 535 250 531 262 531 C311 529 363 526 414 528 C438 528 451 530 474 529 C499 528 516 528 530 524 C541 521 559 504 556 490 C553 472 539 460 524 454 C502 445 471 442 451 441 C422 438 408 440 381 438 C355 438 338 436 313 437 C292 438 269 438 243 438 C230 392 219 362 210 331 C205 314 201 299 197 288 C210 290 225 291 237 292 C267 296 303 299 333 299 C360 300 381 300 403 300 C421 300 440 300 461 297 C476 296 498 286 493 269 C487 251 477 239 460 231 C438 221 393 217 371 216 C348 215 339 215 316 213 C274 213 239 203 195 194 C186 193 176 190 165 189 C155 159 133 123 127 93 C151 90 167 89 193 89 C266 89 336 96 404 105 C421 107 430 105 436 102 C443 100 461 94 448 71 L448 71 Z M311 650 C323 618 376 568 402 568 C458 568 563 670 576 683 C581 687 582 690 583 693 C586 701 576 712 562 712 C524 712 486 670 461 654 C445 644 430 633 415 624 C384 649 368 710 334 710 C318 710 312 699 309 688 C304 672 303 663 311 650 L311 650 Z " />
<glyph glyph-name="Imacron" unicode="&#x12a;" horiz-adv-x="467" d="M403 47 C401 36 394 13 383 5 C344 -28 188 -17 145 -22 C111 -27 28 -39 15 -10 C11 1 7 14 14 27 C23 43 34 57 52 63 C65 67 79 71 91 71 C122 68 147 68 176 70 C176 87 178 106 181 119 C192 159 200 198 211 238 C223 279 234 319 246 359 C255 390 269 436 269 436 C269 436 206 434 202 434 C189 434 177 436 167 444 C156 450 146 459 148 475 C151 487 160 509 174 520 C195 534 255 534 274 534 C348 534 326 534 401 543 C424 547 451 553 474 553 C487 553 500 551 510 544 C522 537 531 525 529 508 C527 493 518 475 502 467 C465 449 427 456 390 450 C368 447 368 447 368 447 C368 447 355 415 351 403 C336 363 323 325 311 284 C300 246 295 209 284 172 C278 149 261 94 267 78 C297 81 323 85 348 85 C362 85 376 84 386 78 C398 71 404 59 403 47 L403 47 Z M212 585 C244 583 375 593 407 596 C439 597 473 595 506 604 C530 612 562 631 560 658 C558 675 547 684 529 679 C485 671 341 664 298 661 C274 657 253 660 229 657 C214 655 203 655 193 639 C171 607 189 587 212 585 L212 585 Z " />
<glyph glyph-name="imacron" unicode="&#x12b;" horiz-adv-x="195" d="M125 564 C151 562 210 568 235 571 C261 572 287 570 314 579 C333 587 360 606 360 633 C359 650 351 659 337 654 C301 646 232 643 197 640 C178 636 162 639 143 636 C131 634 122 634 113 618 C95 586 107 566 125 564 L125 564 Z M127 392 C115 357 104 323 93 288 C73 233 54 178 37 122 C26 83 16 49 20 14 C23 -8 36 -21 60 -9 C88 5 104 36 113 69 C120 94 124 120 128 141 C134 166 139 191 147 216 C157 246 168 275 178 305 C192 352 209 398 225 444 C230 460 240 480 241 497 C241 507 239 529 234 535 C227 544 205 537 194 530 C156 507 138 432 127 392 L127 392 Z " />
<glyph glyph-name="dotlessi" unicode="&#x131;" horiz-adv-x="195" d="M135 392 C123 357 112 323 101 288 C82 233 62 178 46 122 C35 83 24 49 29 14 C31 -8 45 -21 68 -9 C96 5 112 36 122 69 C129 94 132 120 136 141 C142 166 148 191 156 216 C165 246 177 275 186 305 C201 352 217 398 233 444 C239 460 248 480 249 497 C249 507 247 529 242 535 C236 544 214 537 203 530 C164 507 147 432 135 392 L135 392 Z " />
<glyph glyph-name="Lacute" unicode="&#x139;" horiz-adv-x="507" d="M133 356 C127 336 119 318 111 299 C82 240 60 165 43 105 C38 89 33 72 31 57 C28 36 31 16 51 5 C77 -10 120 -10 152 -6 C226 4 267 25 345 19 C393 20 436 23 458 74 C476 116 408 110 381 111 C341 114 302 110 263 103 C231 98 223 96 171 89 C161 88 145 85 130 88 C134 100 138 112 141 125 C145 138 150 153 153 164 C166 204 179 243 196 283 C210 317 217 352 230 385 C244 418 249 451 254 484 C260 511 254 557 217 551 C199 548 184 537 175 522 C162 502 142 388 133 356 L133 356 Z M309 645 C290 637 270 626 256 612 C248 603 247 595 254 589 C260 581 282 584 294 585 C334 589 401 612 441 632 C454 638 470 647 481 658 C491 667 490 676 486 682 C478 698 450 692 430 685 C399 672 340 658 309 645 L309 645 Z " />
<glyph glyph-name="lacute" unicode="&#x13a;" horiz-adv-x="467" d="M125 344 C108 278 79 210 60 144 C51 111 42 80 33 48 C21 6 41 -10 69 -8 C158 -3 283 -6 383 28 C416 48 419 80 399 98 C388 106 368 107 353 107 C336 106 270 89 253 87 C211 81 160 72 126 83 C128 98 129 112 136 129 C155 185 177 234 191 290 C204 335 222 366 231 398 C240 428 259 463 257 491 C255 511 242 541 217 534 C206 531 189 521 183 511 C176 499 172 486 168 473 C156 431 139 383 125 344 L125 344 Z M322 613 C303 605 283 594 269 580 C261 571 260 563 267 557 C273 549 295 552 307 553 C347 557 414 580 454 600 C467 606 483 615 494 626 C504 635 503 644 499 650 C491 666 463 660 443 653 C412 640 353 626 322 613 L322 613 Z " />
<glyph glyph-name="Lcaron" unicode="&#x13d;" horiz-adv-x="507" d="M133 356 C127 336 119 318 111 299 C82 240 60 165 43 105 C38 89 33 72 31 57 C28 36 31 16 51 5 C77 -10 120 -10 152 -6 C226 4 267 25 345 19 C393 20 436 23 458 74 C476 116 408 110 381 111 C341 114 302 110 263 103 C231 98 223 96 171 89 C161 88 145 85 130 88 C134 100 138 112 141 125 C145 138 150 153 153 164 C166 204 179 243 196 283 C210 317 217 352 230 385 C244 418 249 451 254 484 C260 511 254 557 217 551 C199 548 184 537 175 522 C162 502 142 388 133 356 L133 356 Z M470 578 C476 601 472 617 443 617 C406 617 398 590 371 546 C337 485 302 428 281 355 C275 335 279 314 305 314 C349 314 374 375 400 421 C425 467 454 522 466 565 C467 569 469 574 470 578 L470 578 Z " />
<glyph glyph-name="lcaron" unicode="&#x13e;" horiz-adv-x="453" d="M125 344 C108 278 79 210 60 144 C51 111 42 80 33 48 C21 6 41 -10 69 -8 C158 -3 283 -6 383 28 C416 48 419 80 399 98 C388 106 368 107 353 107 C336 106 270 89 253 87 C211 81 160 72 126 83 C128 98 129 112 136 129 C155 185 177 234 191 290 C204 335 222 366 231 398 C240 428 259 463 257 491 C255 511 242 541 217 534 C206 531 189 521 183 511 C176 499 172 486 168 473 C156 431 139 383 125 344 L125 344 Z M471 537 C477 560 473 576 444 576 C407 576 399 549 372 505 C338 444 303 387 282 314 C276 294 280 273 306 273 C350 273 375 334 401 380 C426 426 455 481 467 524 C468 528 470 533 471 537 L471 537 Z " />
<glyph glyph-name="Lslash" unicode="&#x141;" horiz-adv-x="555" d="M93 180 C103 182 112 185 122 188 C112 159 104 131 97 105 C92 89 87 72 85 57 C82 36 85 16 105 5 C131 -10 174 -10 206 -6 C280 4 321 25 399 19 C447 20 490 23 512 74 C530 116 462 110 435 111 C395 114 356 110 317 103 C285 98 277 96 225 89 C215 88 199 85 184 88 C188 100 192 112 195 125 L207 164 L228 229 C259 239 291 250 319 268 C347 286 377 320 363 349 C353 368 338 373 316 362 C300 353 284 345 268 338 C272 354 278 370 284 385 C298 418 303 451 308 484 C314 511 308 557 271 551 C253 548 238 537 229 522 C216 502 196 388 187 356 C181 336 173 318 165 299 C134 282 60 276 48 235 C36 189 64 174 93 180 L93 180 Z " />
<glyph glyph-name="lslash" unicode="&#x142;" horiz-adv-x="505" d="M95 180 C107 183 118 186 129 190 C124 175 119 159 115 144 L88 48 C76 6 96 -10 124 -8 C213 -3 338 -6 438 28 C471 48 474 80 454 98 C443 106 423 107 408 107 C391 106 325 89 308 87 C266 81 215 72 181 83 C183 98 184 112 191 129 C203 163 216 195 227 227 C259 238 292 249 322 268 C349 286 380 320 365 349 C355 368 340 373 319 362 C299 351 280 342 261 334 C270 358 280 377 286 398 C295 428 314 463 312 491 C310 511 297 541 272 534 C261 531 244 521 238 511 C231 499 227 486 223 473 C211 431 194 383 180 344 C176 328 171 312 166 297 C140 285 112 279 87 268 C69 260 56 256 50 235 C38 189 66 174 95 180 L95 180 Z " />
<glyph glyph-name="Nacute" unicode="&#x143;" horiz-adv-x="587" d="M104 283 C98 262 95 243 90 221 C72 157 58 108 39 61 C28 32 23 -8 55 -14 C107 -21 125 64 136 93 C155 158 168 204 181 250 C191 283 196 317 206 350 C208 356 210 359 211 363 C232 340 253 318 267 290 C289 233 327 175 355 120 C373 80 397 42 407 3 C410 -12 425 -19 441 -17 C483 -7 492 23 502 56 C510 93 519 132 531 171 C549 236 570 304 592 369 C599 384 603 400 610 416 C618 433 626 453 633 469 C650 504 652 544 639 551 C623 557 608 565 590 556 C576 548 570 541 561 528 C550 513 543 491 539 475 C532 455 526 436 520 415 C509 379 498 345 485 310 C469 272 453 232 443 195 C426 226 417 237 404 260 C371 328 332 383 300 440 C290 456 280 473 248 499 C228 515 198 527 171 506 C150 489 142 464 138 442 C128 389 119 335 104 283 L104 283 Z M380 589 C361 581 341 570 327 556 C319 547 318 539 325 533 C331 525 353 528 365 529 C405 533 472 556 512 576 C525 582 541 591 552 602 C562 611 561 620 557 626 C549 642 521 636 501 629 C470 616 411 602 380 589 L380 589 Z " />
<glyph glyph-name="nacute" unicode="&#x144;" horiz-adv-x="585" d="M128 345 C104 261 98 230 78 155 C71 125 59 98 53 69 C44 37 35 -10 71 -19 C110 -28 133 34 139 61 C152 110 166 155 178 206 C192 264 210 316 219 369 C233 345 245 309 253 287 C265 260 273 234 288 211 C304 184 312 153 327 125 C340 102 348 78 359 53 C374 17 371 -28 423 -25 C442 -23 456 0 463 18 C477 48 487 69 499 100 C528 182 554 260 587 343 C602 379 611 414 622 449 C629 472 634 493 633 515 C632 534 618 544 601 544 C587 544 571 537 561 520 C548 499 544 476 536 454 C499 353 465 254 428 160 C406 193 380 235 370 269 C355 317 335 360 316 402 C308 419 301 442 293 460 C285 475 280 490 272 503 C256 529 224 570 183 539 C162 524 153 509 148 493 C139 459 149 419 128 345 L128 345 Z M397 593 C378 585 358 574 344 560 C336 551 335 543 342 537 C348 529 370 532 382 533 C422 537 489 560 529 580 C542 586 558 595 569 606 C579 615 578 624 574 630 C566 646 538 640 518 633 C487 620 428 606 397 593 L397 593 Z " />
<glyph glyph-name="Ncaron" unicode="&#x147;" horiz-adv-x="587" d="M104 283 C98 262 95 243 90 221 C72 157 58 108 39 61 C28 32 23 -8 55 -14 C107 -21 125 64 136 93 C155 158 168 204 181 250 C191 283 196 317 206 350 C208 356 210 359 211 363 C232 340 253 318 267 290 C289 233 327 175 355 120 C373 80 397 42 407 3 C410 -12 425 -19 441 -17 C483 -7 492 23 502 56 C510 93 519 132 531 171 C549 236 570 304 592 369 C599 384 603 400 610 416 C618 433 626 453 633 469 C650 504 652 544 639 551 C623 557 608 565 590 556 C576 548 570 541 561 528 C550 513 543 491 539 475 C532 455 526 436 520 415 C509 379 498 345 485 310 C469 272 453 232 443 195 C426 226 417 237 404 260 C371 328 332 383 300 440 C290 456 280 473 248 499 C228 515 198 527 171 506 C150 489 142 464 138 442 C128 389 119 335 104 283 L104 283 Z M312 592 C324 560 377 510 403 510 C459 510 564 612 577 625 C582 629 583 632 584 635 C587 643 577 654 563 654 C525 654 487 612 462 596 C446 586 431 575 416 566 C385 591 369 652 335 652 C319 652 313 641 310 630 C305 614 304 605 312 592 L312 592 Z " />
<glyph glyph-name="ncaron" unicode="&#x148;" horiz-adv-x="585" d="M128 345 C104 261 98 230 78 155 C71 125 59 98 53 69 C44 37 35 -10 71 -19 C110 -28 133 34 139 61 C152 110 166 155 178 206 C192 264 210 316 219 369 C233 345 245 309 253 287 C265 260 273 234 288 211 C304 184 312 153 327 125 C340 102 348 78 359 53 C374 17 371 -28 423 -25 C442 -23 456 0 463 18 C477 48 487 69 499 100 C528 182 554 260 587 343 C602 379 611 414 622 449 C629 472 634 493 633 515 C632 534 618 544 601 544 C587 544 571 537 561 520 C548 499 544 476 536 454 C499 353 465 254 428 160 C406 193 380 235 370 269 C355 317 335 360 316 402 C308 419 301 442 293 460 C285 475 280 490 272 503 C256 529 224 570 183 539 C162 524 153 509 148 493 C139 459 149 419 128 345 L128 345 Z M317 592 C329 560 382 510 408 510 C464 510 569 612 582 625 C587 629 588 632 589 635 C592 643 582 654 568 654 C530 654 492 612 467 596 C451 586 436 575 421 566 C390 591 374 652 340 652 C324 652 318 641 315 630 C310 614 309 605 317 592 L317 592 Z " />
<glyph glyph-name="Omacron" unicode="&#x14c;" horiz-adv-x="678" d="M682 299 C686 331 692 369 685 400 C682 419 676 438 668 454 C656 477 642 498 631 520 C622 535 612 552 596 559 C574 568 544 571 521 574 C492 574 461 568 434 561 C377 548 320 524 268 490 C225 463 188 428 158 385 C132 349 100 313 82 274 C70 253 62 231 56 209 C50 190 47 172 46 153 C46 129 49 105 53 83 C57 57 76 45 92 28 C116 7 170 -25 201 -28 C216 -30 230 -31 246 -31 C277 -31 309 -27 339 -21 C361 -17 387 -10 407 -3 C435 9 459 26 484 41 C540 74 581 112 621 160 C653 199 677 251 682 299 L682 299 Z M528 189 C457 119 364 70 273 70 C256 70 240 71 223 75 C205 80 187 92 172 101 C159 109 145 119 139 134 C132 153 133 176 139 198 C145 216 152 235 162 251 C187 294 216 322 253 354 C290 384 328 416 369 438 C409 460 460 464 499 460 C517 458 534 449 549 438 C581 419 600 378 601 335 C602 318 598 299 594 281 C586 244 556 216 528 189 L528 189 Z M376 606 C408 604 539 614 571 617 C603 618 637 616 670 625 C694 633 726 652 724 679 C722 696 711 705 693 700 C649 692 505 685 462 682 C438 678 417 681 393 678 C378 676 367 676 357 660 C335 628 353 608 376 606 L376 606 Z " />
<glyph glyph-name="omacron" unicode="&#x14d;" horiz-adv-x="673" d="M693 335 C693 354 693 374 692 393 C691 431 683 468 664 497 C646 520 617 541 588 541 C562 542 538 546 511 543 C493 541 480 547 464 550 C448 552 426 547 408 543 C350 533 248 481 204 440 C172 410 144 379 118 343 C93 308 76 277 69 238 C66 220 64 202 60 184 C58 166 59 145 59 127 C58 93 69 67 88 43 C96 31 105 18 119 12 C170 -23 209 -23 270 -23 C349 -23 438 1 513 59 C548 87 582 119 609 155 C643 200 661 235 678 277 C687 296 692 317 693 335 L693 335 Z M557 224 C524 175 439 107 390 92 C366 84 343 79 320 75 C285 70 251 72 219 80 C154 94 135 168 158 238 C185 304 221 329 273 374 C299 396 337 420 368 433 C387 440 407 444 426 449 C439 451 451 455 464 453 C476 450 486 445 498 442 C528 437 562 440 590 425 C638 401 585 261 557 224 L557 224 Z M363 584 C395 582 526 592 558 595 C590 596 624 594 657 603 C681 611 713 630 711 657 C709 674 698 683 680 678 C636 670 492 663 449 660 C425 656 404 659 380 656 C365 654 354 654 344 638 C322 606 340 586 363 584 L363 584 Z " />
<glyph glyph-name="Ohungarumlaut" unicode="&#x150;" horiz-adv-x="678" d="M539 582 L532 573 C531 573 530 574 529 574 C511 574 493 572 475 568 C504 598 535 636 554 665 C562 676 570 692 574 706 C576 717 569 721 562 723 C542 727 520 705 506 688 C486 661 440 615 419 587 C410 575 402 561 396 548 C355 534 315 515 276 490 C234 463 197 428 166 385 C140 349 109 313 90 274 C78 253 70 231 64 209 C58 190 55 172 54 153 C54 129 57 105 62 83 C65 57 84 45 100 28 C124 7 179 -25 209 -28 C224 -30 238 -31 254 -31 C285 -31 317 -27 347 -21 C369 -17 395 -10 415 -3 C443 9 467 26 493 41 C548 74 589 112 629 160 C661 199 685 251 691 299 C694 331 701 369 694 400 C690 419 684 438 676 454 C665 477 651 498 639 520 C630 535 620 552 604 559 L593 562 C624 592 655 632 674 660 C681 671 691 687 694 701 C697 712 689 717 682 718 C663 722 641 701 627 684 C606 656 560 610 539 582 L539 582 Z M536 189 C465 119 372 70 281 70 C264 70 248 71 231 75 C213 80 195 92 180 101 C167 109 153 119 147 134 C140 153 141 176 148 198 C153 216 160 235 170 251 C195 294 224 322 261 354 C298 384 336 416 377 438 C417 460 468 464 507 460 C525 458 543 449 557 438 C589 419 608 378 609 335 C610 318 607 299 602 281 C594 244 564 216 536 189 L536 189 Z " />
<glyph glyph-name="ohungarumlaut" unicode="&#x151;" horiz-adv-x="673" d="M533 572 C526 563 520 553 514 542 C499 542 488 547 475 550 C470 550 466 551 461 550 C493 581 528 624 548 655 C556 666 565 682 569 696 C571 707 563 711 556 713 C537 717 514 695 500 678 C481 651 435 605 413 577 C404 564 395 550 390 536 C330 517 251 475 214 440 C183 410 155 379 128 343 C103 308 86 277 79 238 L71 184 C69 166 70 145 69 127 C69 93 79 67 98 43 C106 31 115 18 129 12 C180 -23 219 -23 280 -23 C359 -23 448 1 523 59 C558 87 592 119 619 155 C653 200 671 235 688 277 C697 296 702 317 703 335 C704 354 703 374 703 393 C702 431 693 468 675 497 C656 520 627 541 598 541 C591 541 583 541 576 542 C610 572 647 618 668 650 C676 661 685 677 688 691 C691 702 684 707 676 708 C657 712 635 691 621 674 C600 646 554 600 533 572 L533 572 Z M567 224 C534 175 450 107 400 92 C376 84 354 79 331 75 C295 70 262 72 229 80 C164 94 145 168 168 238 C195 304 231 329 283 374 C310 396 347 420 378 433 C397 440 417 444 437 449 C449 451 462 455 474 453 C486 450 497 445 509 442 C538 437 572 440 600 425 C648 401 596 261 567 224 L567 224 Z " />
<glyph glyph-name="OE" unicode="&#x152;" horiz-adv-x="981" d="M1036 480 C1062 498 1063 515 1054 535 C1046 552 977 556 948 556 C893 556 832 554 772 543 C749 538 721 539 699 528 C680 517 668 490 660 468 C651 486 640 502 631 520 C622 535 612 552 596 559 C574 568 544 571 521 574 C492 574 461 568 434 561 C377 548 320 524 268 490 C225 463 188 428 158 385 C132 349 100 313 82 274 C70 253 62 231 56 209 C50 190 47 172 46 153 C46 129 49 105 53 83 C57 57 76 45 92 28 C116 7 170 -25 201 -28 C216 -30 230 -31 246 -31 C277 -31 309 -27 339 -21 C361 -17 387 -10 407 -3 C435 9 459 26 484 41 C505 53 523 65 540 79 C525 29 531 -16 587 -13 C615 -12 639 0 666 5 C693 10 792 19 819 22 C844 23 876 32 902 43 C920 49 941 72 940 96 C940 112 919 115 905 115 C892 115 879 119 833 111 C789 103 670 96 627 92 C636 122 638 125 648 147 C657 171 660 184 666 207 L710 216 C731 220 840 230 866 229 C889 228 916 229 944 241 C961 248 970 262 971 281 C974 313 929 319 887 319 C825 319 760 313 694 305 C703 331 709 367 714 379 C722 405 734 423 740 446 C787 458 920 468 965 466 C991 464 1009 460 1036 480 L1036 480 Z M528 189 C457 119 364 70 273 70 C256 70 240 71 223 75 C205 80 187 92 172 101 C159 109 145 119 139 134 C132 153 133 176 139 198 C145 216 152 235 162 251 C187 294 216 322 253 354 C290 384 328 416 369 438 C409 460 460 464 499 460 C517 458 534 449 549 438 C581 419 600 378 601 335 C602 318 598 299 594 281 C586 244 556 216 528 189 L528 189 Z " />
<glyph glyph-name="oe" unicode="&#x153;" horiz-adv-x="997" d="M945 71 C958 94 940 100 933 102 C927 105 918 107 901 105 C833 96 763 89 690 89 C664 89 647 90 624 93 C630 123 652 159 662 189 C673 190 683 193 692 194 C736 203 771 213 813 213 C836 215 845 215 868 216 C890 217 935 221 957 231 C974 239 984 251 990 269 C995 286 973 296 958 297 C937 300 918 300 900 300 C878 300 857 300 829 299 C799 299 764 296 733 292 C722 291 707 290 694 288 L707 331 C715 362 727 392 740 438 C766 438 789 438 810 437 C835 436 852 438 878 438 C905 440 919 438 948 441 C967 442 999 445 1021 454 C1036 460 1050 472 1053 490 C1056 504 1038 521 1027 524 C1013 528 996 528 971 529 C948 530 935 528 911 528 C859 526 808 529 759 531 C747 531 724 535 713 528 C696 516 681 501 673 481 L664 497 C646 520 617 541 588 541 C562 542 538 546 511 543 C493 541 480 547 464 550 C448 552 426 547 408 543 C350 533 248 481 204 440 C172 410 144 379 118 343 C93 308 76 277 69 238 L60 184 C58 166 59 145 59 127 C58 93 69 67 88 43 C96 31 105 18 119 12 C170 -23 209 -23 270 -23 C349 -23 438 1 513 59 C516 62 521 66 525 69 C519 46 516 22 529 9 C541 -3 560 -6 576 -6 C604 -6 615 -6 632 -5 C706 -1 782 6 866 22 C902 31 925 32 945 71 L945 71 Z M557 224 C524 175 439 107 390 92 C366 84 343 79 320 75 C285 70 251 72 219 80 C154 94 135 168 158 238 C185 304 221 329 273 374 C299 396 337 420 368 433 C387 440 407 444 426 449 C439 451 451 455 464 453 C476 450 486 445 498 442 C528 437 562 440 590 425 C638 401 585 261 557 224 L557 224 Z " />
<glyph glyph-name="Racute" unicode="&#x154;" horiz-adv-x="555" d="M505 61 C505 78 483 96 461 114 C426 143 390 182 356 204 C352 207 334 224 330 226 C355 238 377 250 397 261 C445 286 452 294 480 319 C535 372 542 406 549 444 C553 464 547 491 539 508 C527 529 520 530 498 542 C473 556 441 560 410 564 C393 565 372 565 352 564 C328 561 306 555 282 551 C245 544 203 546 173 517 C153 499 147 472 140 447 C117 366 101 289 71 209 C55 162 39 117 30 70 C28 59 26 49 25 39 C22 19 19 -4 35 -14 C48 -25 69 -25 87 -10 C104 5 114 21 116 40 C120 57 118 72 124 91 C134 127 145 157 165 185 C165 185 191 187 191 187 C271 185 376 -10 476 23 C495 28 505 44 505 61 L505 61 Z M229 446 C233 457 302 472 313 473 C341 476 368 480 394 477 C415 475 427 468 442 459 C453 453 465 427 458 411 C414 333 253 273 187 282 C187 282 197 366 229 446 L229 446 Z M360 666 C341 658 321 647 307 633 C299 624 298 616 305 610 C311 602 333 605 345 606 C385 610 452 633 492 653 C505 659 521 668 532 679 C542 688 541 697 537 703 C529 719 501 713 481 706 C450 693 391 679 360 666 L360 666 Z " />
<glyph glyph-name="racute" unicode="&#x155;" horiz-adv-x="553" d="M501 52 C497 71 478 98 455 116 C446 124 437 131 429 138 C404 159 360 176 336 203 C370 215 395 234 425 251 C476 282 534 336 553 401 C558 419 560 438 557 458 C553 505 462 547 418 547 C406 547 393 548 382 548 C340 548 280 539 240 525 C225 520 193 511 180 499 C169 489 159 478 153 464 C145 444 145 429 139 409 C114 327 117 295 98 247 C87 219 77 189 64 153 C55 129 35 89 26 65 C15 36 11 5 20 -10 C27 -22 45 -26 58 -19 C88 -7 107 47 117 71 C126 93 137 120 154 162 C167 163 177 163 192 159 C228 151 300 99 324 80 C343 65 361 50 383 37 C406 23 425 5 453 5 C492 4 504 28 501 52 L501 52 Z M330 454 C383 454 397 454 410 453 C517 438 461 383 461 383 C436 354 425 348 394 325 C336 280 246 251 187 251 C203 312 221 371 234 429 C254 431 309 454 330 454 L330 454 Z M367 635 C348 627 328 616 314 602 C306 593 305 585 312 579 C318 571 340 574 352 575 C392 579 459 602 499 622 C512 628 528 637 539 648 C549 657 548 666 544 672 C536 688 508 682 488 675 C457 662 398 648 367 635 L367 635 Z " />
<glyph glyph-name="Rcaron" unicode="&#x158;" horiz-adv-x="555" d="M505 61 C505 78 483 96 461 114 C426 143 390 182 356 204 C352 207 334 224 330 226 C355 238 377 250 397 261 C445 286 452 294 480 319 C535 372 542 406 549 444 C553 464 547 491 539 508 C527 529 520 530 498 542 C473 556 441 560 410 564 C393 565 372 565 352 564 C328 561 306 555 282 551 C245 544 203 546 173 517 C153 499 147 472 140 447 C117 366 101 289 71 209 C55 162 39 117 30 70 C28 59 26 49 25 39 C22 19 19 -4 35 -14 C48 -25 69 -25 87 -10 C104 5 114 21 116 40 C120 57 118 72 124 91 C134 127 145 157 165 185 C165 185 191 187 191 187 C271 185 376 -10 476 23 C495 28 505 44 505 61 L505 61 Z M229 446 C233 457 302 472 313 473 C341 476 368 480 394 477 C415 475 427 468 442 459 C453 453 465 427 458 411 C414 333 253 273 187 282 C187 282 197 366 229 446 L229 446 Z M286 674 C298 642 351 592 377 592 C433 592 538 694 551 707 C556 711 557 714 558 717 C561 725 551 736 537 736 C499 736 461 694 436 678 C420 668 405 657 390 648 C359 673 343 734 309 734 C293 734 287 723 284 712 C279 696 278 687 286 674 L286 674 Z " />
<glyph glyph-name="rcaron" unicode="&#x159;" horiz-adv-x="553" d="M501 52 C497 71 478 98 455 116 C446 124 437 131 429 138 C404 159 360 176 336 203 C370 215 395 234 425 251 C476 282 534 336 553 401 C558 419 560 438 557 458 C553 505 462 547 418 547 C406 547 393 548 382 548 C340 548 280 539 240 525 C225 520 193 511 180 499 C169 489 159 478 153 464 C145 444 145 429 139 409 C114 327 117 295 98 247 C87 219 77 189 64 153 C55 129 35 89 26 65 C15 36 11 5 20 -10 C27 -22 45 -26 58 -19 C88 -7 107 47 117 71 C126 93 137 120 154 162 C167 163 177 163 192 159 C228 151 300 99 324 80 C343 65 361 50 383 37 C406 23 425 5 453 5 C492 4 504 28 501 52 L501 52 Z M330 454 C383 454 397 454 410 453 C517 438 461 383 461 383 C436 354 425 348 394 325 C336 280 246 251 187 251 C203 312 221 371 234 429 C254 431 309 454 330 454 L330 454 Z M301 664 C313 632 366 582 392 582 C448 582 553 684 566 697 C571 701 572 704 573 707 C576 715 566 726 552 726 C514 726 476 684 451 668 C435 658 420 647 405 638 C374 663 358 724 324 724 C308 724 302 713 299 702 C294 686 293 677 301 664 L301 664 Z " />
<glyph glyph-name="Sacute" unicode="&#x15a;" horiz-adv-x="562" d="M217 -27 C129 -27 -12 1 17 107 C23 127 37 134 53 134 C68 134 79 129 86 115 C105 74 182 68 226 68 C295 68 426 108 448 187 C456 213 323 221 299 224 C244 228 131 258 144 337 C177 433 246 496 340 537 C382 554 425 570 465 570 C501 570 579 539 557 460 C550 438 534 420 514 420 C461 420 460 482 438 482 C368 472 257 407 245 365 C231 315 402 310 403 310 C467 306 573 275 546 184 C507 47 329 -27 217 -27 L217 -27 Z M405 653 C386 645 366 634 352 620 C344 611 343 603 350 597 C356 589 378 592 390 593 C430 597 497 620 537 640 C550 646 566 655 577 666 C587 675 586 684 582 690 C574 706 546 700 526 693 C495 680 436 666 405 653 L405 653 Z " />
<glyph glyph-name="sacute" unicode="&#x15b;" horiz-adv-x="588" d="M427 25 C370 -11 249 -34 193 -34 C169 -34 147 -30 126 -25 C92 -17 68 -15 46 5 C35 12 25 32 20 44 C12 65 17 87 26 103 C32 112 50 118 62 116 C71 116 78 109 86 105 C105 93 111 74 132 66 C148 63 165 62 182 62 C224 62 263 64 301 72 C352 84 465 120 468 181 C401 194 321 188 254 190 C217 194 157 207 137 238 C120 265 101 307 126 345 C152 384 214 449 253 476 C294 504 332 527 373 542 C415 559 451 562 486 553 C505 549 524 539 539 530 C558 520 567 499 568 482 C571 463 562 427 546 409 C537 400 519 396 510 396 C497 396 488 401 483 411 C474 429 468 451 453 463 C443 472 355 435 340 428 C298 407 240 365 220 327 C215 317 242 305 251 300 C262 295 280 288 293 288 C356 285 423 296 481 283 C518 278 552 243 560 211 C565 197 564 177 559 159 C540 96 482 57 427 25 L427 25 Z M392 639 C373 631 353 620 339 606 C331 597 330 589 337 583 C343 575 365 578 377 579 C417 583 484 606 524 626 C537 632 553 641 564 652 C574 661 573 670 569 676 C561 692 533 686 513 679 C482 666 423 652 392 639 L392 639 Z " />
<glyph glyph-name="Scedilla" unicode="&#x15e;" horiz-adv-x="562" d="M324 -34 C324 -25 322 -17 319 -9 C414 20 513 86 541 184 C567 275 462 306 397 310 C396 310 225 315 240 365 C252 407 362 472 432 482 C454 482 455 420 508 420 C528 420 545 438 551 460 C574 539 495 570 459 570 C419 570 376 554 334 537 C240 496 171 433 139 337 C125 258 238 228 293 224 C317 221 450 213 443 187 C420 108 289 68 220 68 C176 68 99 74 80 115 C73 129 62 134 47 134 C31 134 17 127 12 107 C-18 1 123 -27 211 -27 L221 -27 C221 -27 222 -27 222 -28 C224 -37 240 -52 237 -63 C234 -72 204 -89 196 -91 C183 -95 180 -91 171 -87 C152 -78 141 -72 118 -78 C98 -83 62 -104 69 -127 C74 -148 101 -161 118 -166 C167 -180 240 -157 290 -109 C313 -87 326 -60 324 -34 L324 -34 Z " />
<glyph glyph-name="scedilla" unicode="&#x15f;" horiz-adv-x="588" d="M328 -37 C328 -28 326 -20 323 -13 C361 -3 397 9 421 25 C476 57 535 96 553 159 C558 177 559 197 554 211 C546 243 512 278 475 283 C417 296 350 285 287 288 C274 288 256 295 245 300 C236 305 209 317 214 327 C234 365 292 407 334 428 C349 435 437 472 447 463 C462 451 468 429 477 411 C482 401 492 396 505 396 C514 396 531 400 540 409 C556 427 565 463 562 482 C561 499 552 520 533 530 C519 539 499 549 480 553 C445 562 409 559 367 542 C326 527 288 504 247 476 C208 449 146 384 120 345 C95 307 114 265 131 238 C151 207 211 194 248 190 C315 188 395 194 462 181 C459 120 346 84 295 72 C257 64 218 62 176 62 C159 62 142 63 126 66 C105 74 99 93 80 105 C72 109 65 116 56 116 C44 118 26 112 21 103 C11 87 6 65 14 44 C19 32 29 12 40 5 C62 -15 86 -17 120 -25 C141 -30 163 -34 187 -34 C198 -34 212 -33 226 -31 C230 -40 244 -55 241 -66 C238 -75 209 -92 200 -94 C187 -98 184 -94 175 -90 C156 -81 145 -75 122 -81 C102 -86 66 -107 73 -130 C78 -151 105 -164 123 -169 C171 -183 244 -160 294 -112 C317 -90 330 -63 328 -37 L328 -37 Z " />
<glyph glyph-name="Scaron" unicode="&#x160;" horiz-adv-x="562" d="M217 -27 C129 -27 -12 1 17 107 C23 127 37 134 53 134 C68 134 79 129 86 115 C105 74 182 68 226 68 C295 68 426 108 448 187 C456 213 323 221 299 224 C244 228 131 258 144 337 C177 433 246 496 340 537 C382 554 425 570 465 570 C501 570 579 539 557 460 C550 438 534 420 514 420 C461 420 460 482 438 482 C368 472 257 407 245 365 C231 315 402 310 403 310 C467 306 573 275 546 184 C507 47 329 -27 217 -27 L217 -27 Z M365 688 C377 656 430 606 456 606 C512 606 617 708 630 721 C635 725 636 728 637 731 C640 739 630 750 616 750 C578 750 540 708 515 692 C499 682 484 671 469 662 C438 687 422 748 388 748 C372 748 366 737 363 726 C358 710 357 701 365 688 L365 688 Z " />
<glyph glyph-name="scaron" unicode="&#x161;" horiz-adv-x="588" d="M427 25 C370 -11 249 -34 193 -34 C169 -34 147 -30 126 -25 C92 -17 68 -15 46 5 C35 12 25 32 20 44 C12 65 17 87 26 103 C32 112 50 118 62 116 C71 116 78 109 86 105 C105 93 111 74 132 66 C148 63 165 62 182 62 C224 62 263 64 301 72 C352 84 465 120 468 181 C401 194 321 188 254 190 C217 194 157 207 137 238 C120 265 101 307 126 345 C152 384 214 449 253 476 C294 504 332 527 373 542 C415 559 451 562 486 553 C505 549 524 539 539 530 C558 520 567 499 568 482 C571 463 562 427 546 409 C537 400 519 396 510 396 C497 396 488 401 483 411 C474 429 468 451 453 463 C443 472 355 435 340 428 C298 407 240 365 220 327 C215 317 242 305 251 300 C262 295 280 288 293 288 C356 285 423 296 481 283 C518 278 552 243 560 211 C565 197 564 177 559 159 C540 96 482 57 427 25 L427 25 Z M346 667 C358 635 411 585 437 585 C493 585 598 687 611 700 C616 704 617 707 618 710 C621 718 611 729 597 729 C559 729 521 687 496 671 C480 661 465 650 450 641 C419 666 403 727 369 727 C353 727 347 716 344 705 C339 689 338 680 346 667 L346 667 Z " />
<glyph glyph-name="uni0162" unicode="&#x162;" horiz-adv-x="497" d="M587 503 C600 528 575 550 555 553 C528 561 497 555 466 551 C391 546 315 539 234 531 C220 530 207 530 193 529 C180 529 166 529 152 524 C138 519 129 506 125 491 C121 477 122 462 129 453 C138 442 151 440 166 440 C178 440 194 442 207 442 C230 442 253 447 278 449 C260 399 248 346 230 272 C222 239 204 185 196 153 C192 135 190 119 187 101 C186 87 183 73 186 60 C189 48 197 39 210 38 C220 38 240 48 248 56 C275 78 282 114 286 140 C292 170 294 197 303 228 C319 284 345 367 363 429 C366 438 370 449 376 460 C408 460 442 462 476 464 C489 464 504 463 516 463 C545 463 574 476 587 503 L587 503 Z M251 -34 C256 -15 254 -1 238 10 C227 19 210 19 194 9 C175 -3 171 -17 164 -32 C134 -98 101 -115 75 -178 C69 -192 61 -212 66 -225 C70 -236 84 -248 101 -242 C167 -216 238 -87 251 -34 L251 -34 Z " />
<glyph glyph-name="uni0163" unicode="&#x163;" horiz-adv-x="534" d="M278 -34 C283 -15 281 -1 265 10 C254 19 237 19 221 9 C202 -3 198 -17 191 -32 C161 -98 128 -115 102 -178 C96 -192 88 -212 93 -225 C97 -236 111 -248 128 -242 C194 -216 265 -87 278 -34 L278 -34 Z M592 467 C603 482 611 507 600 519 C584 537 559 542 532 542 C507 542 481 538 460 538 C421 539 390 537 350 533 C314 528 118 536 125 463 C126 451 136 437 147 432 C164 423 187 424 206 429 C229 436 252 436 274 436 C292 436 301 437 318 437 C311 416 308 389 303 371 C293 336 285 301 276 268 C262 226 259 229 244 177 C236 150 230 123 226 100 C223 78 225 82 229 61 C231 49 250 39 264 41 C277 44 288 57 294 69 C301 91 309 113 315 135 C324 166 336 197 346 229 C361 277 377 325 390 378 C395 401 407 424 414 447 C434 450 456 450 475 451 C500 454 523 451 547 450 C567 449 580 449 592 467 L592 467 Z " />
<glyph glyph-name="Tcaron" unicode="&#x164;" horiz-adv-x="506" d="M586 503 C572 476 543 463 514 463 C502 463 488 464 475 464 C440 462 407 460 375 460 C368 449 364 438 362 429 C353 400 325 318 315 290 C305 259 295 207 286 176 C277 145 275 118 270 88 C265 62 258 26 232 4 C223 -4 204 -14 194 -14 C181 -13 172 -4 170 8 C167 21 170 35 171 49 C174 67 175 83 180 101 C188 133 220 239 229 272 C247 346 258 399 276 449 C252 447 228 442 205 442 C192 442 177 440 165 440 C150 440 136 442 128 453 C120 462 119 477 123 491 C128 506 136 519 151 524 C164 529 178 529 191 529 C206 530 219 530 233 531 C313 539 389 546 465 551 C496 555 527 561 553 553 C573 550 598 528 586 503 L586 503 Z M256 663 C268 631 321 581 347 581 C403 581 508 683 521 696 C526 700 527 703 528 706 C531 714 521 725 507 725 C469 725 431 683 406 667 C390 657 375 646 360 637 C329 662 313 723 279 723 C263 723 257 712 254 701 C249 685 248 676 256 663 L256 663 Z " />
<glyph glyph-name="tcaron" unicode="&#x165;" horiz-adv-x="532" d="M296 643 C307 611 361 561 387 561 C443 561 547 663 561 676 C565 680 567 683 568 686 C570 694 560 705 546 705 C508 705 470 663 446 647 C430 637 415 626 399 617 C368 642 353 703 319 703 C303 703 297 692 293 681 C289 665 287 656 296 643 L296 643 Z M584 467 C572 449 559 449 539 450 C516 451 492 454 468 451 C448 450 426 450 406 447 C399 424 387 401 382 378 C375 347 367 317 357 286 C344 248 333 209 322 172 C311 140 299 109 291 78 C284 56 277 34 270 12 C264 0 252 -13 240 -16 C226 -18 207 -8 204 4 C200 25 198 21 202 43 C206 66 212 93 220 120 C235 172 254 226 268 268 C277 301 286 336 295 371 C300 389 303 416 310 437 C293 437 284 436 266 436 C244 436 221 436 198 429 C179 424 156 423 139 432 C128 437 119 451 117 463 C110 536 306 528 342 533 C382 537 413 539 452 538 C473 538 499 542 524 542 C551 542 576 537 592 519 C603 507 595 482 584 467 L584 467 Z " />
<glyph glyph-name="Umacron" unicode="&#x16a;" horiz-adv-x="579" d="M86 241 C77 193 47 80 68 41 C89 1 99 -8 149 -19 C190 -31 297 -6 343 10 C389 27 454 39 479 94 C498 142 523 193 537 242 C553 296 580 349 600 405 C608 429 619 453 629 477 C643 506 653 524 638 548 C628 564 600 573 580 555 C563 541 547 511 537 491 C513 440 495 381 479 326 C462 273 442 217 422 167 C410 136 368 114 339 106 C309 98 282 94 253 91 C193 81 163 128 167 176 C170 212 180 253 191 292 C196 308 201 325 206 339 C218 374 235 412 246 450 C250 464 254 478 255 493 C257 512 240 535 221 541 C194 551 175 517 167 497 C150 455 138 414 124 372 C115 343 105 312 97 282 C92 268 89 255 86 241 L86 241 Z M284 583 C316 581 447 591 479 594 C511 595 545 593 578 602 C602 610 634 629 632 656 C630 673 619 682 601 677 C557 669 413 662 370 659 C346 655 325 658 301 655 C286 653 275 653 265 637 C243 605 261 585 284 583 L284 583 Z " />
<glyph glyph-name="umacron" unicode="&#x16b;" horiz-adv-x="546" d="M202 304 C211 335 221 361 231 391 C244 428 271 504 227 516 C182 526 152 468 149 432 C147 412 143 396 137 374 C129 347 117 318 108 290 C96 251 83 213 72 175 C67 156 61 138 58 118 C48 70 74 19 112 -3 C125 -10 142 -13 162 -13 C193 -13 227 -6 256 -1 C309 8 379 27 417 75 C438 100 456 118 468 145 C488 178 501 216 516 251 C546 321 571 393 599 463 C606 486 611 507 600 524 C590 539 569 546 548 530 C525 513 514 491 508 468 C501 442 496 416 486 391 C465 331 445 270 414 212 C393 173 370 128 324 109 C297 97 270 96 245 91 C232 88 217 87 203 87 C188 87 173 88 166 94 C141 112 160 144 166 177 C169 194 177 217 182 234 C193 273 198 291 202 304 L202 304 Z M266 556 C298 554 429 564 461 567 C493 568 527 566 560 575 C584 583 616 602 614 629 C612 646 601 655 583 650 C539 642 395 635 352 632 C328 628 307 631 283 628 C268 626 257 626 247 610 C225 578 243 558 266 556 L266 556 Z " />
<glyph glyph-name="Uring" unicode="&#x16e;" horiz-adv-x="579" d="M86 241 C77 193 47 80 68 41 C89 1 99 -8 149 -19 C190 -31 297 -6 343 10 C389 27 454 39 479 94 C498 142 523 193 537 242 C553 296 580 349 600 405 C608 429 619 453 629 477 C643 506 653 524 638 548 C628 564 600 573 580 555 C563 541 547 511 537 491 C513 440 495 381 479 326 C462 273 442 217 422 167 C410 136 368 114 339 106 C309 98 282 94 253 91 C193 81 163 128 167 176 C170 212 180 253 191 292 C196 308 201 325 206 339 C218 374 235 412 246 450 C250 464 254 478 255 493 C257 512 240 535 221 541 C194 551 175 517 167 497 C150 455 138 414 124 372 C115 343 105 312 97 282 C92 268 89 255 86 241 L86 241 Z M526 671 C518 688 498 692 482 699 C476 700 468 701 461 701 C416 700 354 671 320 631 C296 602 303 567 313 543 C325 518 347 506 377 502 C413 497 445 516 475 541 C502 562 521 589 529 615 C534 634 533 653 526 671 L526 671 Z M451 596 C434 564 400 551 379 572 C369 581 368 595 381 609 C392 621 414 631 430 634 C433 635 468 642 466 634 C462 621 459 608 451 596 L451 596 Z " />
<glyph glyph-name="uring" unicode="&#x16f;" horiz-adv-x="546" d="M202 304 C211 335 221 361 231 391 C244 428 271 504 227 516 C182 526 152 468 149 432 C147 412 143 396 137 374 C129 347 117 318 108 290 C96 251 83 213 72 175 C67 156 61 138 58 118 C48 70 74 19 112 -3 C125 -10 142 -13 162 -13 C193 -13 227 -6 256 -1 C309 8 379 27 417 75 C438 100 456 118 468 145 C488 178 501 216 516 251 C546 321 571 393 599 463 C606 486 611 507 600 524 C590 539 569 546 548 530 C525 513 514 491 508 468 C501 442 496 416 486 391 C465 331 445 270 414 212 C393 173 370 128 324 109 C297 97 270 96 245 91 C232 88 217 87 203 87 C188 87 173 88 166 94 C141 112 160 144 166 177 C169 194 177 217 182 234 C193 273 198 291 202 304 L202 304 Z M533 668 C525 685 505 689 489 696 C483 697 475 698 468 698 C423 697 361 668 327 628 C303 599 310 564 320 540 C332 515 354 503 384 499 C420 494 452 513 482 538 C509 559 528 586 536 612 C541 631 540 650 533 668 L533 668 Z M458 593 C441 561 407 548 386 569 C376 578 375 592 388 606 C399 618 421 628 437 631 C440 632 475 639 473 631 C469 618 466 605 458 593 L458 593 Z " />
<glyph glyph-name="Uhungarumlaut" unicode="&#x170;" horiz-adv-x="579" d="M86 241 C77 193 47 80 68 41 C89 1 99 -8 149 -19 C190 -31 297 -6 343 10 C389 27 454 39 479 94 C498 142 523 193 537 242 C553 296 580 349 600 405 C608 429 619 453 629 477 C643 506 653 524 638 548 C628 564 600 573 580 555 C563 541 547 511 537 491 C513 440 495 381 479 326 C462 273 442 217 422 167 C410 136 368 114 339 106 C309 98 282 94 253 91 C193 81 163 128 167 176 C170 212 180 253 191 292 C196 308 201 325 206 339 C218 374 235 412 246 450 C250 464 254 478 255 493 C257 512 240 535 221 541 C194 551 175 517 167 497 C150 455 138 414 124 372 C115 343 105 312 97 282 C92 268 89 255 86 241 L86 241 Z M339 589 C326 573 316 553 312 536 C310 525 315 520 325 521 C337 521 356 537 366 544 C401 573 449 629 473 667 C481 678 490 694 494 708 C496 719 488 723 482 725 C462 729 440 707 426 690 C406 663 360 617 339 589 L339 589 Z M459 584 C447 568 435 548 432 531 C430 520 435 516 445 516 C457 516 477 532 486 540 C522 568 569 625 594 662 C601 673 611 689 614 703 C617 714 609 719 602 720 C583 724 561 703 547 686 C526 658 480 612 459 584 L459 584 Z " />
<glyph glyph-name="uhungarumlaut" unicode="&#x171;" horiz-adv-x="546" d="M202 304 C211 335 221 361 231 391 C244 428 271 504 227 516 C182 526 152 468 149 432 C147 412 143 396 137 374 C129 347 117 318 108 290 C96 251 83 213 72 175 C67 156 61 138 58 118 C48 70 74 19 112 -3 C125 -10 142 -13 162 -13 C193 -13 227 -6 256 -1 C309 8 379 27 417 75 C438 100 456 118 468 145 C488 178 501 216 516 251 C546 321 571 393 599 463 C606 486 611 507 600 524 C590 539 569 546 548 530 C525 513 514 491 508 468 C501 442 496 416 486 391 C465 331 445 270 414 212 C393 173 370 128 324 109 C297 97 270 96 245 91 C232 88 217 87 203 87 C188 87 173 88 166 94 C141 112 160 144 166 177 C169 194 177 217 182 234 C193 273 198 291 202 304 L202 304 Z M326 588 C313 572 303 552 299 535 C297 524 302 519 312 520 C324 520 343 536 353 543 C388 572 436 628 460 666 C468 677 477 693 481 707 C483 718 475 722 469 724 C449 728 427 706 413 689 C393 662 347 616 326 588 L326 588 Z M446 583 C434 567 422 547 419 530 C417 519 422 515 432 515 C444 515 464 531 473 539 C509 567 556 624 581 661 C588 672 598 688 601 702 C604 713 596 718 589 719 C570 723 548 702 534 685 C513 657 467 611 446 583 L446 583 Z " />
<glyph glyph-name="Ydieresis" unicode="&#x178;" horiz-adv-x="539" d="M638 537 C646 562 624 565 601 564 C565 560 544 528 520 502 C491 471 459 430 431 397 C404 363 399 356 372 322 C365 328 359 336 353 342 C331 366 302 390 288 419 C266 456 230 496 195 522 C179 532 166 539 146 526 C128 513 120 495 119 474 C119 442 132 424 152 404 C178 380 194 358 217 333 C238 313 255 288 275 266 C285 256 292 247 306 234 C296 222 267 182 259 171 C232 140 207 108 178 72 C165 57 152 41 145 23 C136 0 142 -9 160 -17 C196 -34 227 13 257 41 C293 76 320 116 352 154 C373 181 394 207 415 234 C436 262 454 291 475 319 C517 376 567 429 609 484 C623 500 633 519 638 537 L638 537 Z M525 624 C517 629 507 625 495 623 C448 602 435 603 426 572 C419 549 427 534 450 534 C462 534 467 540 477 546 C484 552 525 566 535 601 C538 611 532 622 525 624 L525 624 Z M373 604 C367 610 360 618 349 618 C294 618 270 578 272 581 C270 576 269 572 267 566 C261 545 279 534 297 534 C322 539 372 576 377 593 C378 597 377 603 373 604 L373 604 Z " />
<glyph glyph-name="Zacute" unicode="&#x179;" horiz-adv-x="519" d="M279 531 C299 534 320 535 341 538 C379 543 417 544 455 544 C469 544 483 546 496 546 C521 546 543 541 548 513 C555 478 513 431 483 402 C433 353 380 304 326 256 C274 207 207 150 159 98 C206 102 240 100 281 106 C312 110 341 111 373 115 C394 118 412 124 434 131 C455 136 471 134 475 118 C497 21 259 16 216 12 C184 8 152 8 120 6 C95 5 60 -8 40 0 C12 9 6 39 14 67 C19 84 29 102 46 115 C116 173 189 231 257 292 C284 314 306 340 332 362 C352 380 371 398 389 418 C401 429 413 442 427 453 C396 455 364 451 334 447 C298 442 266 440 230 429 C208 422 188 410 170 422 C159 429 147 450 153 467 C178 528 230 526 279 531 L279 531 Z M331 633 C312 625 292 614 278 600 C270 591 269 583 276 577 C282 569 304 572 316 573 C356 577 423 600 463 620 C476 626 492 635 503 646 C513 655 512 664 508 670 C500 686 472 680 452 673 C421 660 362 646 331 633 L331 633 Z " />
<glyph glyph-name="zacute" unicode="&#x17a;" horiz-adv-x="490" d="M368 537 C404 538 442 542 476 542 C513 542 553 520 537 478 C519 433 485 388 449 350 C421 323 398 295 369 268 C343 243 319 220 291 197 C251 164 213 124 177 88 C224 85 310 92 359 94 C377 94 397 101 414 98 C427 96 444 84 443 69 C444 56 423 35 411 26 C394 12 376 10 357 6 C297 -6 204 -6 145 -9 C123 -10 100 -12 78 -13 C44 -15 7 -4 31 43 C43 70 69 92 92 112 C125 142 154 177 188 207 C223 238 256 270 292 301 C340 342 386 394 423 444 C391 440 362 447 332 445 C318 445 305 445 292 445 C250 445 220 437 192 437 C174 437 159 441 158 454 C155 473 171 495 188 511 C210 529 240 534 263 533 C298 533 334 535 368 537 L368 537 Z M349 628 C330 620 310 609 296 595 C288 586 287 578 294 572 C300 564 322 567 334 568 C374 572 441 595 481 615 C494 621 510 630 521 641 C531 650 530 659 526 665 C518 681 490 675 470 668 C439 655 380 641 349 628 L349 628 Z " />
<glyph glyph-name="Zdotaccent" unicode="&#x17b;" horiz-adv-x="519" d="M279 531 C299 534 320 535 341 538 C379 543 417 544 455 544 C469 544 483 546 496 546 C521 546 543 541 548 513 C555 478 513 431 483 402 C433 353 380 304 326 256 C274 207 207 150 159 98 C206 102 240 100 281 106 C312 110 341 111 373 115 C394 118 412 124 434 131 C455 136 471 134 475 118 C497 21 259 16 216 12 C184 8 152 8 120 6 C95 5 60 -8 40 0 C12 9 6 39 14 67 C19 84 29 102 46 115 C116 173 189 231 257 292 C284 314 306 340 332 362 C352 380 371 398 389 418 C401 429 413 442 427 453 C396 455 364 451 334 447 C298 442 266 440 230 429 C208 422 188 410 170 422 C159 429 147 450 153 467 C178 528 230 526 279 531 L279 531 Z M449 651 C443 657 436 665 425 665 C370 665 347 625 349 628 C346 623 345 619 344 613 C338 592 355 581 373 581 C399 586 448 623 453 640 C454 644 453 650 449 651 L449 651 Z " />
</font>
</svg>
